<?xml version="1.0" encoding="UTF-8"?>
<svg xmlns="http://www.w3.org/2000/svg" xmlns:xlink="http://www.w3.org/1999/xlink" viewBox="0 0 301 378">
  <defs>
    <style>
      .cls-1 {
        stroke: url(#linear-gradient-18);
      }

      .cls-1, .cls-2, .cls-3, .cls-4, .cls-5, .cls-6, .cls-7, .cls-8, .cls-9 {
        fill: none;
        stroke-miterlimit: 10;
      }

      .cls-1, .cls-8, .cls-9 {
        stroke-width: 2.24px;
      }

      .cls-10 {
        fill: url(#linear-gradient-2);
      }

      .cls-2 {
        stroke: url(#linear-gradient-13);
      }

      .cls-2, .cls-3, .cls-4, .cls-5, .cls-6, .cls-7 {
        stroke-width: 2px;
      }

      .cls-11 {
        opacity: .41;
      }

      .cls-11, .cls-12, .cls-13, .cls-14 {
        fill: #fff;
        mix-blend-mode: overlay;
      }

      .cls-12 {
        opacity: .18;
      }

      .cls-15 {
        fill: url(#linear-gradient-6);
      }

      .cls-16 {
        isolation: isolate;
      }

      .cls-17 {
        fill: url(#radial-gradient);
        mix-blend-mode: multiply;
      }

      .cls-18 {
        fill: url(#linear-gradient-10);
      }

      .cls-3 {
        stroke: url(#linear-gradient-14);
      }

      .cls-19 {
        fill: url(#linear-gradient-5);
      }

      .cls-4 {
        stroke: url(#linear-gradient-11);
      }

      .cls-5 {
        stroke: url(#linear-gradient-15);
      }

      .cls-6 {
        stroke: url(#linear-gradient-16);
      }

      .cls-20 {
        fill: url(#linear-gradient-7);
      }

      .cls-7 {
        stroke: url(#linear-gradient-12);
      }

      .cls-8 {
        stroke: url(#linear-gradient-19);
      }

      .cls-21 {
        fill: url(#linear-gradient-9);
      }

      .cls-9 {
        stroke: url(#linear-gradient-17);
      }

      .cls-22 {
        fill: url(#linear-gradient-3);
      }

      .cls-23 {
        fill: url(#linear-gradient);
      }

      .cls-13 {
        opacity: .35;
      }

      .cls-24 {
        fill: url(#linear-gradient-4);
      }

      .cls-14 {
        opacity: .61;
      }

      .cls-25 {
        fill: url(#linear-gradient-8);
      }
    </style>
    <radialGradient id="radial-gradient" cx="529.85" cy="87.38" fx="529.85" fy="87.38" r="639.73" gradientTransform="translate(-313.63 -75.12) scale(.61 .76)" gradientUnits="userSpaceOnUse">
      <stop offset="0" stop-color="#3e6694"/>
      <stop offset=".26" stop-color="#284a70"/>
      <stop offset=".57" stop-color="#132d4d"/>
      <stop offset=".82" stop-color="#051c37"/>
      <stop offset=".99" stop-color="#01162f"/>
    </radialGradient>
    <linearGradient id="linear-gradient" x1="70.87" y1="195.48" x2="95.03" y2="195.48" gradientUnits="userSpaceOnUse">
      <stop offset="0" stop-color="#38c3e9"/>
      <stop offset="1" stop-color="#0073df"/>
    </linearGradient>
    <linearGradient id="linear-gradient-2" x1="195.3" y1="215.44" x2="219.47" y2="215.44" xlink:href="#linear-gradient"/>
    <linearGradient id="linear-gradient-3" x1="23.23" y1="253.91" x2="116.52" y2="253.91" xlink:href="#linear-gradient"/>
    <linearGradient id="linear-gradient-4" x1="175.81" y1="156.1" x2="270.34" y2="156.1" xlink:href="#linear-gradient"/>
    <linearGradient id="linear-gradient-5" x1="97.71" y1="203.19" x2="193.94" y2="203.19" xlink:href="#linear-gradient"/>
    <linearGradient id="linear-gradient-6" x1="104.54" y1="203.19" x2="187.11" y2="203.19" xlink:href="#linear-gradient"/>
    <linearGradient id="linear-gradient-7" x1="116.18" y1="191.06" x2="161.3" y2="240.16" xlink:href="#linear-gradient"/>
    <linearGradient id="linear-gradient-8" x1="138.25" y1="170.77" x2="183.38" y2="219.88" xlink:href="#linear-gradient"/>
    <linearGradient id="linear-gradient-9" x1="130.51" y1="177.89" x2="175.64" y2="226.99" xlink:href="#linear-gradient"/>
    <linearGradient id="linear-gradient-10" x1="115.91" y1="191.31" x2="161.03" y2="240.41" xlink:href="#linear-gradient"/>
    <linearGradient id="linear-gradient-11" x1="59.84" y1="258.7" x2="82.25" y2="281.11" xlink:href="#linear-gradient"/>
    <linearGradient id="linear-gradient-12" x1="51.8" y1="237.49" x2="61.61" y2="247.3" xlink:href="#linear-gradient"/>
    <linearGradient id="linear-gradient-13" x1="61.22" y1="232.39" x2="81.22" y2="252.39" xlink:href="#linear-gradient"/>
    <linearGradient id="linear-gradient-14" x1="44.98" y1="236.11" x2="57.55" y2="248.67" xlink:href="#linear-gradient"/>
    <linearGradient id="linear-gradient-15" x1="81.09" y1="237.49" x2="90.91" y2="247.3" xlink:href="#linear-gradient"/>
    <linearGradient id="linear-gradient-16" x1="85.17" y1="236.11" x2="97.74" y2="248.67" gradientTransform="translate(182.92 484.78) rotate(-180)" xlink:href="#linear-gradient"/>
    <linearGradient id="linear-gradient-17" x1="203.96" y1="143.15" x2="243.26" y2="143.15" xlink:href="#linear-gradient"/>
    <linearGradient id="linear-gradient-18" x1="201.2" y1="137.61" x2="246.02" y2="137.61" xlink:href="#linear-gradient"/>
    <linearGradient id="linear-gradient-19" x1="238.23" y1="144.82" x2="208.99" y2="181.69" xlink:href="#linear-gradient"/>
  </defs>
  <g class="cls-16">
    <g id="Layer_1" data-name="Layer 1">
      <g>
        <rect class="cls-17" x=".7" y="-2.57" width="302.87" height="381.91"/>
        <path class="cls-13" d="m112.91,62.69h-18.45c-2.06,0-3.96,1.1-4.98,2.88l-9.22,15.98c-1.03,1.78-1.03,3.97,0,5.75l9.22,15.98c1.03,1.78,2.93,2.88,4.98,2.88h18.45c2.06,0,3.96-1.1,4.98-2.88l9.22-15.98c1.03-1.78,1.03-3.97,0-5.75l-9.22-15.98c-1.03-1.78-2.93-2.88-4.98-2.88Z"/>
        <path class="cls-14" d="m216.6,288.6h-13.27c-1.48,0-2.85.79-3.59,2.07l-6.64,11.5c-.74,1.28-.74,2.86,0,4.14l6.64,11.5c.74,1.28,2.11,2.07,3.59,2.07h13.27c1.48,0,2.85-.79,3.59-2.07l6.64-11.5c.74-1.28.74-2.86,0-4.14l-6.64-11.5c-.74-1.28-2.11-2.07-3.59-2.07Z"/>
        <path class="cls-14" d="m64.72,88.26h-9.23c-1.03,0-1.98.55-2.49,1.44l-4.62,8c-.51.89-.51,1.99,0,2.88l4.62,8c.51.89,1.47,1.44,2.49,1.44h9.23c1.03,0,1.98-.55,2.49-1.44l4.62-8c.51-.89.51-1.99,0-2.88l-4.62-8c-.51-.89-1.47-1.44-2.49-1.44Z"/>
        <path class="cls-12" d="m270.36,301.19h-26.67c-2.97,0-5.72,1.59-7.21,4.16l-13.34,23.1c-1.49,2.57-1.49,5.75,0,8.32l13.34,23.1c1.49,2.57,4.23,4.16,7.21,4.16h26.67c2.97,0,5.72-1.59,7.21-4.16l13.34-23.1c1.49-2.57,1.49-5.75,0-8.32l-13.34-23.1c-1.49-2.57-4.23-4.16-7.21-4.16Z"/>
        <path class="cls-11" d="m65.89,13.68h-29.08c-3.24,0-6.23,1.73-7.86,4.54l-14.54,25.18c-1.62,2.81-1.62,6.26,0,9.07l14.54,25.18c1.62,2.81,4.61,4.54,7.86,4.54h29.08c3.24,0,6.23-1.73,7.86-4.54l14.54-25.18c1.62-2.81,1.62-6.26,0-9.07l-14.54-25.18c-1.62-2.81-4.61-4.54-7.86-4.54Z"/>
        <path class="cls-23" d="m87.17,206.43h-8.45c-1.29,0-2.5-.7-3.15-1.82l-4.22-7.32c-.65-1.12-.65-2.51,0-3.64l4.22-7.32c.65-1.12,1.85-1.82,3.15-1.82h8.45c1.29,0,2.5.7,3.15,1.82l4.22,7.32c.65,1.12.65,2.51,0,3.64l-4.22,7.32c-.65,1.12-1.85,1.82-3.15,1.82Zm-8.45-19.9c-.58,0-1.12.31-1.42.82l-4.22,7.32c-.29.5-.29,1.13,0,1.64l4.22,7.32c.29.5.83.82,1.42.82h8.45c.58,0,1.12-.31,1.42-.82l4.22-7.32c.29-.5.29-1.13,0-1.64l-4.22-7.32c-.29-.5-.83-.82-1.42-.82h-8.45Z"/>
        <path class="cls-10" d="m211.61,226.39h-8.45c-1.29,0-2.5-.7-3.15-1.82l-4.22-7.32c-.65-1.12-.65-2.51,0-3.64l4.22-7.32c.65-1.12,1.85-1.82,3.15-1.82h8.45c1.29,0,2.5.7,3.15,1.82l4.22,7.32c.65,1.12.65,2.51,0,3.64l-4.22,7.32c-.65,1.12-1.85,1.82-3.15,1.82Zm-8.45-19.9c-.58,0-1.12.31-1.42.82l-4.22,7.32c-.29.5-.29,1.13,0,1.64l4.22,7.32c.29.5.83.82,1.42.82h8.45c.58,0,1.12-.31,1.42-.82l4.22-7.32c.29-.5.29-1.13,0-1.64l-4.22-7.32c-.29-.5-.83-.82-1.42-.82h-8.45Z"/>
        <path class="cls-22" d="m87.31,295.89h-34.88c-4.19,0-8.1-2.26-10.2-5.89l-17.44-30.21c-2.1-3.63-2.1-8.14,0-11.77l17.44-30.21c2.1-3.63,6-5.89,10.2-5.89h34.88c4.19,0,8.1,2.26,10.2,5.89l17.44,30.21c2.1,3.63,2.1,8.14,0,11.77l-17.44,30.21c-2.1,3.63-6,5.89-10.2,5.89Zm-34.88-82.18c-3.56,0-6.87,1.91-8.65,4.99l-17.44,30.21c-1.78,3.08-1.78,6.91,0,9.99l17.44,30.21c1.78,3.08,5.09,4.99,8.65,4.99h34.88c3.56,0,6.87-1.91,8.65-4.99l17.44-30.21c1.78-3.08,1.78-6.91,0-9.99l-17.44-30.21c-1.78-3.08-5.09-4.99-8.65-4.99h-34.88Z"/>
        <path class="cls-24" d="m240.8,198.62h-35.45c-4.21,0-8.13-2.26-10.24-5.91l-17.72-30.7c-2.1-3.65-2.1-8.17,0-11.82l17.72-30.7c2.1-3.65,6.03-5.91,10.24-5.91h35.45c4.21,0,8.13,2.26,10.24,5.91l17.72,30.7c2.1,3.65,2.1,8.18,0,11.82l-17.72,30.7c-2.1,3.65-6.03,5.91-10.24,5.91Zm-35.45-83.51c-3.67,0-7.08,1.97-8.92,5.15l-17.72,30.7c-1.83,3.18-1.83,7.12,0,10.3l17.72,30.7c1.83,3.18,5.25,5.15,8.92,5.15h35.45c3.67,0,7.08-1.97,8.92-5.15l17.72-30.7c1.83-3.18,1.83-7.12,0-10.3l-17.72-30.7c-1.83-3.18-5.25-5.15-8.92-5.15h-35.45Z"/>
        <g>
          <path class="cls-19" d="m163.88,246.47h-36.11c-4.28,0-8.26-2.3-10.4-6l-18.05-31.27c-2.14-3.7-2.14-8.3,0-12.01l18.05-31.27c2.14-3.7,6.12-6,10.4-6h36.11c4.28,0,8.26,2.3,10.4,6l18.05,31.27c2.14,3.7,2.14,8.31,0,12.01l-18.05,31.27c-2.14,3.7-6.12,6-10.4,6Zm-36.11-85.07c-3.75,0-7.24,2.02-9.11,5.26l-18.05,31.27c-1.87,3.24-1.87,7.28,0,10.52l18.05,31.27c1.87,3.24,5.36,5.26,9.11,5.26h36.11c3.75,0,7.24-2.02,9.11-5.26l18.05-31.27c1.87-3.24,1.87-7.28,0-10.52l-18.05-31.27c-1.87-3.24-5.36-5.26-9.11-5.26h-36.11Z"/>
          <path class="cls-15" d="m161.28,240.35h-30.91c-3.7,0-7.14-1.99-8.99-5.19l-15.45-26.77c-1.85-3.2-1.85-7.18,0-10.39l15.45-26.77c1.85-3.2,5.3-5.19,8.99-5.19h30.91c3.7,0,7.14,1.99,8.99,5.19l15.45,26.77c1.85,3.2,1.85,7.18,0,10.39l-15.45,26.77c-1.85,3.2-5.3,5.19-8.99,5.19Zm-30.91-72.81c-3.17,0-6.12,1.7-7.7,4.45l-15.45,26.77c-1.58,2.74-1.58,6.15,0,8.9l15.45,26.77c1.58,2.74,4.54,4.45,7.7,4.45h30.91c3.17,0,6.12-1.7,7.71-4.45l15.45-26.77c1.58-2.74,1.58-6.15,0-8.9l-15.45-26.77c-1.58-2.74-4.54-4.45-7.71-4.45h-30.91Z"/>
        </g>
      </g>
      <g>
        <path class="cls-20" d="m137.69,200.54h-22.44c0,6.2,5.02,8.85,11.22,8.85s11.22-2.65,11.22-8.85Z"/>
        <path class="cls-25" d="m167.18,209.38c6.2,0,11.22-2.65,11.22-8.85h-22.44c0,6.2,5.02,8.85,11.22,8.85Z"/>
        <path class="cls-21" d="m178.95,197.2h-1.55l-8.39-13.66c.26-.38.41-.84.41-1.33,0-1.31-1.06-2.37-2.37-2.37-.97,0-1.8.58-2.17,1.42h-36.38c-.37-.83-1.2-1.42-2.17-1.42-1.31,0-2.37,1.06-2.37,2.37,0,.49.15.95.41,1.33l-8.39,13.66h-1.54c-.48,0-.87.39-.87.87s.39.87.87.87h23.79c.48,0,.87-.39.87-.87s-.39-.87-.87-.87h-1.55l-8.39-13.66c.06-.09.11-.18.15-.28h17.41v34.47h-10.97v2.93h24.39v-2.93h-11.42v-34.47h17.08c.05.1.09.19.15.28l-8.39,13.66h-1.54c-.48,0-.87.39-.87.87s.39.87.87.87h23.79c.48,0,.87-.39.87-.87s-.39-.87-.87-.87Zm-60.6,0l7.76-12.64c.08,0,.16.02.24.02s.16-.02.24-.02l7.76,12.64h-16Zm48.47-12.64c.08,0,.16.02.24.02s.16-.02.24-.02l7.76,12.64h-16l7.76-12.64Z"/>
        <rect class="cls-18" x="131.62" y="222.57" width="30.94" height="5.33"/>
      </g>
      <g>
        <path class="cls-4" d="m69.31,251.23v37.38c0,.74.6,1.34,1.34,1.34h.79c.74,0,1.34-.6,1.34-1.34v-37.38h-3.47Z"/>
        <path class="cls-7" d="m56.7,250.38h0c-.55,0-.99-.44-.99-.99v-14c0-.55.44-.99.99-.99h0c.55,0,.99.44.99.99v14c0,.55-.44.99-.99.99Z"/>
        <rect class="cls-2" x="59.35" y="234.4" width="23.75" height="15.97" rx="2.18" ry="2.18"/>
        <rect class="cls-3" x="48.67" y="232.81" width="5.18" height="19.16" rx="1.73" ry="1.73"/>
        <path class="cls-5" d="m86,234.4h0c.55,0,.99.44.99.99v14c0,.55-.44.99-.99.99h0c-.55,0-.99-.44-.99-.99v-14c0-.55.44-.99.99-.99Z"/>
        <rect class="cls-6" x="88.87" y="232.81" width="5.18" height="19.16" rx="1.73" ry="1.73" transform="translate(182.92 484.78) rotate(180)"/>
      </g>
      <g>
        <path class="cls-9" d="m240.74,144.56h-34.26c-.77,0-1.4-.63-1.4-1.4h0c0-.77.63-1.4,1.4-1.4h34.26c.77,0,1.4.63,1.4,1.4h0c0,.77-.63,1.4-1.4,1.4Z"/>
        <rect class="cls-1" x="202.32" y="136.2" width="42.58" height="2.81" rx="1.4" ry="1.4"/>
        <path class="cls-8" d="m207.98,147.63v31.26h5.4v-19.38c0-1.59,1.29-2.89,2.88-2.89.8,0,1.52.33,2.04.85.52.52.84,1.24.84,2.04v19.38h8.93v-19.38c0-1.59,1.29-2.89,2.88-2.89.8,0,1.52.33,2.04.85.52.52.84,1.24.84,2.04v19.38h5.4v-31.26h-31.26Z"/>
      </g>
    </g>
  </g>
</svg>