<?xml version="1.0" encoding="UTF-8"?>
<svg xmlns="http://www.w3.org/2000/svg" xmlns:xlink="http://www.w3.org/1999/xlink" viewBox="0 0 301 378">
  <defs>
    <style>
      .cls-1 {
        fill: url(#linear-gradient-2);
      }

      .cls-1, .cls-2, .cls-3, .cls-4, .cls-5 {
        opacity: .2;
      }

      .cls-6 {
        fill: url(#linear-gradient-17);
      }

      .cls-7 {
        fill: url(#linear-gradient-15);
      }

      .cls-8 {
        fill: url(#linear-gradient-18);
      }

      .cls-9 {
        stroke: url(#linear-gradient-7);
      }

      .cls-9, .cls-10, .cls-11, .cls-12, .cls-13, .cls-14 {
        fill: none;
        stroke-miterlimit: 10;
      }

      .cls-9, .cls-11, .cls-14 {
        stroke-width: .75px;
      }

      .cls-15 {
        fill: url(#linear-gradient-28);
      }

      .cls-16 {
        fill: url(#linear-gradient-20);
      }

      .cls-17 {
        isolation: isolate;
      }

      .cls-18 {
        fill: url(#linear-gradient-11);
      }

      .cls-2 {
        fill: url(#linear-gradient-5);
      }

      .cls-19 {
        fill: url(#radial-gradient);
        mix-blend-mode: multiply;
      }

      .cls-3 {
        fill: url(#linear-gradient);
      }

      .cls-20 {
        fill: url(#linear-gradient-10);
      }

      .cls-4 {
        fill: url(#linear-gradient-3);
      }

      .cls-21 {
        fill: url(#linear-gradient-16);
      }

      .cls-5 {
        fill: url(#linear-gradient-4);
      }

      .cls-22 {
        fill: url(#linear-gradient-21);
      }

      .cls-10 {
        stroke: url(#linear-gradient-32);
      }

      .cls-23 {
        fill: url(#linear-gradient-25);
      }

      .cls-11 {
        stroke: url(#linear-gradient-6);
      }

      .cls-12 {
        stroke: url(#linear-gradient-33);
      }

      .cls-13 {
        stroke: url(#linear-gradient-31);
      }

      .cls-14 {
        stroke: url(#linear-gradient-14);
      }

      .cls-24 {
        fill: url(#linear-gradient-24);
      }

      .cls-25 {
        fill: url(#linear-gradient-9);
      }

      .cls-26 {
        fill: url(#linear-gradient-22);
      }

      .cls-27 {
        fill: url(#linear-gradient-27);
      }

      .cls-28 {
        fill: url(#linear-gradient-29);
      }

      .cls-29 {
        fill: url(#linear-gradient-30);
      }

      .cls-30 {
        fill: url(#linear-gradient-23);
      }

      .cls-31 {
        fill: url(#linear-gradient-19);
      }

      .cls-32 {
        fill: url(#linear-gradient-8);
      }

      .cls-33 {
        fill: url(#linear-gradient-12);
      }

      .cls-34 {
        fill: url(#linear-gradient-13);
      }

      .cls-35 {
        fill: url(#linear-gradient-26);
      }
    </style>
    <radialGradient id="radial-gradient" cx="-143.99" cy="211.6" fx="-143.99" fy="211.6" r="639.73" gradientTransform="translate(92.9 -169.39) scale(.61 .76)" gradientUnits="userSpaceOnUse">
      <stop offset="0" stop-color="#3e6694"/>
      <stop offset=".26" stop-color="#284a70"/>
      <stop offset=".57" stop-color="#132d4d"/>
      <stop offset=".82" stop-color="#051c37"/>
      <stop offset=".99" stop-color="#01162f"/>
    </radialGradient>
    <linearGradient id="linear-gradient" x1="100.58" y1="69.24" x2="136.47" y2="69.24" gradientUnits="userSpaceOnUse">
      <stop offset="0" stop-color="#38c3e9"/>
      <stop offset="1" stop-color="#a100ff"/>
    </linearGradient>
    <linearGradient id="linear-gradient-2" x1="201.42" y1="281.93" x2="228.88" y2="281.93" xlink:href="#linear-gradient"/>
    <linearGradient id="linear-gradient-3" x1="65.92" y1="88.79" x2="90.15" y2="88.79" xlink:href="#linear-gradient"/>
    <linearGradient id="linear-gradient-4" x1="223.64" y1="303.31" x2="278.45" y2="303.31" xlink:href="#linear-gradient"/>
    <linearGradient id="linear-gradient-5" x1="44.96" y1="44.39" x2="106.78" y2="44.39" xlink:href="#linear-gradient"/>
    <linearGradient id="linear-gradient-6" x1="68.86" y1="195.48" x2="93.78" y2="195.48" xlink:href="#linear-gradient"/>
    <linearGradient id="linear-gradient-7" x1="193.3" y1="215.44" x2="218.21" y2="215.44" xlink:href="#linear-gradient"/>
    <linearGradient id="linear-gradient-8" x1="21.6" y1="253.91" x2="114.89" y2="253.91" xlink:href="#linear-gradient"/>
    <linearGradient id="linear-gradient-9" x1="101.42" y1="294.61" x2="194.72" y2="294.61" xlink:href="#linear-gradient"/>
    <linearGradient id="linear-gradient-10" x1="97.51" y1="112.26" x2="190.8" y2="112.26" xlink:href="#linear-gradient"/>
    <linearGradient id="linear-gradient-11" x1="174.18" y1="156.1" x2="268.71" y2="156.1" xlink:href="#linear-gradient"/>
    <linearGradient id="linear-gradient-12" x1="96.08" y1="203.19" x2="192.31" y2="203.19" xlink:href="#linear-gradient"/>
    <linearGradient id="linear-gradient-13" x1="102.91" y1="203.19" x2="185.48" y2="203.19" xlink:href="#linear-gradient"/>
    <linearGradient id="linear-gradient-14" x1="192.29" y1="101.78" x2="210.87" y2="101.78" xlink:href="#linear-gradient"/>
    <linearGradient id="linear-gradient-15" x1="37.03" y1="248.72" x2="73.36" y2="285.06" xlink:href="#linear-gradient"/>
    <linearGradient id="linear-gradient-16" x1="46.28" y1="239.46" x2="82.62" y2="275.8" xlink:href="#linear-gradient"/>
    <linearGradient id="linear-gradient-17" x1="54.8" y1="230.95" x2="91.13" y2="267.28" xlink:href="#linear-gradient"/>
    <linearGradient id="linear-gradient-18" x1="54.22" y1="231.53" x2="90.55" y2="267.86" xlink:href="#linear-gradient"/>
    <linearGradient id="linear-gradient-19" x1="210.7" y1="135" x2="241.1" y2="165.39" xlink:href="#linear-gradient"/>
    <linearGradient id="linear-gradient-20" x1="207.63" y1="138.06" x2="238.03" y2="168.46" xlink:href="#linear-gradient"/>
    <linearGradient id="linear-gradient-21" x1="204.5" y1="141.19" x2="234.9" y2="171.59" xlink:href="#linear-gradient"/>
    <linearGradient id="linear-gradient-22" x1="201.49" y1="144.21" x2="231.88" y2="174.61" xlink:href="#linear-gradient"/>
    <linearGradient id="linear-gradient-23" x1="121.76" y1="205.3" x2="169.3" y2="205.3" xlink:href="#linear-gradient"/>
    <linearGradient id="linear-gradient-24" x1="133.38" y1="200.23" x2="157.8" y2="200.23" xlink:href="#linear-gradient"/>
    <linearGradient id="linear-gradient-25" x1="133.38" y1="200.23" x2="157.8" y2="200.23" xlink:href="#linear-gradient"/>
    <linearGradient id="linear-gradient-26" x1="111.79" y1="200.17" x2="180.23" y2="200.17" xlink:href="#linear-gradient"/>
    <linearGradient id="linear-gradient-27" x1="111.79" y1="200.17" x2="180.23" y2="200.17" xlink:href="#linear-gradient"/>
    <linearGradient id="linear-gradient-28" x1="143.23" y1="286.14" x2="170.59" y2="286.14" xlink:href="#linear-gradient"/>
    <linearGradient id="linear-gradient-29" x1="124.43" y1="297.74" x2="146.93" y2="297.74" xlink:href="#linear-gradient"/>
    <linearGradient id="linear-gradient-30" x1="143.3" y1="309.03" x2="161.57" y2="309.03" xlink:href="#linear-gradient"/>
    <linearGradient id="linear-gradient-31" x1="124.56" y1="100.3" x2="163.1" y2="100.3" xlink:href="#linear-gradient"/>
    <linearGradient id="linear-gradient-32" x1="149.75" y1="114.47" x2="171.41" y2="114.47" xlink:href="#linear-gradient"/>
    <linearGradient id="linear-gradient-33" x1="124.56" y1="124.99" x2="158.7" y2="124.99" xlink:href="#linear-gradient"/>
  </defs>
  <g class="cls-17">
    <g id="Layer_1" data-name="Layer 1">
      <rect class="cls-19" x="-.93" y="-1.96" width="302.87" height="381.91"/>
      <path class="cls-3" d="m125.36,53.12h-13.68c-1.52,0-2.93.81-3.7,2.13l-6.84,11.85c-.76,1.32-.76,2.95,0,4.27l6.84,11.85c.76,1.32,2.17,2.13,3.7,2.13h13.68c1.52,0,2.93-.81,3.7-2.13l6.84-11.85c.76-1.32.76-2.95,0-4.27l-6.84-11.85c-.76-1.32-2.17-2.13-3.7-2.13Z"/>
      <path class="cls-1" d="m220.38,269.6h-10.47c-1.17,0-2.24.62-2.83,1.63l-5.23,9.06c-.58,1.01-.58,2.25,0,3.26l5.23,9.06c.58,1.01,1.66,1.63,2.83,1.63h10.47c1.17,0,2.24-.62,2.83-1.63l5.23-9.06c.58-1.01.58-2.25,0-3.26l-5.23-9.06c-.58-1.01-1.66-1.63-2.83-1.63Z"/>
      <path class="cls-4" d="m82.65,77.91h-9.23c-1.03,0-1.98.55-2.49,1.44l-4.62,8c-.51.89-.51,1.99,0,2.88l4.62,8c.51.89,1.47,1.44,2.49,1.44h9.23c1.03,0,1.98-.55,2.49-1.44l4.62-8c.51-.89.51-1.99,0-2.88l-4.62-8c-.51-.89-1.47-1.44-2.49-1.44Z"/>
      <path class="cls-5" d="m261.49,278.71h-20.89c-2.33,0-4.48,1.24-5.64,3.26l-10.44,18.09c-1.16,2.02-1.16,4.5,0,6.52l10.44,18.09c1.16,2.02,3.32,3.26,5.64,3.26h20.89c2.33,0,4.48-1.24,5.64-3.26l10.44-18.09c1.16-2.02,1.16-4.5,0-6.52l-10.44-18.09c-1.16-2.02-3.32-3.26-5.64-3.26Z"/>
      <path class="cls-2" d="m87.65,16.63h-23.56c-2.63,0-5.05,1.4-6.36,3.67l-11.78,20.4c-1.31,2.27-1.31,5.08,0,7.35l11.78,20.4c1.31,2.27,3.74,3.67,6.36,3.67h23.56c2.63,0,5.05-1.4,6.36-3.67l11.78-20.4c1.31-2.27,1.31-5.08,0-7.35l-11.78-20.4c-1.31-2.27-3.74-3.67-6.36-3.67Z"/>
      <path class="cls-11" d="m85.54,206.43h-8.45c-1.29,0-2.5-.7-3.15-1.82l-4.22-7.32c-.65-1.12-.65-2.51,0-3.64l4.22-7.32c.65-1.12,1.85-1.82,3.15-1.82h8.45c1.29,0,2.5.7,3.15,1.82l4.22,7.32c.65,1.12.65,2.51,0,3.64l-4.22,7.32c-.65,1.12-1.85,1.82-3.15,1.82Zm-8.45-19.9c-.58,0-1.12.31-1.42.82l-4.22,7.32c-.29.5-.29,1.13,0,1.64l4.22,7.32c.29.5.83.82,1.42.82h8.45c.58,0,1.12-.31,1.42-.82l4.22-7.32c.29-.5.29-1.13,0-1.64l-4.22-7.32c-.29-.5-.83-.82-1.42-.82h-8.45Z"/>
      <path class="cls-9" d="m209.98,226.39h-8.45c-1.29,0-2.5-.7-3.15-1.82l-4.22-7.32c-.65-1.12-.65-2.51,0-3.64l4.22-7.32c.65-1.12,1.85-1.82,3.15-1.82h8.45c1.29,0,2.5.7,3.15,1.82l4.22,7.32c.65,1.12.65,2.51,0,3.64l-4.22,7.32c-.65,1.12-1.85,1.82-3.15,1.82Zm-8.45-19.9c-.58,0-1.12.31-1.42.82l-4.22,7.32c-.29.5-.29,1.13,0,1.64l4.22,7.32c.29.5.83.82,1.42.82h8.45c.58,0,1.12-.31,1.42-.82l4.22-7.32c.29-.5.29-1.13,0-1.64l-4.22-7.32c-.29-.5-.83-.82-1.42-.82h-8.45Z"/>
      <path class="cls-32" d="m85.68,295.89h-34.88c-4.19,0-8.1-2.26-10.2-5.89l-17.44-30.21c-2.1-3.63-2.1-8.14,0-11.77l17.44-30.21c2.1-3.63,6-5.89,10.2-5.89h34.88c4.19,0,8.1,2.26,10.2,5.89l17.44,30.21c2.1,3.63,2.1,8.14,0,11.77l-17.44,30.21c-2.1,3.63-6,5.89-10.2,5.89Zm-34.88-82.18c-3.56,0-6.87,1.91-8.65,4.99l-17.44,30.21c-1.78,3.08-1.78,6.91,0,9.99l17.44,30.21c1.78,3.08,5.09,4.99,8.65,4.99h34.88c3.56,0,6.87-1.91,8.65-4.99l17.44-30.21c1.78-3.08,1.78-6.91,0-9.99l-17.44-30.21c-1.78-3.08-5.09-4.99-8.65-4.99h-34.88Z"/>
      <path class="cls-25" d="m165.51,336.59h-34.88c-4.19,0-8.1-2.26-10.2-5.89l-17.44-30.21c-2.1-3.63-2.1-8.14,0-11.77l17.44-30.21c2.1-3.63,6-5.89,10.2-5.89h34.88c4.19,0,8.1,2.26,10.2,5.89l17.44,30.21c2.1,3.63,2.1,8.14,0,11.77l-17.44,30.21c-2.1,3.63-6,5.89-10.2,5.89Zm-34.88-82.18c-3.56,0-6.87,1.91-8.65,4.99l-17.44,30.21c-1.78,3.08-1.78,6.91,0,9.99l17.44,30.21c1.78,3.08,5.09,4.99,8.65,4.99h34.88c3.56,0,6.87-1.91,8.65-4.99l17.44-30.21c1.78-3.08,1.78-6.91,0-9.99l-17.44-30.21c-1.78-3.08-5.09-4.99-8.65-4.99h-34.88Z"/>
      <path class="cls-20" d="m161.6,154.24h-34.88c-4.19,0-8.1-2.26-10.2-5.89l-17.44-30.21c-2.1-3.63-2.1-8.14,0-11.77l17.44-30.21c2.1-3.63,6-5.89,10.2-5.89h34.88c4.19,0,8.1,2.26,10.2,5.89l17.44,30.21c2.1,3.63,2.1,8.14,0,11.77l-17.44,30.21c-2.1,3.63-6,5.89-10.2,5.89Zm-34.88-82.18c-3.56,0-6.87,1.91-8.65,4.99l-17.44,30.21c-1.78,3.08-1.78,6.91,0,9.99l17.44,30.21c1.78,3.08,5.09,4.99,8.65,4.99h34.88c3.56,0,6.87-1.91,8.65-4.99l17.44-30.21c1.78-3.08,1.78-6.91,0-9.99l-17.44-30.21c-1.78-3.08-5.09-4.99-8.65-4.99h-34.88Z"/>
      <path class="cls-18" d="m239.17,198.62h-35.45c-4.21,0-8.13-2.26-10.24-5.91l-17.72-30.7c-2.1-3.65-2.1-8.17,0-11.82l17.72-30.7c2.1-3.65,6.03-5.91,10.24-5.91h35.45c4.21,0,8.13,2.26,10.24,5.91l17.72,30.7c2.1,3.65,2.1,8.18,0,11.82l-17.72,30.7c-2.1,3.65-6.03,5.91-10.24,5.91Zm-35.45-83.51c-3.67,0-7.08,1.97-8.92,5.15l-17.72,30.7c-1.83,3.18-1.83,7.12,0,10.3l17.72,30.7c1.83,3.18,5.25,5.15,8.92,5.15h35.45c3.67,0,7.08-1.97,8.92-5.15l17.72-30.7c1.83-3.18,1.83-7.12,0-10.3l-17.72-30.7c-1.83-3.18-5.25-5.15-8.92-5.15h-35.45Z"/>
      <g>
        <path class="cls-33" d="m162.25,246.47h-36.11c-4.28,0-8.26-2.3-10.4-6l-18.05-31.27c-2.14-3.7-2.14-8.3,0-12.01l18.05-31.27c2.14-3.7,6.12-6,10.4-6h36.11c4.28,0,8.26,2.3,10.4,6l18.05,31.27c2.14,3.7,2.14,8.31,0,12.01l-18.05,31.27c-2.14,3.7-6.12,6-10.4,6Zm-36.11-85.07c-3.75,0-7.24,2.02-9.11,5.26l-18.05,31.27c-1.87,3.24-1.87,7.28,0,10.52l18.05,31.27c1.87,3.24,5.36,5.26,9.11,5.26h36.11c3.75,0,7.24-2.02,9.11-5.26l18.05-31.27c1.87-3.24,1.87-7.28,0-10.52l-18.05-31.27c-1.87-3.24-5.36-5.26-9.11-5.26h-36.11Z"/>
        <path class="cls-34" d="m159.65,240.35h-30.91c-3.7,0-7.14-1.99-8.99-5.19l-15.45-26.77c-1.85-3.2-1.85-7.18,0-10.39l15.45-26.77c1.85-3.2,5.3-5.19,8.99-5.19h30.91c3.7,0,7.14,1.99,8.99,5.19l15.45,26.77c1.85,3.2,1.85,7.18,0,10.39l-15.45,26.77c-1.85,3.2-5.3,5.19-8.99,5.19Zm-30.91-72.81c-3.17,0-6.12,1.7-7.7,4.45l-15.45,26.77c-1.58,2.74-1.58,6.15,0,8.9l15.45,26.77c1.58,2.74,4.54,4.45,7.7,4.45h30.91c3.17,0,6.12-1.7,7.71-4.45l15.45-26.77c1.58-2.74,1.58-6.15,0-8.9l-15.45-26.77c-1.58-2.74-4.54-4.45-7.71-4.45h-30.91Z"/>
      </g>
      <path class="cls-14" d="m204.69,109.86h-6.23c-.96,0-1.85-.51-2.32-1.34l-3.12-5.4c-.48-.83-.48-1.86,0-2.68l3.12-5.4c.48-.83,1.37-1.34,2.32-1.34h6.23c.96,0,1.85.51,2.32,1.34l3.12,5.4c.48.83.48,1.86,0,2.68l-3.12,5.4c-.48.83-1.37,1.34-2.32,1.34Zm-6.23-14.69c-.43,0-.83.23-1.04.6l-3.12,5.4c-.21.37-.21.83,0,1.21l3.12,5.4c.21.37.62.6,1.04.6h6.23c.43,0,.83-.23,1.05-.6l3.12-5.4c.21-.37.21-.83,0-1.21l-3.12-5.4c-.21-.37-.62-.6-1.05-.6h-6.23Z"/>
      <g>
        <path class="cls-7" d="m49.22,261.79v11.58h9.79v-15.11c-4.99,2.31-8.21,3.27-8.29,3.29-.48.14-.99.22-1.5.24Z"/>
        <path class="cls-21" d="m63.63,273.37h9.78v-23.33c-3.49,2.39-6.81,4.34-9.78,5.92v17.41Z"/>
        <path class="cls-6" d="m84.29,248.67c-2.18,0-4.1-1.1-5.24-2.77,0,0-.02.01-.03.02v27.45h9.79v-26.6c-1.15,1.18-2.75,1.9-4.52,1.9Z"/>
        <path class="cls-8" d="m83.54,242.33c0,.41.33.75.75.75s.75-.33.75-.75v-9.91c0-.41-.33-.75-.75-.75h-9.91c-.41,0-.75.33-.75.75s.33.75.75.75h8.36c-.25.25-.5.49-.75.74,0,0-.01.01-.02.02-.24.24-.48.47-.73.7-.01.01-.03.03-.04.04-.24.23-.47.45-.71.67-.02.02-.04.04-.06.05-.23.21-.46.43-.69.64-.03.02-.05.05-.08.07-.23.21-.45.41-.68.61-.03.03-.06.05-.09.08-.22.2-.45.4-.67.59-.03.03-.07.06-.1.09-.22.19-.44.38-.66.57-.04.03-.07.06-.11.09-.22.19-.44.37-.66.55-.04.03-.07.06-.11.09-.22.18-.43.36-.65.54-.04.03-.08.07-.12.1-.21.18-.43.35-.64.52-.04.03-.08.06-.12.1-.21.17-.43.34-.64.51-.04.03-.08.06-.12.1-.21.16-.42.33-.63.49-.04.03-.09.07-.13.1-.21.16-.42.32-.62.47-.04.03-.09.07-.13.1-.21.15-.41.31-.62.46-.05.03-.09.07-.14.1-.2.15-.41.3-.61.44-.05.03-.09.07-.14.1-.2.15-.4.29-.61.43-.05.03-.09.07-.14.1-.2.14-.4.28-.6.42-.05.03-.09.07-.14.1-.2.14-.39.27-.59.41-.05.03-.09.06-.14.1-.2.13-.39.26-.59.39-.05.03-.09.06-.14.09-.19.13-.39.25-.58.38-.05.03-.1.06-.14.09-.19.12-.38.25-.57.37-.05.03-.09.06-.14.09-.19.12-.38.24-.57.36-.05.03-.09.06-.14.09-.19.12-.38.23-.56.35-.05.03-.09.06-.14.08-.18.11-.37.23-.55.34-.05.03-.09.06-.14.09-.18.11-.36.22-.54.32-.05.03-.09.06-.14.08-.18.11-.36.21-.53.31-.05.03-.09.05-.14.08-.18.1-.35.2-.53.3-.04.03-.09.05-.13.08-.18.1-.35.2-.52.3-.04.02-.09.05-.13.07-.17.1-.34.19-.51.28-.04.02-.09.05-.13.07-.17.09-.33.18-.5.27-.04.02-.09.05-.13.07-.17.09-.33.18-.49.26-.04.02-.08.04-.12.07-.16.09-.33.17-.49.26-.04.02-.08.04-.12.06-.16.08-.32.17-.48.25-.04.02-.07.04-.11.06-.16.08-.32.16-.47.24-.04.02-.08.04-.12.06-.15.08-.31.15-.46.23-.04.02-.08.04-.11.06-.15.07-.3.15-.45.22-.04.02-.07.04-.11.05-.15.07-.29.14-.44.21-.04.02-.08.04-.11.05-.14.07-.28.13-.42.2-.03.02-.07.03-.1.05-.14.07-.28.13-.42.19-.03.02-.07.03-.1.05-.14.06-.27.12-.4.18-.03.02-.07.03-.1.05-.13.06-.26.12-.39.17-.04.02-.07.03-.11.05-.13.06-.25.11-.37.16-.03.01-.06.03-.09.04-.12.05-.25.11-.37.16-.03.01-.06.03-.09.04-.12.05-.24.1-.35.15-.03.01-.06.02-.09.04-.11.05-.23.09-.34.14-.03.01-.05.02-.08.03-.11.05-.22.09-.33.13-.03.01-.05.02-.08.03-.11.04-.21.09-.31.13-.02,0-.04.02-.07.03-.1.04-.2.08-.3.12-.03.01-.05.02-.08.03-.09.04-.19.07-.27.11-.03,0-.05.02-.07.03-.09.03-.18.07-.26.1-.02,0-.03.01-.05.02-.09.03-.18.07-.26.1-.02,0-.03.01-.05.02-.08.03-.16.06-.24.09-.02,0-.04.02-.06.02-.07.03-.14.05-.21.08-.02,0-.04.01-.05.02-.07.02-.14.05-.2.07-.01,0-.03,0-.04.01-.06.02-.13.05-.19.07-.01,0-.02,0-.04.01-.06.02-.12.04-.18.06,0,0-.02,0-.02,0-.06.02-.11.04-.16.05-.02,0-.04.01-.06.02-.04.01-.08.03-.11.04-.02,0-.03,0-.04.01-.03.01-.07.02-.1.03-.01,0-.03,0-.04.01-.03,0-.06.02-.08.03-.02,0-.04.01-.06.02-.01,0-.02,0-.03.01-.01,0-.02,0-.03,0-.02,0-.04.01-.05.02-.03,0-.05.02-.05.02-.4.12-.62.53-.51.93.09.33.39.54.72.54.07,0,.14,0,.21-.03,0,0,.02,0,.05-.01.02,0,.05-.02.09-.03.05-.02.12-.04.2-.06,0,0,0,0,.01,0,.04-.01.08-.02.12-.04,0,0,.02,0,.03,0,.04-.01.09-.03.14-.05,0,0,.01,0,.02,0,.05-.02.11-.04.17-.06,0,0,.01,0,.02,0,.06-.02.12-.04.19-.07,0,0,.01,0,.02,0,.07-.02.14-.05.21-.07,0,0,.02,0,.03,0,.07-.03.15-.05.23-.08,0,0,.02,0,.03-.01.08-.03.16-.06.24-.09.01,0,.02,0,.03-.01.09-.03.18-.07.27-.1,0,0,.01,0,.02,0,.09-.03.19-.07.28-.11.01,0,.02,0,.04-.01.1-.04.2-.07.3-.11.01,0,.02,0,.04-.01.1-.04.21-.08.32-.12.01,0,.02,0,.03-.01.11-.04.23-.09.35-.14,0,0,.02,0,.02,0,.12-.05.24-.1.37-.15,0,0,.02,0,.03-.01.12-.05.25-.1.38-.16,0,0,.02,0,.03-.01.13-.05.26-.11.4-.17.01,0,.02,0,.03-.01.14-.06.28-.12.42-.18,0,0,.02,0,.02-.01.14-.06.29-.12.44-.19,0,0,.01,0,.02,0,.15-.06.3-.13.45-.2,0,0,.02,0,.03-.01.15-.07.31-.14.47-.21,0,0,.02,0,.02-.01.16-.07.32-.14.48-.22,0,0,.02,0,.03-.01.17-.08.33-.15.5-.23,0,0,.01,0,.02,0,.17-.08.34-.16.52-.24,0,0,.02,0,.02-.01.17-.08.35-.17.53-.25,0,0,.01,0,.02,0,.18-.09.37-.18.55-.27,0,0,0,0,0,0,.19-.09.38-.19.57-.28,0,0,0,0,0,0,.19-.1.39-.19.59-.3,0,0,0,0,0,0,6.58-3.35,15.4-8.84,23.92-17.27v7.85Z"/>
      </g>
      <g>
        <rect class="cls-31" x="228.55" y="156.51" width="9.04" height="1.72"/>
        <rect class="cls-16" x="228.55" y="162.65" width="9.04" height="1.72"/>
        <rect class="cls-22" x="228.55" y="168.9" width="9.04" height="1.72"/>
        <path class="cls-26" d="m223.9,133.84h-23.05v45.5h23.05v-27.38h19.6v27.38h.76v-28.14h-20.37v-17.36Zm-13.26,36.8h-5.33v-5.33h5.33v5.33Zm0-8.73h-5.33v-5.33h5.33v5.33Zm0-8.73h-5.33v-5.33h5.33v5.33Zm0-8.73h-5.33v-5.33h5.33v5.33Zm8.8,26.18h-5.33v-5.33h5.33v5.33Zm0-8.73h-5.33v-5.33h5.33v5.33Zm0-8.73h-5.33v-5.33h5.33v5.33Zm0-8.73h-5.33v-5.33h5.33v5.33Z"/>
      </g>
      <path class="cls-30" d="m121.76,187.83v27.27c0,2.19,1.76,3.96,3.93,3.96h17.36v6.26h-15.36v1.42h36.87v-1.42h-15.36v-6.26h16.17c2.17,0,3.93-1.77,3.93-3.96v-27.27c0-2.19-1.76-3.96-3.93-3.96h-39.67c-2.17,0-3.93,1.77-3.93,3.96Zm24.36,29.88c-1,0-1.82-.82-1.82-1.83s.81-1.83,1.82-1.83,1.81.82,1.81,1.83-.81,1.83-1.81,1.83Zm-22.19-29.87h43.2v24.94h-43.2v-24.94Z"/>
      <g>
        <path class="cls-24" d="m157.16,199.52c-.35,0-.63.25-.7.58h-4.09v-1.76h2.19c.06.33.35.58.7.58.39,0,.71-.32.71-.71s-.32-.71-.71-.71c-.35,0-.63.25-.7.58h-2.19v-1.51h2.42l.81-.81c.11.08.25.12.4.12.39,0,.71-.32.71-.71s-.32-.71-.71-.71-.71.32-.71.71c0,.15.05.29.12.4l-.74.74h-2.31v-.51c0-.32-.12-.62-.35-.84l-1.24-1.24c-.22-.22-.52-.35-.84-.35h-.51v-2.62l.74-.74c.11.08.25.12.4.12.39,0,.71-.32.71-.71s-.32-.71-.71-.71-.71.32-.71.71c0,.15.05.29.12.4l-.81.81v2.73h-1.51v-1.74c.33-.06.58-.35.58-.7,0-.39-.32-.71-.71-.71s-.71.32-.71.71c0,.35.25.63.58.7v1.74h-1.76v-4.09c.33-.06.58-.35.58-.7,0-.39-.32-.71-.71-.71s-.71.32-.71.71c0,.35.25.63.58.7v4.09h-1.76v-2.19c.33-.06.58-.35.58-.7,0-.39-.32-.71-.71-.71s-.71.32-.71.71c0,.35.25.63.58.7v2.19h-1.51v-2.42l-.81-.81c.08-.11.12-.25.12-.4,0-.39-.32-.71-.71-.71s-.71.32-.71.71.32.71.71.71c.15,0,.29-.05.4-.12l.74.74v2.31h-.51c-.32,0-.62.12-.84.35l-1.24,1.24c-.22.22-.35.52-.35.84v.51h-2.62l-.74-.74c.08-.11.12-.25.12-.4,0-.39-.32-.71-.71-.71s-.71.32-.71.71.32.71.71.71c.15,0,.29-.05.4-.12l.81.81h2.73v1.51h-1.74c-.06-.33-.35-.58-.7-.58-.39,0-.71.32-.71.71s.32.71.71.71c.35,0,.63-.25.7-.58h1.74v1.76h-4.09c-.06-.33-.35-.58-.7-.58-.39,0-.71.32-.71.71s.32.71.71.71c.35,0,.63-.25.7-.58h4.09v1.76h-2.19c-.06-.33-.35-.58-.7-.58-.39,0-.71.32-.71.71s.32.71.71.71c.35,0,.63-.25.7-.58h2.19v1.51h-2.42l-.81.81c-.11-.08-.25-.12-.4-.12-.39,0-.71.32-.71.71s.32.71.71.71.71-.32.71-.71c0-.15-.05-.29-.12-.4l.74-.74h2.31v.51c0,.32.12.62.35.84l1.24,1.24c.22.22.52.35.84.35h.51v2.62l-.74.74c-.11-.08-.25-.12-.4-.12-.39,0-.71.32-.71.71s.32.71.71.71.71-.32.71-.71c0-.15-.05-.29-.12-.4l.81-.81v-2.73h1.51v1.74c-.33.06-.58.35-.58.7,0,.39.32.71.71.71s.71-.32.71-.71c0-.35-.25-.63-.58-.7v-1.74h1.76v4.09c-.33.06-.58.35-.58.7,0,.39.32.71.71.71s.71-.32.71-.71c0-.35-.25-.63-.58-.7v-4.09h1.76v2.19c-.33.06-.58.35-.58.7,0,.39.32.71.71.71s.71-.32.71-.71c0-.35-.25-.63-.58-.7v-2.19h1.51v2.42l.81.81c-.08.11-.12.25-.12.4,0,.39.32.71.71.71s.71-.32.71-.71-.32-.71-.71-.71c-.15,0-.29.05-.4.12l-.74-.74v-2.31h.51c.32,0,.62-.12.84-.35l1.24-1.24c.22-.22.35-.52.35-.84v-.51h2.62l.74.74c-.08.11-.12.25-.12.4,0,.39.32.71.71.71s.71-.32.71-.71-.32-.71-.71-.71c-.15,0-.29.05-.4.12l-.81-.81h-2.73v-1.51h1.74c.06.33.35.58.7.58.39,0,.71-.32.71-.71s-.32-.71-.71-.71c-.35,0-.63.25-.7.58h-1.74v-1.76h4.09c.06.33.35.58.7.58.39,0,.71-.32.71-.71s-.32-.71-.71-.71Zm-1.9-1.76c.25,0,.45.2.45.45s-.2.45-.45.45-.45-.2-.45-.45.2-.45.45-.45Zm.75-3.04c.25,0,.45.2.45.45s-.2.45-.45.45-.45-.2-.45-.45.2-.45.45-.45Zm-5.44-5.75c.25,0,.45.2.45.45s-.2.45-.45.45-.45-.2-.45-.45.2-.45.45-.45Zm-3.49,1.95c0-.25.2-.45.45-.45s.45.2.45.45-.2.45-.45.45-.45-.2-.45-.45Zm-2.02-2.36c0-.25.2-.45.45-.45s.45.2.45.45-.2.45-.45.45-.45-.2-.45-.45Zm-2.02,1.9c0-.25.2-.45.45-.45s.45.2.45.45-.2.45-.45.45-.45-.2-.45-.45Zm-2.59-.3c-.25,0-.45-.2-.45-.45s.2-.45.45-.45.45.2.45.45-.2.45-.45.45Zm-5.75,5.44c-.25,0-.45-.2-.45-.45s.2-.45.45-.45.45.2.45.45-.2.45-.45.45Zm1.51,3.04c-.25,0-.45-.2-.45-.45s.2-.45.45-.45.45.2.45.45-.2.45-.45.45Zm-2.36,2.02c-.25,0-.45-.2-.45-.45s.2-.45.45-.45.45.2.45.45-.2.45-.45.45Zm1.9,2.02c-.25,0-.45-.2-.45-.45s.2-.45.45-.45.45.2.45.45-.2.45-.45.45Zm-.75,3.04c-.25,0-.45-.2-.45-.45s.2-.45.45-.45.45.2.45.45-.2.45-.45.45Zm5.44,5.75c-.25,0-.45-.2-.45-.45s.2-.45.45-.45.45.2.45.45-.2.45-.45.45Zm3.49-1.95c0,.25-.2.45-.45.45s-.45-.2-.45-.45.2-.45.45-.45.45.2.45.45Zm2.02,2.36c0,.25-.2.45-.45.45s-.45-.2-.45-.45.2-.45.45-.45.45.2.45.45Zm2.02-1.9c0,.25-.2.45-.45.45s-.45-.2-.45-.45.2-.45.45-.45.45.2.45.45Zm2.59.3c.25,0,.45.2.45.45s-.2.45-.45.45-.45-.2-.45-.45.2-.45.45-.45Zm5.75-5.44c.25,0,.45.2.45.45s-.2.45-.45.45-.45-.2-.45-.45.2-.45.45-.45Zm-1.51-3.04c.25,0,.45.2.45.45s-.2.45-.45.45-.45-.2-.45-.45.2-.45.45-.45Zm-2.69,2.86c0,.25-.1.48-.27.66l-1.24,1.24c-.18.18-.41.27-.66.27h-8.86c-.25,0-.48-.1-.66-.27l-1.24-1.24c-.18-.18-.27-.41-.27-.66v-8.86c0-.25.1-.48.27-.66l1.24-1.24c.18-.18.41-.27.66-.27h8.86c.25,0,.48.1.66.27l1.24,1.24c.18.18.27.41.27.66v8.86Zm5.05-3.98c-.25,0-.45-.2-.45-.45s.2-.45.45-.45.45.2.45.45-.2.45-.45.45Z"/>
        <path class="cls-23" d="m150.22,194.26c-.08-.08-.18-.12-.29-.12h-8.86c-.11,0-.21.04-.29.12l-1.24,1.24c-.08.08-.12.18-.12.29v8.86c0,.11.04.21.12.29l1.24,1.24c.08.08.18.12.29.12h8.86c.11,0,.21-.04.29-.12l1.24-1.24c.08-.08.12-.18.12-.29v-8.86c0-.11-.04-.21-.12-.29l-1.24-1.24Zm1.11,10.39s-.02.08-.04.11l-1.24,1.24s-.07.04-.11.04h-8.86s-.08-.02-.11-.04l-1.24-1.24s-.04-.07-.04-.11v-8.86s.02-.08.04-.11l1.24-1.24s.07-.04.11-.04h8.86s.08.02.11.04l1.24,1.24s.04.07.04.11v8.86Z"/>
        <path class="cls-35" d="m143.01,196.37l-2.65,7.61h1.67l.57-1.85h2.69l.57,1.85h1.68l-2.65-7.61h-1.88Zm-.04,4.57l.96-3.09h.03l.96,3.09h-1.95Z"/>
        <rect class="cls-27" x="148.32" y="196.37" width="1.59" height="7.61"/>
      </g>
      <g>
        <path class="cls-15" d="m169.48,288.92c.63-.07,1.11-.61,1.11-1.24v-2.96c0-.63-.48-1.17-1.11-1.24l-1.82-.21c-.23-.91-.57-1.79-1.03-2.61l1.14-1.44c.4-.5.35-1.21-.09-1.66l-2.09-2.09c-.45-.45-1.16-.49-1.66-.09l-1.36,1.08c-.87-.52-1.81-.92-2.79-1.18l-.2-1.7c-.07-.63-.61-1.11-1.24-1.11h-2.96c-.63,0-1.17.47-1.24,1.11l-.2,1.7c-.96.26-1.87.64-2.72,1.14l-1.32-1.04c-.5-.4-1.21-.36-1.66.09l-2.08,2.09c-.45.45-.49,1.16-.09,1.66l1.07,1.35c-.45.81-.81,1.68-1.05,2.59l-1.74.2c-.63.07-1.11.61-1.11,1.24v2.95c0,.64.48,1.17,1.11,1.24l1.76.2c.25.92.62,1.79,1.09,2.61l-1.15,1.45c-.39.5-.35,1.21.1,1.66l2.09,2.09c.45.44,1.17.49,1.66.09l1.47-1.16c.84.47,1.73.83,2.66,1.08l.22,1.89c.07.63.61,1.11,1.24,1.11h2.96c.64,0,1.17-.48,1.24-1.11l.23-1.96c.87-.25,1.7-.6,2.48-1.05l1.52,1.2c.5.4,1.21.36,1.66-.09l2.09-2.09c.45-.45.49-1.16.09-1.66l-1.21-1.53c.43-.75.76-1.55,1.01-2.39l1.92-.22Zm-12.63-7.77c2.7,0,4.89,2.19,4.89,4.89s-2.19,4.89-4.89,4.89-4.89-2.19-4.89-4.89,2.19-4.89,4.89-4.89h0Zm0,0"/>
        <path class="cls-28" d="m127.62,289.87c-.48.41-.58,1.11-.22,1.63l.68,1.02c-.43.63-.78,1.32-1.04,2.04l-1.24.04c-.63.02-1.14.51-1.19,1.14l-.17,2.03c-.05.62.38,1.19.99,1.32l1.24.25c.14.76.38,1.5.71,2.21l-.91.96c-.43.46-.45,1.16-.04,1.64l1.32,1.56c.41.48,1.11.58,1.63.23l1.12-.74c.65.44,1.35.8,2.1,1.06l.04,1.37c.02.63.51,1.14,1.14,1.19l2.03.17c.62.05,1.19-.38,1.32-.99l.28-1.4c.72-.14,1.43-.37,2.1-.68l1.02.95c.46.43,1.17.45,1.65.05l1.56-1.32c.48-.41.58-1.11.23-1.63l-.78-1.17c.4-.59.73-1.22.99-1.88l1.39-.04c.63-.02,1.14-.51,1.19-1.13l.17-2.04c.05-.62-.38-1.19-.99-1.32l-1.29-.26c-.13-.76-.35-1.5-.67-2.2l.9-.96c.43-.45.45-1.16.04-1.64l-1.32-1.57c-.41-.48-1.1-.58-1.63-.23l-1.03.68c-.67-.49-1.41-.87-2.2-1.16l-.04-1.21c-.02-.63-.51-1.14-1.13-1.19l-2.04-.17c-.62-.05-1.19.38-1.31.99l-.24,1.19c-.8.14-1.57.39-2.3.74l-.86-.81c-.46-.43-1.17-.45-1.65-.04l-1.56,1.32h0Zm7.67,11.76c-2.2-.18-3.84-2.12-3.65-4.32.18-2.2,2.13-3.84,4.32-3.65,2.2.18,3.84,2.12,3.65,4.32-.18,2.2-2.12,3.84-4.32,3.65h0Zm0,0"/>
        <path class="cls-29" d="m159.57,307.03c-.16-.61-.4-1.19-.71-1.73l.53-.68c.39-.5.34-1.2-.12-1.64l-.9-.88c-.45-.44-1.15-.47-1.64-.08l-.62.51c-.58-.34-1.21-.6-1.87-.76l-.1-.77c-.08-.62-.61-1.09-1.24-1.08h-1.25c-.63.02-1.15.5-1.22,1.12l-.08.78c-.64.18-1.24.44-1.8.78l-.6-.46c-.5-.39-1.2-.34-1.64.11l-.88.9c-.44.45-.47,1.15-.07,1.64l.5.61c-.3.54-.52,1.13-.68,1.73l-.8.11c-.62.08-1.09.61-1.08,1.24v1.25c.02.63.5,1.15,1.12,1.22l.82.08c.17.61.43,1.19.75,1.73l-.53.69c-.39.5-.34,1.2.11,1.64l.9.88c.45.44,1.15.47,1.64.08l.7-.56c.56.31,1.16.54,1.78.69l.12.9c.08.62.61,1.09,1.24,1.08l1.25-.02c.63,0,1.15-.49,1.22-1.11l.1-.95c.58-.17,1.12-.41,1.64-.72l.74.57c.5.39,1.2.34,1.64-.11l.88-.9c.44-.45.47-1.15.07-1.64l-.6-.73c.28-.5.5-1.04.65-1.6l.92-.12c.62-.08,1.09-.61,1.08-1.24v-1.25c-.02-.63-.5-1.15-1.12-1.22l-.87-.09Zm-7.22-1.33c1.8-.02,3.28,1.42,3.3,3.22.02,1.8-1.42,3.28-3.22,3.3-1.8.02-3.28-1.42-3.3-3.22-.02-1.8,1.42-3.28,3.22-3.3h0Zm0,0"/>
      </g>
      <g>
        <path class="cls-13" d="m162.39,95.78c.14-.14.22-.34.21-.53-.01-.2-.11-.39-.26-.51-4.07-3.27-9.19-5.08-14.41-5.08-5.72,0-11.19,2.08-15.4,5.87-4.21,3.78-6.86,8.98-7.46,14.65-.02.2.04.4.18.55.13.15.32.23.52.23h21.16c.19,0,.37-.08.5-.21l14.96-14.97Zm-13.6,8.42l-6.64-10c.67-.21,1.36-.39,2.06-.52l6.07,9.03-1.49,1.49Zm-.86-10.88c.68,0,1.36.04,2.04.11l3.95,5.65-1.6,1.6-4.94-7.35c.18,0,.37,0,.55,0h0Zm6.09.98c.19.06.38.13.57.2.92.34,1.82.75,2.68,1.22l-1.32,1.32-1.92-2.75h0Zm-19.42,12.98l-3.2-4.65c.24-.4.5-.78.76-1.16l3.86,5.81h-1.43Zm-5.24,0c.17-.6.37-1.19.6-1.76l1.21,1.76h-1.82Zm10.05,0l-5.37-8.08c.28-.28.55-.56.83-.81.19-.17.38-.34.58-.51l6.25,9.4h-2.3Zm-1.67-11.06c.56-.34,1.14-.66,1.73-.95l7.29,10.97-1.05,1.05h-.61l-7.35-11.06Zm7.35,11.06"/>
        <path class="cls-10" d="m150.46,112.5c-.23.23-.27.59-.1.87l10.61,17.26c.11.17.28.29.47.32.04,0,.08.01.13.01.16,0,.31-.05.43-.15,5.66-4.39,8.91-11.02,8.91-18.18,0-5.23-1.8-10.35-5.08-14.41-.13-.16-.31-.25-.51-.26-.2-.01-.4.06-.54.21l-14.33,14.33h0Zm14.39-9.2c.48.86.88,1.76,1.22,2.68.78,2.13,1.18,4.37,1.18,6.66,0,3.08-.7,6.03-2.1,8.76-.78,1.53-1.77,2.96-2.94,4.24l-7.51-12.2,10.14-10.14Zm-10.14,10.14"/>
        <path class="cls-12" d="m125.77,114.34c-.2,0-.39.09-.52.24-.13.15-.2.35-.18.54.6,5.67,3.25,10.88,7.46,14.65,4.21,3.78,9.68,5.86,15.4,5.86,3.45,0,6.77-.75,9.87-2.22.18-.08.32-.25.37-.44.06-.19.03-.4-.07-.57l-10.91-17.73c-.13-.21-.36-.34-.6-.34h-20.81Zm0,0"/>
      </g>
    </g>
  </g>
</svg>