<?xml version="1.0" encoding="UTF-8"?>
<svg xmlns="http://www.w3.org/2000/svg" xmlns:xlink="http://www.w3.org/1999/xlink" viewBox="0 0 301 378">
  <defs>
    <style>
      .cls-1 {
        fill: url(#linear-gradient-2);
      }

      .cls-1, .cls-2, .cls-3, .cls-4, .cls-5 {
        opacity: .2;
      }

      .cls-6 {
        stroke: url(#linear-gradient-29);
      }

      .cls-6, .cls-7, .cls-8 {
        stroke-width: .75px;
      }

      .cls-6, .cls-7, .cls-8, .cls-9 {
        fill: none;
        stroke-miterlimit: 10;
      }

      .cls-10 {
        fill: url(#linear-gradient-17);
      }

      .cls-11 {
        fill: url(#linear-gradient-15);
      }

      .cls-12 {
        fill: url(#linear-gradient-18);
      }

      .cls-7 {
        stroke: url(#linear-gradient-8);
      }

      .cls-13 {
        fill: url(#linear-gradient-28);
      }

      .cls-14 {
        fill: url(#linear-gradient-14);
      }

      .cls-15 {
        fill: url(#linear-gradient-20);
      }

      .cls-16 {
        isolation: isolate;
      }

      .cls-17 {
        fill: url(#linear-gradient-24);
      }

      .cls-17, .cls-18 {
        fill-rule: evenodd;
      }

      .cls-19 {
        fill: url(#linear-gradient-11);
      }

      .cls-2 {
        fill: url(#linear-gradient-5);
      }

      .cls-20 {
        fill: url(#radial-gradient);
        mix-blend-mode: multiply;
      }

      .cls-3 {
        fill: url(#linear-gradient);
      }

      .cls-21 {
        fill: url(#linear-gradient-10);
      }

      .cls-4 {
        fill: url(#linear-gradient-3);
      }

      .cls-22 {
        fill: url(#linear-gradient-16);
      }

      .cls-18 {
        fill: url(#linear-gradient-23);
      }

      .cls-23 {
        fill: url(#linear-gradient-31);
      }

      .cls-5 {
        fill: url(#linear-gradient-4);
      }

      .cls-24 {
        fill: url(#linear-gradient-21);
      }

      .cls-25 {
        fill: url(#linear-gradient-25);
      }

      .cls-8 {
        stroke: url(#linear-gradient-6);
      }

      .cls-26 {
        fill: url(#linear-gradient-9);
      }

      .cls-27 {
        fill: url(#linear-gradient-22);
      }

      .cls-9 {
        stroke: url(#linear-gradient-7);
        stroke-width: .55px;
      }

      .cls-28 {
        fill: url(#linear-gradient-27);
      }

      .cls-29 {
        fill: url(#linear-gradient-30);
      }

      .cls-30 {
        fill: url(#linear-gradient-19);
      }

      .cls-31 {
        fill: url(#linear-gradient-12);
      }

      .cls-32 {
        fill: url(#linear-gradient-13);
      }

      .cls-33 {
        fill: url(#linear-gradient-26);
      }
    </style>
    <radialGradient id="radial-gradient" cx="72" cy="211.72" fx="72" fy="211.72" r="639.73" gradientTransform="translate(-37.93 -169.48) scale(.61 .76)" gradientUnits="userSpaceOnUse">
      <stop offset="0" stop-color="#3e6694"/>
      <stop offset=".26" stop-color="#284a70"/>
      <stop offset=".57" stop-color="#132d4d"/>
      <stop offset=".82" stop-color="#051c37"/>
      <stop offset=".99" stop-color="#01162f"/>
    </radialGradient>
    <linearGradient id="linear-gradient" x1="100.58" y1="69.24" x2="136.47" y2="69.24" gradientUnits="userSpaceOnUse">
      <stop offset="0" stop-color="#38c3e9"/>
      <stop offset="1" stop-color="#de6200"/>
    </linearGradient>
    <linearGradient id="linear-gradient-2" x1="201.42" y1="281.93" x2="228.88" y2="281.93" xlink:href="#linear-gradient"/>
    <linearGradient id="linear-gradient-3" x1="65.92" y1="88.79" x2="90.15" y2="88.79" xlink:href="#linear-gradient"/>
    <linearGradient id="linear-gradient-4" x1="223.64" y1="303.31" x2="278.45" y2="303.31" xlink:href="#linear-gradient"/>
    <linearGradient id="linear-gradient-5" x1="44.96" y1="44.39" x2="106.78" y2="44.39" xlink:href="#linear-gradient"/>
    <linearGradient id="linear-gradient-6" x1="68.86" y1="196.09" x2="93.78" y2="196.09" xlink:href="#linear-gradient"/>
    <linearGradient id="linear-gradient-7" x1="190.83" y1="100.95" x2="209.22" y2="100.95" xlink:href="#linear-gradient"/>
    <linearGradient id="linear-gradient-8" x1="193.3" y1="216.05" x2="218.21" y2="216.05" xlink:href="#linear-gradient"/>
    <linearGradient id="linear-gradient-9" x1="21.6" y1="254.52" x2="114.89" y2="254.52" xlink:href="#linear-gradient"/>
    <linearGradient id="linear-gradient-10" x1="100.64" y1="296" x2="193.93" y2="296" xlink:href="#linear-gradient"/>
    <linearGradient id="linear-gradient-11" x1="174.18" y1="156.71" x2="268.71" y2="156.71" xlink:href="#linear-gradient"/>
    <linearGradient id="linear-gradient-12" x1="94.36" y1="113.66" x2="188.88" y2="113.66" xlink:href="#linear-gradient"/>
    <linearGradient id="linear-gradient-13" x1="96.08" y1="203.8" x2="192.31" y2="203.8" xlink:href="#linear-gradient"/>
    <linearGradient id="linear-gradient-14" x1="102.91" y1="203.8" x2="185.48" y2="203.8" xlink:href="#linear-gradient"/>
    <linearGradient id="linear-gradient-15" x1="129" y1="179.11" x2="169.49" y2="219.6" xlink:href="#linear-gradient"/>
    <linearGradient id="linear-gradient-16" x1="122.37" y1="185.73" x2="162.87" y2="226.22" xlink:href="#linear-gradient"/>
    <linearGradient id="linear-gradient-17" x1="125.66" y1="182.44" x2="166.15" y2="222.94" xlink:href="#linear-gradient"/>
    <linearGradient id="linear-gradient-18" x1="116.85" y1="191.25" x2="157.35" y2="231.74" xlink:href="#linear-gradient"/>
    <linearGradient id="linear-gradient-19" x1="138.26" y1="169.84" x2="178.76" y2="210.33" xlink:href="#linear-gradient"/>
    <linearGradient id="linear-gradient-20" x1="133.92" y1="174.19" x2="174.41" y2="214.68" xlink:href="#linear-gradient"/>
    <linearGradient id="linear-gradient-21" x1="59.09" y1="238.5" x2="87.84" y2="267.24" xlink:href="#linear-gradient"/>
    <linearGradient id="linear-gradient-22" x1="229.16" y1="147.36" x2="234.02" y2="147.36" xlink:href="#linear-gradient"/>
    <linearGradient id="linear-gradient-23" x1="222.79" y1="154.49" x2="226.05" y2="154.49" xlink:href="#linear-gradient"/>
    <linearGradient id="linear-gradient-24" x1="207.16" y1="155.46" x2="242.2" y2="155.46" xlink:href="#linear-gradient"/>
    <linearGradient id="linear-gradient-25" x1="220.63" y1="147.16" x2="223.34" y2="147.16" xlink:href="#linear-gradient"/>
    <linearGradient id="linear-gradient-26" x1="135.81" y1="97.71" x2="169.35" y2="135.37" xlink:href="#linear-gradient"/>
    <linearGradient id="linear-gradient-27" x1="134.46" y1="98.92" x2="167.99" y2="136.58" xlink:href="#linear-gradient"/>
    <linearGradient id="linear-gradient-28" x1="124.29" y1="107.98" x2="157.82" y2="145.64" xlink:href="#linear-gradient"/>
    <linearGradient id="linear-gradient-29" x1="125.87" y1="296.61" x2="169.85" y2="296.61" xlink:href="#linear-gradient"/>
    <linearGradient id="linear-gradient-30" x1="140.03" y1="295.62" x2="145.54" y2="295.62" xlink:href="#linear-gradient"/>
    <linearGradient id="linear-gradient-31" x1="143.42" y1="299.09" x2="149.32" y2="299.09" xlink:href="#linear-gradient"/>
  </defs>
  <g class="cls-16">
    <g id="Layer_1" data-name="Layer 1">
      <g>
        <rect class="cls-20" x="-.93" y="-1.96" width="302.87" height="381.91"/>
        <path class="cls-3" d="m125.36,53.12h-13.68c-1.52,0-2.93.81-3.7,2.13l-6.84,11.85c-.76,1.32-.76,2.95,0,4.27l6.84,11.85c.76,1.32,2.17,2.13,3.7,2.13h13.68c1.52,0,2.93-.81,3.7-2.13l6.84-11.85c.76-1.32.76-2.95,0-4.27l-6.84-11.85c-.76-1.32-2.17-2.13-3.7-2.13Z"/>
        <path class="cls-1" d="m220.38,269.6h-10.47c-1.17,0-2.24.62-2.83,1.63l-5.23,9.06c-.58,1.01-.58,2.25,0,3.26l5.23,9.06c.58,1.01,1.66,1.63,2.83,1.63h10.47c1.17,0,2.24-.62,2.83-1.63l5.23-9.06c.58-1.01.58-2.25,0-3.26l-5.23-9.06c-.58-1.01-1.66-1.63-2.83-1.63Z"/>
        <path class="cls-4" d="m82.65,77.91h-9.23c-1.03,0-1.98.55-2.49,1.44l-4.62,8c-.51.89-.51,1.99,0,2.88l4.62,8c.51.89,1.47,1.44,2.49,1.44h9.23c1.03,0,1.98-.55,2.49-1.44l4.62-8c.51-.89.51-1.99,0-2.88l-4.62-8c-.51-.89-1.47-1.44-2.49-1.44Z"/>
        <path class="cls-5" d="m261.49,278.71h-20.89c-2.33,0-4.48,1.24-5.64,3.26l-10.44,18.09c-1.16,2.02-1.16,4.5,0,6.52l10.44,18.09c1.16,2.02,3.32,3.26,5.64,3.26h20.89c2.33,0,4.48-1.24,5.64-3.26l10.44-18.09c1.16-2.02,1.16-4.5,0-6.52l-10.44-18.09c-1.16-2.02-3.32-3.26-5.64-3.26Z"/>
        <path class="cls-2" d="m87.65,16.63h-23.56c-2.63,0-5.05,1.4-6.36,3.67l-11.78,20.4c-1.31,2.27-1.31,5.08,0,7.35l11.78,20.4c1.31,2.27,3.74,3.67,6.36,3.67h23.56c2.63,0,5.05-1.4,6.36-3.67l11.78-20.4c1.31-2.27,1.31-5.08,0-7.35l-11.78-20.4c-1.31-2.27-3.74-3.67-6.36-3.67Z"/>
      </g>
      <path class="cls-8" d="m85.54,207.04h-8.45c-1.29,0-2.5-.7-3.15-1.82l-4.22-7.32c-.65-1.12-.65-2.51,0-3.64l4.22-7.32c.65-1.12,1.85-1.82,3.15-1.82h8.45c1.29,0,2.5.7,3.15,1.82l4.22,7.32c.65,1.12.65,2.51,0,3.64l-4.22,7.32c-.65,1.12-1.85,1.82-3.15,1.82Zm-8.45-19.9c-.58,0-1.12.31-1.42.82l-4.22,7.32c-.29.5-.29,1.13,0,1.64l4.22,7.32c.29.5.83.82,1.42.82h8.45c.58,0,1.12-.31,1.42-.82l4.22-7.32c.29-.5.29-1.13,0-1.64l-4.22-7.32c-.29-.5-.83-.82-1.42-.82h-8.45Z"/>
      <path class="cls-9" d="m203.14,109.03h-6.23c-.96,0-1.85-.51-2.32-1.34l-3.12-5.4c-.48-.83-.48-1.86,0-2.68l3.12-5.4c.48-.83,1.37-1.34,2.32-1.34h6.23c.96,0,1.85.51,2.32,1.34l3.12,5.4c.48.83.48,1.86,0,2.68l-3.12,5.4c-.48.83-1.37,1.34-2.32,1.34Zm-6.23-14.69c-.43,0-.83.23-1.04.6l-3.12,5.4c-.21.37-.21.83,0,1.21l3.12,5.4c.21.37.62.6,1.04.6h6.23c.43,0,.83-.23,1.05-.6l3.12-5.4c.21-.37.21-.83,0-1.21l-3.12-5.4c-.21-.37-.62-.6-1.05-.6h-6.23Z"/>
      <path class="cls-7" d="m209.98,227h-8.45c-1.29,0-2.5-.7-3.15-1.82l-4.22-7.32c-.65-1.12-.65-2.51,0-3.64l4.22-7.32c.65-1.12,1.85-1.82,3.15-1.82h8.45c1.29,0,2.5.7,3.15,1.82l4.22,7.32c.65,1.12.65,2.51,0,3.64l-4.22,7.32c-.65,1.12-1.85,1.82-3.15,1.82Zm-8.45-19.9c-.58,0-1.12.31-1.42.82l-4.22,7.32c-.29.5-.29,1.13,0,1.64l4.22,7.32c.29.5.83.82,1.42.82h8.45c.58,0,1.12-.31,1.42-.82l4.22-7.32c.29-.5.29-1.13,0-1.64l-4.22-7.32c-.29-.5-.83-.82-1.42-.82h-8.45Z"/>
      <path class="cls-26" d="m85.68,296.5h-34.88c-4.19,0-8.1-2.26-10.2-5.89l-17.44-30.21c-2.1-3.63-2.1-8.14,0-11.77l17.44-30.21c2.1-3.63,6-5.89,10.2-5.89h34.88c4.19,0,8.1,2.26,10.2,5.89l17.44,30.21c2.1,3.63,2.1,8.14,0,11.77l-17.44,30.21c-2.1,3.63-6,5.89-10.2,5.89Zm-34.88-82.18c-3.56,0-6.87,1.91-8.65,4.99l-17.44,30.21c-1.78,3.08-1.78,6.91,0,9.99l17.44,30.21c1.78,3.08,5.09,4.99,8.65,4.99h34.88c3.56,0,6.87-1.91,8.65-4.99l17.44-30.21c1.78-3.08,1.78-6.91,0-9.99l-17.44-30.21c-1.78-3.08-5.09-4.99-8.65-4.99h-34.88Z"/>
      <path class="cls-21" d="m164.73,337.98h-34.88c-4.19,0-8.1-2.26-10.2-5.89l-17.44-30.21c-2.1-3.63-2.1-8.14,0-11.77l17.44-30.21c2.1-3.63,6-5.89,10.2-5.89h34.88c4.19,0,8.1,2.26,10.2,5.89l17.44,30.21c2.1,3.63,2.1,8.14,0,11.77l-17.44,30.21c-2.1,3.63-6,5.89-10.2,5.89Zm-34.88-82.18c-3.56,0-6.87,1.91-8.65,4.99l-17.44,30.21c-1.78,3.08-1.78,6.91,0,9.99l17.44,30.21c1.78,3.08,5.09,4.99,8.65,4.99h34.88c3.56,0,6.87-1.91,8.65-4.99l17.44-30.21c1.78-3.08,1.78-6.91,0-9.99l-17.44-30.21c-1.78-3.08-5.09-4.99-8.65-4.99h-34.88Z"/>
      <path class="cls-19" d="m239.17,199.22h-35.45c-4.21,0-8.13-2.26-10.24-5.91l-17.72-30.7c-2.1-3.65-2.1-8.17,0-11.82l17.72-30.7c2.1-3.65,6.03-5.91,10.24-5.91h35.45c4.21,0,8.13,2.26,10.24,5.91l17.72,30.7c2.1,3.65,2.1,8.18,0,11.82l-17.72,30.7c-2.1,3.65-6.03,5.91-10.24,5.91Zm-35.45-83.51c-3.67,0-7.08,1.97-8.92,5.15l-17.72,30.7c-1.83,3.18-1.83,7.12,0,10.3l17.72,30.7c1.83,3.18,5.25,5.15,8.92,5.15h35.45c3.67,0,7.08-1.97,8.92-5.15l17.72-30.7c1.83-3.18,1.83-7.12,0-10.3l-17.72-30.7c-1.83-3.18-5.25-5.15-8.92-5.15h-35.45Z"/>
      <path class="cls-31" d="m159.35,156.18h-35.45c-4.21,0-8.13-2.26-10.24-5.91l-17.72-30.7c-2.1-3.65-2.1-8.17,0-11.82l17.72-30.7c2.1-3.65,6.03-5.91,10.24-5.91h35.45c4.21,0,8.13,2.26,10.24,5.91l17.72,30.7c2.1,3.65,2.1,8.18,0,11.82l-17.72,30.7c-2.1,3.65-6.03,5.91-10.24,5.91Zm-35.45-83.51c-3.67,0-7.08,1.97-8.92,5.15l-17.72,30.7c-1.83,3.18-1.83,7.12,0,10.3l17.72,30.7c1.83,3.18,5.25,5.15,8.92,5.15h35.45c3.67,0,7.08-1.97,8.92-5.15l17.72-30.7c1.83-3.18,1.83-7.12,0-10.3l-17.72-30.7c-1.83-3.18-5.25-5.15-8.92-5.15h-35.45Z"/>
      <g>
        <path class="cls-32" d="m162.25,247.08h-36.11c-4.28,0-8.26-2.3-10.4-6l-18.05-31.27c-2.14-3.7-2.14-8.3,0-12.01l18.05-31.27c2.14-3.7,6.12-6,10.4-6h36.11c4.28,0,8.26,2.3,10.4,6l18.05,31.27c2.14,3.7,2.14,8.31,0,12.01l-18.05,31.27c-2.14,3.7-6.12,6-10.4,6Zm-36.11-85.07c-3.75,0-7.24,2.02-9.11,5.26l-18.05,31.27c-1.87,3.24-1.87,7.28,0,10.52l18.05,31.27c1.87,3.24,5.36,5.26,9.11,5.26h36.11c3.75,0,7.24-2.02,9.11-5.26l18.05-31.27c1.87-3.24,1.87-7.28,0-10.52l-18.05-31.27c-1.87-3.24-5.36-5.26-9.11-5.26h-36.11Z"/>
        <path class="cls-14" d="m159.65,240.95h-30.91c-3.7,0-7.14-1.99-8.99-5.19l-15.45-26.77c-1.85-3.2-1.85-7.18,0-10.39l15.45-26.77c1.85-3.2,5.3-5.19,8.99-5.19h30.91c3.7,0,7.14,1.99,8.99,5.19l15.45,26.77c1.85,3.2,1.85,7.18,0,10.39l-15.45,26.77c-1.85,3.2-5.3,5.19-8.99,5.19Zm-30.91-72.81c-3.17,0-6.12,1.7-7.7,4.45l-15.45,26.77c-1.58,2.74-1.58,6.15,0,8.9l15.45,26.77c1.58,2.74,4.54,4.45,7.7,4.45h30.91c3.17,0,6.12-1.7,7.71-4.45l15.45-26.77c1.58-2.74,1.58-6.15,0-8.9l-15.45-26.77c-1.58-2.74-4.54-4.45-7.71-4.45h-30.91Z"/>
      </g>
      <g>
        <path class="cls-11" d="m146.85,201.73c2.63,0,4.77-2.13,4.77-4.77s-2.13-4.77-4.77-4.77-4.77,2.13-4.77,4.77,2.13,4.77,4.77,4.77Z"/>
        <path class="cls-22" d="m154.81,203.53h-15.92c-1.8,0-3.27,1.46-3.27,3.27v8.17h22.46v-8.17c0-1.8-1.46-3.27-3.27-3.27Z"/>
        <path class="cls-10" d="m134.24,196.54c3.04,0,5.51-2.47,5.51-5.51s-2.47-5.51-5.51-5.51-5.51,2.47-5.51,5.51,2.47,5.51,5.51,5.51Zm0-9.53c2.22,0,4.02,1.8,4.02,4.02s-1.8,4.02-4.02,4.02-4.02-1.8-4.02-4.02,1.8-4.02,4.02-4.02Z"/>
        <path class="cls-12" d="m123.76,202.63c0-1.39,1.13-2.52,2.52-2.52h12.81v-1.49h-12.81c-2.21,0-4.01,1.8-4.01,4.01v8.92h10.34v-1.49h-8.85v-7.43Z"/>
        <path class="cls-30" d="m159.45,196.54c3.04,0,5.51-2.47,5.51-5.51s-2.47-5.51-5.51-5.51-5.51,2.47-5.51,5.51,2.47,5.51,5.51,5.51Zm0-9.53c2.22,0,4.02,1.8,4.02,4.02s-1.8,4.02-4.02,4.02-4.02-1.8-4.02-4.02,1.8-4.02,4.02-4.02Z"/>
        <path class="cls-15" d="m167.41,198.62h-13.23v1.49h13.23c1.39,0,2.52,1.13,2.52,2.52v7.43h-9.39v1.49h10.88v-8.92c0-2.21-1.8-4.01-4.01-4.01Z"/>
      </g>
      <path class="cls-24" d="m103.87,251.01c-.29-1.52-1.64-2.52-3.2-2.41-.96.07-1.53.56-1.99.95-.57.48-.91.78-1.74.38-1.01-.48-1.67-1.56-1.67-2.75v-7.28h-7.28c-1.19,0-2.27-.66-2.75-1.67-.39-.83-.1-1.17.38-1.74.39-.46.88-1.03.95-1.99.12-1.57-.9-2.91-2.41-3.2-.9-.17-1.81.06-2.51.63-.69.57-1.09,1.42-1.09,2.32,0,1.11.53,1.73.96,2.23.49.58.79.92.36,1.79-.49.98-1.56,1.62-2.72,1.62h-13.97c-1.19,0-2.27-.66-2.75-1.67-.39-.83-.1-1.17.38-1.74.39-.46.88-1.03.95-1.99.12-1.57-.9-2.91-2.41-3.2-.9-.17-1.81.06-2.51.63-.69.57-1.09,1.42-1.09,2.32,0,1.11.53,1.73.96,2.23.49.58.79.92.36,1.79-.49.98-1.56,1.62-2.72,1.62h-7.28v7.28c0,1.19-.66,2.26-1.67,2.75-.83.4-1.17.1-1.74-.38-.46-.39-1.03-.88-1.99-.95-1.57-.11-2.91.9-3.2,2.41-.17.9.06,1.81.63,2.51.57.69,1.42,1.09,2.32,1.09,1.11,0,1.73-.53,2.23-.96.58-.49.92-.79,1.79-.36.98.49,1.62,1.56,1.62,2.72v7.28h7.28c1.19,0,2.27.66,2.75,1.67.39.83.1,1.17-.38,1.74-.39.46-.88,1.03-.95,1.99-.12,1.56.9,2.91,2.41,3.2.19.04.39.05.58.05.7,0,1.38-.24,1.92-.69.69-.57,1.09-1.42,1.09-2.32,0-1.11-.53-1.73-.96-2.23-.49-.58-.79-.92-.36-1.79.49-.98,1.56-1.62,2.72-1.62h13.97c1.19,0,2.26.66,2.75,1.67.39.83.1,1.17-.38,1.74-.39.46-.88,1.03-.95,1.99-.12,1.56.9,2.91,2.41,3.2.19.04.39.05.58.05.7,0,1.38-.24,1.92-.69.69-.57,1.09-1.42,1.09-2.32,0-1.11-.53-1.73-.96-2.23-.49-.58-.79-.92-.36-1.79.49-.98,1.56-1.62,2.72-1.62h7.28v-7.28c0-1.16.63-2.23,1.62-2.72.87-.43,1.22-.14,1.79.36.5.43,1.12.96,2.23.96.9,0,1.74-.4,2.32-1.09.57-.69.81-1.61.63-2.51Zm-1.09,2.13c-.46.56-1.14.88-1.87.88-.89,0-1.38-.42-1.85-.82-.6-.51-1.22-1.04-2.44-.43-1.18.59-1.94,1.86-1.94,3.24v6.69h-6.69c-1.38,0-2.65.76-3.24,1.94-.61,1.22-.08,1.84.43,2.43.4.47.82.96.82,1.85,0,.72-.32,1.41-.88,1.87-.56.46-1.3.65-2.02.51-1.22-.23-2.03-1.32-1.94-2.58.06-.77.44-1.21.81-1.65.5-.59,1.02-1.2.47-2.37-.58-1.22-1.86-2.01-3.28-2.01h-6.69v-6.69c0-1.16.63-2.23,1.62-2.72.87-.43,1.22-.14,1.79.36.5.43,1.12.96,2.23.96.9,0,1.74-.4,2.32-1.09s.81-1.61.64-2.51c-.29-1.51-1.63-2.52-3.2-2.41-.96.07-1.53.56-1.99.95-.57.48-.91.78-1.74.38-1.02-.48-1.67-1.56-1.67-2.75v-6.69h6.69c1.38,0,2.65-.76,3.24-1.94.61-1.22.08-1.84-.43-2.43-.4-.47-.82-.96-.82-1.85,0-.72.32-1.41.88-1.87.56-.46,1.29-.65,2.02-.51,1.22.23,2.03,1.32,1.94,2.58-.06.76-.44,1.21-.81,1.65-.5.59-1.02,1.2-.47,2.37.58,1.22,1.86,2.01,3.28,2.01h6.69v6.69c0,1.41.79,2.7,2.01,3.28,1.17.56,1.78.04,2.37-.47.43-.37.88-.76,1.65-.81,1.27-.1,2.35.72,2.58,1.94.14.73-.05,1.46-.51,2.02Z"/>
      <g>
        <circle class="cls-27" cx="231.59" cy="147.36" r="2.43"/>
        <path class="cls-18" d="m224.42,152.86c-.9,0-1.63.73-1.63,1.63s.73,1.63,1.63,1.63,1.63-.73,1.63-1.63-.73-1.63-1.63-1.63Z"/>
        <path class="cls-17" d="m241.98,147.12c-3.51-20.2-33.89-16.25-31.58,4.58.04.34-.46,1.1-.81,1.71-1.14,2-2.79,4.78-2.35,5.27.9.71,2.09.6,2.54,1.13.32.77-.15,1.45-.32,2.34-.23,1.16.18,1.09.98,1.59-1.6,1.73.23,1.45.69,2.64.6,1.58-2.6,4.97,3.59,4.94,3.76-.01,4.57,1.51,5.21,5.73h16.75c.14-5.3-.74-13.54,2.43-17.71,2.18-2.87,3.69-7.56,2.87-12.22Zm-22.41,2.21l.47-.56c-.13-.16-.24-.33-.33-.52l-.71.19-.24-.88.71-.19c0-.07,0-.13,0-.2,0-.14.01-.28.03-.42l-.69-.25.31-.86.69.25c.1-.18.23-.34.37-.49l-.42-.6.75-.53.42.6c.18-.08.38-.15.59-.19v-.73h.92v.73c.28.05.54.15.78.29l.47-.56.7.59-.47.56c.13.16.24.33.33.52l.71-.19.24.88-.71.19c0,.07,0,.13,0,.2,0,.14-.01.28-.03.42l.69.25-.31.86-.69-.25c-.1.18-.23.34-.38.49l.42.6-.75.52-.42-.6c-.18.08-.38.15-.59.19v.73h-.92v-.73c-.28-.05-.54-.15-.78-.29l-.47.56-.7-.59Zm7.87,5.16c0,.17-.01.34-.04.5l.83.3-.38,1.03-.83-.3c-.13.21-.28.41-.45.59l.51.72-.9.63-.5-.72c-.22.1-.46.18-.71.22v.88h-1.1v-.88c-.34-.06-.65-.18-.94-.34l-.57.67-.84-.71.57-.68c-.16-.19-.29-.4-.4-.62l-.85.23-.28-1.06.85-.23c0-.08,0-.16,0-.24,0-.17.01-.34.04-.5l-.83-.3.38-1.03.83.3c.13-.21.28-.41.45-.59l-.51-.72.9-.63.5.72c.22-.1.46-.18.71-.22v-.88h1.1v.88c.34.06.65.18.94.34l.57-.67.84.71-.57.68c.16.19.29.4.4.62l.85-.23.29,1.06-.85.23c0,.08,0,.16,0,.24Zm8.66-7.14c0,.25-.02.5-.06.75l1.23.45-.56,1.54-1.23-.45c-.19.32-.41.61-.67.87l.75,1.08-1.34.94-.75-1.08c-.33.15-.68.26-1.05.33v1.31h-1.64v-1.31c-.5-.09-.97-.27-1.4-.51l-.84,1.01-1.25-1.05.84-1.01c-.23-.28-.43-.59-.59-.93l-1.27.34-.42-1.58,1.27-.34c0-.12-.01-.24-.01-.36,0-.25.02-.5.06-.75l-1.23-.45.56-1.54,1.23.45c.19-.32.41-.61.67-.87l-.75-1.08,1.34-.94.75,1.08c.33-.15.68-.26,1.05-.33v-1.31h1.64v1.31c.5.09.97.27,1.4.51l.84-1.01,1.25,1.05-.84,1.01c.23.28.43.59.59.93l1.27-.34.42,1.58-1.27.34c0,.12.01.24.01.36Z"/>
        <circle class="cls-25" cx="221.98" cy="147.16" r="1.36"/>
      </g>
      <g>
        <path class="cls-33" d="m131.29,120.28l1.19-.47c-.61-1.03-1.11-2.13-1.49-3.27,1.23.2,2.74.39,4.44.87.69.2,1.06.45,1.21.74l1.63-.65c.63-.25,1.3-.37,1.98-.37h.04c-.67-.21-1.4-.36-2.18-.41-4.81-.32-5.74-1.91-.53-4.16,5.22-2.23,3.02-4.93-1.87-6.43-4.81-1.49,1.64-4.93-1.73-6.06,1.29-1.57,2.82-2.9,4.56-3.94.01,0,.03-.02.04-.03,0,0,0,0,0,0,1.65,2.83.61,9.32,3.59,8.18,2.69-1.02,2.57-4.36,4.73-4.28,2.16.08.21-5.01,3.87-5.42.41-.05.78-.15,1.12-.29,0,0,0,0,0,0,.2.05.4.11.6.17,3.61,1.11,6.82,3.43,9.02,6.53.02.02.04.06.06.08-1.02.89-2.37,1.47-3.83.47-3.1-2.12-4.77-1.63-6.03.08-1.26,1.71-2.16,3.34.65,3.01,2.81-.32,4.52-.57,2.77.82-1.75,1.38-5.05,1.14-5.62,2.93-.57,1.79,1.18,2.9,3.26,1.79,2.08-1.1,2.53,1.38,5.66-.21,3.14-1.59.85,6.23,3.22,5.87.66-.1,1.38.23,2.12.76-.02.06-.04.13-.06.19-.53,1.5-1.25,2.89-2.15,4.17l1.99-.79c.53-.94.98-1.93,1.35-2.96.71-1.99,1.07-4.08,1.07-6.2,0-3.88-1.18-7.6-3.42-10.75-2.36-3.33-5.8-5.83-9.69-7.01-1.77-.55-3.61-.83-5.48-.83-3.35,0-6.63.9-9.5,2.6-1.94,1.16-3.65,2.65-5.07,4.43-2.63,3.31-4.02,7.31-4.02,11.56,0,1.9.29,3.78.85,5.57.41,1.28.95,2.51,1.61,3.67Z"/>
        <path class="cls-28" d="m156.16,115.38c-.58-.82-4.35-.45-5.05-1.68-.69-1.23-4.31,1.88-5.13,4.2-.81,2.33,1.02,3.26,3.22,1.92,1.88-1.15.87,1.24,2.22,5.07.62-.15,1.23-.35,1.83-.59l4.27-1.69c.35-2.04,2.73-2.4,2.06-3.23-.96-1.18-2.85-3.17-3.43-3.99Z"/>
        <path class="cls-13" d="m168.26,123.71c-.5-1.26-1.93-1.88-3.19-1.37l-10.86,4.32c-2.26.9-4.69,1.3-7.12,1.17l-7.45-.4c-.75-.04-.96-1.06-.28-1.39l1.94-.94c1.45-.57,2.15-2.21,1.58-3.66h0c-.57-1.45-2.21-2.15-3.66-1.58l-12.2,4.85-.97-2.44-7.68,3.05,7.11,17.88,7.68-3.05-.88-2.21,17.9-4.6c.89-.23,1.77-.51,2.62-.85l14.08-5.6c1.26-.5,1.88-1.93,1.37-3.19Zm-42.04,17.77l-6.12-15.41,5.21-2.07,6.12,15.41-5.21,2.07Z"/>
      </g>
      <g>
        <path class="cls-6" d="m159.14,272.76c-2.2,0-4.42,1.19-6.98,3.74l-6.06,6.06c-.82.82-.6,1.67-.47,1.99.18.44.49.76.8,1.06l2.45,2.45-2.54,2.54-2.05-2.05c-.45-.45-1.06-.7-1.71-.7s-1.25.25-1.7.7l-6.22,6.22c-.94.94-.94,2.47,0,3.41l2.05,2.05-9.32,9.32c-1.5,1.5-1.54,3.91-.08,5.37.69.69,1.62,1.07,2.61,1.07s2.02-.41,2.76-1.15l7.75-7.75v10.95h-7.65c-.67,0-1.21.54-1.21,1.21s.54,1.21,1.21,1.21h17.7c.67,0,1.21-.54,1.21-1.21s-.54-1.21-1.21-1.21h-7.65v-11.69l1.21,1.21c.45.45,1.06.7,1.71.7s1.25-.25,1.7-.7l6.22-6.22c.45-.45.7-1.06.7-1.71s-.25-1.25-.7-1.7l-2.05-2.05,2.54-2.54,2.59,2.59c.4.4.85.85,1.56.85.64,0,1.08-.37,1.37-.66l6.06-6.06c4.94-4.94,4.98-8.92.16-13.74-2.44-2.44-4.59-3.58-6.76-3.58Zm-7.16,26.89l-6.22,6.22s0,0,0,0h0s-.95-.95-.95-.95l-8.43-8.43,5.45-5.45.77-.77,9.38,9.38Zm-2.05-5.46l-.56-.56-1.31-1.31,2.05-2.05.49-.49,1.88,1.88-2.54,2.54Z"/>
        <g>
          <path class="cls-29" d="m144.22,295.9l.19.19c.27.27.72.3.96.06.12-.12.18-.29.17-.48-.01-.18-.1-.35-.23-.48l-2.09-2.09c-.27-.27-.72-.3-.96-.06-.12.12-.18.29-.17.48.01.18.1.35.23.48l.18.18c.09.09.14.21.14.34s-.05.25-.14.34l-2.25,2.25c-.28.28-.28.74.02,1.04.14.14.32.21.51.21s.38-.08.51-.21l2.25-2.25c.18-.18.5-.18.68,0Z"/>
          <path class="cls-23" d="m149.13,299.02l-.07-.07c-.26-.26-.77-.34-1.1-.16l-1.6.86c-.56.31-1.19.69-1.19.69-.03.02-.07.04-.1.06.27-.42.47-.78.47-.78.16-.29.43-.76.59-1.05l.57-1.03c.19-.33.12-.83-.15-1.1l-.1-.1c-.28-.28-.71-.21-.89.14l-2.05,3.99c-.17.34-.1.83.17,1.1l.16.16c.17.17.43.27.7.27.15,0,.29-.03.4-.09l4.04-2.01c.18-.09.29-.23.32-.4.03-.17-.04-.34-.18-.48Z"/>
        </g>
      </g>
    </g>
  </g>
</svg>