<?xml version="1.0" encoding="UTF-8"?>
<svg xmlns="http://www.w3.org/2000/svg" xmlns:xlink="http://www.w3.org/1999/xlink" viewBox="0 0 301 378">
  <defs>
    <style>
      .cls-1 {
        fill: url(#Degradado_sin_nombre_4-8);
      }

      .cls-2 {
        stroke: url(#Degradado_sin_nombre_3-2);
      }

      .cls-2, .cls-3, .cls-4, .cls-5, .cls-6, .cls-7, .cls-8, .cls-9, .cls-10, .cls-11, .cls-12, .cls-13, .cls-14, .cls-15, .cls-16, .cls-17 {
        fill: none;
        stroke-miterlimit: 10;
      }

      .cls-3 {
        stroke: url(#Degradado_sin_nombre_4-33);
      }

      .cls-18 {
        fill: url(#Degradado_sin_nombre_4-10);
      }

      .cls-4 {
        stroke: url(#Degradado_sin_nombre_4-30);
      }

      .cls-19 {
        fill: url(#Degradado_sin_nombre_4-13);
      }

      .cls-5 {
        stroke: url(#Degradado_sin_nombre_4-29);
      }

      .cls-20 {
        fill: url(#Degradado_sin_nombre_4-16);
      }

      .cls-21 {
        fill: url(#Degradado_sin_nombre_4-9);
      }

      .cls-6 {
        stroke: url(#Degradado_sin_nombre_3);
      }

      .cls-7 {
        stroke: url(#Degradado_sin_nombre_4-7);
      }

      .cls-7, .cls-8, .cls-12 {
        stroke-width: .75px;
      }

      .cls-22 {
        isolation: isolate;
      }

      .cls-23 {
        fill: url(#Degradado_sin_nombre_4);
      }

      .cls-23, .cls-24, .cls-25, .cls-26, .cls-27 {
        opacity: .2;
      }

      .cls-28 {
        fill: url(#Degradado_sin_nombre_4-22);
      }

      .cls-29 {
        fill: url(#radial-gradient);
        mix-blend-mode: multiply;
      }

      .cls-8 {
        stroke: url(#Degradado_sin_nombre_4-27);
      }

      .cls-9 {
        stroke: url(#Degradado_sin_nombre_4-23);
      }

      .cls-9, .cls-10, .cls-13, .cls-17 {
        stroke-width: 1.13px;
      }

      .cls-24 {
        fill: url(#Degradado_sin_nombre_4-3);
      }

      .cls-10 {
        stroke: url(#Degradado_sin_nombre_4-26);
      }

      .cls-11 {
        stroke: url(#Degradado_sin_nombre_4-31);
      }

      .cls-30 {
        fill: url(#Degradado_sin_nombre_4-15);
      }

      .cls-31 {
        fill: url(#Degradado_sin_nombre_4-12);
      }

      .cls-12 {
        stroke: url(#Degradado_sin_nombre_4-6);
      }

      .cls-13 {
        stroke: url(#Degradado_sin_nombre_4-21);
      }

      .cls-32 {
        fill: url(#Degradado_sin_nombre_4-25);
      }

      .cls-33 {
        fill: url(#Degradado_sin_nombre_4-18);
      }

      .cls-14 {
        stroke: url(#Degradado_sin_nombre_4-28);
      }

      .cls-15 {
        stroke: url(#Degradado_sin_nombre_4-34);
      }

      .cls-34 {
        fill: url(#Degradado_sin_nombre_4-11);
      }

      .cls-35 {
        fill: url(#Degradado_sin_nombre_4-17);
      }

      .cls-36 {
        fill: url(#Degradado_sin_nombre_4-14);
      }

      .cls-37 {
        fill: url(#Degradado_sin_nombre_4-20);
      }

      .cls-25 {
        fill: url(#Degradado_sin_nombre_4-2);
      }

      .cls-16 {
        stroke: url(#Degradado_sin_nombre_4-32);
      }

      .cls-17 {
        stroke: url(#Degradado_sin_nombre_4-24);
      }

      .cls-26 {
        fill: url(#Degradado_sin_nombre_4-5);
      }

      .cls-27 {
        fill: url(#Degradado_sin_nombre_4-4);
      }

      .cls-38 {
        fill: url(#Degradado_sin_nombre_4-19);
      }
    </style>
    <radialGradient id="radial-gradient" cx="527.15" cy="210.15" fx="527.15" fy="210.15" r="639.73" gradientTransform="translate(-313.63 -168.28) scale(.61 .76)" gradientUnits="userSpaceOnUse">
      <stop offset="0" stop-color="#3e6694"/>
      <stop offset=".26" stop-color="#284a70"/>
      <stop offset=".57" stop-color="#132d4d"/>
      <stop offset=".82" stop-color="#051c37"/>
      <stop offset=".99" stop-color="#01162f"/>
    </radialGradient>
    <linearGradient id="Degradado_sin_nombre_4" data-name="Degradado sin nombre 4" x1="100.58" y1="69.24" x2="136.47" y2="69.24" gradientUnits="userSpaceOnUse">
      <stop offset="0" stop-color="#ffed86"/>
      <stop offset=".03" stop-color="#fae782"/>
      <stop offset=".24" stop-color="#dbbe68"/>
      <stop offset=".45" stop-color="#c39e54"/>
      <stop offset=".65" stop-color="#b28745"/>
      <stop offset=".84" stop-color="#a7793c"/>
      <stop offset="1" stop-color="#a4753a"/>
    </linearGradient>
    <linearGradient id="Degradado_sin_nombre_4-2" data-name="Degradado sin nombre 4" x1="201.42" y1="281.93" x2="228.88" y2="281.93" xlink:href="#Degradado_sin_nombre_4"/>
    <linearGradient id="Degradado_sin_nombre_4-3" data-name="Degradado sin nombre 4" x1="65.92" y1="88.79" x2="90.15" y2="88.79" xlink:href="#Degradado_sin_nombre_4"/>
    <linearGradient id="Degradado_sin_nombre_4-4" data-name="Degradado sin nombre 4" x1="223.64" y1="303.31" x2="278.45" y2="303.31" xlink:href="#Degradado_sin_nombre_4"/>
    <linearGradient id="Degradado_sin_nombre_4-5" data-name="Degradado sin nombre 4" x1="44.96" y1="44.39" x2="106.78" y2="44.39" xlink:href="#Degradado_sin_nombre_4"/>
    <linearGradient id="Degradado_sin_nombre_4-6" data-name="Degradado sin nombre 4" x1="68.86" y1="196.09" x2="93.78" y2="196.09" xlink:href="#Degradado_sin_nombre_4"/>
    <linearGradient id="Degradado_sin_nombre_4-7" data-name="Degradado sin nombre 4" x1="193.3" y1="216.05" x2="218.21" y2="216.05" xlink:href="#Degradado_sin_nombre_4"/>
    <linearGradient id="Degradado_sin_nombre_4-8" data-name="Degradado sin nombre 4" x1="21.6" y1="254.52" x2="114.89" y2="254.52" xlink:href="#Degradado_sin_nombre_4"/>
    <linearGradient id="Degradado_sin_nombre_4-9" data-name="Degradado sin nombre 4" x1="102.46" y1="296.26" x2="195.76" y2="296.26" xlink:href="#Degradado_sin_nombre_4"/>
    <linearGradient id="Degradado_sin_nombre_4-10" data-name="Degradado sin nombre 4" x1="95.42" y1="113.13" x2="188.72" y2="113.13" xlink:href="#Degradado_sin_nombre_4"/>
    <linearGradient id="Degradado_sin_nombre_4-11" data-name="Degradado sin nombre 4" x1="174.18" y1="156.71" x2="268.71" y2="156.71" xlink:href="#Degradado_sin_nombre_4"/>
    <linearGradient id="Degradado_sin_nombre_4-12" data-name="Degradado sin nombre 4" x1="96.08" y1="203.8" x2="192.31" y2="203.8" xlink:href="#Degradado_sin_nombre_4"/>
    <linearGradient id="Degradado_sin_nombre_4-13" data-name="Degradado sin nombre 4" x1="102.91" y1="203.8" x2="185.48" y2="203.8" xlink:href="#Degradado_sin_nombre_4"/>
    <linearGradient id="Degradado_sin_nombre_4-14" data-name="Degradado sin nombre 4" x1="115.98" y1="193.84" x2="157.7" y2="239.24" xlink:href="#Degradado_sin_nombre_4"/>
    <linearGradient id="Degradado_sin_nombre_4-15" data-name="Degradado sin nombre 4" x1="136.39" y1="175.09" x2="178.11" y2="220.49" xlink:href="#Degradado_sin_nombre_4"/>
    <linearGradient id="Degradado_sin_nombre_4-16" data-name="Degradado sin nombre 4" x1="129.23" y1="181.66" x2="170.95" y2="227.06" xlink:href="#Degradado_sin_nombre_4"/>
    <linearGradient id="Degradado_sin_nombre_4-17" data-name="Degradado sin nombre 4" x1="115.73" y1="194.07" x2="157.45" y2="239.47" xlink:href="#Degradado_sin_nombre_4"/>
    <linearGradient id="Degradado_sin_nombre_4-18" data-name="Degradado sin nombre 4" x1="205.08" y1="143.15" x2="242.14" y2="143.15" xlink:href="#Degradado_sin_nombre_4"/>
    <linearGradient id="Degradado_sin_nombre_4-19" data-name="Degradado sin nombre 4" x1="202.32" y1="137.61" x2="244.9" y2="137.61" xlink:href="#Degradado_sin_nombre_4"/>
    <linearGradient id="Degradado_sin_nombre_4-20" data-name="Degradado sin nombre 4" x1="207.98" y1="163.25" x2="239.24" y2="163.25" xlink:href="#Degradado_sin_nombre_4"/>
    <linearGradient id="Degradado_sin_nombre_4-21" data-name="Degradado sin nombre 4" x1="66.43" y1="268.76" x2="70.87" y2="268.76" xlink:href="#Degradado_sin_nombre_4"/>
    <linearGradient id="Degradado_sin_nombre_4-22" data-name="Degradado sin nombre 4" x1="54.03" y1="241.88" x2="55.92" y2="241.88" xlink:href="#Degradado_sin_nombre_4"/>
    <linearGradient id="Degradado_sin_nombre_4-23" data-name="Degradado sin nombre 4" x1="56.93" y1="241.88" x2="80.69" y2="241.88" xlink:href="#Degradado_sin_nombre_4"/>
    <linearGradient id="Degradado_sin_nombre_4-24" data-name="Degradado sin nombre 4" x1="46.76" y1="241.88" x2="52.82" y2="241.88" xlink:href="#Degradado_sin_nombre_4"/>
    <linearGradient id="Degradado_sin_nombre_4-25" data-name="Degradado sin nombre 4" x1="81.95" y1="241.88" x2="83.84" y2="241.88" xlink:href="#Degradado_sin_nombre_4"/>
    <linearGradient id="Degradado_sin_nombre_4-26" data-name="Degradado sin nombre 4" x1="85.07" y1="241.88" x2="91.13" y2="241.88" gradientTransform="translate(176.2 483.76) rotate(-180)" xlink:href="#Degradado_sin_nombre_4"/>
    <linearGradient id="Degradado_sin_nombre_3" data-name="Degradado sin nombre 3" x1="121.21" y1="303.38" x2="180.07" y2="303.38" gradientUnits="userSpaceOnUse">
      <stop offset="0" stop-color="#f8e07e"/>
      <stop offset=".08" stop-color="#e8ce73"/>
      <stop offset=".28" stop-color="#c3a55a"/>
      <stop offset=".48" stop-color="#a78546"/>
      <stop offset=".67" stop-color="#926e38"/>
      <stop offset=".84" stop-color="#86602f"/>
      <stop offset="1" stop-color="#825c2d"/>
    </linearGradient>
    <linearGradient id="Degradado_sin_nombre_3-2" data-name="Degradado sin nombre 3" x1="128.6" y1="301.35" x2="172.77" y2="301.35" xlink:href="#Degradado_sin_nombre_3"/>
    <linearGradient id="Degradado_sin_nombre_4-27" data-name="Degradado sin nombre 4" x1="190.34" y1="101.31" x2="208.92" y2="101.31" xlink:href="#Degradado_sin_nombre_4"/>
    <linearGradient id="Degradado_sin_nombre_4-28" data-name="Degradado sin nombre 4" x1="125.57" y1="111.56" x2="161.09" y2="111.56" gradientTransform="translate(31.77 254.88) rotate(-90)" xlink:href="#Degradado_sin_nombre_4"/>
    <linearGradient id="Degradado_sin_nombre_4-29" data-name="Degradado sin nombre 4" x1="136.58" y1="87.12" x2="150.08" y2="87.12" xlink:href="#Degradado_sin_nombre_4"/>
    <linearGradient id="Degradado_sin_nombre_4-30" data-name="Degradado sin nombre 4" x1="132.04" y1="100.97" x2="154.62" y2="100.97" xlink:href="#Degradado_sin_nombre_4"/>
    <linearGradient id="Degradado_sin_nombre_4-31" data-name="Degradado sin nombre 4" x1="136.36" y1="103.31" x2="137.36" y2="103.31" xlink:href="#Degradado_sin_nombre_4"/>
    <linearGradient id="Degradado_sin_nombre_4-32" data-name="Degradado sin nombre 4" x1="149.3" y1="103.31" x2="150.3" y2="103.31" xlink:href="#Degradado_sin_nombre_4"/>
    <linearGradient id="Degradado_sin_nombre_4-33" data-name="Degradado sin nombre 4" x1="127" y1="127.48" x2="158.22" y2="127.48" xlink:href="#Degradado_sin_nombre_4"/>
    <linearGradient id="Degradado_sin_nombre_4-34" data-name="Degradado sin nombre 4" x1="130.24" y1="127.48" x2="154.98" y2="127.48" xlink:href="#Degradado_sin_nombre_4"/>
  </defs>
  <g class="cls-22">
    <g id="Layer_1" data-name="Layer 1">
      <rect class="cls-29" x="-.93" y="-1.96" width="302.87" height="381.91"/>
      <path class="cls-23" d="m125.36,53.12h-13.68c-1.52,0-2.93.81-3.7,2.13l-6.84,11.85c-.76,1.32-.76,2.95,0,4.27l6.84,11.85c.76,1.32,2.17,2.13,3.7,2.13h13.68c1.52,0,2.93-.81,3.7-2.13l6.84-11.85c.76-1.32.76-2.95,0-4.27l-6.84-11.85c-.76-1.32-2.17-2.13-3.7-2.13Z"/>
      <path class="cls-25" d="m220.38,269.6h-10.47c-1.17,0-2.24.62-2.83,1.63l-5.23,9.06c-.58,1.01-.58,2.25,0,3.26l5.23,9.06c.58,1.01,1.66,1.63,2.83,1.63h10.47c1.17,0,2.24-.62,2.83-1.63l5.23-9.06c.58-1.01.58-2.25,0-3.26l-5.23-9.06c-.58-1.01-1.66-1.63-2.83-1.63Z"/>
      <path class="cls-24" d="m82.65,77.91h-9.23c-1.03,0-1.98.55-2.49,1.44l-4.62,8c-.51.89-.51,1.99,0,2.88l4.62,8c.51.89,1.47,1.44,2.49,1.44h9.23c1.03,0,1.98-.55,2.49-1.44l4.62-8c.51-.89.51-1.99,0-2.88l-4.62-8c-.51-.89-1.47-1.44-2.49-1.44Z"/>
      <path class="cls-27" d="m261.49,278.71h-20.89c-2.33,0-4.48,1.24-5.64,3.26l-10.44,18.09c-1.16,2.02-1.16,4.5,0,6.52l10.44,18.09c1.16,2.02,3.32,3.26,5.64,3.26h20.89c2.33,0,4.48-1.24,5.64-3.26l10.44-18.09c1.16-2.02,1.16-4.5,0-6.52l-10.44-18.09c-1.16-2.02-3.32-3.26-5.64-3.26Z"/>
      <path class="cls-26" d="m87.65,16.63h-23.56c-2.63,0-5.05,1.4-6.36,3.67l-11.78,20.4c-1.31,2.27-1.31,5.08,0,7.35l11.78,20.4c1.31,2.27,3.74,3.67,6.36,3.67h23.56c2.63,0,5.05-1.4,6.36-3.67l11.78-20.4c1.31-2.27,1.31-5.08,0-7.35l-11.78-20.4c-1.31-2.27-3.74-3.67-6.36-3.67Z"/>
      <path class="cls-12" d="m85.54,207.04h-8.45c-1.29,0-2.5-.7-3.15-1.82l-4.22-7.32c-.65-1.12-.65-2.51,0-3.64l4.22-7.32c.65-1.12,1.85-1.82,3.15-1.82h8.45c1.29,0,2.5.7,3.15,1.82l4.22,7.32c.65,1.12.65,2.51,0,3.64l-4.22,7.32c-.65,1.12-1.85,1.82-3.15,1.82Zm-8.45-19.9c-.58,0-1.12.31-1.42.82l-4.22,7.32c-.29.5-.29,1.13,0,1.64l4.22,7.32c.29.5.83.82,1.42.82h8.45c.58,0,1.12-.31,1.42-.82l4.22-7.32c.29-.5.29-1.13,0-1.64l-4.22-7.32c-.29-.5-.83-.82-1.42-.82h-8.45Z"/>
      <path class="cls-7" d="m209.98,227h-8.45c-1.29,0-2.5-.7-3.15-1.82l-4.22-7.32c-.65-1.12-.65-2.51,0-3.64l4.22-7.32c.65-1.12,1.85-1.82,3.15-1.82h8.45c1.29,0,2.5.7,3.15,1.82l4.22,7.32c.65,1.12.65,2.51,0,3.64l-4.22,7.32c-.65,1.12-1.85,1.82-3.15,1.82Zm-8.45-19.9c-.58,0-1.12.31-1.42.82l-4.22,7.32c-.29.5-.29,1.13,0,1.64l4.22,7.32c.29.5.83.82,1.42.82h8.45c.58,0,1.12-.31,1.42-.82l4.22-7.32c.29-.5.29-1.13,0-1.64l-4.22-7.32c-.29-.5-.83-.82-1.42-.82h-8.45Z"/>
      <path class="cls-1" d="m85.68,296.5h-34.88c-4.19,0-8.1-2.26-10.2-5.89l-17.44-30.21c-2.1-3.63-2.1-8.14,0-11.77l17.44-30.21c2.1-3.63,6-5.89,10.2-5.89h34.88c4.19,0,8.1,2.26,10.2,5.89l17.44,30.21c2.1,3.63,2.1,8.14,0,11.77l-17.44,30.21c-2.1,3.63-6,5.89-10.2,5.89Zm-34.88-82.18c-3.56,0-6.87,1.91-8.65,4.99l-17.44,30.21c-1.78,3.08-1.78,6.91,0,9.99l17.44,30.21c1.78,3.08,5.09,4.99,8.65,4.99h34.88c3.56,0,6.87-1.91,8.65-4.99l17.44-30.21c1.78-3.08,1.78-6.91,0-9.99l-17.44-30.21c-1.78-3.08-5.09-4.99-8.65-4.99h-34.88Z"/>
      <path class="cls-21" d="m166.55,338.24h-34.88c-4.19,0-8.1-2.26-10.2-5.89l-17.44-30.21c-2.1-3.63-2.1-8.14,0-11.77l17.44-30.21c2.1-3.63,6-5.89,10.2-5.89h34.88c4.19,0,8.1,2.26,10.2,5.89l17.44,30.21c2.1,3.63,2.1,8.14,0,11.77l-17.44,30.21c-2.1,3.63-6,5.89-10.2,5.89Zm-34.88-82.18c-3.56,0-6.87,1.91-8.65,4.99l-17.44,30.21c-1.78,3.08-1.78,6.91,0,9.99l17.44,30.21c1.78,3.08,5.09,4.99,8.65,4.99h34.88c3.56,0,6.87-1.91,8.65-4.99l17.44-30.21c1.78-3.08,1.78-6.91,0-9.99l-17.44-30.21c-1.78-3.08-5.09-4.99-8.65-4.99h-34.88Z"/>
      <path class="cls-18" d="m159.51,155.11h-34.88c-4.19,0-8.1-2.26-10.2-5.89l-17.44-30.21c-2.1-3.63-2.1-8.14,0-11.77l17.44-30.21c2.1-3.63,6-5.89,10.2-5.89h34.88c4.19,0,8.1,2.26,10.2,5.89l17.44,30.21c2.1,3.63,2.1,8.14,0,11.77l-17.44,30.21c-2.1,3.63-6,5.89-10.2,5.89Zm-34.88-82.18c-3.56,0-6.87,1.91-8.65,4.99l-17.44,30.21c-1.78,3.08-1.78,6.91,0,9.99l17.44,30.21c1.78,3.08,5.09,4.99,8.65,4.99h34.88c3.56,0,6.87-1.91,8.65-4.99l17.44-30.21c1.78-3.08,1.78-6.91,0-9.99l-17.44-30.21c-1.78-3.08-5.09-4.99-8.65-4.99h-34.88Z"/>
      <path class="cls-34" d="m239.17,199.22h-35.45c-4.21,0-8.13-2.26-10.24-5.91l-17.72-30.7c-2.1-3.65-2.1-8.17,0-11.82l17.72-30.7c2.1-3.65,6.03-5.91,10.24-5.91h35.45c4.21,0,8.13,2.26,10.24,5.91l17.72,30.7c2.1,3.65,2.1,8.18,0,11.82l-17.72,30.7c-2.1,3.65-6.03,5.91-10.24,5.91Zm-35.45-83.51c-3.67,0-7.08,1.97-8.92,5.15l-17.72,30.7c-1.83,3.18-1.83,7.12,0,10.3l17.72,30.7c1.83,3.18,5.25,5.15,8.92,5.15h35.45c3.67,0,7.08-1.97,8.92-5.15l17.72-30.7c1.83-3.18,1.83-7.12,0-10.3l-17.72-30.7c-1.83-3.18-5.25-5.15-8.92-5.15h-35.45Z"/>
      <g>
        <path class="cls-31" d="m162.25,247.08h-36.11c-4.28,0-8.26-2.3-10.4-6l-18.05-31.27c-2.14-3.7-2.14-8.3,0-12.01l18.05-31.27c2.14-3.7,6.12-6,10.4-6h36.11c4.28,0,8.26,2.3,10.4,6l18.05,31.27c2.14,3.7,2.14,8.31,0,12.01l-18.05,31.27c-2.14,3.7-6.12,6-10.4,6Zm-36.11-85.07c-3.75,0-7.24,2.02-9.11,5.26l-18.05,31.27c-1.87,3.24-1.87,7.28,0,10.52l18.05,31.27c1.87,3.24,5.36,5.26,9.11,5.26h36.11c3.75,0,7.24-2.02,9.11-5.26l18.05-31.27c1.87-3.24,1.87-7.28,0-10.52l-18.05-31.27c-1.87-3.24-5.36-5.26-9.11-5.26h-36.11Z"/>
        <path class="cls-19" d="m159.65,240.95h-30.91c-3.7,0-7.14-1.99-8.99-5.19l-15.45-26.77c-1.85-3.2-1.85-7.18,0-10.39l15.45-26.77c1.85-3.2,5.3-5.19,8.99-5.19h30.91c3.7,0,7.14,1.99,8.99,5.19l15.45,26.77c1.85,3.2,1.85,7.18,0,10.39l-15.45,26.77c-1.85,3.2-5.3,5.19-8.99,5.19Zm-30.91-72.81c-3.17,0-6.12,1.7-7.7,4.45l-15.45,26.77c-1.58,2.74-1.58,6.15,0,8.9l15.45,26.77c1.58,2.74,4.54,4.45,7.7,4.45h30.91c3.17,0,6.12-1.7,7.71-4.45l15.45-26.77c1.58-2.74,1.58-6.15,0-8.9l-15.45-26.77c-1.58-2.74-4.54-4.45-7.71-4.45h-30.91Z"/>
      </g>
      <g>
        <path class="cls-36" d="m135.87,202.6h-20.75c0,5.73,4.64,8.18,10.37,8.18s10.37-2.45,10.37-8.18Z"/>
        <path class="cls-30" d="m163.14,210.78c5.73,0,10.37-2.45,10.37-8.18h-20.75c0,5.73,4.64,8.18,10.37,8.18Z"/>
        <path class="cls-20" d="m174.02,199.52h-1.43l-7.76-12.63c.24-.35.38-.77.38-1.23,0-1.21-.98-2.19-2.19-2.19-.9,0-1.66.54-2,1.31h-33.63c-.34-.77-1.11-1.31-2-1.31-1.21,0-2.19.98-2.19,2.19,0,.46.14.88.38,1.23l-7.76,12.63h-1.43c-.44,0-.81.36-.81.81s.36.81.81.81h21.99c.44,0,.81-.36.81-.81s-.36-.81-.81-.81h-1.43l-7.76-12.63c.06-.08.1-.17.14-.26h16.09v31.87h-10.15v2.7h22.55v-2.7h-10.56v-31.87h15.79c.04.09.09.18.14.26l-7.76,12.63h-1.43c-.44,0-.8.36-.8.81s.36.81.8.81h21.99c.44,0,.81-.36.81-.81s-.36-.81-.81-.81Zm-56.03,0l7.18-11.69c.07,0,.14.02.22.02s.15-.01.22-.02l7.18,11.69h-14.79Zm44.82-11.69c.07,0,.14.02.22.02s.15-.01.22-.02l7.18,11.69h-14.79l7.18-11.69Z"/>
        <rect class="cls-35" x="130.26" y="222.98" width="28.61" height="4.93"/>
      </g>
      <g>
        <path class="cls-33" d="m240.74,144.56h-34.26c-.77,0-1.4-.63-1.4-1.4h0c0-.77.63-1.4,1.4-1.4h34.26c.77,0,1.4.63,1.4,1.4h0c0,.77-.63,1.4-1.4,1.4Z"/>
        <rect class="cls-38" x="202.32" y="136.2" width="42.58" height="2.81" rx="1.4" ry="1.4"/>
        <path class="cls-37" d="m207.98,147.63v31.26h5.4v-19.38c0-1.59,1.29-2.89,2.88-2.89.8,0,1.52.33,2.04.85.52.52.84,1.24.84,2.04v19.38h8.93v-19.38c0-1.59,1.29-2.89,2.88-2.89.8,0,1.52.33,2.04.85.52.52.84,1.24.84,2.04v19.38h5.4v-31.26h-31.26Z"/>
      </g>
      <g>
        <path class="cls-13" d="m66.99,250.3v35.62c0,.71.57,1.28,1.28,1.28h.75c.71,0,1.28-.57,1.28-1.28v-35.62h-3.31Z"/>
        <path class="cls-28" d="m54.98,249.49h0c-.52,0-.94-.42-.94-.94v-13.34c0-.52.42-.94.94-.94h0c.52,0,.94.42.94.94v13.34c0,.52-.42.94-.94.94Z"/>
        <rect class="cls-9" x="57.5" y="234.27" width="22.63" height="15.22" rx="2.07" ry="2.07"/>
        <rect class="cls-17" x="47.32" y="232.75" width="4.93" height="18.26" rx="1.65" ry="1.65"/>
        <path class="cls-32" d="m82.9,234.27h0c.52,0,.94.42.94.94v13.34c0,.52-.42.94-.94.94h0c-.52,0-.94-.42-.94-.94v-13.34c0-.52.42-.94.94-.94Z"/>
        <rect class="cls-10" x="85.63" y="232.75" width="4.93" height="18.26" rx="1.65" ry="1.65" transform="translate(176.2 483.76) rotate(180)"/>
      </g>
      <path class="cls-6" d="m175.07,307.27c-2.46-1.06-4.06-3.48-4.06-6.15v-.59c0-2.69,1.6-5.1,4.08-6.14l2.5-1.05h-40.53s-7.86,0-7.86,0c-1.98,0-3.91.8-5.3,2.18-1.42,1.42-2.2,3.3-2.2,5.3,0,4.13,3.36,7.49,7.49,7.49h7.8s.04,0,.06,0h20.05v2.96l2.46,1.98,2.46-2.02v-2.93h15.47l-2.43-1.05Z"/>
      <path class="cls-2" d="m135.5,307.75h0c-3.53,0-6.4-2.87-6.4-6.4,0-1.71.67-3.31,1.88-4.52,1.18-1.18,2.83-1.86,4.52-1.86h35.82c-1.37,1.07-2.33,2.58-2.74,4.27l-25.51.54,12.48.26v2.76l-19.58.32,19.58.32v4.31h-20.05Z"/>
      <path class="cls-8" d="m202.75,109.39h-6.23c-.96,0-1.85-.51-2.32-1.34l-3.12-5.4c-.48-.83-.48-1.86,0-2.68l3.12-5.4c.48-.83,1.37-1.34,2.32-1.34h6.23c.96,0,1.85.51,2.32,1.34l3.12,5.4c.48.83.48,1.86,0,2.68l-3.12,5.4c-.48.83-1.37,1.34-2.32,1.34Zm-6.23-14.69c-.43,0-.83.23-1.04.6l-3.12,5.4c-.21.37-.21.83,0,1.21l3.12,5.4c.21.37.62.6,1.04.6h6.23c.43,0,.83-.23,1.05-.6l3.12-5.4c.21-.37.21-.83,0-1.21l-3.12-5.4c-.21-.37-.62-.6-1.05-.6h-6.23Z"/>
      <g>
        <rect class="cls-14" x="141.43" y="94.29" width="3.79" height="34.53" rx="1.89" ry="1.89" transform="translate(254.88 -31.77) rotate(90)"/>
        <g>
          <ellipse class="cls-5" cx="143.33" cy="87.12" rx="6.25" ry="6.04"/>
          <path class="cls-4" d="m132.54,109.28v-10.71c0-2.97,2.61-5.4,5.79-5.4h10c3.18,0,5.79,2.43,5.79,5.4v10.71"/>
          <line class="cls-11" x1="136.86" y1="97.48" x2="136.86" y2="109.13"/>
          <line class="cls-16" x1="149.8" y1="97.48" x2="149.8" y2="109.13"/>
        </g>
        <g>
          <rect class="cls-3" x="127.5" y="113.45" width="30.21" height="28.05"/>
          <rect class="cls-15" x="130.74" y="115.61" width="23.74" height="23.74"/>
        </g>
      </g>
    </g>
  </g>
</svg>