<?xml version="1.0" encoding="UTF-8"?>
<svg xmlns="http://www.w3.org/2000/svg" xmlns:xlink="http://www.w3.org/1999/xlink" viewBox="0 0 301 378">
  <defs>
    <style>
      .cls-1 {
        fill: url(#linear-gradient-2);
      }

      .cls-1, .cls-2, .cls-3, .cls-4, .cls-5 {
        opacity: .2;
      }

      .cls-6 {
        fill: url(#linear-gradient-17);
      }

      .cls-7 {
        fill: url(#linear-gradient-15);
      }

      .cls-8 {
        fill: url(#linear-gradient-14);
      }

      .cls-9 {
        fill: url(#linear-gradient-6);
      }

      .cls-10 {
        isolation: isolate;
      }

      .cls-11 {
        fill: url(#linear-gradient-11);
      }

      .cls-2 {
        fill: url(#linear-gradient-5);
      }

      .cls-12 {
        fill: url(#radial-gradient);
        mix-blend-mode: multiply;
      }

      .cls-3 {
        fill: url(#linear-gradient);
      }

      .cls-13 {
        fill: url(#linear-gradient-10);
      }

      .cls-4 {
        fill: url(#linear-gradient-3);
      }

      .cls-14 {
        fill: url(#linear-gradient-16);
      }

      .cls-5 {
        fill: url(#linear-gradient-4);
      }

      .cls-15 {
        fill: url(#linear-gradient-7);
      }

      .cls-16 {
        fill: url(#linear-gradient-9);
      }

      .cls-17 {
        fill: url(#linear-gradient-8);
      }

      .cls-18 {
        fill: url(#linear-gradient-12);
      }

      .cls-19 {
        fill: url(#linear-gradient-13);
      }
    </style>
    <radialGradient id="radial-gradient" cx="298.17" cy="212.44" fx="298.17" fy="212.44" r="639.73" gradientTransform="translate(-174.93 -170.03) scale(.61 .76)" gradientUnits="userSpaceOnUse">
      <stop offset="0" stop-color="#3e6694"/>
      <stop offset=".26" stop-color="#284a70"/>
      <stop offset=".57" stop-color="#132d4d"/>
      <stop offset=".82" stop-color="#051c37"/>
      <stop offset=".99" stop-color="#01162f"/>
    </radialGradient>
    <linearGradient id="linear-gradient" x1="77.85" y1="85.03" x2="126.25" y2="85.03" gradientUnits="userSpaceOnUse">
      <stop offset="0" stop-color="#00d1ef"/>
      <stop offset="1" stop-color="aqua"/>
    </linearGradient>
    <linearGradient id="linear-gradient-2" x1="190.91" y1="304.84" x2="225.74" y2="304.84" xlink:href="#linear-gradient"/>
    <linearGradient id="linear-gradient-3" x1="46.36" y1="99.74" x2="70.59" y2="99.74" xlink:href="#linear-gradient"/>
    <linearGradient id="linear-gradient-4" x1="220.4" y1="333.21" x2="290.39" y2="333.21" xlink:href="#linear-gradient"/>
    <linearGradient id="linear-gradient-5" x1="11.57" y1="48.54" x2="87.86" y2="48.54" xlink:href="#linear-gradient"/>
    <linearGradient id="linear-gradient-6" x1="69.24" y1="196.09" x2="93.4" y2="196.09" xlink:href="#linear-gradient"/>
    <linearGradient id="linear-gradient-7" x1="193.67" y1="216.05" x2="217.84" y2="216.05" xlink:href="#linear-gradient"/>
    <linearGradient id="linear-gradient-8" x1="21.6" y1="254.52" x2="114.89" y2="254.52" xlink:href="#linear-gradient"/>
    <linearGradient id="linear-gradient-9" x1="174.18" y1="156.71" x2="268.71" y2="156.71" xlink:href="#linear-gradient"/>
    <linearGradient id="linear-gradient-10" x1="96.08" y1="203.8" x2="192.31" y2="203.8" xlink:href="#linear-gradient"/>
    <linearGradient id="linear-gradient-11" x1="102.91" y1="203.8" x2="185.48" y2="203.8" xlink:href="#linear-gradient"/>
    <linearGradient id="linear-gradient-12" x1="130.46" y1="187.44" x2="166.75" y2="223.73" xlink:href="#linear-gradient"/>
    <linearGradient id="linear-gradient-13" x1="140.96" y1="176.94" x2="177.25" y2="213.23" xlink:href="#linear-gradient"/>
    <linearGradient id="linear-gradient-14" x1="44.78" y1="255.24" x2="90.4" y2="255.24" xlink:href="#linear-gradient"/>
    <linearGradient id="linear-gradient-15" x1="62.58" y1="258.67" x2="72.59" y2="258.67" xlink:href="#linear-gradient"/>
    <linearGradient id="linear-gradient-16" x1="183.07" y1="155.75" x2="229.78" y2="155.75" xlink:href="#linear-gradient"/>
    <linearGradient id="linear-gradient-17" x1="220.87" y1="155.75" x2="267.57" y2="155.75" xlink:href="#linear-gradient"/>
  </defs>
  <g class="cls-10">
    <g id="Layer_1" data-name="Layer 1">
      <rect class="cls-12" x="-.93" y="-1.96" width="302.87" height="381.91"/>
      <path class="cls-3" d="m111.28,63.3h-18.45c-2.06,0-3.96,1.1-4.98,2.88l-9.22,15.98c-1.03,1.78-1.03,3.97,0,5.75l9.22,15.98c1.03,1.78,2.93,2.88,4.98,2.88h18.45c2.06,0,3.96-1.1,4.98-2.88l9.22-15.98c1.03-1.78,1.03-3.97,0-5.75l-9.22-15.98c-1.03-1.78-2.93-2.88-4.98-2.88Z"/>
      <path class="cls-1" d="m214.97,289.21h-13.27c-1.48,0-2.85.79-3.59,2.07l-6.64,11.5c-.74,1.28-.74,2.86,0,4.14l6.64,11.5c.74,1.28,2.11,2.07,3.59,2.07h13.27c1.48,0,2.85-.79,3.59-2.07l6.64-11.5c.74-1.28.74-2.86,0-4.14l-6.64-11.5c-.74-1.28-2.11-2.07-3.59-2.07Z"/>
      <path class="cls-4" d="m63.09,88.86h-9.23c-1.03,0-1.98.55-2.49,1.44l-4.62,8c-.51.89-.51,1.99,0,2.88l4.62,8c.51.89,1.47,1.44,2.49,1.44h9.23c1.03,0,1.98-.55,2.49-1.44l4.62-8c.51-.89.51-1.99,0-2.88l-4.62-8c-.51-.89-1.47-1.44-2.49-1.44Z"/>
      <path class="cls-5" d="m268.73,301.79h-26.67c-2.97,0-5.72,1.59-7.21,4.16l-13.34,23.1c-1.49,2.57-1.49,5.75,0,8.32l13.34,23.1c1.49,2.57,4.23,4.16,7.21,4.16h26.67c2.97,0,5.72-1.59,7.21-4.16l13.34-23.1c1.49-2.57,1.49-5.75,0-8.32l-13.34-23.1c-1.49-2.57-4.23-4.16-7.21-4.16Z"/>
      <path class="cls-2" d="m64.26,14.29h-29.08c-3.24,0-6.23,1.73-7.86,4.54l-14.54,25.18c-1.62,2.81-1.62,6.26,0,9.07l14.54,25.18c1.62,2.81,4.61,4.54,7.86,4.54h29.08c3.24,0,6.23-1.73,7.86-4.54l14.54-25.18c1.62-2.81,1.62-6.26,0-9.07l-14.54-25.18c-1.62-2.81-4.61-4.54-7.86-4.54Z"/>
      <path class="cls-9" d="m85.54,207.04h-8.45c-1.29,0-2.5-.7-3.15-1.82l-4.22-7.32c-.65-1.12-.65-2.51,0-3.64l4.22-7.32c.65-1.12,1.85-1.82,3.15-1.82h8.45c1.29,0,2.5.7,3.15,1.82l4.22,7.32c.65,1.12.65,2.51,0,3.64l-4.22,7.32c-.65,1.12-1.85,1.82-3.15,1.82Zm-8.45-19.9c-.58,0-1.12.31-1.42.82l-4.22,7.32c-.29.5-.29,1.13,0,1.64l4.22,7.32c.29.5.83.82,1.42.82h8.45c.58,0,1.12-.31,1.42-.82l4.22-7.32c.29-.5.29-1.13,0-1.64l-4.22-7.32c-.29-.5-.83-.82-1.42-.82h-8.45Z"/>
      <path class="cls-15" d="m209.98,227h-8.45c-1.29,0-2.5-.7-3.15-1.82l-4.22-7.32c-.65-1.12-.65-2.51,0-3.64l4.22-7.32c.65-1.12,1.85-1.82,3.15-1.82h8.45c1.29,0,2.5.7,3.15,1.82l4.22,7.32c.65,1.12.65,2.51,0,3.64l-4.22,7.32c-.65,1.12-1.85,1.82-3.15,1.82Zm-8.45-19.9c-.58,0-1.12.31-1.42.82l-4.22,7.32c-.29.5-.29,1.13,0,1.64l4.22,7.32c.29.5.83.82,1.42.82h8.45c.58,0,1.12-.31,1.42-.82l4.22-7.32c.29-.5.29-1.13,0-1.64l-4.22-7.32c-.29-.5-.83-.82-1.42-.82h-8.45Z"/>
      <path class="cls-17" d="m85.68,296.5h-34.88c-4.19,0-8.1-2.26-10.2-5.89l-17.44-30.21c-2.1-3.63-2.1-8.14,0-11.77l17.44-30.21c2.1-3.63,6-5.89,10.2-5.89h34.88c4.19,0,8.1,2.26,10.2,5.89l17.44,30.21c2.1,3.63,2.1,8.14,0,11.77l-17.44,30.21c-2.1,3.63-6,5.89-10.2,5.89Zm-34.88-82.18c-3.56,0-6.87,1.91-8.65,4.99l-17.44,30.21c-1.78,3.08-1.78,6.91,0,9.99l17.44,30.21c1.78,3.08,5.09,4.99,8.65,4.99h34.88c3.56,0,6.87-1.91,8.65-4.99l17.44-30.21c1.78-3.08,1.78-6.91,0-9.99l-17.44-30.21c-1.78-3.08-5.09-4.99-8.65-4.99h-34.88Z"/>
      <path class="cls-16" d="m239.17,199.22h-35.45c-4.21,0-8.13-2.26-10.24-5.91l-17.72-30.7c-2.1-3.65-2.1-8.17,0-11.82l17.72-30.7c2.1-3.65,6.03-5.91,10.24-5.91h35.45c4.21,0,8.13,2.26,10.24,5.91l17.72,30.7c2.1,3.65,2.1,8.18,0,11.82l-17.72,30.7c-2.1,3.65-6.03,5.91-10.24,5.91Zm-35.45-83.51c-3.67,0-7.08,1.97-8.92,5.15l-17.72,30.7c-1.83,3.18-1.83,7.12,0,10.3l17.72,30.7c1.83,3.18,5.25,5.15,8.92,5.15h35.45c3.67,0,7.08-1.97,8.92-5.15l17.72-30.7c1.83-3.18,1.83-7.12,0-10.3l-17.72-30.7c-1.83-3.18-5.25-5.15-8.92-5.15h-35.45Z"/>
      <g>
        <path class="cls-13" d="m162.25,247.08h-36.11c-4.28,0-8.26-2.3-10.4-6l-18.05-31.27c-2.14-3.7-2.14-8.3,0-12.01l18.05-31.27c2.14-3.7,6.12-6,10.4-6h36.11c4.28,0,8.26,2.3,10.4,6l18.05,31.27c2.14,3.7,2.14,8.31,0,12.01l-18.05,31.27c-2.14,3.7-6.12,6-10.4,6Zm-36.11-85.07c-3.75,0-7.24,2.02-9.11,5.26l-18.05,31.27c-1.87,3.24-1.87,7.28,0,10.52l18.05,31.27c1.87,3.24,5.36,5.26,9.11,5.26h36.11c3.75,0,7.24-2.02,9.11-5.26l18.05-31.27c1.87-3.24,1.87-7.28,0-10.52l-18.05-31.27c-1.87-3.24-5.36-5.26-9.11-5.26h-36.11Z"/>
        <path class="cls-11" d="m159.65,240.95h-30.91c-3.7,0-7.14-1.99-8.99-5.19l-15.45-26.77c-1.85-3.2-1.85-7.18,0-10.39l15.45-26.77c1.85-3.2,5.3-5.19,8.99-5.19h30.91c3.7,0,7.14,1.99,8.99,5.19l15.45,26.77c1.85,3.2,1.85,7.18,0,10.39l-15.45,26.77c-1.85,3.2-5.3,5.19-8.99,5.19Zm-30.91-72.81c-3.17,0-6.12,1.7-7.7,4.45l-15.45,26.77c-1.58,2.74-1.58,6.15,0,8.9l15.45,26.77c1.58,2.74,4.54,4.45,7.7,4.45h30.91c3.17,0,6.12-1.7,7.71-4.45l15.45-26.77c1.58-2.74,1.58-6.15,0-8.9l-15.45-26.77c-1.58-2.74-4.54-4.45-7.71-4.45h-30.91Z"/>
      </g>
      <g>
        <path class="cls-18" d="m169.49,200.25c0-2.87-2.34-5.21-5.21-5.21s-5.21,2.34-5.21,5.21c0,2.66,2.02,4.84,4.6,5.15v16.45c0,5.8-4.72,10.52-10.52,10.52s-10.52-4.72-10.52-10.52v-.17c3.83-.32,6.85-3.54,6.85-7.46,0-.48-.05-.95-.14-1.4,4.58-2.64,7.42-7.47,7.42-12.78v-12.16c0-2.16-1.76-3.91-3.91-3.91h-1.73c-.02-1.47-.23-4.12-2.12-4.12-1.57,0-2.8,2.03-2.8,4.61s1.23,4.61,2.8,4.61c1.78,0,2.07-2.34,2.12-3.85h1.74c1.47,0,2.66,1.19,2.66,2.66v12.16c0,4.75-2.49,9.09-6.53,11.53-1.07-2.82-3.8-4.84-7-4.84s-5.92,2.02-7,4.84c-4.02-2.45-6.51-6.81-6.51-11.53v-12.16c0-1.47,1.19-2.66,2.66-2.66h1.81c.05,1.51.34,3.85,2.12,3.85,1.57,0,2.8-2.03,2.8-4.61s-1.23-4.61-2.8-4.61c-1.89,0-2.1,2.65-2.12,4.12h-1.8c-2.16,0-3.91,1.76-3.91,3.91v12.16c0,5.28,2.84,10.16,7.41,12.79-.09.45-.13.92-.13,1.39,0,3.92,3.03,7.14,6.87,7.46v.17c0,6.49,5.28,11.78,11.78,11.78s11.78-5.28,11.78-11.78v-16.45c2.57-.32,4.57-2.49,4.57-5.14Zm-20.5-12.44c-.73,0-1.55-1.44-1.55-3.36s.82-3.36,1.55-3.36c.26,0,.87.33.87,3.36s-.61,3.36-.87,3.36Zm-13.93-6.72c.73,0,1.55,1.44,1.55,3.36s-.82,3.36-1.55,3.36c-.26,0-.87-.33-.87-3.36s.61-3.36.87-3.36Zm.69,33.13c0-3.44,2.8-6.24,6.24-6.24s6.24,2.8,6.24,6.24-2.8,6.24-6.24,6.24-6.24-2.8-6.24-6.24Zm28.53-10.01c-2.18,0-3.96-1.77-3.96-3.96s1.77-3.96,3.96-3.96,3.95,1.77,3.95,3.96-1.77,3.96-3.95,3.96Z"/>
        <path class="cls-19" d="m164.28,198.83c-.78,0-1.42.63-1.42,1.42s.63,1.42,1.42,1.42,1.42-.63,1.42-1.42-.63-1.42-1.42-1.42Z"/>
      </g>
      <g>
        <path class="cls-8" d="m76.29,243.52v-6.87h-17.4v6.87h-14.11v30.31h45.62v-30.31h-14.11Zm-15.96-5.42h14.51v5.42h-14.51v-5.42Zm28.62,34.29h-42.73v-27.42h42.73v27.42Z"/>
        <polygon class="cls-7" points="68.31 253.66 66.87 253.66 66.87 257.95 62.58 257.95 62.58 259.39 66.87 259.39 66.87 263.68 68.31 263.68 68.31 259.39 72.59 259.39 72.59 257.95 68.31 257.95 68.31 253.66"/>
      </g>
      <g>
        <polygon class="cls-14" points="202.29 169.43 198.58 145.38 195.41 156.71 183.07 156.71 183.07 155.7 194.95 155.7 198.77 142.07 202.47 166.1 207.51 147.9 210.46 160.32 213.03 150.06 214.87 155.65 229.78 155.65 229.78 156.66 214.44 156.66 213.12 152.62 210.44 163.29 207.46 150.74 202.29 169.43"/>
        <polygon class="cls-6" points="240.08 169.43 236.38 145.38 233.2 156.71 220.87 156.71 220.87 155.7 232.75 155.7 236.57 142.07 240.27 166.1 245.3 147.9 248.25 160.32 250.82 150.06 252.66 155.65 267.57 155.65 267.57 156.66 252.24 156.66 250.91 152.62 248.24 163.29 245.25 150.74 240.08 169.43"/>
      </g>
    </g>
  </g>
</svg>