<?xml version="1.0" encoding="UTF-8"?>
<svg xmlns="http://www.w3.org/2000/svg" xmlns:xlink="http://www.w3.org/1999/xlink" viewBox="0 0 301 378">
  <defs>
    <style>
      .cls-1 {
        fill: url(#linear-gradient-2);
      }

      .cls-1, .cls-2, .cls-3, .cls-4, .cls-5 {
        opacity: .2;
      }

      .cls-6 {
        fill: url(#linear-gradient-17);
      }

      .cls-7 {
        fill: url(#linear-gradient-15);
      }

      .cls-8 {
        fill: url(#linear-gradient-18);
      }

      .cls-9 {
        fill: url(#linear-gradient-21);
      }

      .cls-9, .cls-10 {
        fill-rule: evenodd;
      }

      .cls-11 {
        fill: url(#linear-gradient-14);
      }

      .cls-12 {
        fill: url(#linear-gradient-6);
      }

      .cls-13 {
        isolation: isolate;
      }

      .cls-14 {
        fill: url(#linear-gradient-11);
      }

      .cls-2 {
        fill: url(#linear-gradient-5);
      }

      .cls-15 {
        fill: url(#radial-gradient);
        mix-blend-mode: multiply;
      }

      .cls-3 {
        fill: url(#linear-gradient);
      }

      .cls-16 {
        fill: url(#linear-gradient-10);
      }

      .cls-4 {
        fill: url(#linear-gradient-3);
      }

      .cls-17 {
        fill: url(#linear-gradient-16);
      }

      .cls-5 {
        fill: url(#linear-gradient-4);
      }

      .cls-10 {
        fill: url(#linear-gradient-20);
      }

      .cls-18 {
        fill: url(#linear-gradient-7);
      }

      .cls-19 {
        fill: url(#linear-gradient-9);
      }

      .cls-20 {
        fill: url(#linear-gradient-22);
      }

      .cls-21 {
        fill: url(#linear-gradient-19);
      }

      .cls-22 {
        fill: url(#linear-gradient-8);
      }

      .cls-23 {
        fill: url(#linear-gradient-12);
      }

      .cls-24 {
        fill: url(#linear-gradient-13);
      }
    </style>
    <radialGradient id="radial-gradient" cx="72" cy="211.72" fx="72" fy="211.72" r="639.73" gradientTransform="translate(-37.93 -169.48) scale(.61 .76)" gradientUnits="userSpaceOnUse">
      <stop offset="0" stop-color="#3e6694"/>
      <stop offset=".26" stop-color="#284a70"/>
      <stop offset=".57" stop-color="#132d4d"/>
      <stop offset=".82" stop-color="#051c37"/>
      <stop offset=".99" stop-color="#01162f"/>
    </radialGradient>
    <linearGradient id="linear-gradient" x1="77.85" y1="85.03" x2="126.25" y2="85.03" gradientUnits="userSpaceOnUse">
      <stop offset="0" stop-color="#38c3e9"/>
      <stop offset="1" stop-color="#de6200"/>
    </linearGradient>
    <linearGradient id="linear-gradient-2" x1="190.91" y1="304.84" x2="225.74" y2="304.84" xlink:href="#linear-gradient"/>
    <linearGradient id="linear-gradient-3" x1="46.36" y1="99.74" x2="70.59" y2="99.74" xlink:href="#linear-gradient"/>
    <linearGradient id="linear-gradient-4" x1="220.4" y1="333.21" x2="290.39" y2="333.21" xlink:href="#linear-gradient"/>
    <linearGradient id="linear-gradient-5" x1="11.57" y1="48.54" x2="87.86" y2="48.54" xlink:href="#linear-gradient"/>
    <linearGradient id="linear-gradient-6" x1="69.24" y1="196.09" x2="93.4" y2="196.09" xlink:href="#linear-gradient"/>
    <linearGradient id="linear-gradient-7" x1="193.67" y1="216.05" x2="217.84" y2="216.05" xlink:href="#linear-gradient"/>
    <linearGradient id="linear-gradient-8" x1="21.6" y1="254.52" x2="114.89" y2="254.52" xlink:href="#linear-gradient"/>
    <linearGradient id="linear-gradient-9" x1="174.18" y1="156.71" x2="268.71" y2="156.71" xlink:href="#linear-gradient"/>
    <linearGradient id="linear-gradient-10" x1="96.08" y1="203.8" x2="192.31" y2="203.8" xlink:href="#linear-gradient"/>
    <linearGradient id="linear-gradient-11" x1="102.91" y1="203.8" x2="185.48" y2="203.8" xlink:href="#linear-gradient"/>
    <linearGradient id="linear-gradient-12" x1="129" y1="179.11" x2="169.49" y2="219.6" xlink:href="#linear-gradient"/>
    <linearGradient id="linear-gradient-13" x1="122.37" y1="185.73" x2="162.87" y2="226.22" xlink:href="#linear-gradient"/>
    <linearGradient id="linear-gradient-14" x1="125.66" y1="182.44" x2="166.15" y2="222.94" xlink:href="#linear-gradient"/>
    <linearGradient id="linear-gradient-15" x1="116.85" y1="191.25" x2="157.35" y2="231.74" xlink:href="#linear-gradient"/>
    <linearGradient id="linear-gradient-16" x1="138.26" y1="169.84" x2="178.76" y2="210.33" xlink:href="#linear-gradient"/>
    <linearGradient id="linear-gradient-17" x1="133.92" y1="174.19" x2="174.41" y2="214.68" xlink:href="#linear-gradient"/>
    <linearGradient id="linear-gradient-18" x1="59.09" y1="238.5" x2="87.84" y2="267.24" xlink:href="#linear-gradient"/>
    <linearGradient id="linear-gradient-19" x1="229.16" y1="147.36" x2="234.02" y2="147.36" xlink:href="#linear-gradient"/>
    <linearGradient id="linear-gradient-20" x1="222.79" y1="154.49" x2="226.05" y2="154.49" xlink:href="#linear-gradient"/>
    <linearGradient id="linear-gradient-21" x1="207.16" y1="155.46" x2="242.2" y2="155.46" xlink:href="#linear-gradient"/>
    <linearGradient id="linear-gradient-22" x1="220.63" y1="147.16" x2="223.34" y2="147.16" xlink:href="#linear-gradient"/>
  </defs>
  <g class="cls-13">
    <g id="Layer_1" data-name="Layer 1">
      <rect class="cls-15" x="-.93" y="-1.96" width="302.87" height="381.91"/>
      <path class="cls-3" d="m111.28,63.3h-18.45c-2.06,0-3.96,1.1-4.98,2.88l-9.22,15.98c-1.03,1.78-1.03,3.97,0,5.75l9.22,15.98c1.03,1.78,2.93,2.88,4.98,2.88h18.45c2.06,0,3.96-1.1,4.98-2.88l9.22-15.98c1.03-1.78,1.03-3.97,0-5.75l-9.22-15.98c-1.03-1.78-2.93-2.88-4.98-2.88Z"/>
      <path class="cls-1" d="m214.97,289.21h-13.27c-1.48,0-2.85.79-3.59,2.07l-6.64,11.5c-.74,1.28-.74,2.86,0,4.14l6.64,11.5c.74,1.28,2.11,2.07,3.59,2.07h13.27c1.48,0,2.85-.79,3.59-2.07l6.64-11.5c.74-1.28.74-2.86,0-4.14l-6.64-11.5c-.74-1.28-2.11-2.07-3.59-2.07Z"/>
      <path class="cls-4" d="m63.09,88.86h-9.23c-1.03,0-1.98.55-2.49,1.44l-4.62,8c-.51.89-.51,1.99,0,2.88l4.62,8c.51.89,1.47,1.44,2.49,1.44h9.23c1.03,0,1.98-.55,2.49-1.44l4.62-8c.51-.89.51-1.99,0-2.88l-4.62-8c-.51-.89-1.47-1.44-2.49-1.44Z"/>
      <path class="cls-5" d="m268.73,301.79h-26.67c-2.97,0-5.72,1.59-7.21,4.16l-13.34,23.1c-1.49,2.57-1.49,5.75,0,8.32l13.34,23.1c1.49,2.57,4.23,4.16,7.21,4.16h26.67c2.97,0,5.72-1.59,7.21-4.16l13.34-23.1c1.49-2.57,1.49-5.75,0-8.32l-13.34-23.1c-1.49-2.57-4.23-4.16-7.21-4.16Z"/>
      <path class="cls-2" d="m64.26,14.29h-29.08c-3.24,0-6.23,1.73-7.86,4.54l-14.54,25.18c-1.62,2.81-1.62,6.26,0,9.07l14.54,25.18c1.62,2.81,4.61,4.54,7.86,4.54h29.08c3.24,0,6.23-1.73,7.86-4.54l14.54-25.18c1.62-2.81,1.62-6.26,0-9.07l-14.54-25.18c-1.62-2.81-4.61-4.54-7.86-4.54Z"/>
      <path class="cls-12" d="m85.54,207.04h-8.45c-1.29,0-2.5-.7-3.15-1.82l-4.22-7.32c-.65-1.12-.65-2.51,0-3.64l4.22-7.32c.65-1.12,1.85-1.82,3.15-1.82h8.45c1.29,0,2.5.7,3.15,1.82l4.22,7.32c.65,1.12.65,2.51,0,3.64l-4.22,7.32c-.65,1.12-1.85,1.82-3.15,1.82Zm-8.45-19.9c-.58,0-1.12.31-1.42.82l-4.22,7.32c-.29.5-.29,1.13,0,1.64l4.22,7.32c.29.5.83.82,1.42.82h8.45c.58,0,1.12-.31,1.42-.82l4.22-7.32c.29-.5.29-1.13,0-1.64l-4.22-7.32c-.29-.5-.83-.82-1.42-.82h-8.45Z"/>
      <path class="cls-18" d="m209.98,227h-8.45c-1.29,0-2.5-.7-3.15-1.82l-4.22-7.32c-.65-1.12-.65-2.51,0-3.64l4.22-7.32c.65-1.12,1.85-1.82,3.15-1.82h8.45c1.29,0,2.5.7,3.15,1.82l4.22,7.32c.65,1.12.65,2.51,0,3.64l-4.22,7.32c-.65,1.12-1.85,1.82-3.15,1.82Zm-8.45-19.9c-.58,0-1.12.31-1.42.82l-4.22,7.32c-.29.5-.29,1.13,0,1.64l4.22,7.32c.29.5.83.82,1.42.82h8.45c.58,0,1.12-.31,1.42-.82l4.22-7.32c.29-.5.29-1.13,0-1.64l-4.22-7.32c-.29-.5-.83-.82-1.42-.82h-8.45Z"/>
      <path class="cls-22" d="m85.68,296.5h-34.88c-4.19,0-8.1-2.26-10.2-5.89l-17.44-30.21c-2.1-3.63-2.1-8.14,0-11.77l17.44-30.21c2.1-3.63,6-5.89,10.2-5.89h34.88c4.19,0,8.1,2.26,10.2,5.89l17.44,30.21c2.1,3.63,2.1,8.14,0,11.77l-17.44,30.21c-2.1,3.63-6,5.89-10.2,5.89Zm-34.88-82.18c-3.56,0-6.87,1.91-8.65,4.99l-17.44,30.21c-1.78,3.08-1.78,6.91,0,9.99l17.44,30.21c1.78,3.08,5.09,4.99,8.65,4.99h34.88c3.56,0,6.87-1.91,8.65-4.99l17.44-30.21c1.78-3.08,1.78-6.91,0-9.99l-17.44-30.21c-1.78-3.08-5.09-4.99-8.65-4.99h-34.88Z"/>
      <path class="cls-19" d="m239.17,199.22h-35.45c-4.21,0-8.13-2.26-10.24-5.91l-17.72-30.7c-2.1-3.65-2.1-8.17,0-11.82l17.72-30.7c2.1-3.65,6.03-5.91,10.24-5.91h35.45c4.21,0,8.13,2.26,10.24,5.91l17.72,30.7c2.1,3.65,2.1,8.18,0,11.82l-17.72,30.7c-2.1,3.65-6.03,5.91-10.24,5.91Zm-35.45-83.51c-3.67,0-7.08,1.97-8.92,5.15l-17.72,30.7c-1.83,3.18-1.83,7.12,0,10.3l17.72,30.7c1.83,3.18,5.25,5.15,8.92,5.15h35.45c3.67,0,7.08-1.97,8.92-5.15l17.72-30.7c1.83-3.18,1.83-7.12,0-10.3l-17.72-30.7c-1.83-3.18-5.25-5.15-8.92-5.15h-35.45Z"/>
      <g>
        <path class="cls-16" d="m162.25,247.08h-36.11c-4.28,0-8.26-2.3-10.4-6l-18.05-31.27c-2.14-3.7-2.14-8.3,0-12.01l18.05-31.27c2.14-3.7,6.12-6,10.4-6h36.11c4.28,0,8.26,2.3,10.4,6l18.05,31.27c2.14,3.7,2.14,8.31,0,12.01l-18.05,31.27c-2.14,3.7-6.12,6-10.4,6Zm-36.11-85.07c-3.75,0-7.24,2.02-9.11,5.26l-18.05,31.27c-1.87,3.24-1.87,7.28,0,10.52l18.05,31.27c1.87,3.24,5.36,5.26,9.11,5.26h36.11c3.75,0,7.24-2.02,9.11-5.26l18.05-31.27c1.87-3.24,1.87-7.28,0-10.52l-18.05-31.27c-1.87-3.24-5.36-5.26-9.11-5.26h-36.11Z"/>
        <path class="cls-14" d="m159.65,240.95h-30.91c-3.7,0-7.14-1.99-8.99-5.19l-15.45-26.77c-1.85-3.2-1.85-7.18,0-10.39l15.45-26.77c1.85-3.2,5.3-5.19,8.99-5.19h30.91c3.7,0,7.14,1.99,8.99,5.19l15.45,26.77c1.85,3.2,1.85,7.18,0,10.39l-15.45,26.77c-1.85,3.2-5.3,5.19-8.99,5.19Zm-30.91-72.81c-3.17,0-6.12,1.7-7.7,4.45l-15.45,26.77c-1.58,2.74-1.58,6.15,0,8.9l15.45,26.77c1.58,2.74,4.54,4.45,7.7,4.45h30.91c3.17,0,6.12-1.7,7.71-4.45l15.45-26.77c1.58-2.74,1.58-6.15,0-8.9l-15.45-26.77c-1.58-2.74-4.54-4.45-7.71-4.45h-30.91Z"/>
      </g>
      <g>
        <path class="cls-23" d="m146.85,201.73c2.63,0,4.77-2.13,4.77-4.77s-2.13-4.77-4.77-4.77-4.77,2.13-4.77,4.77,2.13,4.77,4.77,4.77Z"/>
        <path class="cls-24" d="m154.81,203.53h-15.92c-1.8,0-3.27,1.46-3.27,3.27v8.17h22.46v-8.17c0-1.8-1.46-3.27-3.27-3.27Z"/>
        <path class="cls-11" d="m134.24,196.54c3.04,0,5.51-2.47,5.51-5.51s-2.47-5.51-5.51-5.51-5.51,2.47-5.51,5.51,2.47,5.51,5.51,5.51Zm0-9.53c2.22,0,4.02,1.8,4.02,4.02s-1.8,4.02-4.02,4.02-4.02-1.8-4.02-4.02,1.8-4.02,4.02-4.02Z"/>
        <path class="cls-7" d="m123.76,202.63c0-1.39,1.13-2.52,2.52-2.52h12.81v-1.49h-12.81c-2.21,0-4.01,1.8-4.01,4.01v8.92h10.34v-1.49h-8.85v-7.43Z"/>
        <path class="cls-17" d="m159.45,196.54c3.04,0,5.51-2.47,5.51-5.51s-2.47-5.51-5.51-5.51-5.51,2.47-5.51,5.51,2.47,5.51,5.51,5.51Zm0-9.53c2.22,0,4.02,1.8,4.02,4.02s-1.8,4.02-4.02,4.02-4.02-1.8-4.02-4.02,1.8-4.02,4.02-4.02Z"/>
        <path class="cls-6" d="m167.41,198.62h-13.23v1.49h13.23c1.39,0,2.52,1.13,2.52,2.52v7.43h-9.39v1.49h10.88v-8.92c0-2.21-1.8-4.01-4.01-4.01Z"/>
      </g>
      <path class="cls-8" d="m103.87,251.01c-.29-1.52-1.64-2.52-3.2-2.41-.96.07-1.53.56-1.99.95-.57.48-.91.78-1.74.38-1.01-.48-1.67-1.56-1.67-2.75v-7.28h-7.28c-1.19,0-2.27-.66-2.75-1.67-.39-.83-.1-1.17.38-1.74.39-.46.88-1.03.95-1.99.12-1.57-.9-2.91-2.41-3.2-.9-.17-1.81.06-2.51.63-.69.57-1.09,1.42-1.09,2.32,0,1.11.53,1.73.96,2.23.49.58.79.92.36,1.79-.49.98-1.56,1.62-2.72,1.62h-13.97c-1.19,0-2.27-.66-2.75-1.67-.39-.83-.1-1.17.38-1.74.39-.46.88-1.03.95-1.99.12-1.57-.9-2.91-2.41-3.2-.9-.17-1.81.06-2.51.63-.69.57-1.09,1.42-1.09,2.32,0,1.11.53,1.73.96,2.23.49.58.79.92.36,1.79-.49.98-1.56,1.62-2.72,1.62h-7.28v7.28c0,1.19-.66,2.26-1.67,2.75-.83.4-1.17.1-1.74-.38-.46-.39-1.03-.88-1.99-.95-1.57-.11-2.91.9-3.2,2.41-.17.9.06,1.81.63,2.51.57.69,1.42,1.09,2.32,1.09,1.11,0,1.73-.53,2.23-.96.58-.49.92-.79,1.79-.36.98.49,1.62,1.56,1.62,2.72v7.28h7.28c1.19,0,2.27.66,2.75,1.67.39.83.1,1.17-.38,1.74-.39.46-.88,1.03-.95,1.99-.12,1.56.9,2.91,2.41,3.2.19.04.39.05.58.05.7,0,1.38-.24,1.92-.69.69-.57,1.09-1.42,1.09-2.32,0-1.11-.53-1.73-.96-2.23-.49-.58-.79-.92-.36-1.79.49-.98,1.56-1.62,2.72-1.62h13.97c1.19,0,2.26.66,2.75,1.67.39.83.1,1.17-.38,1.74-.39.46-.88,1.03-.95,1.99-.12,1.56.9,2.91,2.41,3.2.19.04.39.05.58.05.7,0,1.38-.24,1.92-.69.69-.57,1.09-1.42,1.09-2.32,0-1.11-.53-1.73-.96-2.23-.49-.58-.79-.92-.36-1.79.49-.98,1.56-1.62,2.72-1.62h7.28v-7.28c0-1.16.63-2.23,1.62-2.72.87-.43,1.22-.14,1.79.36.5.43,1.12.96,2.23.96.9,0,1.74-.4,2.32-1.09.57-.69.81-1.61.63-2.51Zm-1.09,2.13c-.46.56-1.14.88-1.87.88-.89,0-1.38-.42-1.85-.82-.6-.51-1.22-1.04-2.44-.43-1.18.59-1.94,1.86-1.94,3.24v6.69h-6.69c-1.38,0-2.65.76-3.24,1.94-.61,1.22-.08,1.84.43,2.43.4.47.82.96.82,1.85,0,.72-.32,1.41-.88,1.87-.56.46-1.3.65-2.02.51-1.22-.23-2.03-1.32-1.94-2.58.06-.77.44-1.21.81-1.65.5-.59,1.02-1.2.47-2.37-.58-1.22-1.86-2.01-3.28-2.01h-6.69v-6.69c0-1.16.63-2.23,1.62-2.72.87-.43,1.22-.14,1.79.36.5.43,1.12.96,2.23.96.9,0,1.74-.4,2.32-1.09s.81-1.61.64-2.51c-.29-1.51-1.63-2.52-3.2-2.41-.96.07-1.53.56-1.99.95-.57.48-.91.78-1.74.38-1.02-.48-1.67-1.56-1.67-2.75v-6.69h6.69c1.38,0,2.65-.76,3.24-1.94.61-1.22.08-1.84-.43-2.43-.4-.47-.82-.96-.82-1.85,0-.72.32-1.41.88-1.87.56-.46,1.29-.65,2.02-.51,1.22.23,2.03,1.32,1.94,2.58-.06.76-.44,1.21-.81,1.65-.5.59-1.02,1.2-.47,2.37.58,1.22,1.86,2.01,3.28,2.01h6.69v6.69c0,1.41.79,2.7,2.01,3.28,1.17.56,1.78.04,2.37-.47.43-.37.88-.76,1.65-.81,1.27-.1,2.35.72,2.58,1.94.14.73-.05,1.46-.51,2.02Z"/>
      <g>
        <circle class="cls-21" cx="231.59" cy="147.36" r="2.43"/>
        <path class="cls-10" d="m224.42,152.86c-.9,0-1.63.73-1.63,1.63s.73,1.63,1.63,1.63,1.63-.73,1.63-1.63-.73-1.63-1.63-1.63Z"/>
        <path class="cls-9" d="m241.98,147.12c-3.51-20.2-33.89-16.25-31.58,4.58.04.34-.46,1.1-.81,1.71-1.14,2-2.79,4.78-2.35,5.27.9.71,2.09.6,2.54,1.13.32.77-.15,1.45-.32,2.34-.23,1.16.18,1.09.98,1.59-1.6,1.73.23,1.45.69,2.64.6,1.58-2.6,4.97,3.59,4.94,3.76-.01,4.57,1.51,5.21,5.73h16.75c.14-5.3-.74-13.54,2.43-17.71,2.18-2.87,3.69-7.56,2.87-12.22Zm-22.41,2.21l.47-.56c-.13-.16-.24-.33-.33-.52l-.71.19-.24-.88.71-.19c0-.07,0-.13,0-.2,0-.14.01-.28.03-.42l-.69-.25.31-.86.69.25c.1-.18.23-.34.37-.49l-.42-.6.75-.53.42.6c.18-.08.38-.15.59-.19v-.73h.92v.73c.28.05.54.15.78.29l.47-.56.7.59-.47.56c.13.16.24.33.33.52l.71-.19.24.88-.71.19c0,.07,0,.13,0,.2,0,.14-.01.28-.03.42l.69.25-.31.86-.69-.25c-.1.18-.23.34-.38.49l.42.6-.75.52-.42-.6c-.18.08-.38.15-.59.19v.73h-.92v-.73c-.28-.05-.54-.15-.78-.29l-.47.56-.7-.59Zm7.87,5.16c0,.17-.01.34-.04.5l.83.3-.38,1.03-.83-.3c-.13.21-.28.41-.45.59l.51.72-.9.63-.5-.72c-.22.1-.46.18-.71.22v.88h-1.1v-.88c-.34-.06-.65-.18-.94-.34l-.57.67-.84-.71.57-.68c-.16-.19-.29-.4-.4-.62l-.85.23-.28-1.06.85-.23c0-.08,0-.16,0-.24,0-.17.01-.34.04-.5l-.83-.3.38-1.03.83.3c.13-.21.28-.41.45-.59l-.51-.72.9-.63.5.72c.22-.1.46-.18.71-.22v-.88h1.1v.88c.34.06.65.18.94.34l.57-.67.84.71-.57.68c.16.19.29.4.4.62l.85-.23.29,1.06-.85.23c0,.08,0,.16,0,.24Zm8.66-7.14c0,.25-.02.5-.06.75l1.23.45-.56,1.54-1.23-.45c-.19.32-.41.61-.67.87l.75,1.08-1.34.94-.75-1.08c-.33.15-.68.26-1.05.33v1.31h-1.64v-1.31c-.5-.09-.97-.27-1.4-.51l-.84,1.01-1.25-1.05.84-1.01c-.23-.28-.43-.59-.59-.93l-1.27.34-.42-1.58,1.27-.34c0-.12-.01-.24-.01-.36,0-.25.02-.5.06-.75l-1.23-.45.56-1.54,1.23.45c.19-.32.41-.61.67-.87l-.75-1.08,1.34-.94.75,1.08c.33-.15.68-.26,1.05-.33v-1.31h1.64v1.31c.5.09.97.27,1.4.51l.84-1.01,1.25,1.05-.84,1.01c.23.28.43.59.59.93l1.27-.34.42,1.58-1.27.34c0,.12.01.24.01.36Z"/>
        <circle class="cls-20" cx="221.98" cy="147.16" r="1.36"/>
      </g>
    </g>
  </g>
</svg>