<?xml version="1.0" encoding="UTF-8"?>
<svg xmlns="http://www.w3.org/2000/svg" xmlns:xlink="http://www.w3.org/1999/xlink" viewBox="0 0 302.87 401.26">
  <defs>
    <style>
      .cls-1 {
        fill: url(#linear-gradient-2);
      }

      .cls-1, .cls-2, .cls-3, .cls-4, .cls-5 {
        opacity: .2;
      }

      .cls-6 {
        fill: url(#linear-gradient-17);
      }

      .cls-7 {
        fill: url(#linear-gradient-15);
      }

      .cls-8 {
        fill: url(#linear-gradient-18);
      }

      .cls-9 {
        stroke: url(#linear-gradient-7);
      }

      .cls-9, .cls-10, .cls-11, .cls-12, .cls-13, .cls-14 {
        fill: none;
        stroke-miterlimit: 10;
      }

      .cls-9, .cls-10, .cls-12 {
        stroke-width: .71px;
      }

      .cls-15 {
        fill: url(#linear-gradient-14);
      }

      .cls-16 {
        isolation: isolate;
      }

      .cls-17 {
        fill: url(#linear-gradient-11);
      }

      .cls-2 {
        fill: url(#linear-gradient-5);
      }

      .cls-18 {
        fill: url(#radial-gradient);
        mix-blend-mode: multiply;
      }

      .cls-3 {
        fill: url(#linear-gradient);
      }

      .cls-19 {
        fill: url(#linear-gradient-10);
      }

      .cls-4 {
        fill: url(#linear-gradient-3);
      }

      .cls-20 {
        fill: url(#linear-gradient-16);
      }

      .cls-10 {
        stroke: url(#linear-gradient-23);
      }

      .cls-5 {
        fill: url(#linear-gradient-4);
      }

      .cls-11 {
        fill-rule: evenodd;
        stroke: url(#linear-gradient-24);
      }

      .cls-11, .cls-13, .cls-14 {
        stroke-width: .95px;
      }

      .cls-12 {
        stroke: url(#linear-gradient-6);
      }

      .cls-21 {
        fill: url(#linear-gradient-9);
      }

      .cls-13 {
        stroke: url(#linear-gradient-21);
      }

      .cls-22 {
        fill: url(#linear-gradient-22);
      }

      .cls-14 {
        stroke: url(#linear-gradient-20);
      }

      .cls-23 {
        fill: url(#linear-gradient-19);
      }

      .cls-24 {
        fill: url(#linear-gradient-8);
      }

      .cls-25 {
        fill: url(#linear-gradient-12);
      }

      .cls-26 {
        fill: url(#linear-gradient-13);
      }
    </style>
    <radialGradient id="radial-gradient" cx="301.66" cy="334.15" fx="301.66" fy="334.15" r="639.73" gradientTransform="translate(-176.1 -274.26) scale(.61 .8)" gradientUnits="userSpaceOnUse">
      <stop offset="0" stop-color="#3e6694"/>
      <stop offset=".26" stop-color="#284a70"/>
      <stop offset=".57" stop-color="#132d4d"/>
      <stop offset=".82" stop-color="#051c37"/>
      <stop offset=".99" stop-color="#01162f"/>
    </radialGradient>
    <linearGradient id="linear-gradient" x1="79.54" y1="152.89" x2="115.55" y2="152.89" gradientUnits="userSpaceOnUse">
      <stop offset="0" stop-color="#00d1ef"/>
      <stop offset="1" stop-color="aqua"/>
    </linearGradient>
    <linearGradient id="linear-gradient-2" x1="203.48" y1="283.21" x2="231.03" y2="283.21" xlink:href="#linear-gradient"/>
    <linearGradient id="linear-gradient-3" x1="44.9" y1="173.43" x2="69.21" y2="173.43" xlink:href="#linear-gradient"/>
    <linearGradient id="linear-gradient-4" x1="225.66" y1="305.67" x2="280.65" y2="305.67" xlink:href="#linear-gradient"/>
    <linearGradient id="linear-gradient-5" x1="23.88" y1="126.78" x2="85.9" y2="126.78" xlink:href="#linear-gradient"/>
    <linearGradient id="linear-gradient-6" x1="78.57" y1="197.66" x2="102.24" y2="197.66" xlink:href="#linear-gradient"/>
    <linearGradient id="linear-gradient-7" x1="196.78" y1="216.62" x2="220.45" y2="216.62" xlink:href="#linear-gradient"/>
    <linearGradient id="linear-gradient-8" x1="33.66" y1="253.17" x2="122.29" y2="253.17" xlink:href="#linear-gradient"/>
    <linearGradient id="linear-gradient-9" x1="109.75" y1="290.34" x2="198.38" y2="290.34" xlink:href="#linear-gradient"/>
    <linearGradient id="linear-gradient-10" x1="105.06" y1="120.1" x2="193.69" y2="120.1" xlink:href="#linear-gradient"/>
    <linearGradient id="linear-gradient-11" x1="178.62" y1="160.25" x2="268.42" y2="160.25" xlink:href="#linear-gradient"/>
    <linearGradient id="linear-gradient-12" x1="104.43" y1="204.99" x2="195.84" y2="204.99" xlink:href="#linear-gradient"/>
    <linearGradient id="linear-gradient-13" x1="110.91" y1="204.99" x2="189.36" y2="204.99" xlink:href="#linear-gradient"/>
    <linearGradient id="linear-gradient-14" x1="137.09" y1="189.44" x2="171.56" y2="223.92" xlink:href="#linear-gradient"/>
    <linearGradient id="linear-gradient-15" x1="147.06" y1="179.47" x2="181.54" y2="213.94" xlink:href="#linear-gradient"/>
    <linearGradient id="linear-gradient-16" x1="55.69" y1="253.85" x2="99.03" y2="253.85" xlink:href="#linear-gradient"/>
    <linearGradient id="linear-gradient-17" x1="72.6" y1="257.11" x2="82.11" y2="257.11" xlink:href="#linear-gradient"/>
    <linearGradient id="linear-gradient-18" x1="187.07" y1="159.34" x2="231.44" y2="159.34" xlink:href="#linear-gradient"/>
    <linearGradient id="linear-gradient-19" x1="222.97" y1="159.34" x2="267.34" y2="159.34" xlink:href="#linear-gradient"/>
    <linearGradient id="linear-gradient-20" x1="136.77" y1="293.13" x2="172.18" y2="293.13" xlink:href="#linear-gradient"/>
    <linearGradient id="linear-gradient-21" x1="150.35" y1="282.16" x2="158.53" y2="282.16" xlink:href="#linear-gradient"/>
    <linearGradient id="linear-gradient-22" x1="166.23" y1="274.3" x2="175.74" y2="274.3" xlink:href="#linear-gradient"/>
    <linearGradient id="linear-gradient-23" x1="195.09" y1="108.36" x2="212.74" y2="108.36" xlink:href="#linear-gradient"/>
    <linearGradient id="linear-gradient-24" x1="130.53" y1="124.2" x2="173.39" y2="124.2" xlink:href="#linear-gradient"/>
  </defs>
  <g class="cls-16">
    <g id="Layer_1" data-name="Layer 1">
      <rect class="cls-18" width="302.87" height="401.26"/>
      <path class="cls-3" d="m104.32,135.96h-13.56c-1.56,0-2.99.85-3.74,2.21l-6.96,12.66c-.7,1.28-.7,2.83,0,4.11l6.96,12.66c.75,1.36,2.18,2.21,3.74,2.21h13.56c1.56,0,2.99-.85,3.74-2.21l6.96-12.66c.7-1.28.7-2.83,0-4.11l-6.96-12.66c-.75-1.36-2.18-2.21-3.74-2.21Z"/>
      <path class="cls-1" d="m222.44,270.26h-10.37c-1.19,0-2.29.65-2.86,1.69l-5.32,9.69c-.54.98-.54,2.17,0,3.14l5.32,9.69c.57,1.04,1.67,1.69,2.86,1.69h10.37c1.19,0,2.29-.65,2.86-1.69l5.32-9.69c.54-.98.54-2.17,0-3.14l-5.32-9.69c-.57-1.04-1.67-1.69-2.86-1.69Z"/>
      <path class="cls-4" d="m61.63,162h-9.15c-1.05,0-2.02.57-2.52,1.49l-4.7,8.55c-.47.86-.47,1.91,0,2.77l4.7,8.55c.51.92,1.47,1.49,2.52,1.49h9.15c1.05,0,2.02-.57,2.52-1.49l4.7-8.55c.47-.86.47-1.91,0-2.77l-4.7-8.55c-.51-.92-1.47-1.49-2.52-1.49Z"/>
      <path class="cls-5" d="m263.51,279.82h-20.7c-2.38,0-4.57,1.29-5.71,3.38l-10.63,19.34c-1.07,1.95-1.07,4.32,0,6.28l10.63,19.34c1.14,2.08,3.33,3.38,5.71,3.38h20.7c2.38,0,4.57-1.29,5.71-3.38l10.63-19.34c1.07-1.95,1.07-4.32,0-6.28l-10.63-19.34c-1.14-2.08-3.33-3.38-5.71-3.38Z"/>
      <path class="cls-2" d="m66.56,97.62h-23.35c-2.68,0-5.15,1.46-6.44,3.81l-11.98,21.81c-1.21,2.2-1.21,4.87,0,7.08l11.98,21.81c1.29,2.35,3.76,3.81,6.44,3.81h23.35c2.68,0,5.15-1.46,6.44-3.81l11.98-21.81c1.21-2.2,1.21-4.87,0-7.08l-11.98-21.81c-1.29-2.35-3.76-3.81-6.44-3.81Z"/>
      <g>
        <path class="cls-12" d="m94.41,208.07h-8.02c-1.23,0-2.38-.66-2.99-1.73l-4.01-6.95c-.62-1.07-.62-2.39,0-3.45l4.01-6.95c.62-1.07,1.76-1.73,2.99-1.73h8.02c1.23,0,2.38.66,2.99,1.73l4.01,6.95c.62,1.07.62,2.39,0,3.45l-4.01,6.95c-.62,1.07-1.76,1.73-2.99,1.73Zm-8.02-18.91c-.55,0-1.07.3-1.35.78l-4.01,6.95c-.28.48-.28,1.07,0,1.55l4.01,6.95c.28.48.79.78,1.35.78h8.02c.55,0,1.07-.3,1.35-.78l4.01-6.95c.28-.48.28-1.07,0-1.55l-4.01-6.95c-.28-.48-.79-.78-1.35-.78h-8.02Z"/>
        <path class="cls-9" d="m212.63,227.03h-8.02c-1.23,0-2.38-.66-2.99-1.73l-4.01-6.95c-.62-1.07-.62-2.39,0-3.45l4.01-6.95c.62-1.07,1.76-1.73,2.99-1.73h8.02c1.23,0,2.38.66,2.99,1.73l4.01,6.95c.62,1.07.62,2.39,0,3.45l-4.01,6.95c-.62,1.07-1.76,1.73-2.99,1.73Zm-8.02-18.91c-.55,0-1.07.3-1.35.78l-4.01,6.95c-.28.48-.28,1.07,0,1.55l4.01,6.95c.28.48.79.78,1.35.78h8.02c.55,0,1.07-.3,1.35-.78l4.01-6.95c.28-.48.28-1.07,0-1.55l-4.01-6.95c-.28-.48-.79-.78-1.35-.78h-8.02Z"/>
        <path class="cls-24" d="m94.55,293.05h-33.14c-3.98,0-7.69-2.14-9.69-5.59l-16.57-28.7c-1.99-3.45-1.99-7.74,0-11.18l16.57-28.7c1.99-3.45,5.7-5.59,9.69-5.59h33.14c3.98,0,7.69,2.14,9.69,5.59l16.57,28.7c1.99,3.45,1.99,7.74,0,11.18l-16.57,28.7c-1.99,3.45-5.7,5.59-9.69,5.59Zm-33.14-78.07c-3.38,0-6.53,1.82-8.22,4.74l-16.57,28.7c-1.69,2.93-1.69,6.56,0,9.49l16.57,28.7c1.69,2.93,4.84,4.74,8.22,4.74h33.14c3.38,0,6.53-1.82,8.22-4.74l16.57-28.7c1.69-2.93,1.69-6.56,0-9.49l-16.57-28.7c-1.69-2.93-4.84-4.74-8.22-4.74h-33.14Z"/>
        <path class="cls-21" d="m170.63,330.22h-33.14c-3.98,0-7.69-2.14-9.69-5.59l-16.57-28.7c-1.99-3.45-1.99-7.74,0-11.18l16.57-28.7c1.99-3.45,5.7-5.59,9.69-5.59h33.14c3.98,0,7.69,2.14,9.69,5.59l16.57,28.7c1.99,3.45,1.99,7.74,0,11.18l-16.57,28.7c-1.99,3.45-5.7,5.59-9.69,5.59Zm-33.14-78.07c-3.38,0-6.53,1.82-8.22,4.74l-16.57,28.7c-1.69,2.93-1.69,6.56,0,9.49l16.57,28.7c1.69,2.93,4.84,4.74,8.22,4.74h33.14c3.38,0,6.53-1.82,8.22-4.74l16.57-28.7c1.69-2.93,1.69-6.56,0-9.49l-16.57-28.7c-1.69-2.93-4.84-4.74-8.22-4.74h-33.14Z"/>
        <path class="cls-19" d="m165.94,159.99h-33.14c-3.98,0-7.69-2.14-9.69-5.59l-16.57-28.7c-1.99-3.45-1.99-7.74,0-11.18l16.57-28.7c1.99-3.45,5.7-5.59,9.69-5.59h33.14c3.98,0,7.69,2.14,9.69,5.59l16.57,28.7c1.99,3.45,1.99,7.74,0,11.18l-16.57,28.7c-1.99,3.45-5.7,5.59-9.69,5.59Zm-33.14-78.07c-3.38,0-6.53,1.82-8.22,4.74l-16.57,28.7c-1.69,2.93-1.69,6.56,0,9.49l16.57,28.7c1.69,2.93,4.84,4.74,8.22,4.74h33.14c3.38,0,6.53-1.82,8.22-4.74l16.57-28.7c1.69-2.93,1.69-6.56,0-9.49l-16.57-28.7c-1.69-2.93-4.84-4.74-8.22-4.74h-33.14Z"/>
        <path class="cls-17" d="m240.36,200.64h-33.68c-4,0-7.73-2.15-9.72-5.61l-16.84-29.16c-2-3.46-2-7.77,0-11.23l16.84-29.16c2-3.46,5.73-5.61,9.72-5.61h33.68c4,0,7.73,2.15,9.72,5.61l16.84,29.16c2,3.46,2,7.77,0,11.23l-16.84,29.16c-2,3.46-5.73,5.61-9.72,5.61Zm-33.68-79.34c-3.48,0-6.73,1.87-8.47,4.89l-16.84,29.16c-1.74,3.02-1.74,6.76,0,9.78l16.84,29.16c1.74,3.02,4.99,4.89,8.47,4.89h33.68c3.48,0,6.73-1.87,8.47-4.89l16.84-29.16c1.74-3.02,1.74-6.76,0-9.78l-16.84-29.16c-1.74-3.02-4.99-4.89-8.47-4.89h-33.68Z"/>
        <g>
          <path class="cls-25" d="m167.28,246.1h-34.3c-4.06,0-7.85-2.19-9.88-5.7l-17.15-29.71c-2.03-3.52-2.03-7.89,0-11.41l17.15-29.71c2.03-3.52,5.82-5.7,9.88-5.7h34.3c4.06,0,7.85,2.19,9.88,5.7l17.15,29.71c2.03,3.52,2.03,7.89,0,11.41l-17.15,29.71c-2.03,3.52-5.82,5.7-9.88,5.7Zm-34.3-80.82c-3.56,0-6.88,1.91-8.65,5l-17.15,29.71c-1.78,3.08-1.78,6.91,0,9.99l17.15,29.71c1.78,3.08,5.1,5,8.65,5h34.3c3.56,0,6.88-1.91,8.65-5l17.15-29.71c1.78-3.08,1.78-6.91,0-9.99l-17.15-29.71c-1.78-3.08-5.1-5-8.65-5h-34.3Z"/>
          <path class="cls-26" d="m164.81,240.28h-29.36c-3.51,0-6.79-1.89-8.54-4.93l-14.68-25.43c-1.76-3.04-1.76-6.82,0-9.87l14.68-25.43c1.76-3.04,5.03-4.93,8.54-4.93h29.36c3.51,0,6.79,1.89,8.54,4.93l14.68,25.43c1.76,3.04,1.76,6.82,0,9.87l-14.68,25.43c-1.76,3.04-5.03,4.93-8.54,4.93Zm-29.36-69.17c-3.01,0-5.81,1.62-7.32,4.23l-14.68,25.43c-1.5,2.61-1.5,5.85,0,8.45l14.68,25.43c1.5,2.61,4.31,4.23,7.32,4.23h29.36c3.01,0,5.81-1.62,7.32-4.23l14.68-25.43c1.5-2.61,1.5-5.85,0-8.45l-14.68-25.43c-1.5-2.61-4.31-4.23-7.32-4.23h-29.36Z"/>
        </g>
        <g>
          <path class="cls-15" d="m174.16,201.61c0-2.73-2.22-4.95-4.95-4.95s-4.95,2.22-4.95,4.95c0,2.53,1.91,4.6,4.37,4.89v15.62c0,5.51-4.49,10-10,10s-10-4.48-10-10v-.16c3.64-.31,6.51-3.36,6.51-7.08,0-.46-.05-.9-.13-1.33,4.35-2.51,7.05-7.1,7.05-12.15v-11.55c0-2.05-1.67-3.72-3.72-3.72h-1.65c-.02-1.4-.22-3.91-2.02-3.91-1.49,0-2.66,1.92-2.66,4.38s1.17,4.38,2.66,4.38c1.69,0,1.97-2.23,2.01-3.66h1.65c1.39,0,2.53,1.13,2.53,2.53v11.55c0,4.52-2.37,8.63-6.2,10.96-1.02-2.68-3.61-4.6-6.65-4.6s-5.63,1.91-6.65,4.6c-3.82-2.32-6.18-6.47-6.18-10.96v-11.55c0-1.39,1.13-2.53,2.53-2.53h1.72c.04,1.43.32,3.66,2.01,3.66,1.49,0,2.66-1.92,2.66-4.38s-1.17-4.38-2.66-4.38c-1.8,0-2,2.51-2.02,3.91h-1.71c-2.05,0-3.72,1.67-3.72,3.72v11.55c0,5.01,2.7,9.65,7.03,12.15-.08.43-.13.87-.13,1.32,0,3.72,2.88,6.78,6.53,7.09v.16c0,6.17,5.02,11.19,11.19,11.19s11.19-5.02,11.19-11.19v-15.63c2.44-.3,4.34-2.37,4.34-4.89Zm-19.47-11.82c-.69,0-1.47-1.36-1.47-3.19s.77-3.19,1.47-3.19c.25,0,.83.31.83,3.19s-.58,3.19-.83,3.19Zm-13.23-6.38c.69,0,1.47,1.36,1.47,3.19s-.77,3.19-1.47,3.19c-.25,0-.83-.31-.83-3.19s.58-3.19.83-3.19Zm.65,31.47c0-3.27,2.66-5.92,5.92-5.92s5.92,2.66,5.92,5.92-2.66,5.92-5.92,5.92-5.92-2.66-5.92-5.92Zm27.11-9.51c-2.07,0-3.76-1.69-3.76-3.76s1.69-3.76,3.76-3.76,3.76,1.69,3.76,3.76-1.69,3.76-3.76,3.76Z"/>
          <path class="cls-7" d="m169.21,200.27c-.74,0-1.35.6-1.35,1.35s.6,1.35,1.35,1.35,1.35-.6,1.35-1.35-.6-1.35-1.35-1.35Z"/>
        </g>
        <g>
          <path class="cls-20" d="m85.62,242.72v-6.52h-16.53v6.52h-13.41v28.79h43.34v-28.79h-13.41Zm-15.16-5.15h13.79v5.15h-13.79v-5.15Zm27.19,32.57h-40.6v-26.05h40.6v26.05Z"/>
          <polygon class="cls-6" points="78.04 252.36 76.67 252.36 76.67 256.43 72.6 256.43 72.6 257.8 76.67 257.8 76.67 261.87 78.04 261.87 78.04 257.8 82.11 257.8 82.11 256.43 78.04 256.43 78.04 252.36"/>
        </g>
        <g>
          <polygon class="cls-8" points="205.32 172.34 201.8 149.49 198.79 160.25 187.07 160.25 187.07 159.29 198.36 159.29 201.98 146.34 205.5 169.17 210.28 151.88 213.09 163.68 215.53 153.93 217.27 159.25 231.44 159.25 231.44 160.21 216.87 160.21 215.61 156.37 213.07 166.5 210.23 154.58 205.32 172.34"/>
          <polygon class="cls-23" points="241.23 172.34 237.71 149.49 234.69 160.25 222.97 160.25 222.97 159.29 234.26 159.29 237.88 146.34 241.4 169.17 246.18 151.88 248.99 163.68 251.43 153.93 253.18 159.25 267.34 159.25 267.34 160.21 252.77 160.21 251.51 156.37 248.97 166.5 246.14 154.58 241.23 172.34"/>
        </g>
        <g>
          <path class="cls-14" d="m166.71,277.6c-1.36-.75-2.97-1.01-4.51-.98-1.33.03-2.67.31-3.87.9-1.26.61-2.36,2.08-3.84,2.08-.93,0-1.57-.69-2.28-1.19-4.27-3-11.05-1.9-13.64,2.81-1.61,2.92-1.9,6.87-.12,9.78,5.78,9.46,6.01,17.76,8.55,18.55,2.35.73,3.52-2.51,3.52-6.74,0-3.3,2.21-4.03,3.97-4.08,1.76.05,3.97.78,3.97,4.08,0,4.23,1.17,7.47,3.52,6.74,2.54-.79,2.77-9.09,8.55-18.55,1.65-2.69,1.38-6.19.21-9.13-.55-1.39-1.8-3.02-4.04-4.26Z"/>
          <path class="cls-13" d="m150.61,281.46s1.94,1.31,4.06,1.31,3.54-1.31,3.54-1.31"/>
        </g>
        <polygon class="cls-22" points="171.67 269.55 170.3 269.55 170.3 273.62 166.23 273.62 166.23 274.99 170.3 274.99 170.3 279.06 171.67 279.06 171.67 274.99 175.74 274.99 175.74 273.62 171.67 273.62 171.67 269.55"/>
        <path class="cls-10" d="m206.88,116.04h-5.92c-.91,0-1.75-.49-2.21-1.27l-2.96-5.13c-.45-.79-.45-1.76,0-2.55l2.96-5.13c.45-.79,1.3-1.27,2.21-1.27h5.92c.91,0,1.75.49,2.21,1.27l2.96,5.13c.45.79.45,1.76,0,2.55l-2.96,5.13c-.45.79-1.3,1.27-2.21,1.27Zm-5.92-13.95c-.41,0-.79.22-.99.57l-2.96,5.13c-.2.35-.2.79,0,1.15l2.96,5.13c.2.35.58.57.99.57h5.92c.41,0,.79-.22.99-.57l2.96-5.13c.2-.35.2-.79,0-1.15l-2.96-5.13c-.2-.35-.58-.57-.99-.57h-5.92Z"/>
        <path class="cls-11" d="m147.73,122.49h17.53c5.04,0-17.53-9.86-17.53,0h0Zm-3.82-8.04c1.61,0,2.83,1.2,2.83,2.81s-1.22,2.83-2.83,2.83h0c1.41.4,2.83,1.01,2.83,2.01v.4h-8.67v-2.22c0-.39.19-.59.4-.8.21-.19,2.21,0,4.22.42-1-.61-1.61-1.41-1.61-2.63,0-1.61,1.22-2.81,2.83-2.81h0Zm26.79,17.5c1.2.61,2.21,2.02,2.21,3.63,0,2.22-1.81,4.22-4.22,4.22-2.21,0-4.05-2.01-4.05-4.22,0-1.6.8-3.02,2.22-3.63v-4.41h-29.6v4.41c1.2.82,2.01,2.22,2.01,3.63,0,2.22-1.81,4.22-4.22,4.22-2.21,0-4.05-2.01-4.05-4.22,0-1.6,1.03-3.02,2.42-3.63v-23.34h3.84v14.9h29.6v-8.86h3.84v17.3Z"/>
      </g>
    </g>
  </g>
</svg>