<?xml version="1.0" encoding="UTF-8"?>
<svg xmlns="http://www.w3.org/2000/svg" xmlns:xlink="http://www.w3.org/1999/xlink" viewBox="0 0 302.87 401.26">
  <defs>
    <style>
      .cls-1 {
        fill: url(#linear-gradient-2);
      }

      .cls-1, .cls-2, .cls-3, .cls-4, .cls-5 {
        opacity: .2;
      }

      .cls-6 {
        fill: url(#linear-gradient-17);
      }

      .cls-7 {
        fill: url(#linear-gradient-15);
      }

      .cls-8 {
        fill: url(#linear-gradient-18);
      }

      .cls-9 {
        fill: url(#linear-gradient-28);
      }

      .cls-10 {
        fill: url(#linear-gradient-14);
      }

      .cls-11 {
        fill: url(#linear-gradient-20);
      }

      .cls-12 {
        isolation: isolate;
      }

      .cls-13 {
        fill: url(#linear-gradient-24);
      }

      .cls-13, .cls-14 {
        fill-rule: evenodd;
      }

      .cls-15 {
        fill: url(#linear-gradient-11);
      }

      .cls-2 {
        fill: url(#linear-gradient-5);
      }

      .cls-16 {
        fill: url(#radial-gradient);
        mix-blend-mode: multiply;
      }

      .cls-3 {
        fill: url(#linear-gradient);
      }

      .cls-17 {
        fill: url(#linear-gradient-10);
      }

      .cls-4 {
        fill: url(#linear-gradient-3);
      }

      .cls-18 {
        fill: url(#linear-gradient-16);
      }

      .cls-14 {
        fill: url(#linear-gradient-23);
      }

      .cls-19 {
        fill: url(#linear-gradient-31);
      }

      .cls-5 {
        fill: url(#linear-gradient-4);
      }

      .cls-20 {
        fill: url(#linear-gradient-21);
      }

      .cls-21 {
        fill: url(#linear-gradient-25);
      }

      .cls-22 {
        stroke: url(#linear-gradient-6);
      }

      .cls-22, .cls-23, .cls-24, .cls-25 {
        fill: none;
        stroke-miterlimit: 10;
      }

      .cls-22, .cls-23, .cls-25 {
        stroke-width: .71px;
      }

      .cls-26 {
        fill: url(#linear-gradient-9);
      }

      .cls-27 {
        fill: url(#linear-gradient-22);
      }

      .cls-23 {
        stroke: url(#linear-gradient-29);
      }

      .cls-24 {
        stroke: url(#linear-gradient-7);
        stroke-width: .53px;
      }

      .cls-28 {
        fill: url(#linear-gradient-27);
      }

      .cls-25 {
        stroke: url(#linear-gradient-8);
      }

      .cls-29 {
        fill: url(#linear-gradient-30);
      }

      .cls-30 {
        fill: url(#linear-gradient-19);
      }

      .cls-31 {
        fill: url(#linear-gradient-12);
      }

      .cls-32 {
        fill: url(#linear-gradient-13);
      }

      .cls-33 {
        fill: url(#linear-gradient-26);
      }
    </style>
    <radialGradient id="radial-gradient" cx="71.66" cy="334.43" fx="71.66" fy="334.43" r="639.73" gradientTransform="translate(-36.79 -274.49) scale(.61 .8)" gradientUnits="userSpaceOnUse">
      <stop offset="0" stop-color="#3e6694"/>
      <stop offset=".26" stop-color="#284a70"/>
      <stop offset=".57" stop-color="#132d4d"/>
      <stop offset=".82" stop-color="#051c37"/>
      <stop offset=".99" stop-color="#01162f"/>
    </radialGradient>
    <linearGradient id="linear-gradient" x1="205.83" y1="326.65" x2="233.38" y2="326.65" gradientUnits="userSpaceOnUse">
      <stop offset="0" stop-color="#38c3e9"/>
      <stop offset="1" stop-color="#de6200"/>
    </linearGradient>
    <linearGradient id="linear-gradient-2" x1="228.01" y1="349.11" x2="283" y2="349.11" xlink:href="#linear-gradient"/>
    <linearGradient id="linear-gradient-3" x1="79.54" y1="77.76" x2="115.55" y2="77.76" xlink:href="#linear-gradient"/>
    <linearGradient id="linear-gradient-4" x1="44.9" y1="98.3" x2="69.21" y2="98.3" xlink:href="#linear-gradient"/>
    <linearGradient id="linear-gradient-5" x1="23.88" y1="51.65" x2="85.9" y2="51.65" xlink:href="#linear-gradient"/>
    <linearGradient id="linear-gradient-6" x1="78.57" y1="196.52" x2="102.24" y2="196.52" xlink:href="#linear-gradient"/>
    <linearGradient id="linear-gradient-7" x1="194.44" y1="106.13" x2="211.91" y2="106.13" xlink:href="#linear-gradient"/>
    <linearGradient id="linear-gradient-8" x1="196.78" y1="215.47" x2="220.45" y2="215.47" xlink:href="#linear-gradient"/>
    <linearGradient id="linear-gradient-9" x1="33.66" y1="252.02" x2="122.29" y2="252.02" xlink:href="#linear-gradient"/>
    <linearGradient id="linear-gradient-10" x1="108.75" y1="291.43" x2="197.39" y2="291.43" xlink:href="#linear-gradient"/>
    <linearGradient id="linear-gradient-11" x1="178.62" y1="159.1" x2="268.42" y2="159.1" xlink:href="#linear-gradient"/>
    <linearGradient id="linear-gradient-12" x1="102.79" y1="118.21" x2="192.59" y2="118.21" xlink:href="#linear-gradient"/>
    <linearGradient id="linear-gradient-13" x1="104.43" y1="203.84" x2="195.84" y2="203.84" xlink:href="#linear-gradient"/>
    <linearGradient id="linear-gradient-14" x1="110.91" y1="203.84" x2="189.36" y2="203.84" xlink:href="#linear-gradient"/>
    <linearGradient id="linear-gradient-15" x1="135.69" y1="180.38" x2="174.16" y2="218.85" xlink:href="#linear-gradient"/>
    <linearGradient id="linear-gradient-16" x1="129.4" y1="186.67" x2="167.87" y2="225.14" xlink:href="#linear-gradient"/>
    <linearGradient id="linear-gradient-17" x1="132.53" y1="183.55" x2="171" y2="222.02" xlink:href="#linear-gradient"/>
    <linearGradient id="linear-gradient-18" x1="124.16" y1="191.91" x2="162.63" y2="230.38" xlink:href="#linear-gradient"/>
    <linearGradient id="linear-gradient-19" x1="144.5" y1="171.57" x2="182.97" y2="210.04" xlink:href="#linear-gradient"/>
    <linearGradient id="linear-gradient-20" x1="140.37" y1="175.71" x2="178.84" y2="214.18" xlink:href="#linear-gradient"/>
    <linearGradient id="linear-gradient-21" x1="69.29" y1="236.81" x2="96.59" y2="264.11" xlink:href="#linear-gradient"/>
    <linearGradient id="linear-gradient-22" x1="230.85" y1="150.22" x2="235.47" y2="150.22" xlink:href="#linear-gradient"/>
    <linearGradient id="linear-gradient-23" x1="224.8" y1="157" x2="227.89" y2="157" xlink:href="#linear-gradient"/>
    <linearGradient id="linear-gradient-24" x1="209.95" y1="157.91" x2="243.24" y2="157.91" xlink:href="#linear-gradient"/>
    <linearGradient id="linear-gradient-25" x1="222.74" y1="150.03" x2="225.32" y2="150.03" xlink:href="#linear-gradient"/>
    <linearGradient id="linear-gradient-26" x1="142.17" y1="103.06" x2="174.03" y2="138.83" xlink:href="#linear-gradient"/>
    <linearGradient id="linear-gradient-27" x1="140.88" y1="104.21" x2="172.74" y2="139.98" xlink:href="#linear-gradient"/>
    <linearGradient id="linear-gradient-28" x1="131.22" y1="112.81" x2="163.08" y2="148.58" xlink:href="#linear-gradient"/>
    <linearGradient id="linear-gradient-29" x1="132.72" y1="292.01" x2="174.51" y2="292.01" xlink:href="#linear-gradient"/>
    <linearGradient id="linear-gradient-30" x1="146.18" y1="291.07" x2="151.41" y2="291.07" xlink:href="#linear-gradient"/>
    <linearGradient id="linear-gradient-31" x1="149.39" y1="294.36" x2="155" y2="294.36" xlink:href="#linear-gradient"/>
  </defs>
  <g class="cls-12">
    <g id="Layer_1" data-name="Layer 1">
      <rect class="cls-16" width="302.87" height="401.26"/>
      <g>
        <path class="cls-3" d="m224.79,313.69h-10.37c-1.19,0-2.29.65-2.86,1.69l-5.32,9.69c-.54.98-.54,2.17,0,3.14l5.32,9.69c.57,1.04,1.67,1.69,2.86,1.69h10.37c1.19,0,2.29-.65,2.86-1.69l5.32-9.69c.54-.98.54-2.17,0-3.14l-5.32-9.69c-.57-1.04-1.67-1.69-2.86-1.69Z"/>
        <path class="cls-1" d="m265.86,323.26h-20.7c-2.38,0-4.57,1.29-5.71,3.38l-10.63,19.34c-1.07,1.95-1.07,4.32,0,6.28l10.63,19.34c1.14,2.08,3.33,3.38,5.71,3.38h20.7c2.38,0,4.57-1.29,5.71-3.38l10.63-19.34c1.07-1.95,1.07-4.32,0-6.28l-10.63-19.34c-1.14-2.08-3.33-3.38-5.71-3.38Z"/>
      </g>
      <g>
        <path class="cls-4" d="m104.32,60.83h-13.56c-1.56,0-2.99.85-3.74,2.21l-6.96,12.66c-.7,1.28-.7,2.83,0,4.11l6.96,12.66c.75,1.36,2.18,2.21,3.74,2.21h13.56c1.56,0,2.99-.85,3.74-2.21l6.96-12.66c.7-1.28.7-2.83,0-4.11l-6.96-12.66c-.75-1.36-2.18-2.21-3.74-2.21Z"/>
        <path class="cls-5" d="m61.63,86.87h-9.15c-1.05,0-2.02.57-2.52,1.49l-4.7,8.55c-.47.86-.47,1.91,0,2.77l4.7,8.55c.51.92,1.47,1.49,2.52,1.49h9.15c1.05,0,2.02-.57,2.52-1.49l4.7-8.55c.47-.86.47-1.91,0-2.77l-4.7-8.55c-.51-.92-1.47-1.49-2.52-1.49Z"/>
        <path class="cls-2" d="m66.56,22.49h-23.35c-2.68,0-5.15,1.46-6.44,3.81l-11.98,21.81c-1.21,2.2-1.21,4.87,0,7.08l11.98,21.81c1.29,2.35,3.76,3.81,6.44,3.81h23.35c2.68,0,5.15-1.46,6.44-3.81l11.98-21.81c1.21-2.2,1.21-4.87,0-7.08l-11.98-21.81c-1.29-2.35-3.76-3.81-6.44-3.81Z"/>
      </g>
      <g>
        <path class="cls-22" d="m94.41,206.92h-8.02c-1.23,0-2.38-.66-2.99-1.73l-4.01-6.95c-.62-1.07-.62-2.39,0-3.45l4.01-6.95c.62-1.07,1.76-1.73,2.99-1.73h8.02c1.23,0,2.38.66,2.99,1.73l4.01,6.95c.62,1.07.62,2.39,0,3.45l-4.01,6.95c-.62,1.07-1.76,1.73-2.99,1.73Zm-8.02-18.91c-.55,0-1.07.3-1.35.78l-4.01,6.95c-.28.48-.28,1.07,0,1.55l4.01,6.95c.28.48.79.78,1.35.78h8.02c.55,0,1.07-.3,1.35-.78l4.01-6.95c.28-.48.28-1.07,0-1.55l-4.01-6.95c-.28-.48-.79-.78-1.35-.78h-8.02Z"/>
        <path class="cls-24" d="m206.13,113.81h-5.92c-.91,0-1.75-.49-2.21-1.27l-2.96-5.13c-.45-.79-.45-1.76,0-2.55l2.96-5.13c.45-.79,1.3-1.27,2.21-1.27h5.92c.91,0,1.75.49,2.21,1.27l2.96,5.13c.45.79.45,1.76,0,2.55l-2.96,5.13c-.45.79-1.3,1.27-2.21,1.27Zm-5.92-13.95c-.41,0-.79.22-.99.57l-2.96,5.13c-.2.35-.2.79,0,1.15l2.96,5.13c.2.35.58.57.99.57h5.92c.41,0,.79-.22.99-.57l2.96-5.13c.2-.35.2-.79,0-1.15l-2.96-5.13c-.2-.35-.58-.57-.99-.57h-5.92Z"/>
        <path class="cls-25" d="m212.63,225.88h-8.02c-1.23,0-2.38-.66-2.99-1.73l-4.01-6.95c-.62-1.07-.62-2.39,0-3.45l4.01-6.95c.62-1.07,1.76-1.73,2.99-1.73h8.02c1.23,0,2.38.66,2.99,1.73l4.01,6.95c.62,1.07.62,2.39,0,3.45l-4.01,6.95c-.62,1.07-1.76,1.73-2.99,1.73Zm-8.02-18.91c-.55,0-1.07.3-1.35.78l-4.01,6.95c-.28.48-.28,1.07,0,1.55l4.01,6.95c.28.48.79.78,1.35.78h8.02c.55,0,1.07-.3,1.35-.78l4.01-6.95c.28-.48.28-1.07,0-1.55l-4.01-6.95c-.28-.48-.79-.78-1.35-.78h-8.02Z"/>
        <path class="cls-26" d="m94.55,291.9h-33.14c-3.98,0-7.69-2.14-9.69-5.59l-16.57-28.7c-1.99-3.45-1.99-7.74,0-11.18l16.57-28.7c1.99-3.45,5.7-5.59,9.69-5.59h33.14c3.98,0,7.69,2.14,9.69,5.59l16.57,28.7c1.99,3.45,1.99,7.74,0,11.18l-16.57,28.7c-1.99,3.45-5.7,5.59-9.69,5.59Zm-33.14-78.07c-3.38,0-6.53,1.82-8.22,4.74l-16.57,28.7c-1.69,2.93-1.69,6.56,0,9.49l16.57,28.7c1.69,2.93,4.84,4.74,8.22,4.74h33.14c3.38,0,6.53-1.82,8.22-4.74l16.57-28.7c1.69-2.93,1.69-6.56,0-9.49l-16.57-28.7c-1.69-2.93-4.84-4.74-8.22-4.74h-33.14Z"/>
        <path class="cls-17" d="m169.64,331.31h-33.14c-3.98,0-7.69-2.14-9.69-5.59l-16.57-28.7c-1.99-3.45-1.99-7.74,0-11.18l16.57-28.7c1.99-3.45,5.7-5.59,9.69-5.59h33.14c3.98,0,7.69,2.14,9.69,5.59l16.57,28.7c1.99,3.45,1.99,7.74,0,11.18l-16.57,28.7c-1.99,3.45-5.7,5.59-9.69,5.59Zm-33.14-78.07c-3.38,0-6.53,1.82-8.22,4.74l-16.57,28.7c-1.69,2.93-1.69,6.56,0,9.49l16.57,28.7c1.69,2.93,4.84,4.74,8.22,4.74h33.14c3.38,0,6.53-1.82,8.22-4.74l16.57-28.7c1.69-2.93,1.69-6.56,0-9.49l-16.57-28.7c-1.69-2.93-4.84-4.74-8.22-4.74h-33.14Z"/>
        <path class="cls-15" d="m240.36,199.49h-33.68c-4,0-7.73-2.15-9.72-5.61l-16.84-29.16c-2-3.46-2-7.77,0-11.23l16.84-29.16c2-3.46,5.73-5.61,9.72-5.61h33.68c4,0,7.73,2.15,9.72,5.61l16.84,29.16c2,3.46,2,7.77,0,11.23l-16.84,29.16c-2,3.46-5.73,5.61-9.72,5.61Zm-33.68-79.34c-3.48,0-6.73,1.87-8.47,4.89l-16.84,29.16c-1.74,3.02-1.74,6.76,0,9.78l16.84,29.16c1.74,3.02,4.99,4.89,8.47,4.89h33.68c3.48,0,6.73-1.87,8.47-4.89l16.84-29.16c1.74-3.02,1.74-6.76,0-9.78l-16.84-29.16c-1.74-3.02-4.99-4.89-8.47-4.89h-33.68Z"/>
        <path class="cls-31" d="m164.53,158.6h-33.68c-4,0-7.73-2.15-9.72-5.61l-16.84-29.16c-2-3.46-2-7.77,0-11.23l16.84-29.16c2-3.46,5.73-5.61,9.72-5.61h33.68c4,0,7.73,2.15,9.72,5.61l16.84,29.16c2,3.46,2,7.77,0,11.23l-16.84,29.16c-2,3.46-5.73,5.61-9.72,5.61Zm-33.68-79.34c-3.48,0-6.73,1.87-8.47,4.89l-16.84,29.16c-1.74,3.02-1.74,6.76,0,9.78l16.84,29.16c1.74,3.02,4.99,4.89,8.47,4.89h33.68c3.48,0,6.73-1.87,8.47-4.89l16.84-29.16c1.74-3.02,1.74-6.76,0-9.78l-16.84-29.16c-1.74-3.02-4.99-4.89-8.47-4.89h-33.68Z"/>
        <g>
          <path class="cls-32" d="m167.28,244.96h-34.3c-4.06,0-7.85-2.19-9.88-5.7l-17.15-29.71c-2.03-3.52-2.03-7.89,0-11.41l17.15-29.71c2.03-3.52,5.82-5.7,9.88-5.7h34.3c4.06,0,7.85,2.19,9.88,5.7l17.15,29.71c2.03,3.52,2.03,7.89,0,11.41l-17.15,29.71c-2.03,3.52-5.82,5.7-9.88,5.7Zm-34.3-80.82c-3.56,0-6.88,1.91-8.65,5l-17.15,29.71c-1.78,3.08-1.78,6.91,0,9.99l17.15,29.71c1.78,3.08,5.1,5,8.65,5h34.3c3.56,0,6.88-1.91,8.65-5l17.15-29.71c1.78-3.08,1.78-6.91,0-9.99l-17.15-29.71c-1.78-3.08-5.1-5-8.65-5h-34.3Z"/>
          <path class="cls-10" d="m164.81,239.13h-29.36c-3.51,0-6.79-1.89-8.54-4.93l-14.68-25.43c-1.76-3.04-1.76-6.82,0-9.87l14.68-25.43c1.76-3.04,5.03-4.93,8.54-4.93h29.36c3.51,0,6.79,1.89,8.54,4.93l14.68,25.43c1.76,3.04,1.76,6.82,0,9.87l-14.68,25.43c-1.76,3.04-5.03,4.93-8.54,4.93Zm-29.36-69.17c-3.01,0-5.81,1.62-7.32,4.23l-14.68,25.43c-1.5,2.61-1.5,5.85,0,8.45l14.68,25.43c1.5,2.61,4.31,4.23,7.32,4.23h29.36c3.01,0,5.81-1.62,7.32-4.23l14.68-25.43c1.5-2.61,1.5-5.85,0-8.45l-14.68-25.43c-1.5-2.61-4.31-4.23-7.32-4.23h-29.36Z"/>
        </g>
        <g>
          <path class="cls-7" d="m152.65,201.87c2.5,0,4.53-2.03,4.53-4.53s-2.03-4.53-4.53-4.53-4.53,2.03-4.53,4.53,2.03,4.53,4.53,4.53Z"/>
          <path class="cls-18" d="m160.22,203.58h-15.12c-1.71,0-3.1,1.39-3.1,3.1v7.76h21.33v-7.76c0-1.71-1.39-3.1-3.1-3.1Z"/>
          <path class="cls-6" d="m140.68,196.94c2.89,0,5.23-2.35,5.23-5.23s-2.35-5.23-5.23-5.23-5.23,2.35-5.23,5.23,2.35,5.23,5.23,5.23Zm0-9.06c2.11,0,3.82,1.71,3.82,3.82s-1.71,3.82-3.82,3.82-3.82-1.71-3.82-3.82,1.71-3.82,3.82-3.82Z"/>
          <path class="cls-8" d="m130.72,202.73c0-1.32,1.08-2.4,2.4-2.4h12.17v-1.41h-12.17c-2.1,0-3.81,1.71-3.81,3.81v8.47h9.83v-1.41h-8.41v-7.06Z"/>
          <path class="cls-30" d="m164.63,196.94c2.89,0,5.23-2.35,5.23-5.23s-2.35-5.23-5.23-5.23-5.24,2.35-5.24,5.23,2.35,5.23,5.24,5.23Zm0-9.06c2.11,0,3.82,1.71,3.82,3.82s-1.71,3.82-3.82,3.82-3.82-1.71-3.82-3.82,1.71-3.82,3.82-3.82Z"/>
          <path class="cls-11" d="m172.19,198.91h-12.57v1.41h12.57c1.32,0,2.4,1.08,2.4,2.4v7.06h-8.92v1.41h10.34v-8.47c0-2.1-1.71-3.81-3.81-3.81Z"/>
        </g>
        <path class="cls-20" d="m111.82,248.69c-.27-1.44-1.56-2.39-3.04-2.29-.91.07-1.45.53-1.89.9-.54.46-.86.74-1.65.36-.96-.46-1.59-1.48-1.59-2.61v-6.91h-6.91c-1.13,0-2.15-.62-2.61-1.59-.37-.79-.1-1.11.36-1.65.37-.44.84-.98.9-1.89.11-1.49-.85-2.77-2.29-3.04-.86-.16-1.72.06-2.38.6-.66.55-1.04,1.35-1.04,2.2,0,1.05.51,1.64.91,2.12.47.55.75.88.34,1.7-.47.93-1.48,1.54-2.58,1.54h-13.27c-1.13,0-2.15-.62-2.61-1.59-.37-.79-.1-1.11.36-1.65.37-.44.84-.98.9-1.89.11-1.49-.85-2.77-2.29-3.04-.85-.16-1.72.06-2.38.6-.66.55-1.04,1.35-1.04,2.2,0,1.05.51,1.64.91,2.12.47.55.75.88.34,1.7-.47.93-1.48,1.54-2.58,1.54h-6.91v6.91c0,1.13-.62,2.15-1.59,2.61-.79.38-1.11.1-1.65-.36-.44-.37-.98-.84-1.89-.9-1.49-.1-2.76.85-3.04,2.29-.16.85.06,1.72.6,2.38.55.66,1.35,1.04,2.2,1.04,1.05,0,1.64-.51,2.12-.91.55-.47.88-.75,1.7-.34.93.47,1.54,1.48,1.54,2.58v6.91h6.91c1.13,0,2.15.62,2.61,1.59.37.79.1,1.11-.36,1.65-.37.44-.84.98-.9,1.89-.11,1.49.85,2.76,2.29,3.04.18.04.37.05.55.05.67,0,1.31-.23,1.83-.65.66-.55,1.04-1.35,1.04-2.2,0-1.05-.51-1.64-.91-2.12-.47-.55-.75-.88-.34-1.7.47-.93,1.48-1.54,2.58-1.54h13.27c1.13,0,2.15.62,2.61,1.59.37.79.1,1.11-.36,1.65-.37.44-.84.98-.9,1.89-.11,1.49.85,2.76,2.29,3.04.18.04.37.05.55.05.67,0,1.31-.23,1.83-.65.66-.55,1.04-1.35,1.04-2.2,0-1.05-.51-1.64-.91-2.12-.47-.55-.75-.88-.34-1.7.47-.93,1.48-1.54,2.58-1.54h6.91v-6.91c0-1.1.6-2.12,1.54-2.58.82-.41,1.16-.13,1.7.34.48.41,1.07.91,2.12.91.85,0,1.66-.38,2.2-1.04.55-.66.77-1.53.6-2.38Zm-1.03,2.03c-.44.53-1.09.83-1.77.83-.85,0-1.31-.4-1.76-.78-.57-.49-1.16-.99-2.31-.41-1.12.56-1.84,1.77-1.84,3.08v6.36h-6.36c-1.31,0-2.52.72-3.08,1.84-.58,1.16-.07,1.74.41,2.31.38.45.78.91.78,1.76,0,.69-.3,1.34-.84,1.77-.53.44-1.23.62-1.92.48-1.16-.22-1.93-1.25-1.84-2.45.05-.73.42-1.15.77-1.57.48-.56.97-1.14.44-2.25-.55-1.16-1.77-1.9-3.11-1.9h-6.36v-6.36c0-1.1.6-2.12,1.54-2.58.82-.41,1.16-.13,1.7.34.48.41,1.07.91,2.12.91.85,0,1.66-.38,2.2-1.04s.77-1.53.6-2.38c-.27-1.44-1.55-2.4-3.04-2.29-.91.07-1.45.53-1.89.9-.54.46-.86.74-1.65.36-.96-.46-1.59-1.48-1.59-2.61v-6.36h6.36c1.31,0,2.52-.72,3.08-1.84.58-1.16.07-1.74-.41-2.31-.38-.45-.78-.91-.78-1.76,0-.69.3-1.34.84-1.78.53-.44,1.23-.62,1.92-.48,1.16.22,1.93,1.25,1.84,2.45-.05.73-.42,1.15-.77,1.57-.48.56-.97,1.14-.44,2.25.55,1.16,1.77,1.9,3.11,1.9h6.36v6.36c0,1.34.75,2.56,1.9,3.11,1.11.53,1.69.04,2.25-.44.41-.35.84-.72,1.57-.77,1.2-.09,2.23.68,2.45,1.84.13.69-.05,1.39-.48,1.92Z"/>
        <g>
          <circle class="cls-27" cx="233.16" cy="150.22" r="2.31"/>
          <path class="cls-14" d="m226.35,155.45c-.86,0-1.55.69-1.55,1.55s.69,1.55,1.55,1.55,1.55-.69,1.55-1.55-.69-1.55-1.55-1.55Z"/>
          <path class="cls-13" d="m243.03,149.99c-3.33-19.19-32.2-15.44-30.01,4.35.04.33-.43,1.04-.77,1.63-1.09,1.9-2.65,4.54-2.23,5.01.85.68,1.99.57,2.42,1.07.3.73-.14,1.38-.31,2.23-.22,1.1.17,1.03.93,1.51-1.52,1.64.22,1.38.65,2.51.57,1.5-2.47,4.72,3.41,4.69,3.57-.01,4.34,1.43,4.95,5.45h15.92c.13-5.04-.7-12.86,2.31-16.82,2.07-2.72,3.5-7.18,2.73-11.61Zm-21.29,2.1l.45-.54c-.12-.15-.23-.32-.31-.49l-.67.18-.23-.84.67-.18c0-.06,0-.12,0-.19,0-.13.01-.27.03-.4l-.65-.24.3-.82.66.24c.1-.17.22-.32.36-.46l-.4-.57.71-.5.4.57c.18-.08.36-.14.56-.18v-.7h.87v.7c.27.05.52.14.74.27l.45-.53.67.56-.45.53c.12.15.23.32.31.49l.67-.18.23.84-.67.18c0,.06,0,.13,0,.19,0,.14-.01.27-.03.4l.65.24-.3.82-.66-.24c-.1.17-.22.33-.36.46l.4.57-.71.5-.4-.57c-.18.08-.36.14-.56.18v.7h-.87v-.7c-.27-.05-.52-.14-.74-.27l-.45.53-.67-.56Zm7.48,4.9c0,.16-.01.32-.04.48l.79.29-.36.98-.79-.29c-.12.2-.26.39-.43.56l.48.69-.86.6-.48-.69c-.21.1-.44.17-.67.21v.84h-1.04v-.84c-.32-.06-.62-.17-.89-.32l-.54.64-.8-.67.54-.64c-.15-.18-.28-.38-.38-.59l-.81.22-.27-1.01.81-.22c0-.07,0-.15,0-.23,0-.16.01-.32.04-.47l-.79-.29.36-.98.79.29c.12-.2.26-.39.43-.56l-.48-.69.86-.6.48.68c.21-.1.44-.17.67-.21v-.84h1.04v.84c.32.06.62.17.89.32l.54-.64.8.67-.54.64c.15.18.28.38.38.59l.81-.22.27,1.01-.81.22c0,.07,0,.15,0,.23Zm8.22-6.78c0,.24-.02.48-.06.71l1.17.43-.53,1.46-1.17-.43c-.18.3-.39.58-.64.83l.72,1.02-1.27.89-.72-1.02c-.31.14-.65.25-1,.31v1.25h-1.56v-1.25c-.48-.09-.92-.25-1.33-.48l-.8.95-1.19-1,.8-.96c-.22-.27-.41-.57-.56-.88l-1.2.32-.4-1.5,1.2-.32c0-.11-.01-.22-.01-.34,0-.24.02-.48.06-.71l-1.17-.43.53-1.46,1.17.43c.18-.3.39-.58.64-.83l-.72-1.02,1.27-.89.72,1.02c.31-.14.65-.25,1-.31v-1.25h1.56v1.25c.48.09.92.25,1.33.48l.8-.95,1.19,1-.8.96c.22.27.41.56.56.88l1.2-.32.4,1.5-1.2.32c0,.11.01.22.01.34Z"/>
          <circle class="cls-21" cx="224.03" cy="150.03" r="1.29"/>
        </g>
        <g>
          <path class="cls-33" d="m137.87,124.49l1.13-.45c-.58-.98-1.06-2.02-1.41-3.11,1.16.19,2.6.37,4.22.83.66.19,1.01.43,1.15.7l1.55-.62c.6-.24,1.24-.36,1.88-.36h.04c-.63-.2-1.33-.34-2.07-.39-4.57-.31-5.46-1.82-.51-3.95,4.96-2.12,2.86-4.68-1.78-6.11-4.57-1.41,1.56-4.69-1.64-5.75,1.22-1.5,2.68-2.76,4.34-3.74.01,0,.03-.02.04-.02,0,0,0,0,0,0,1.57,2.69.58,8.85,3.41,7.77,2.56-.97,2.44-4.14,4.49-4.06,2.05.08.2-4.76,3.68-5.14.39-.04.74-.14,1.06-.27,0,0,0,0,0,0,.19.05.38.1.57.16,3.43,1.06,6.48,3.26,8.57,6.21.02.02.04.05.05.08-.97.85-2.25,1.4-3.64.45-2.94-2.01-4.53-1.55-5.73.08-1.2,1.63-2.05,3.18.62,2.86,2.67-.31,4.29-.54,2.63.78-1.66,1.31-4.8,1.08-5.34,2.79-.54,1.7,1.12,2.75,3.1,1.7,1.97-1.05,2.4,1.31,5.38-.2s.81,5.92,3.06,5.57c.62-.1,1.31.22,2.02.72-.02.06-.04.12-.06.18-.5,1.42-1.19,2.75-2.04,3.96l1.89-.75c.51-.89.93-1.83,1.28-2.81.68-1.89,1.01-3.87,1.01-5.89,0-3.68-1.12-7.22-3.25-10.22-2.24-3.17-5.51-5.54-9.2-6.66-1.68-.52-3.43-.78-5.2-.78-3.18,0-6.3.86-9.02,2.47-1.85,1.1-3.47,2.51-4.82,4.21-2.5,3.15-3.82,6.95-3.82,10.98,0,1.81.27,3.59.81,5.29.39,1.22.9,2.39,1.53,3.49Z"/>
          <path class="cls-28" d="m161.5,119.84c-.55-.78-4.13-.43-4.79-1.59-.66-1.17-4.09,1.79-4.87,3.99-.77,2.21.97,3.1,3.06,1.82,1.79-1.09.83,1.18,2.11,4.81.59-.14,1.17-.33,1.74-.56l4.06-1.61c.33-1.94,2.59-2.28,1.95-3.07-.91-1.12-2.71-3.02-3.26-3.79Z"/>
          <path class="cls-9" d="m173,127.75c-.48-1.2-1.83-1.78-3.03-1.31l-10.32,4.1c-2.15.85-4.45,1.23-6.76,1.11l-7.08-.38c-.72-.04-.91-1-.27-1.32l1.85-.89c1.37-.55,2.04-2.1,1.5-3.47h0c-.55-1.37-2.1-2.04-3.47-1.5l-11.59,4.61-.92-2.32-7.29,2.9,6.75,16.98,7.29-2.9-.83-2.1,17-4.37c.85-.22,1.68-.49,2.49-.81l13.38-5.32c1.2-.48,1.78-1.83,1.31-3.03Zm-39.93,16.88l-5.82-14.64,4.95-1.97,5.82,14.64-4.95,1.97Z"/>
        </g>
        <g>
          <path class="cls-23" d="m164.33,269.35c-2.09,0-4.2,1.13-6.63,3.56l-5.75,5.75c-.78.78-.57,1.58-.45,1.89.17.42.47.72.76,1.01l2.33,2.33-2.41,2.41-1.94-1.94c-.43-.43-1.01-.67-1.62-.67s-1.19.24-1.62.67l-5.91,5.91c-.89.89-.89,2.35,0,3.24l1.94,1.94-8.86,8.86c-1.43,1.43-1.46,3.72-.08,5.1.65.65,1.53,1.02,2.48,1.02s1.92-.39,2.63-1.09l7.36-7.36v10.41h-7.26c-.63,0-1.15.51-1.15,1.15s.51,1.15,1.15,1.15h16.82c.63,0,1.15-.51,1.15-1.15s-.51-1.15-1.15-1.15h-7.26v-11.1l1.15,1.15c.43.43,1.01.67,1.62.67s1.19-.24,1.62-.67l5.91-5.91c.43-.43.67-1.01.67-1.62s-.24-1.19-.67-1.62l-1.94-1.94,2.41-2.41,2.46,2.46c.38.38.8.8,1.48.8.6,0,1.03-.36,1.3-.62l5.75-5.75c4.69-4.69,4.74-8.47.16-13.05-2.32-2.32-4.36-3.4-6.43-3.4Zm-6.81,25.54l-5.9,5.91s0,0,0,0h0s-.9-.9-.9-.9l-8.01-8.01,5.18-5.18.73-.73,8.91,8.91Zm-1.94-5.18l-.54-.54-1.25-1.25,1.94-1.94.47-.47,1.78,1.79-2.41,2.41Z"/>
          <g>
            <path class="cls-29" d="m150.15,291.33l.18.18c.26.26.69.29.91.06.12-.12.17-.28.16-.45-.01-.17-.09-.33-.22-.46l-1.99-1.99c-.26-.26-.69-.29-.91-.06-.12.12-.17.28-.16.45.01.17.09.33.22.46l.17.17c.09.09.13.2.13.32s-.05.24-.13.32l-2.14,2.14c-.27.27-.27.7.02.99.13.13.3.2.49.2s.36-.07.49-.2l2.14-2.14c.17-.17.47-.17.65,0Z"/>
            <path class="cls-19" d="m154.82,294.3l-.06-.06c-.25-.25-.73-.32-1.04-.15l-1.52.82c-.54.29-1.13.65-1.13.66-.03.02-.06.04-.09.06.25-.4.45-.74.45-.75.15-.27.41-.72.56-1l.54-.98c.18-.32.11-.79-.15-1.04l-.09-.09c-.27-.27-.68-.2-.85.13l-1.95,3.79c-.17.32-.09.79.16,1.05l.15.15c.16.16.41.26.67.26.14,0,.27-.03.38-.08l3.84-1.91c.17-.08.28-.22.31-.38.03-.16-.03-.33-.17-.46Z"/>
          </g>
        </g>
      </g>
    </g>
  </g>
</svg>