<?xml version="1.0" encoding="UTF-8"?>
<svg xmlns="http://www.w3.org/2000/svg" xmlns:xlink="http://www.w3.org/1999/xlink" viewBox="0 0 301 396.78">
  <defs>
    <style>
      .cls-1 {
        stroke: url(#linear-gradient-24);
      }

      .cls-1, .cls-2, .cls-3, .cls-4, .cls-5, .cls-6 {
        fill: none;
        stroke-miterlimit: 10;
      }

      .cls-1, .cls-2, .cls-4 {
        stroke-width: .95px;
      }

      .cls-7 {
        fill: url(#linear-gradient-2);
      }

      .cls-7, .cls-8, .cls-9, .cls-10, .cls-11 {
        opacity: .2;
      }

      .cls-12 {
        fill: url(#linear-gradient-17);
      }

      .cls-2 {
        stroke: url(#linear-gradient-23);
      }

      .cls-13 {
        fill: url(#linear-gradient-15);
      }

      .cls-14 {
        fill: url(#linear-gradient-18);
      }

      .cls-3 {
        stroke: url(#linear-gradient-7);
      }

      .cls-3, .cls-5, .cls-6 {
        stroke-width: .71px;
      }

      .cls-15 {
        fill: url(#linear-gradient-28);
      }

      .cls-16 {
        fill: url(#linear-gradient-20);
      }

      .cls-17 {
        isolation: isolate;
      }

      .cls-4 {
        stroke: url(#linear-gradient-25);
      }

      .cls-18 {
        fill: url(#linear-gradient-11);
      }

      .cls-8 {
        fill: url(#linear-gradient-5);
      }

      .cls-19 {
        fill: url(#radial-gradient);
        mix-blend-mode: multiply;
      }

      .cls-9 {
        fill: url(#linear-gradient);
      }

      .cls-20 {
        fill: url(#linear-gradient-10);
      }

      .cls-10 {
        fill: url(#linear-gradient-3);
      }

      .cls-21 {
        fill: url(#linear-gradient-16);
      }

      .cls-11 {
        fill: url(#linear-gradient-4);
      }

      .cls-5 {
        stroke: url(#linear-gradient-14);
      }

      .cls-22 {
        fill: url(#linear-gradient-21);
      }

      .cls-6 {
        stroke: url(#linear-gradient-6);
      }

      .cls-23 {
        fill: url(#linear-gradient-9);
      }

      .cls-24 {
        fill: url(#linear-gradient-22);
      }

      .cls-25 {
        fill: url(#linear-gradient-27);
      }

      .cls-26 {
        fill: url(#linear-gradient-29);
      }

      .cls-27 {
        fill: url(#linear-gradient-19);
      }

      .cls-28 {
        fill: url(#linear-gradient-8);
      }

      .cls-29 {
        fill: url(#linear-gradient-12);
      }

      .cls-30 {
        fill: url(#linear-gradient-13);
      }

      .cls-31 {
        fill: url(#linear-gradient-26);
      }
    </style>
    <radialGradient id="radial-gradient" cx="-144.76" cy="332.13" fx="-144.76" fy="332.13" r="639.73" gradientTransform="translate(93.37 -274.88) scale(.61 .8)" gradientUnits="userSpaceOnUse">
      <stop offset="0" stop-color="#3e6694"/>
      <stop offset=".26" stop-color="#284a70"/>
      <stop offset=".57" stop-color="#132d4d"/>
      <stop offset=".82" stop-color="#051c37"/>
      <stop offset=".99" stop-color="#01162f"/>
    </radialGradient>
    <linearGradient id="linear-gradient" x1="208.42" y1="323.23" x2="235.97" y2="323.23" gradientUnits="userSpaceOnUse">
      <stop offset="0" stop-color="#38c3e9"/>
      <stop offset="1" stop-color="#a100ff"/>
    </linearGradient>
    <linearGradient id="linear-gradient-2" x1="230.6" y1="345.7" x2="285.58" y2="345.7" xlink:href="#linear-gradient"/>
    <linearGradient id="linear-gradient-3" x1="76.26" y1="76.69" x2="112.27" y2="76.69" xlink:href="#linear-gradient"/>
    <linearGradient id="linear-gradient-4" x1="41.62" y1="97.23" x2="65.93" y2="97.23" xlink:href="#linear-gradient"/>
    <linearGradient id="linear-gradient-5" x1="20.6" y1="50.58" x2="82.62" y2="50.58" xlink:href="#linear-gradient"/>
    <linearGradient id="linear-gradient-6" x1="78.02" y1="195.88" x2="101.69" y2="195.88" xlink:href="#linear-gradient"/>
    <linearGradient id="linear-gradient-7" x1="196.24" y1="214.84" x2="219.9" y2="214.84" xlink:href="#linear-gradient"/>
    <linearGradient id="linear-gradient-8" x1="33.12" y1="251.39" x2="121.75" y2="251.39" xlink:href="#linear-gradient"/>
    <linearGradient id="linear-gradient-9" x1="108.95" y1="290.05" x2="197.59" y2="290.05" xlink:href="#linear-gradient"/>
    <linearGradient id="linear-gradient-10" x1="105.24" y1="116.82" x2="193.87" y2="116.82" xlink:href="#linear-gradient"/>
    <linearGradient id="linear-gradient-11" x1="178.08" y1="158.46" x2="267.88" y2="158.46" xlink:href="#linear-gradient"/>
    <linearGradient id="linear-gradient-12" x1="103.88" y1="203.21" x2="195.3" y2="203.21" xlink:href="#linear-gradient"/>
    <linearGradient id="linear-gradient-13" x1="110.37" y1="203.21" x2="188.81" y2="203.21" xlink:href="#linear-gradient"/>
    <linearGradient id="linear-gradient-14" x1="195.28" y1="106.86" x2="212.93" y2="106.86" xlink:href="#linear-gradient"/>
    <linearGradient id="linear-gradient-15" x1="47.78" y1="246.46" x2="82.3" y2="280.97" xlink:href="#linear-gradient"/>
    <linearGradient id="linear-gradient-16" x1="56.57" y1="237.66" x2="91.09" y2="272.18" xlink:href="#linear-gradient"/>
    <linearGradient id="linear-gradient-17" x1="64.66" y1="229.57" x2="99.18" y2="264.09" xlink:href="#linear-gradient"/>
    <linearGradient id="linear-gradient-18" x1="64.11" y1="230.12" x2="98.63" y2="264.64" xlink:href="#linear-gradient"/>
    <linearGradient id="linear-gradient-19" x1="128.28" y1="205.21" x2="173.44" y2="205.21" xlink:href="#linear-gradient"/>
    <linearGradient id="linear-gradient-20" x1="148.68" y1="282.01" x2="174.67" y2="282.01" xlink:href="#linear-gradient"/>
    <linearGradient id="linear-gradient-21" x1="130.82" y1="293.03" x2="152.19" y2="293.03" xlink:href="#linear-gradient"/>
    <linearGradient id="linear-gradient-22" x1="148.74" y1="303.75" x2="166.09" y2="303.75" xlink:href="#linear-gradient"/>
    <linearGradient id="linear-gradient-23" x1="130.94" y1="105.46" x2="167.55" y2="105.46" xlink:href="#linear-gradient"/>
    <linearGradient id="linear-gradient-24" x1="154.87" y1="118.92" x2="175.45" y2="118.92" xlink:href="#linear-gradient"/>
    <linearGradient id="linear-gradient-25" x1="130.94" y1="128.91" x2="163.37" y2="128.91" xlink:href="#linear-gradient"/>
    <linearGradient id="linear-gradient-26" x1="191.48" y1="158.36" x2="254.15" y2="158.36" xlink:href="#linear-gradient"/>
    <linearGradient id="linear-gradient-27" x1="191.48" y1="158.36" x2="254.15" y2="158.36" xlink:href="#linear-gradient"/>
    <linearGradient id="linear-gradient-28" x1="136.08" y1="158.22" x2="311.71" y2="158.22" xlink:href="#linear-gradient"/>
    <linearGradient id="linear-gradient-29" x1="136.08" y1="158.22" x2="311.71" y2="158.22" xlink:href="#linear-gradient"/>
  </defs>
  <g class="cls-17">
    <g id="Layer_1" data-name="Layer 1">
      <rect class="cls-19" x="-.93" y="-2.24" width="302.87" height="401.26"/>
      <g>
        <path class="cls-9" d="m227.38,310.28h-10.37c-1.19,0-2.29.65-2.86,1.69l-5.32,9.69c-.54.98-.54,2.17,0,3.14l5.32,9.69c.57,1.04,1.67,1.69,2.86,1.69h10.37c1.19,0,2.29-.65,2.86-1.69l5.32-9.69c.54-.98.54-2.17,0-3.14l-5.32-9.69c-.57-1.04-1.67-1.69-2.86-1.69Z"/>
        <path class="cls-7" d="m268.44,319.84h-20.7c-2.38,0-4.57,1.29-5.71,3.38l-10.63,19.34c-1.07,1.95-1.07,4.32,0,6.28l10.63,19.34c1.14,2.08,3.33,3.38,5.71,3.38h20.7c2.38,0,4.57-1.29,5.71-3.38l10.63-19.34c1.07-1.95,1.07-4.32,0-6.28l-10.63-19.34c-1.14-2.08-3.33-3.38-5.71-3.38Z"/>
      </g>
      <g>
        <path class="cls-10" d="m101.04,59.76h-13.56c-1.56,0-2.99.85-3.74,2.21l-6.96,12.66c-.7,1.28-.7,2.83,0,4.11l6.96,12.66c.75,1.36,2.18,2.21,3.74,2.21h13.56c1.56,0,2.99-.85,3.74-2.21l6.96-12.66c.7-1.28.7-2.83,0-4.11l-6.96-12.66c-.75-1.36-2.18-2.21-3.74-2.21Z"/>
        <path class="cls-11" d="m58.35,85.8h-9.15c-1.05,0-2.02.57-2.52,1.49l-4.7,8.55c-.47.86-.47,1.91,0,2.77l4.7,8.55c.51.92,1.47,1.49,2.52,1.49h9.15c1.05,0,2.02-.57,2.52-1.49l4.7-8.55c.47-.86.47-1.91,0-2.77l-4.7-8.55c-.51-.92-1.47-1.49-2.52-1.49Z"/>
        <path class="cls-8" d="m63.28,21.42h-23.35c-2.68,0-5.15,1.46-6.44,3.81l-11.98,21.81c-1.21,2.2-1.21,4.87,0,7.08l11.98,21.81c1.29,2.35,3.76,3.81,6.44,3.81h23.35c2.68,0,5.15-1.46,6.44-3.81l11.98-21.81c1.21-2.2,1.21-4.87,0-7.08l-11.98-21.81c-1.29-2.35-3.76-3.81-6.44-3.81Z"/>
      </g>
      <path class="cls-6" d="m93.87,206.28h-8.02c-1.23,0-2.38-.66-2.99-1.73l-4.01-6.95c-.62-1.07-.62-2.39,0-3.45l4.01-6.95c.62-1.07,1.76-1.73,2.99-1.73h8.02c1.23,0,2.38.66,2.99,1.73l4.01,6.95c.62,1.07.62,2.39,0,3.45l-4.01,6.95c-.62,1.07-1.76,1.73-2.99,1.73Zm-8.02-18.91c-.55,0-1.07.3-1.35.78l-4.01,6.95c-.28.48-.28,1.07,0,1.55l4.01,6.95c.28.48.79.78,1.35.78h8.02c.55,0,1.07-.3,1.35-.78l4.01-6.95c.28-.48.28-1.07,0-1.55l-4.01-6.95c-.28-.48-.79-.78-1.35-.78h-8.02Z"/>
      <path class="cls-3" d="m212.08,225.24h-8.02c-1.23,0-2.38-.66-2.99-1.73l-4.01-6.95c-.62-1.07-.62-2.39,0-3.45l4.01-6.95c.62-1.07,1.76-1.73,2.99-1.73h8.02c1.23,0,2.38.66,2.99,1.73l4.01,6.95c.62,1.07.62,2.39,0,3.45l-4.01,6.95c-.62,1.07-1.76,1.73-2.99,1.73Zm-8.02-18.91c-.55,0-1.07.3-1.35.78l-4.01,6.95c-.28.48-.28,1.07,0,1.55l4.01,6.95c.28.48.79.78,1.35.78h8.02c.55,0,1.07-.3,1.35-.78l4.01-6.95c.28-.48.28-1.07,0-1.55l-4.01-6.95c-.28-.48-.79-.78-1.35-.78h-8.02Z"/>
      <path class="cls-28" d="m94,291.27h-33.14c-3.98,0-7.69-2.14-9.69-5.59l-16.57-28.7c-1.99-3.45-1.99-7.74,0-11.18l16.57-28.7c1.99-3.45,5.7-5.59,9.69-5.59h33.14c3.98,0,7.69,2.14,9.69,5.59l16.57,28.7c1.99,3.45,1.99,7.74,0,11.18l-16.57,28.7c-1.99,3.45-5.7,5.59-9.69,5.59Zm-33.14-78.07c-3.38,0-6.53,1.82-8.22,4.74l-16.57,28.7c-1.69,2.93-1.69,6.56,0,9.49l16.57,28.7c1.69,2.93,4.84,4.74,8.22,4.74h33.14c3.38,0,6.53-1.82,8.22-4.74l16.57-28.7c1.69-2.93,1.69-6.56,0-9.49l-16.57-28.7c-1.69-2.93-4.84-4.74-8.22-4.74h-33.14Z"/>
      <path class="cls-23" d="m169.84,329.93h-33.14c-3.98,0-7.69-2.14-9.69-5.59l-16.57-28.7c-1.99-3.45-1.99-7.74,0-11.18l16.57-28.7c1.99-3.45,5.7-5.59,9.69-5.59h33.14c3.98,0,7.69,2.14,9.69,5.59l16.57,28.7c1.99,3.45,1.99,7.74,0,11.18l-16.57,28.7c-1.99,3.45-5.7,5.59-9.69,5.59Zm-33.14-78.07c-3.38,0-6.53,1.82-8.22,4.74l-16.57,28.7c-1.69,2.93-1.69,6.56,0,9.49l16.57,28.7c1.69,2.93,4.84,4.74,8.22,4.74h33.14c3.38,0,6.53-1.82,8.22-4.74l16.57-28.7c1.69-2.93,1.69-6.56,0-9.49l-16.57-28.7c-1.69-2.93-4.84-4.74-8.22-4.74h-33.14Z"/>
      <path class="cls-20" d="m166.12,156.7h-33.14c-3.98,0-7.69-2.14-9.69-5.59l-16.57-28.7c-1.99-3.45-1.99-7.74,0-11.18l16.57-28.7c1.99-3.45,5.7-5.59,9.69-5.59h33.14c3.98,0,7.69,2.14,9.69,5.59l16.57,28.7c1.99,3.45,1.99,7.74,0,11.18l-16.57,28.7c-1.99,3.45-5.7,5.59-9.69,5.59Zm-33.14-78.07c-3.38,0-6.53,1.82-8.22,4.74l-16.57,28.7c-1.69,2.93-1.69,6.56,0,9.49l16.57,28.7c1.69,2.93,4.84,4.74,8.22,4.74h33.14c3.38,0,6.53-1.82,8.22-4.74l16.57-28.7c1.69-2.93,1.69-6.56,0-9.49l-16.57-28.7c-1.69-2.93-4.84-4.74-8.22-4.74h-33.14Z"/>
      <path class="cls-18" d="m239.82,198.86h-33.68c-4,0-7.73-2.15-9.72-5.61l-16.84-29.16c-2-3.46-2-7.77,0-11.23l16.84-29.16c2-3.46,5.73-5.61,9.72-5.61h33.68c4,0,7.73,2.15,9.72,5.61l16.84,29.16c2,3.46,2,7.77,0,11.23l-16.84,29.16c-2,3.46-5.73,5.61-9.72,5.61Zm-33.68-79.34c-3.48,0-6.73,1.87-8.47,4.89l-16.84,29.16c-1.74,3.02-1.74,6.76,0,9.78l16.84,29.16c1.74,3.02,4.99,4.89,8.47,4.89h33.68c3.48,0,6.73-1.87,8.47-4.89l16.84-29.16c1.74-3.02,1.74-6.76,0-9.78l-16.84-29.16c-1.74-3.02-4.99-4.89-8.47-4.89h-33.68Z"/>
      <g>
        <path class="cls-29" d="m166.74,244.32h-34.3c-4.06,0-7.85-2.19-9.88-5.7l-17.15-29.71c-2.03-3.52-2.03-7.89,0-11.41l17.15-29.71c2.03-3.52,5.82-5.7,9.88-5.7h34.3c4.06,0,7.85,2.19,9.88,5.7l17.15,29.71c2.03,3.52,2.03,7.89,0,11.41l-17.15,29.71c-2.03,3.52-5.82,5.7-9.88,5.7Zm-34.3-80.82c-3.56,0-6.88,1.91-8.65,5l-17.15,29.71c-1.78,3.08-1.78,6.91,0,9.99l17.15,29.71c1.78,3.08,5.1,5,8.65,5h34.3c3.56,0,6.88-1.91,8.65-5l17.15-29.71c1.78-3.08,1.78-6.91,0-9.99l-17.15-29.71c-1.78-3.08-5.1-5-8.65-5h-34.3Z"/>
        <path class="cls-30" d="m164.27,238.5h-29.36c-3.51,0-6.79-1.89-8.54-4.93l-14.68-25.43c-1.76-3.04-1.76-6.82,0-9.87l14.68-25.43c1.76-3.04,5.03-4.93,8.54-4.93h29.36c3.51,0,6.79,1.89,8.54,4.93l14.68,25.43c1.76,3.04,1.76,6.82,0,9.87l-14.68,25.43c-1.76,3.04-5.03,4.93-8.54,4.93Zm-29.36-69.17c-3.01,0-5.81,1.62-7.32,4.23l-14.68,25.43c-1.5,2.61-1.5,5.85,0,8.45l14.68,25.43c1.5,2.61,4.31,4.23,7.32,4.23h29.36c3.01,0,5.81-1.62,7.32-4.23l14.68-25.43c1.5-2.61,1.5-5.85,0-8.45l-14.68-25.43c-1.5-2.61-4.31-4.23-7.32-4.23h-29.36Z"/>
      </g>
      <path class="cls-5" d="m207.06,114.54h-5.92c-.91,0-1.75-.49-2.21-1.27l-2.96-5.13c-.45-.79-.45-1.76,0-2.55l2.96-5.13c.45-.79,1.3-1.27,2.21-1.27h5.92c.91,0,1.75.49,2.21,1.27l2.96,5.13c.45.79.45,1.76,0,2.55l-2.96,5.13c-.45.79-1.3,1.27-2.21,1.27Zm-5.92-13.95c-.41,0-.79.22-.99.57l-2.96,5.13c-.2.35-.2.79,0,1.15l2.96,5.13c.2.35.58.57.99.57h5.92c.41,0,.79-.22.99-.57l2.96-5.13c.2-.35.2-.79,0-1.15l-2.96-5.13c-.2-.35-.58-.57-.99-.57h-5.92Z"/>
      <g>
        <path class="cls-13" d="m59.37,258.87v11h9.3v-14.36c-4.74,2.19-7.8,3.1-7.87,3.13-.45.13-.94.21-1.42.23Z"/>
        <path class="cls-21" d="m73.05,269.87h9.29v-22.16c-3.32,2.27-6.47,4.12-9.29,5.62v16.54Z"/>
        <path class="cls-12" d="m92.68,246.41c-2.07,0-3.89-1.04-4.98-2.63,0,0-.02.01-.02.02v26.07h9.3v-25.27c-1.09,1.12-2.61,1.81-4.29,1.81Z"/>
        <path class="cls-14" d="m91.97,240.38c0,.39.32.71.71.71s.71-.32.71-.71v-9.41c0-.39-.32-.71-.71-.71h-9.41c-.39,0-.71.32-.71.71s.32.71.71.71h7.94c-.24.24-.47.47-.71.7,0,0-.01.01-.02.02-.23.22-.46.45-.69.67-.01.01-.03.03-.04.04-.23.21-.45.43-.68.64-.02.02-.04.03-.06.05-.22.2-.44.41-.66.6-.03.02-.05.05-.08.07-.22.2-.43.39-.65.58-.03.03-.06.05-.09.08-.21.19-.42.38-.64.56-.03.03-.06.06-.1.08-.21.18-.42.36-.63.54-.03.03-.07.06-.1.09-.21.18-.42.35-.62.53-.03.03-.07.06-.1.09-.21.17-.41.34-.62.51-.04.03-.08.06-.11.09-.2.17-.41.33-.61.49-.04.03-.08.06-.11.09-.2.16-.41.32-.61.48-.04.03-.08.06-.12.09-.2.16-.4.31-.6.46-.04.03-.08.06-.12.09-.2.15-.4.3-.59.45-.04.03-.08.06-.12.09-.2.15-.39.29-.58.43-.04.03-.09.06-.13.1-.19.14-.39.28-.58.42-.04.03-.09.06-.13.09-.19.14-.38.28-.58.41-.04.03-.09.06-.13.09-.19.13-.38.27-.57.4-.04.03-.09.06-.13.09-.19.13-.37.26-.56.38-.04.03-.09.06-.13.09-.19.13-.37.25-.56.37-.04.03-.09.06-.13.09-.18.12-.37.24-.55.36-.05.03-.09.06-.14.09-.18.12-.36.24-.54.35-.04.03-.09.06-.13.08-.18.12-.36.23-.54.34-.04.03-.09.06-.13.08-.18.11-.36.22-.53.33-.04.03-.09.05-.13.08-.18.11-.35.21-.52.32-.04.03-.09.05-.13.08-.17.1-.34.21-.51.31-.04.03-.09.05-.13.08-.17.1-.34.2-.51.3-.04.03-.09.05-.13.08-.17.1-.34.19-.5.29-.04.02-.08.05-.13.07-.17.1-.33.19-.5.28-.04.02-.08.05-.12.07-.16.09-.33.18-.49.27-.04.02-.08.05-.13.07-.16.09-.32.17-.47.26-.04.02-.08.05-.13.07-.16.08-.31.17-.47.25-.04.02-.08.04-.12.06-.16.08-.31.16-.46.24-.04.02-.08.04-.11.06-.15.08-.31.16-.46.24-.03.02-.07.04-.1.05-.15.08-.3.15-.45.23-.04.02-.07.04-.11.06-.15.07-.29.15-.44.22-.04.02-.07.04-.11.05-.14.07-.29.14-.43.21-.04.02-.07.03-.11.05-.14.07-.28.13-.41.2-.04.02-.07.03-.11.05-.14.06-.27.13-.4.19-.03.02-.07.03-.1.05-.13.06-.27.12-.4.18-.03.01-.06.03-.09.04-.13.06-.26.12-.38.17-.03.01-.06.03-.1.04-.12.06-.25.11-.37.16-.03.01-.07.03-.1.04-.12.05-.24.1-.35.16-.03.01-.06.03-.09.04-.12.05-.23.1-.35.15-.03.01-.06.02-.08.04-.11.05-.22.1-.33.14-.03.01-.06.02-.08.04-.11.05-.22.09-.32.13-.03.01-.05.02-.08.03-.1.04-.21.09-.31.13-.03.01-.05.02-.08.03-.1.04-.2.08-.3.12-.02,0-.04.02-.06.03-.1.04-.19.08-.29.11-.02,0-.05.02-.07.03-.09.03-.18.07-.26.1-.02,0-.05.02-.07.03-.09.03-.17.06-.25.1-.02,0-.03.01-.05.02-.09.03-.17.06-.25.09-.02,0-.03.01-.05.02-.08.03-.16.06-.23.08-.02,0-.04.01-.06.02-.07.02-.14.05-.2.07-.02,0-.03.01-.05.02-.06.02-.13.05-.19.07-.01,0-.03,0-.04.01-.06.02-.12.04-.18.06-.01,0-.02,0-.03.01-.06.02-.11.04-.17.06,0,0-.01,0-.02,0-.05.02-.1.04-.15.05-.02,0-.04.01-.05.02-.04.01-.07.02-.1.03-.01,0-.03,0-.04.01-.03.01-.07.02-.09.03-.01,0-.02,0-.04.01-.03,0-.05.02-.08.02-.02,0-.04.01-.06.02-.01,0-.02,0-.03.01-.01,0-.02,0-.03,0-.02,0-.04.01-.05.02-.03,0-.05.01-.05.02-.38.11-.59.5-.48.88.09.31.37.51.68.51.07,0,.13,0,.2-.03,0,0,.02,0,.05-.01.02,0,.05-.02.09-.03.05-.02.11-.04.19-.06,0,0,0,0,.01,0,.03-.01.07-.02.11-.04,0,0,.02,0,.03,0,.04-.01.09-.03.14-.05,0,0,.01,0,.02,0,.05-.02.1-.03.16-.05,0,0,.01,0,.02,0,.06-.02.12-.04.18-.06,0,0,.01,0,.02,0,.06-.02.13-.05.2-.07,0,0,.02,0,.02,0,.07-.02.14-.05.22-.08,0,0,.02,0,.03,0,.07-.03.15-.05.23-.08.01,0,.02,0,.03-.01.08-.03.17-.06.26-.1,0,0,.01,0,.02,0,.09-.03.18-.07.27-.1.01,0,.02,0,.03-.01.09-.03.19-.07.29-.11.01,0,.02,0,.03-.01.1-.04.2-.08.31-.12.01,0,.02,0,.03-.01.11-.04.22-.09.33-.13,0,0,.02,0,.02,0,.11-.05.23-.09.35-.14,0,0,.02,0,.02,0,.12-.05.24-.1.36-.15,0,0,.02,0,.03-.01.12-.05.25-.1.38-.16,0,0,.02,0,.03-.01.13-.05.26-.11.4-.17,0,0,.01,0,.02,0,.14-.06.28-.12.42-.18,0,0,.01,0,.02,0,.14-.06.28-.12.43-.19,0,0,.02,0,.03-.01.15-.06.29-.13.44-.2,0,0,.01,0,.02,0,.15-.07.3-.14.46-.21,0,0,.02,0,.02-.01.16-.07.32-.15.48-.22,0,0,.01,0,.02,0,.16-.08.33-.15.49-.23,0,0,.02,0,.02-.01.17-.08.33-.16.5-.24,0,0,.01,0,.02,0,.17-.08.35-.17.53-.26,0,0,0,0,0,0,.18-.09.36-.18.54-.27,0,0,0,0,0,0,.18-.09.37-.19.56-.28,0,0,0,0,0,0,6.25-3.18,14.63-8.4,22.72-16.41v7.46Z"/>
      </g>
      <path class="cls-27" d="m128.28,188.61v25.91c0,2.08,1.67,3.76,3.73,3.76h16.49v5.95h-14.59v1.35h35.03v-1.35h-14.59v-5.95h15.36c2.06,0,3.73-1.68,3.73-3.76v-25.91c0-2.08-1.67-3.76-3.73-3.76h-37.69c-2.06,0-3.73,1.69-3.73,3.76Zm23.14,28.38c-.95,0-1.72-.78-1.72-1.73s.77-1.74,1.72-1.74,1.72.78,1.72,1.74-.77,1.73-1.72,1.73Zm-21.08-28.38h41.04v23.7h-41.04v-23.7Z"/>
      <g>
        <path class="cls-16" d="m173.61,284.65c.6-.07,1.05-.58,1.05-1.18v-2.81c0-.6-.45-1.11-1.05-1.18l-1.73-.2c-.22-.87-.54-1.7-.98-2.48l1.08-1.37c.38-.48.34-1.15-.09-1.58l-1.98-1.99c-.43-.42-1.11-.47-1.58-.09l-1.29,1.02c-.83-.49-1.72-.87-2.65-1.12l-.19-1.61c-.07-.6-.58-1.05-1.18-1.05h-2.81c-.6,0-1.11.45-1.18,1.05l-.19,1.61c-.91.24-1.77.61-2.58,1.08l-1.25-.99c-.47-.38-1.15-.34-1.58.09l-1.98,1.98c-.42.43-.46,1.1-.09,1.58l1.01,1.28c-.43.77-.77,1.59-1,2.46l-1.65.19c-.6.07-1.06.58-1.06,1.18v2.81c0,.6.45,1.11,1.06,1.18l1.68.19c.23.87.59,1.7,1.04,2.48l-1.09,1.38c-.37.48-.34,1.15.09,1.58l1.98,1.99c.43.42,1.11.47,1.58.09l1.4-1.1c.79.45,1.64.79,2.53,1.02l.21,1.79c.07.6.58,1.05,1.18,1.05h2.81c.6,0,1.11-.45,1.18-1.05l.22-1.86c.82-.24,1.61-.57,2.35-1l1.45,1.14c.48.38,1.15.34,1.58-.09l1.98-1.99c.42-.43.47-1.1.09-1.58l-1.15-1.45c.4-.72.72-1.48.96-2.27l1.82-.21Zm-12-7.39c2.56,0,4.64,2.08,4.64,4.64s-2.08,4.64-4.64,4.64-4.64-2.08-4.64-4.64,2.08-4.64,4.64-4.64h0Zm0,0"/>
        <path class="cls-22" d="m133.85,285.55c-.46.39-.55,1.05-.21,1.55l.64.97c-.41.6-.74,1.25-.98,1.94l-1.18.04c-.6.02-1.08.49-1.13,1.08l-.16,1.93c-.05.59.36,1.13.94,1.25l1.18.24c.13.72.36,1.43.68,2.1l-.86.91c-.41.43-.43,1.1-.04,1.56l1.25,1.48c.39.45,1.05.55,1.55.22l1.07-.71c.62.42,1.28.76,1.99,1.01l.04,1.3c.02.6.48,1.08,1.08,1.13l1.93.16c.59.05,1.13-.36,1.25-.94l.27-1.33c.69-.13,1.35-.35,1.99-.65l.97.91c.44.41,1.11.43,1.56.04l1.48-1.25c.46-.39.55-1.05.22-1.55l-.74-1.12c.38-.56.7-1.16.94-1.79l1.32-.04c.6-.02,1.08-.49,1.13-1.08l.17-1.93c.05-.59-.36-1.13-.94-1.25l-1.22-.25c-.12-.72-.34-1.42-.63-2.09l.86-.91c.41-.43.43-1.11.04-1.56l-1.25-1.49c-.39-.46-1.05-.55-1.55-.22l-.98.65c-.64-.46-1.34-.83-2.09-1.1l-.04-1.15c-.02-.6-.48-1.08-1.08-1.13l-1.94-.16c-.59-.05-1.13.36-1.25.94l-.23,1.13c-.76.14-1.49.37-2.18.71l-.82-.77c-.43-.41-1.11-.43-1.56-.04l-1.48,1.25h0Zm7.29,11.18c-2.09-.17-3.64-2.02-3.47-4.11.17-2.09,2.02-3.64,4.11-3.47,2.09.17,3.65,2.02,3.47,4.11-.17,2.09-2.02,3.65-4.11,3.47h0Zm0,0"/>
        <path class="cls-24" d="m164.2,301.85c-.15-.58-.38-1.13-.67-1.65l.5-.65c.37-.47.32-1.14-.11-1.56l-.86-.84c-.43-.42-1.09-.45-1.56-.07l-.59.48c-.56-.32-1.15-.57-1.77-.72l-.09-.73c-.08-.59-.58-1.04-1.18-1.03h-1.19c-.6.02-1.1.48-1.16,1.07l-.07.74c-.6.17-1.18.42-1.71.74l-.57-.44c-.48-.37-1.14-.32-1.56.11l-.83.85c-.42.43-.45,1.1-.07,1.56l.48.58c-.28.52-.5,1.07-.64,1.65l-.76.1c-.59.08-1.04.58-1.02,1.18v1.19c.02.6.47,1.09,1.07,1.16l.78.08c.16.58.4,1.13.72,1.65l-.5.65c-.37.48-.32,1.14.11,1.56l.85.83c.43.42,1.09.45,1.56.07l.66-.53c.53.29,1.1.51,1.69.66l.11.86c.07.59.58,1.04,1.18,1.03h1.19c.6-.02,1.1-.48,1.16-1.07l.09-.9c.55-.16,1.07-.39,1.56-.68l.7.54c.47.37,1.14.32,1.56-.11l.83-.85c.42-.43.44-1.1.07-1.56l-.57-.7c.27-.48.48-.99.62-1.52l.88-.11c.59-.08,1.04-.58,1.02-1.18v-1.19c-.02-.6-.47-1.1-1.07-1.16l-.82-.08Zm-6.86-1.26c1.71-.02,3.11,1.35,3.13,3.06.02,1.71-1.35,3.11-3.06,3.13-1.71.02-3.12-1.35-3.13-3.06-.02-1.71,1.35-3.11,3.06-3.13h0Zm0,0"/>
      </g>
      <g>
        <path class="cls-2" d="m166.88,101.16c.13-.13.2-.32.2-.51-.01-.19-.1-.37-.25-.49-3.87-3.11-8.73-4.82-13.69-4.82-5.44,0-10.63,1.98-14.63,5.57-4,3.59-6.51,8.53-7.09,13.92-.02.19.04.38.17.52.13.14.31.22.5.22h20.1c.18,0,.35-.07.47-.2l14.22-14.22Zm-12.92,8l-6.31-9.5c.64-.2,1.3-.37,1.96-.5l5.77,8.58-1.42,1.42Zm-.82-10.33c.64,0,1.29.04,1.93.1l3.76,5.36-1.52,1.52-4.69-6.98c.18,0,.35,0,.52,0h0Zm5.79.93c.18.06.36.12.54.19.87.32,1.73.71,2.54,1.16l-1.26,1.26-1.83-2.61h0Zm-18.45,12.33l-3.04-4.42c.23-.38.47-.74.72-1.1l3.67,5.52h-1.36Zm-4.97,0c.16-.57.35-1.13.57-1.68l1.15,1.68h-1.73Zm9.55,0l-5.1-7.67c.26-.27.53-.53.79-.77.18-.16.36-.32.55-.48l5.94,8.93h-2.18Zm-1.59-10.51c.53-.33,1.08-.63,1.64-.91l6.92,10.42-1,1h-.58l-6.98-10.51Zm6.98,10.51"/>
        <path class="cls-1" d="m155.54,117.05c-.22.22-.26.56-.09.82l10.08,16.4c.1.16.27.27.45.31.04,0,.08.01.12.01.15,0,.29-.05.41-.14,5.38-4.17,8.46-10.46,8.46-17.27,0-4.97-1.71-9.83-4.82-13.69-.12-.15-.3-.24-.49-.25-.19-.01-.38.06-.51.2l-13.61,13.61h0Zm13.67-8.74c.45.82.84,1.67,1.16,2.55.74,2.02,1.12,4.15,1.12,6.33,0,2.93-.67,5.73-1.99,8.32-.74,1.46-1.68,2.81-2.79,4.03l-7.13-11.59,9.63-9.63Zm-9.63,9.63"/>
        <path class="cls-4" d="m132.08,118.79c-.19,0-.37.08-.5.22-.13.14-.19.33-.17.52.57,5.39,3.09,10.33,7.09,13.92,4,3.59,9.19,5.57,14.63,5.57,3.28,0,6.44-.71,9.38-2.11.17-.08.3-.23.35-.41.06-.18.03-.38-.07-.54l-10.36-16.85c-.12-.2-.34-.32-.57-.32h-19.77Zm0,0"/>
      </g>
      <g>
        <path class="cls-31" d="m252.5,156.54c-.89,0-1.63.64-1.78,1.48h-10.5v-4.51h5.62c.16.84.9,1.48,1.78,1.48,1,0,1.82-.81,1.82-1.82s-.81-1.82-1.82-1.82c-.89,0-1.63.64-1.78,1.48h-5.62v-3.88h6.22l2.08-2.08c.29.2.65.32,1.03.32,1,0,1.82-.81,1.82-1.82s-.81-1.82-1.82-1.82-1.82.81-1.82,1.82c0,.38.12.73.32,1.03l-1.89,1.89h-5.94v-1.31c0-.82-.32-1.58-.89-2.16l-3.19-3.19c-.58-.58-1.34-.89-2.16-.89h-1.31v-6.72l1.89-1.89c.29.2.65.32,1.03.32,1,0,1.82-.81,1.82-1.82s-.81-1.82-1.82-1.82-1.82.81-1.82,1.82c0,.38.12.73.32,1.03l-2.08,2.08v7h-3.88v-4.46c.84-.16,1.48-.9,1.48-1.78,0-1-.81-1.82-1.82-1.82s-1.82.81-1.82,1.82c0,.89.64,1.63,1.48,1.78v4.46h-4.51v-10.5c.84-.16,1.48-.9,1.48-1.78,0-1-.81-1.82-1.82-1.82s-1.82.81-1.82,1.82c0,.89.64,1.63,1.48,1.78v10.5h-4.51v-5.62c.84-.16,1.48-.9,1.48-1.78,0-1-.81-1.82-1.82-1.82s-1.82.81-1.82,1.82c0,.89.64,1.63,1.48,1.78v5.62h-3.88v-6.22l-2.08-2.08c.2-.29.32-.65.32-1.03,0-1-.81-1.82-1.82-1.82s-1.82.81-1.82,1.82.81,1.82,1.82,1.82c.38,0,.73-.12,1.03-.32l1.89,1.89v5.94h-1.31c-.82,0-1.58.32-2.16.89l-3.19,3.19c-.58.58-.89,1.34-.89,2.16v1.31h-6.72l-1.89-1.89c.2-.29.32-.65.32-1.03,0-1-.81-1.82-1.82-1.82s-1.82.81-1.82,1.82.81,1.82,1.82,1.82c.38,0,.73-.12,1.03-.32l2.08,2.08h7v3.88h-4.46c-.16-.84-.9-1.48-1.78-1.48-1,0-1.82.81-1.82,1.82s.81,1.82,1.82,1.82c.89,0,1.63-.64,1.78-1.48h4.46v4.51h-10.5c-.16-.84-.9-1.48-1.78-1.48-1,0-1.82.81-1.82,1.82s.81,1.82,1.82,1.82c.89,0,1.63-.64,1.78-1.48h10.5v4.51h-5.62c-.16-.84-.9-1.48-1.78-1.48-1,0-1.82.81-1.82,1.82s.81,1.82,1.82,1.82c.89,0,1.63-.64,1.78-1.48h5.62v3.88h-6.22l-2.08,2.08c-.29-.2-.65-.32-1.03-.32-1,0-1.82.81-1.82,1.82s.81,1.82,1.82,1.82,1.82-.81,1.82-1.82c0-.38-.12-.73-.32-1.03l1.89-1.89h5.94v1.31c0,.82.32,1.58.89,2.16l3.19,3.19c.58.58,1.34.89,2.16.89h1.31v6.72l-1.89,1.89c-.29-.2-.65-.32-1.03-.32-1,0-1.82.81-1.82,1.82s.81,1.82,1.82,1.82,1.82-.81,1.82-1.82c0-.38-.12-.73-.32-1.03l2.08-2.08v-7h3.88v4.46c-.84.16-1.48.9-1.48,1.78,0,1,.81,1.82,1.82,1.82s1.82-.81,1.82-1.82c0-.89-.64-1.63-1.48-1.78v-4.46h4.51v10.5c-.84.16-1.48.9-1.48,1.78,0,1,.81,1.82,1.82,1.82s1.82-.81,1.82-1.82c0-.89-.64-1.63-1.48-1.78v-10.5h4.51v5.62c-.84.16-1.48.9-1.48,1.78,0,1,.81,1.82,1.82,1.82s1.82-.81,1.82-1.82c0-.89-.64-1.63-1.48-1.78v-5.62h3.88v6.22l2.08,2.08c-.2.29-.32.65-.32,1.03,0,1,.81,1.82,1.82,1.82s1.82-.81,1.82-1.82-.81-1.82-1.82-1.82c-.38,0-.73.12-1.03.32l-1.89-1.89v-5.94h1.31c.82,0,1.58-.32,2.16-.89l3.19-3.19c.58-.58.89-1.34.89-2.16v-1.31h6.72l1.89,1.89c-.2.29-.32.65-.32,1.03,0,1,.81,1.82,1.82,1.82s1.82-.81,1.82-1.82-.81-1.82-1.82-1.82c-.38,0-.73.12-1.03.32l-2.08-2.08h-7v-3.88h4.46c.16.84.9,1.48,1.78,1.48,1,0,1.82-.81,1.82-1.82s-.81-1.82-1.82-1.82c-.89,0-1.63.64-1.78,1.48h-4.46v-4.51h10.5c.16.84.9,1.48,1.78,1.48,1,0,1.82-.81,1.82-1.82s-.81-1.82-1.82-1.82Zm-4.88-4.51c.63,0,1.15.52,1.15,1.15s-.52,1.15-1.15,1.15-1.15-.52-1.15-1.15.52-1.15,1.15-1.15Zm1.92-7.79c.63,0,1.15.52,1.15,1.15s-.52,1.15-1.15,1.15-1.15-.52-1.15-1.15.52-1.15,1.15-1.15Zm-13.97-14.75c.63,0,1.15.52,1.15,1.15s-.52,1.15-1.15,1.15-1.15-.52-1.15-1.15.52-1.15,1.15-1.15Zm-8.94,5.02c0-.63.52-1.15,1.15-1.15s1.15.52,1.15,1.15-.52,1.15-1.15,1.15-1.15-.52-1.15-1.15Zm-5.17-6.05c0-.63.52-1.15,1.15-1.15s1.15.52,1.15,1.15-.52,1.15-1.15,1.15-1.15-.52-1.15-1.15Zm-5.17,4.88c0-.63.52-1.15,1.15-1.15s1.15.52,1.15,1.15-.52,1.15-1.15,1.15-1.15-.52-1.15-1.15Zm-6.64-.77c-.63,0-1.15-.52-1.15-1.15s.52-1.15,1.15-1.15,1.15.52,1.15,1.15-.52,1.15-1.15,1.15Zm-14.75,13.97c-.63,0-1.15-.52-1.15-1.15s.52-1.15,1.15-1.15,1.15.52,1.15,1.15-.52,1.15-1.15,1.15Zm3.87,7.79c-.63,0-1.15-.52-1.15-1.15s.52-1.15,1.15-1.15,1.15.52,1.15,1.15-.52,1.15-1.15,1.15Zm-6.05,5.17c-.63,0-1.15-.52-1.15-1.15s.52-1.15,1.15-1.15,1.15.52,1.15,1.15-.52,1.15-1.15,1.15Zm4.88,5.17c-.63,0-1.15-.52-1.15-1.15s.52-1.15,1.15-1.15,1.15.52,1.15,1.15-.52,1.15-1.15,1.15Zm-1.92,7.79c-.63,0-1.15-.52-1.15-1.15s.52-1.15,1.15-1.15,1.15.52,1.15,1.15-.52,1.15-1.15,1.15Zm13.97,14.75c-.63,0-1.15-.52-1.15-1.15s.52-1.15,1.15-1.15,1.15.52,1.15,1.15-.52,1.15-1.15,1.15Zm8.94-5.02c0,.63-.52,1.15-1.15,1.15s-1.15-.52-1.15-1.15.52-1.15,1.15-1.15,1.15.52,1.15,1.15Zm5.17,6.05c0,.63-.52,1.15-1.15,1.15s-1.15-.52-1.15-1.15.52-1.15,1.15-1.15,1.15.52,1.15,1.15Zm5.17-4.88c0,.63-.52,1.15-1.15,1.15s-1.15-.52-1.15-1.15.52-1.15,1.15-1.15,1.15.52,1.15,1.15Zm6.64.77c.63,0,1.15.52,1.15,1.15s-.52,1.15-1.15,1.15-1.15-.52-1.15-1.15.52-1.15,1.15-1.15Zm14.75-13.97c.63,0,1.15.52,1.15,1.15s-.52,1.15-1.15,1.15-1.15-.52-1.15-1.15.52-1.15,1.15-1.15Zm-3.87-7.79c.63,0,1.15.52,1.15,1.15s-.52,1.15-1.15,1.15-1.15-.52-1.15-1.15.52-1.15,1.15-1.15Zm-6.91,7.34c0,.64-.25,1.24-.7,1.69l-3.19,3.19c-.45.45-1.05.7-1.69.7h-22.73c-.64,0-1.24-.25-1.69-.7l-3.19-3.19c-.45-.45-.7-1.05-.7-1.69v-22.73c0-.64.25-1.24.7-1.69l3.19-3.19c.45-.45,1.05-.7,1.69-.7h22.73c.64,0,1.24.25,1.69.7l3.19,3.19c.45.45.7,1.05.7,1.69v22.73Zm12.95-10.22c-.63,0-1.15-.52-1.15-1.15s.52-1.15,1.15-1.15,1.15.52,1.15,1.15-.52,1.15-1.15,1.15Z"/>
        <path class="cls-25" d="m234.71,143.06c-.2-.2-.46-.31-.75-.31h-22.73c-.28,0-.55.11-.75.31l-3.19,3.19c-.2.2-.31.46-.31.75v22.73c0,.28.11.55.31.75l3.19,3.19c.2.2.46.31.75.31h22.73c.28,0,.55-.11.75-.31l3.19-3.19c.2-.2.31-.46.31-.75v-22.73c0-.28-.11-.55-.31-.75l-3.19-3.19Zm2.84,26.67c0,.1-.04.2-.11.28l-3.19,3.19c-.07.07-.17.11-.28.11h-22.73c-.1,0-.2-.04-.28-.11l-3.19-3.19c-.07-.07-.11-.17-.11-.28v-22.73c0-.1.04-.2.11-.28l3.19-3.19c.07-.07.17-.11.28-.11h22.73c.1,0,.2.04.28.11l3.19,3.19c.07.07.11.17.11.28v22.73Z"/>
        <path class="cls-15" d="m216.19,148.46l-6.8,19.52h4.29l1.47-4.73h6.9l1.47,4.73h4.3l-6.8-19.52h-4.82Zm-.1,11.73l2.46-7.94h.08l2.46,7.94h-5Z"/>
        <rect class="cls-26" x="229.82" y="148.46" width="4.09" height="19.52"/>
      </g>
    </g>
  </g>
</svg>