<?xml version="1.0" encoding="UTF-8"?>
<svg xmlns="http://www.w3.org/2000/svg" xmlns:xlink="http://www.w3.org/1999/xlink" viewBox="0 0 301 378">
  <defs>
    <style>
      .cls-1 {
        fill: url(#linear-gradient-2);
      }

      .cls-1, .cls-2, .cls-3, .cls-4, .cls-5 {
        opacity: .2;
      }

      .cls-6 {
        fill: url(#linear-gradient-17);
      }

      .cls-7 {
        fill: url(#linear-gradient-15);
      }

      .cls-8 {
        fill: url(#linear-gradient-18);
      }

      .cls-9 {
        stroke: url(#linear-gradient-7);
      }

      .cls-9, .cls-10, .cls-11, .cls-12, .cls-13, .cls-14 {
        fill: none;
        stroke-miterlimit: 10;
      }

      .cls-9, .cls-12, .cls-13 {
        stroke-width: .71px;
      }

      .cls-15 {
        fill: url(#linear-gradient-28);
      }

      .cls-16 {
        fill: url(#linear-gradient-20);
      }

      .cls-17 {
        isolation: isolate;
      }

      .cls-10 {
        stroke: url(#linear-gradient-33);
      }

      .cls-10, .cls-11, .cls-14 {
        stroke-width: .95px;
      }

      .cls-18 {
        fill: url(#linear-gradient-11);
      }

      .cls-11 {
        stroke: url(#linear-gradient-32);
      }

      .cls-2 {
        fill: url(#linear-gradient-5);
      }

      .cls-19 {
        fill: url(#radial-gradient);
        mix-blend-mode: multiply;
      }

      .cls-3 {
        fill: url(#linear-gradient);
      }

      .cls-20 {
        fill: url(#linear-gradient-10);
      }

      .cls-4 {
        fill: url(#linear-gradient-3);
      }

      .cls-21 {
        fill: url(#linear-gradient-16);
      }

      .cls-5 {
        fill: url(#linear-gradient-4);
      }

      .cls-12 {
        stroke: url(#linear-gradient-14);
      }

      .cls-22 {
        fill: url(#linear-gradient-21);
      }

      .cls-23 {
        fill: url(#linear-gradient-25);
      }

      .cls-13 {
        stroke: url(#linear-gradient-6);
      }

      .cls-24 {
        fill: url(#linear-gradient-24);
      }

      .cls-25 {
        fill: url(#linear-gradient-9);
      }

      .cls-26 {
        fill: url(#linear-gradient-22);
      }

      .cls-14 {
        stroke: url(#linear-gradient-31);
      }

      .cls-27 {
        fill: url(#linear-gradient-27);
      }

      .cls-28 {
        fill: url(#linear-gradient-29);
      }

      .cls-29 {
        fill: url(#linear-gradient-30);
      }

      .cls-30 {
        fill: url(#linear-gradient-23);
      }

      .cls-31 {
        fill: url(#linear-gradient-19);
      }

      .cls-32 {
        fill: url(#linear-gradient-8);
      }

      .cls-33 {
        fill: url(#linear-gradient-12);
      }

      .cls-34 {
        fill: url(#linear-gradient-13);
      }

      .cls-35 {
        fill: url(#linear-gradient-26);
      }
    </style>
    <radialGradient id="radial-gradient" cx="-144.76" cy="332.48" fx="-144.76" fy="332.48" r="639.73" gradientTransform="translate(93.37 -261.72) scale(.61 .76)" gradientUnits="userSpaceOnUse">
      <stop offset="0" stop-color="#3e6694"/>
      <stop offset=".26" stop-color="#284a70"/>
      <stop offset=".57" stop-color="#132d4d"/>
      <stop offset=".82" stop-color="#051c37"/>
      <stop offset=".99" stop-color="#01162f"/>
    </radialGradient>
    <linearGradient id="linear-gradient" x1="100.58" y1="69.24" x2="136.47" y2="69.24" gradientUnits="userSpaceOnUse">
      <stop offset="0" stop-color="#38c3e9"/>
      <stop offset="1" stop-color="#a100ff"/>
    </linearGradient>
    <linearGradient id="linear-gradient-2" x1="188.51" y1="252.59" x2="215.97" y2="252.59" xlink:href="#linear-gradient"/>
    <linearGradient id="linear-gradient-3" x1="65.92" y1="88.79" x2="90.15" y2="88.79" xlink:href="#linear-gradient"/>
    <linearGradient id="linear-gradient-4" x1="210.73" y1="273.96" x2="265.54" y2="273.96" xlink:href="#linear-gradient"/>
    <linearGradient id="linear-gradient-5" x1="44.96" y1="44.39" x2="106.78" y2="44.39" xlink:href="#linear-gradient"/>
    <linearGradient id="linear-gradient-6" x1="78.02" y1="195.88" x2="101.69" y2="195.88" xlink:href="#linear-gradient"/>
    <linearGradient id="linear-gradient-7" x1="196.24" y1="214.84" x2="219.9" y2="214.84" xlink:href="#linear-gradient"/>
    <linearGradient id="linear-gradient-8" x1="33.12" y1="251.39" x2="121.75" y2="251.39" xlink:href="#linear-gradient"/>
    <linearGradient id="linear-gradient-9" x1="108.95" y1="290.05" x2="197.59" y2="290.05" xlink:href="#linear-gradient"/>
    <linearGradient id="linear-gradient-10" x1="105.24" y1="116.82" x2="193.87" y2="116.82" xlink:href="#linear-gradient"/>
    <linearGradient id="linear-gradient-11" x1="178.08" y1="158.46" x2="267.88" y2="158.46" xlink:href="#linear-gradient"/>
    <linearGradient id="linear-gradient-12" x1="103.88" y1="203.21" x2="195.3" y2="203.21" xlink:href="#linear-gradient"/>
    <linearGradient id="linear-gradient-13" x1="110.37" y1="203.21" x2="188.81" y2="203.21" xlink:href="#linear-gradient"/>
    <linearGradient id="linear-gradient-14" x1="195.28" y1="106.86" x2="212.93" y2="106.86" xlink:href="#linear-gradient"/>
    <linearGradient id="linear-gradient-15" x1="47.78" y1="246.46" x2="82.3" y2="280.97" xlink:href="#linear-gradient"/>
    <linearGradient id="linear-gradient-16" x1="56.57" y1="237.66" x2="91.09" y2="272.18" xlink:href="#linear-gradient"/>
    <linearGradient id="linear-gradient-17" x1="64.66" y1="229.57" x2="99.18" y2="264.09" xlink:href="#linear-gradient"/>
    <linearGradient id="linear-gradient-18" x1="64.11" y1="230.12" x2="98.63" y2="264.64" xlink:href="#linear-gradient"/>
    <linearGradient id="linear-gradient-19" x1="212.77" y1="138.42" x2="241.65" y2="167.3" xlink:href="#linear-gradient"/>
    <linearGradient id="linear-gradient-20" x1="209.86" y1="141.33" x2="238.73" y2="170.21" xlink:href="#linear-gradient"/>
    <linearGradient id="linear-gradient-21" x1="206.88" y1="144.3" x2="235.76" y2="173.18" xlink:href="#linear-gradient"/>
    <linearGradient id="linear-gradient-22" x1="204.02" y1="147.17" x2="232.89" y2="176.05" xlink:href="#linear-gradient"/>
    <linearGradient id="linear-gradient-23" x1="128.28" y1="205.21" x2="173.44" y2="205.21" xlink:href="#linear-gradient"/>
    <linearGradient id="linear-gradient-24" x1="139.31" y1="200.39" x2="162.51" y2="200.39" xlink:href="#linear-gradient"/>
    <linearGradient id="linear-gradient-25" x1="139.31" y1="200.39" x2="162.51" y2="200.39" xlink:href="#linear-gradient"/>
    <linearGradient id="linear-gradient-26" x1="118.8" y1="200.34" x2="183.82" y2="200.34" xlink:href="#linear-gradient"/>
    <linearGradient id="linear-gradient-27" x1="118.8" y1="200.34" x2="183.82" y2="200.34" xlink:href="#linear-gradient"/>
    <linearGradient id="linear-gradient-28" x1="148.68" y1="282.01" x2="174.67" y2="282.01" xlink:href="#linear-gradient"/>
    <linearGradient id="linear-gradient-29" x1="130.82" y1="293.03" x2="152.19" y2="293.03" xlink:href="#linear-gradient"/>
    <linearGradient id="linear-gradient-30" x1="148.74" y1="303.75" x2="166.09" y2="303.75" xlink:href="#linear-gradient"/>
    <linearGradient id="linear-gradient-31" x1="130.94" y1="105.46" x2="167.55" y2="105.46" xlink:href="#linear-gradient"/>
    <linearGradient id="linear-gradient-32" x1="154.87" y1="118.92" x2="175.45" y2="118.92" xlink:href="#linear-gradient"/>
    <linearGradient id="linear-gradient-33" x1="130.94" y1="128.91" x2="163.37" y2="128.91" xlink:href="#linear-gradient"/>
  </defs>
  <g class="cls-17">
    <g id="Layer_1" data-name="Layer 1">
      <g>
        <rect class="cls-19" x="-.93" y="-1.96" width="302.87" height="381.91"/>
        <path class="cls-3" d="m125.36,53.12h-13.68c-1.52,0-2.93.81-3.7,2.13l-6.84,11.85c-.76,1.32-.76,2.95,0,4.27l6.84,11.85c.76,1.32,2.17,2.13,3.7,2.13h13.68c1.52,0,2.93-.81,3.7-2.13l6.84-11.85c.76-1.32.76-2.95,0-4.27l-6.84-11.85c-.76-1.32-2.17-2.13-3.7-2.13Z"/>
        <path class="cls-1" d="m207.47,240.26h-10.47c-1.17,0-2.24.62-2.83,1.63l-5.23,9.06c-.58,1.01-.58,2.25,0,3.26l5.23,9.06c.58,1.01,1.66,1.63,2.83,1.63h10.47c1.17,0,2.24-.62,2.83-1.63l5.23-9.06c.58-1.01.58-2.25,0-3.26l-5.23-9.06c-.58-1.01-1.66-1.63-2.83-1.63Z"/>
        <path class="cls-4" d="m82.65,77.91h-9.23c-1.03,0-1.98.55-2.49,1.44l-4.62,8c-.51.89-.51,1.99,0,2.88l4.62,8c.51.89,1.47,1.44,2.49,1.44h9.23c1.03,0,1.98-.55,2.49-1.44l4.62-8c.51-.89.51-1.99,0-2.88l-4.62-8c-.51-.89-1.47-1.44-2.49-1.44Z"/>
        <path class="cls-5" d="m248.58,249.36h-20.89c-2.33,0-4.48,1.24-5.64,3.26l-10.44,18.09c-1.16,2.02-1.16,4.5,0,6.52l10.44,18.09c1.16,2.02,3.32,3.26,5.64,3.26h20.89c2.33,0,4.48-1.24,5.64-3.26l10.44-18.09c1.16-2.02,1.16-4.5,0-6.52l-10.44-18.09c-1.16-2.02-3.32-3.26-5.64-3.26Z"/>
        <path class="cls-2" d="m87.65,16.63h-23.56c-2.63,0-5.05,1.4-6.36,3.67l-11.78,20.4c-1.31,2.27-1.31,5.08,0,7.35l11.78,20.4c1.31,2.27,3.74,3.67,6.36,3.67h23.56c2.63,0,5.05-1.4,6.36-3.67l11.78-20.4c1.31-2.27,1.31-5.08,0-7.35l-11.78-20.4c-1.31-2.27-3.74-3.67-6.36-3.67Z"/>
      </g>
      <g>
        <path class="cls-13" d="m93.87,206.28h-8.02c-1.23,0-2.38-.66-2.99-1.73l-4.01-6.95c-.62-1.07-.62-2.39,0-3.45l4.01-6.95c.62-1.07,1.76-1.73,2.99-1.73h8.02c1.23,0,2.38.66,2.99,1.73l4.01,6.95c.62,1.07.62,2.39,0,3.45l-4.01,6.95c-.62,1.07-1.76,1.73-2.99,1.73Zm-8.02-18.91c-.55,0-1.07.3-1.35.78l-4.01,6.95c-.28.48-.28,1.07,0,1.55l4.01,6.95c.28.48.79.78,1.35.78h8.02c.55,0,1.07-.3,1.35-.78l4.01-6.95c.28-.48.28-1.07,0-1.55l-4.01-6.95c-.28-.48-.79-.78-1.35-.78h-8.02Z"/>
        <path class="cls-9" d="m212.08,225.24h-8.02c-1.23,0-2.38-.66-2.99-1.73l-4.01-6.95c-.62-1.07-.62-2.39,0-3.45l4.01-6.95c.62-1.07,1.76-1.73,2.99-1.73h8.02c1.23,0,2.38.66,2.99,1.73l4.01,6.95c.62,1.07.62,2.39,0,3.45l-4.01,6.95c-.62,1.07-1.76,1.73-2.99,1.73Zm-8.02-18.91c-.55,0-1.07.3-1.35.78l-4.01,6.95c-.28.48-.28,1.07,0,1.55l4.01,6.95c.28.48.79.78,1.35.78h8.02c.55,0,1.07-.3,1.35-.78l4.01-6.95c.28-.48.28-1.07,0-1.55l-4.01-6.95c-.28-.48-.79-.78-1.35-.78h-8.02Z"/>
        <path class="cls-32" d="m94,291.27h-33.14c-3.98,0-7.69-2.14-9.69-5.59l-16.57-28.7c-1.99-3.45-1.99-7.74,0-11.18l16.57-28.7c1.99-3.45,5.7-5.59,9.69-5.59h33.14c3.98,0,7.69,2.14,9.69,5.59l16.57,28.7c1.99,3.45,1.99,7.74,0,11.18l-16.57,28.7c-1.99,3.45-5.7,5.59-9.69,5.59Zm-33.14-78.07c-3.38,0-6.53,1.82-8.22,4.74l-16.57,28.7c-1.69,2.93-1.69,6.56,0,9.49l16.57,28.7c1.69,2.93,4.84,4.74,8.22,4.74h33.14c3.38,0,6.53-1.82,8.22-4.74l16.57-28.7c1.69-2.93,1.69-6.56,0-9.49l-16.57-28.7c-1.69-2.93-4.84-4.74-8.22-4.74h-33.14Z"/>
        <path class="cls-25" d="m169.84,329.93h-33.14c-3.98,0-7.69-2.14-9.69-5.59l-16.57-28.7c-1.99-3.45-1.99-7.74,0-11.18l16.57-28.7c1.99-3.45,5.7-5.59,9.69-5.59h33.14c3.98,0,7.69,2.14,9.69,5.59l16.57,28.7c1.99,3.45,1.99,7.74,0,11.18l-16.57,28.7c-1.99,3.45-5.7,5.59-9.69,5.59Zm-33.14-78.07c-3.38,0-6.53,1.82-8.22,4.74l-16.57,28.7c-1.69,2.93-1.69,6.56,0,9.49l16.57,28.7c1.69,2.93,4.84,4.74,8.22,4.74h33.14c3.38,0,6.53-1.82,8.22-4.74l16.57-28.7c1.69-2.93,1.69-6.56,0-9.49l-16.57-28.7c-1.69-2.93-4.84-4.74-8.22-4.74h-33.14Z"/>
        <path class="cls-20" d="m166.12,156.7h-33.14c-3.98,0-7.69-2.14-9.69-5.59l-16.57-28.7c-1.99-3.45-1.99-7.74,0-11.18l16.57-28.7c1.99-3.45,5.7-5.59,9.69-5.59h33.14c3.98,0,7.69,2.14,9.69,5.59l16.57,28.7c1.99,3.45,1.99,7.74,0,11.18l-16.57,28.7c-1.99,3.45-5.7,5.59-9.69,5.59Zm-33.14-78.07c-3.38,0-6.53,1.82-8.22,4.74l-16.57,28.7c-1.69,2.93-1.69,6.56,0,9.49l16.57,28.7c1.69,2.93,4.84,4.74,8.22,4.74h33.14c3.38,0,6.53-1.82,8.22-4.74l16.57-28.7c1.69-2.93,1.69-6.56,0-9.49l-16.57-28.7c-1.69-2.93-4.84-4.74-8.22-4.74h-33.14Z"/>
        <path class="cls-18" d="m239.82,198.86h-33.68c-4,0-7.73-2.15-9.72-5.61l-16.84-29.16c-2-3.46-2-7.77,0-11.23l16.84-29.16c2-3.46,5.73-5.61,9.72-5.61h33.68c4,0,7.73,2.15,9.72,5.61l16.84,29.16c2,3.46,2,7.77,0,11.23l-16.84,29.16c-2,3.46-5.73,5.61-9.72,5.61Zm-33.68-79.34c-3.48,0-6.73,1.87-8.47,4.89l-16.84,29.16c-1.74,3.02-1.74,6.76,0,9.78l16.84,29.16c1.74,3.02,4.99,4.89,8.47,4.89h33.68c3.48,0,6.73-1.87,8.47-4.89l16.84-29.16c1.74-3.02,1.74-6.76,0-9.78l-16.84-29.16c-1.74-3.02-4.99-4.89-8.47-4.89h-33.68Z"/>
        <g>
          <path class="cls-33" d="m166.74,244.32h-34.3c-4.06,0-7.85-2.19-9.88-5.7l-17.15-29.71c-2.03-3.52-2.03-7.89,0-11.41l17.15-29.71c2.03-3.52,5.82-5.7,9.88-5.7h34.3c4.06,0,7.85,2.19,9.88,5.7l17.15,29.71c2.03,3.52,2.03,7.89,0,11.41l-17.15,29.71c-2.03,3.52-5.82,5.7-9.88,5.7Zm-34.3-80.82c-3.56,0-6.88,1.91-8.65,5l-17.15,29.71c-1.78,3.08-1.78,6.91,0,9.99l17.15,29.71c1.78,3.08,5.1,5,8.65,5h34.3c3.56,0,6.88-1.91,8.65-5l17.15-29.71c1.78-3.08,1.78-6.91,0-9.99l-17.15-29.71c-1.78-3.08-5.1-5-8.65-5h-34.3Z"/>
          <path class="cls-34" d="m164.27,238.5h-29.36c-3.51,0-6.79-1.89-8.54-4.93l-14.68-25.43c-1.76-3.04-1.76-6.82,0-9.87l14.68-25.43c1.76-3.04,5.03-4.93,8.54-4.93h29.36c3.51,0,6.79,1.89,8.54,4.93l14.68,25.43c1.76,3.04,1.76,6.82,0,9.87l-14.68,25.43c-1.76,3.04-5.03,4.93-8.54,4.93Zm-29.36-69.17c-3.01,0-5.81,1.62-7.32,4.23l-14.68,25.43c-1.5,2.61-1.5,5.85,0,8.45l14.68,25.43c1.5,2.61,4.31,4.23,7.32,4.23h29.36c3.01,0,5.81-1.62,7.32-4.23l14.68-25.43c1.5-2.61,1.5-5.85,0-8.45l-14.68-25.43c-1.5-2.61-4.31-4.23-7.32-4.23h-29.36Z"/>
        </g>
        <path class="cls-12" d="m207.06,114.54h-5.92c-.91,0-1.75-.49-2.21-1.27l-2.96-5.13c-.45-.79-.45-1.76,0-2.55l2.96-5.13c.45-.79,1.3-1.27,2.21-1.27h5.92c.91,0,1.75.49,2.21,1.27l2.96,5.13c.45.79.45,1.76,0,2.55l-2.96,5.13c-.45.79-1.3,1.27-2.21,1.27Zm-5.92-13.95c-.41,0-.79.22-.99.57l-2.96,5.13c-.2.35-.2.79,0,1.15l2.96,5.13c.2.35.58.57.99.57h5.92c.41,0,.79-.22.99-.57l2.96-5.13c.2-.35.2-.79,0-1.15l-2.96-5.13c-.2-.35-.58-.57-.99-.57h-5.92Z"/>
        <g>
          <path class="cls-7" d="m59.37,258.87v11h9.3v-14.36c-4.74,2.19-7.8,3.1-7.87,3.13-.45.13-.94.21-1.42.23Z"/>
          <path class="cls-21" d="m73.05,269.87h9.29v-22.16c-3.32,2.27-6.47,4.12-9.29,5.62v16.54Z"/>
          <path class="cls-6" d="m92.68,246.41c-2.07,0-3.89-1.04-4.98-2.63,0,0-.02.01-.02.02v26.07h9.3v-25.27c-1.09,1.12-2.61,1.81-4.29,1.81Z"/>
          <path class="cls-8" d="m91.97,240.38c0,.39.32.71.71.71s.71-.32.71-.71v-9.41c0-.39-.32-.71-.71-.71h-9.41c-.39,0-.71.32-.71.71s.32.71.71.71h7.94c-.24.24-.47.47-.71.7,0,0-.01.01-.02.02-.23.22-.46.45-.69.67-.01.01-.03.03-.04.04-.23.21-.45.43-.68.64-.02.02-.04.03-.06.05-.22.2-.44.41-.66.6-.03.02-.05.05-.08.07-.22.2-.43.39-.65.58-.03.03-.06.05-.09.08-.21.19-.42.38-.64.56-.03.03-.06.06-.1.08-.21.18-.42.36-.63.54-.03.03-.07.06-.1.09-.21.18-.42.35-.62.53-.03.03-.07.06-.1.09-.21.17-.41.34-.62.51-.04.03-.08.06-.11.09-.2.17-.41.33-.61.49-.04.03-.08.06-.11.09-.2.16-.41.32-.61.48-.04.03-.08.06-.12.09-.2.16-.4.31-.6.46-.04.03-.08.06-.12.09-.2.15-.4.3-.59.45-.04.03-.08.06-.12.09-.2.15-.39.29-.58.43-.04.03-.09.06-.13.1-.19.14-.39.28-.58.42-.04.03-.09.06-.13.09-.19.14-.38.28-.58.41-.04.03-.09.06-.13.09-.19.13-.38.27-.57.4-.04.03-.09.06-.13.09-.19.13-.37.26-.56.38-.04.03-.09.06-.13.09-.19.13-.37.25-.56.37-.04.03-.09.06-.13.09-.18.12-.37.24-.55.36-.05.03-.09.06-.14.09-.18.12-.36.24-.54.35-.04.03-.09.06-.13.08-.18.12-.36.23-.54.34-.04.03-.09.06-.13.08-.18.11-.36.22-.53.33-.04.03-.09.05-.13.08-.18.11-.35.21-.52.32-.04.03-.09.05-.13.08-.17.1-.34.21-.51.31-.04.03-.09.05-.13.08-.17.1-.34.2-.51.3-.04.03-.09.05-.13.08-.17.1-.34.19-.5.29-.04.02-.08.05-.13.07-.17.1-.33.19-.5.28-.04.02-.08.05-.12.07-.16.09-.33.18-.49.27-.04.02-.08.05-.13.07-.16.09-.32.17-.47.26-.04.02-.08.05-.13.07-.16.08-.31.17-.47.25-.04.02-.08.04-.12.06-.16.08-.31.16-.46.24-.04.02-.08.04-.11.06-.15.08-.31.16-.46.24-.03.02-.07.04-.1.05-.15.08-.3.15-.45.23-.04.02-.07.04-.11.06-.15.07-.29.15-.44.22-.04.02-.07.04-.11.05-.14.07-.29.14-.43.21-.04.02-.07.03-.11.05-.14.07-.28.13-.41.2-.04.02-.07.03-.11.05-.14.06-.27.13-.4.19-.03.02-.07.03-.1.05-.13.06-.27.12-.4.18-.03.01-.06.03-.09.04-.13.06-.26.12-.38.17-.03.01-.06.03-.1.04-.12.06-.25.11-.37.16-.03.01-.07.03-.1.04-.12.05-.24.1-.35.16-.03.01-.06.03-.09.04-.12.05-.23.1-.35.15-.03.01-.06.02-.08.04-.11.05-.22.1-.33.14-.03.01-.06.02-.08.04-.11.05-.22.09-.32.13-.03.01-.05.02-.08.03-.1.04-.21.09-.31.13-.03.01-.05.02-.08.03-.1.04-.2.08-.3.12-.02,0-.04.02-.06.03-.1.04-.19.08-.29.11-.02,0-.05.02-.07.03-.09.03-.18.07-.26.1-.02,0-.05.02-.07.03-.09.03-.17.06-.25.1-.02,0-.03.01-.05.02-.09.03-.17.06-.25.09-.02,0-.03.01-.05.02-.08.03-.16.06-.23.08-.02,0-.04.01-.06.02-.07.02-.14.05-.2.07-.02,0-.03.01-.05.02-.06.02-.13.05-.19.07-.01,0-.03,0-.04.01-.06.02-.12.04-.18.06-.01,0-.02,0-.03.01-.06.02-.11.04-.17.06,0,0-.01,0-.02,0-.05.02-.1.04-.15.05-.02,0-.04.01-.05.02-.04.01-.07.02-.1.03-.01,0-.03,0-.04.01-.03.01-.07.02-.09.03-.01,0-.02,0-.04.01-.03,0-.05.02-.08.02-.02,0-.04.01-.06.02-.01,0-.02,0-.03.01-.01,0-.02,0-.03,0-.02,0-.04.01-.05.02-.03,0-.05.01-.05.02-.38.11-.59.5-.48.88.09.31.37.51.68.51.07,0,.13,0,.2-.03,0,0,.02,0,.05-.01.02,0,.05-.02.09-.03.05-.02.11-.04.19-.06,0,0,0,0,.01,0,.03-.01.07-.02.11-.04,0,0,.02,0,.03,0,.04-.01.09-.03.14-.05,0,0,.01,0,.02,0,.05-.02.1-.03.16-.05,0,0,.01,0,.02,0,.06-.02.12-.04.18-.06,0,0,.01,0,.02,0,.06-.02.13-.05.2-.07,0,0,.02,0,.02,0,.07-.02.14-.05.22-.08,0,0,.02,0,.03,0,.07-.03.15-.05.23-.08.01,0,.02,0,.03-.01.08-.03.17-.06.26-.1,0,0,.01,0,.02,0,.09-.03.18-.07.27-.1.01,0,.02,0,.03-.01.09-.03.19-.07.29-.11.01,0,.02,0,.03-.01.1-.04.2-.08.31-.12.01,0,.02,0,.03-.01.11-.04.22-.09.33-.13,0,0,.02,0,.02,0,.11-.05.23-.09.35-.14,0,0,.02,0,.02,0,.12-.05.24-.1.36-.15,0,0,.02,0,.03-.01.12-.05.25-.1.38-.16,0,0,.02,0,.03-.01.13-.05.26-.11.4-.17,0,0,.01,0,.02,0,.14-.06.28-.12.42-.18,0,0,.01,0,.02,0,.14-.06.28-.12.43-.19,0,0,.02,0,.03-.01.15-.06.29-.13.44-.2,0,0,.01,0,.02,0,.15-.07.3-.14.46-.21,0,0,.02,0,.02-.01.16-.07.32-.15.48-.22,0,0,.01,0,.02,0,.16-.08.33-.15.49-.23,0,0,.02,0,.02-.01.17-.08.33-.16.5-.24,0,0,.01,0,.02,0,.17-.08.35-.17.53-.26,0,0,0,0,0,0,.18-.09.36-.18.54-.27,0,0,0,0,0,0,.18-.09.37-.19.56-.28,0,0,0,0,0,0,6.25-3.18,14.63-8.4,22.72-16.41v7.46Z"/>
        </g>
        <g>
          <rect class="cls-31" x="229.73" y="158.86" width="8.59" height="1.63"/>
          <rect class="cls-16" x="229.73" y="164.69" width="8.59" height="1.63"/>
          <rect class="cls-22" x="229.73" y="170.63" width="8.59" height="1.63"/>
          <path class="cls-26" d="m225.31,137.32h-21.9v43.23h21.9v-26.01h18.62v26.01h.72v-26.74h-19.35v-16.49Zm-12.6,34.96h-5.07v-5.07h5.07v5.07Zm0-8.29h-5.07v-5.07h5.07v5.07Zm0-8.29h-5.07v-5.07h5.07v5.07Zm0-8.29h-5.07v-5.07h5.07v5.07Zm8.36,24.87h-5.07v-5.07h5.07v5.07Zm0-8.29h-5.07v-5.07h5.07v5.07Zm0-8.29h-5.07v-5.07h5.07v5.07Zm0-8.29h-5.07v-5.07h5.07v5.07Z"/>
        </g>
        <path class="cls-30" d="m128.28,188.61v25.91c0,2.08,1.67,3.76,3.73,3.76h16.49v5.95h-14.59v1.35h35.03v-1.35h-14.59v-5.95h15.36c2.06,0,3.73-1.68,3.73-3.76v-25.91c0-2.08-1.67-3.76-3.73-3.76h-37.69c-2.06,0-3.73,1.69-3.73,3.76Zm23.14,28.38c-.95,0-1.72-.78-1.72-1.73s.77-1.74,1.72-1.74,1.72.78,1.72,1.74-.77,1.73-1.72,1.73Zm-21.08-28.38h41.04v23.7h-41.04v-23.7Z"/>
        <g>
          <path class="cls-24" d="m161.9,199.72c-.33,0-.6.24-.66.55h-3.89v-1.67h2.08c.06.31.33.55.66.55.37,0,.67-.3.67-.67s-.3-.67-.67-.67c-.33,0-.6.24-.66.55h-2.08v-1.44h2.3l.77-.77c.11.07.24.12.38.12.37,0,.67-.3.67-.67s-.3-.67-.67-.67-.67.3-.67.67c0,.14.04.27.12.38l-.7.7h-2.2v-.49c0-.3-.12-.59-.33-.8l-1.18-1.18c-.21-.21-.5-.33-.8-.33h-.49v-2.49l.7-.7c.11.07.24.12.38.12.37,0,.67-.3.67-.67s-.3-.67-.67-.67-.67.3-.67.67c0,.14.04.27.12.38l-.77.77v2.59h-1.44v-1.65c.31-.06.55-.33.55-.66,0-.37-.3-.67-.67-.67s-.67.3-.67.67c0,.33.24.6.55.66v1.65h-1.67v-3.89c.31-.06.55-.33.55-.66,0-.37-.3-.67-.67-.67s-.67.3-.67.67c0,.33.24.6.55.66v3.89h-1.67v-2.08c.31-.06.55-.33.55-.66,0-.37-.3-.67-.67-.67s-.67.3-.67.67c0,.33.24.6.55.66v2.08h-1.44v-2.3l-.77-.77c.07-.11.12-.24.12-.38,0-.37-.3-.67-.67-.67s-.67.3-.67.67.3.67.67.67c.14,0,.27-.04.38-.12l.7.7v2.2h-.49c-.3,0-.59.12-.8.33l-1.18,1.18c-.21.21-.33.5-.33.8v.49h-2.49l-.7-.7c.07-.11.12-.24.12-.38,0-.37-.3-.67-.67-.67s-.67.3-.67.67.3.67.67.67c.14,0,.27-.04.38-.12l.77.77h2.59v1.44h-1.65c-.06-.31-.33-.55-.66-.55-.37,0-.67.3-.67.67s.3.67.67.67c.33,0,.6-.24.66-.55h1.65v1.67h-3.89c-.06-.31-.33-.55-.66-.55-.37,0-.67.3-.67.67s.3.67.67.67c.33,0,.6-.24.66-.55h3.89v1.67h-2.08c-.06-.31-.33-.55-.66-.55-.37,0-.67.3-.67.67s.3.67.67.67c.33,0,.6-.24.66-.55h2.08v1.44h-2.3l-.77.77c-.11-.07-.24-.12-.38-.12-.37,0-.67.3-.67.67s.3.67.67.67.67-.3.67-.67c0-.14-.04-.27-.12-.38l.7-.7h2.2v.49c0,.3.12.59.33.8l1.18,1.18c.21.21.5.33.8.33h.49v2.49l-.7.7c-.11-.07-.24-.12-.38-.12-.37,0-.67.3-.67.67s.3.67.67.67.67-.3.67-.67c0-.14-.04-.27-.12-.38l.77-.77v-2.59h1.44v1.65c-.31.06-.55.33-.55.66,0,.37.3.67.67.67s.67-.3.67-.67c0-.33-.24-.6-.55-.66v-1.65h1.67v3.89c-.31.06-.55.33-.55.66,0,.37.3.67.67.67s.67-.3.67-.67c0-.33-.24-.6-.55-.66v-3.89h1.67v2.08c-.31.06-.55.33-.55.66,0,.37.3.67.67.67s.67-.3.67-.67c0-.33-.24-.6-.55-.66v-2.08h1.44v2.3l.77.77c-.07.11-.12.24-.12.38,0,.37.3.67.67.67s.67-.3.67-.67-.3-.67-.67-.67c-.14,0-.27.04-.38.12l-.7-.7v-2.2h.49c.3,0,.59-.12.8-.33l1.18-1.18c.21-.21.33-.5.33-.8v-.49h2.49l.7.7c-.07.11-.12.24-.12.38,0,.37.3.67.67.67s.67-.3.67-.67-.3-.67-.67-.67c-.14,0-.27.04-.38.12l-.77-.77h-2.59v-1.44h1.65c.06.31.33.55.66.55.37,0,.67-.3.67-.67s-.3-.67-.67-.67c-.33,0-.6.24-.66.55h-1.65v-1.67h3.89c.06.31.33.55.66.55.37,0,.67-.3.67-.67s-.3-.67-.67-.67Zm-1.81-1.67c.23,0,.43.19.43.43s-.19.43-.43.43-.43-.19-.43-.43.19-.43.43-.43Zm.71-2.89c.23,0,.43.19.43.43s-.19.43-.43.43-.43-.19-.43-.43.19-.43.43-.43Zm-5.17-5.46c.23,0,.43.19.43.43s-.19.43-.43.43-.43-.19-.43-.43.19-.43.43-.43Zm-3.31,1.86c0-.23.19-.43.43-.43s.43.19.43.43-.19.43-.43.43-.43-.19-.43-.43Zm-1.91-2.24c0-.23.19-.43.43-.43s.43.19.43.43-.19.43-.43.43-.43-.19-.43-.43Zm-1.91,1.81c0-.23.19-.43.43-.43s.43.19.43.43-.19.43-.43.43-.43-.19-.43-.43Zm-2.46-.28c-.23,0-.43-.19-.43-.43s.19-.43.43-.43.43.19.43.43-.19.43-.43.43Zm-5.46,5.17c-.23,0-.43-.19-.43-.43s.19-.43.43-.43.43.19.43.43-.19.43-.43.43Zm1.43,2.89c-.23,0-.43-.19-.43-.43s.19-.43.43-.43.43.19.43.43-.19.43-.43.43Zm-2.24,1.91c-.23,0-.43-.19-.43-.43s.19-.43.43-.43.43.19.43.43-.19.43-.43.43Zm1.81,1.91c-.23,0-.43-.19-.43-.43s.19-.43.43-.43.43.19.43.43-.19.43-.43.43Zm-.71,2.89c-.23,0-.43-.19-.43-.43s.19-.43.43-.43.43.19.43.43-.19.43-.43.43Zm5.17,5.46c-.23,0-.43-.19-.43-.43s.19-.43.43-.43.43.19.43.43-.19.43-.43.43Zm3.31-1.86c0,.23-.19.43-.43.43s-.43-.19-.43-.43.19-.43.43-.43.43.19.43.43Zm1.91,2.24c0,.23-.19.43-.43.43s-.43-.19-.43-.43.19-.43.43-.43.43.19.43.43Zm1.91-1.81c0,.23-.19.43-.43.43s-.43-.19-.43-.43.19-.43.43-.43.43.19.43.43Zm2.46.28c.23,0,.43.19.43.43s-.19.43-.43.43-.43-.19-.43-.43.19-.43.43-.43Zm5.46-5.17c.23,0,.43.19.43.43s-.19.43-.43.43-.43-.19-.43-.43.19-.43.43-.43Zm-1.43-2.89c.23,0,.43.19.43.43s-.19.43-.43.43-.43-.19-.43-.43.19-.43.43-.43Zm-2.56,2.72c0,.24-.09.46-.26.63l-1.18,1.18c-.17.17-.39.26-.63.26h-8.41c-.24,0-.46-.09-.63-.26l-1.18-1.18c-.17-.17-.26-.39-.26-.63v-8.41c0-.24.09-.46.26-.63l1.18-1.18c.17-.17.39-.26.63-.26h8.41c.24,0,.46.09.63.26l1.18,1.18c.17.17.26.39.26.63v8.41Zm4.8-3.78c-.23,0-.43-.19-.43-.43s.19-.43.43-.43.43.19.43.43-.19.43-.43.43Z"/>
          <path class="cls-23" d="m155.32,194.72c-.07-.07-.17-.11-.28-.11h-8.41c-.1,0-.2.04-.28.11l-1.18,1.18c-.07.07-.11.17-.11.28v8.41c0,.1.04.2.11.28l1.18,1.18c.07.07.17.11.28.11h8.41c.1,0,.2-.04.28-.11l1.18-1.18c.07-.07.11-.17.11-.28v-8.41c0-.1-.04-.2-.11-.28l-1.18-1.18Zm1.05,9.87s-.02.07-.04.1l-1.18,1.18s-.06.04-.1.04h-8.41s-.07-.02-.1-.04l-1.18-1.18s-.04-.06-.04-.1v-8.41s.02-.07.04-.1l1.18-1.18s.06-.04.1-.04h8.41s.07.02.1.04l1.18,1.18s.04.06.04.1v8.41Z"/>
          <path class="cls-35" d="m148.46,196.72l-2.52,7.23h1.59l.54-1.75h2.55l.54,1.75h1.59l-2.52-7.23h-1.78Zm-.04,4.34l.91-2.94h.03l.91,2.94h-1.85Z"/>
          <rect class="cls-27" x="153.51" y="196.72" width="1.51" height="7.23"/>
        </g>
        <g>
          <path class="cls-15" d="m173.61,284.65c.6-.07,1.05-.58,1.05-1.18v-2.81c0-.6-.45-1.11-1.05-1.18l-1.73-.2c-.22-.87-.54-1.7-.98-2.48l1.08-1.37c.38-.48.34-1.15-.09-1.58l-1.98-1.99c-.43-.42-1.11-.47-1.58-.09l-1.29,1.02c-.83-.49-1.72-.87-2.65-1.12l-.19-1.61c-.07-.6-.58-1.05-1.18-1.05h-2.81c-.6,0-1.11.45-1.18,1.05l-.19,1.61c-.91.24-1.77.61-2.58,1.08l-1.25-.99c-.47-.38-1.15-.34-1.58.09l-1.98,1.98c-.42.43-.46,1.1-.09,1.58l1.01,1.28c-.43.77-.77,1.59-1,2.46l-1.65.19c-.6.07-1.06.58-1.06,1.18v2.81c0,.6.45,1.11,1.06,1.18l1.68.19c.23.87.59,1.7,1.04,2.48l-1.09,1.38c-.37.48-.34,1.15.09,1.58l1.98,1.99c.43.42,1.11.47,1.58.09l1.4-1.1c.79.45,1.64.79,2.53,1.02l.21,1.79c.07.6.58,1.05,1.18,1.05h2.81c.6,0,1.11-.45,1.18-1.05l.22-1.86c.82-.24,1.61-.57,2.35-1l1.45,1.14c.48.38,1.15.34,1.58-.09l1.98-1.99c.42-.43.47-1.1.09-1.58l-1.15-1.45c.4-.72.72-1.48.96-2.27l1.82-.21Zm-12-7.39c2.56,0,4.64,2.08,4.64,4.64s-2.08,4.64-4.64,4.64-4.64-2.08-4.64-4.64,2.08-4.64,4.64-4.64h0Zm0,0"/>
          <path class="cls-28" d="m133.85,285.55c-.46.39-.55,1.05-.21,1.55l.64.97c-.41.6-.74,1.25-.98,1.94l-1.18.04c-.6.02-1.08.49-1.13,1.08l-.16,1.93c-.05.59.36,1.13.94,1.25l1.18.24c.13.72.36,1.43.68,2.1l-.86.91c-.41.43-.43,1.1-.04,1.56l1.25,1.48c.39.45,1.05.55,1.55.22l1.07-.71c.62.42,1.28.76,1.99,1.01l.04,1.3c.02.6.48,1.08,1.08,1.13l1.93.16c.59.05,1.13-.36,1.25-.94l.27-1.33c.69-.13,1.35-.35,1.99-.65l.97.91c.44.41,1.11.43,1.56.04l1.48-1.25c.46-.39.55-1.05.22-1.55l-.74-1.12c.38-.56.7-1.16.94-1.79l1.32-.04c.6-.02,1.08-.49,1.13-1.08l.17-1.93c.05-.59-.36-1.13-.94-1.25l-1.22-.25c-.12-.72-.34-1.42-.63-2.09l.86-.91c.41-.43.43-1.11.04-1.56l-1.25-1.49c-.39-.46-1.05-.55-1.55-.22l-.98.65c-.64-.46-1.34-.83-2.09-1.1l-.04-1.15c-.02-.6-.48-1.08-1.08-1.13l-1.94-.16c-.59-.05-1.13.36-1.25.94l-.23,1.13c-.76.14-1.49.37-2.18.71l-.82-.77c-.43-.41-1.11-.43-1.56-.04l-1.48,1.25h0Zm7.29,11.18c-2.09-.17-3.64-2.02-3.47-4.11.17-2.09,2.02-3.64,4.11-3.47,2.09.17,3.65,2.02,3.47,4.11-.17,2.09-2.02,3.65-4.11,3.47h0Zm0,0"/>
          <path class="cls-29" d="m164.2,301.85c-.15-.58-.38-1.13-.67-1.65l.5-.65c.37-.47.32-1.14-.11-1.56l-.86-.84c-.43-.42-1.09-.45-1.56-.07l-.59.48c-.56-.32-1.15-.57-1.77-.72l-.09-.73c-.08-.59-.58-1.04-1.18-1.03h-1.19c-.6.02-1.1.48-1.16,1.07l-.07.74c-.6.17-1.18.42-1.71.74l-.57-.44c-.48-.37-1.14-.32-1.56.11l-.83.85c-.42.43-.45,1.1-.07,1.56l.48.58c-.28.52-.5,1.07-.64,1.65l-.76.1c-.59.08-1.04.58-1.02,1.18v1.19c.02.6.47,1.09,1.07,1.16l.78.08c.16.58.4,1.13.72,1.65l-.5.65c-.37.48-.32,1.14.11,1.56l.85.83c.43.42,1.09.45,1.56.07l.66-.53c.53.29,1.1.51,1.69.66l.11.86c.07.59.58,1.04,1.18,1.03h1.19c.6-.02,1.1-.48,1.16-1.07l.09-.9c.55-.16,1.07-.39,1.56-.68l.7.54c.47.37,1.14.32,1.56-.11l.83-.85c.42-.43.44-1.1.07-1.56l-.57-.7c.27-.48.48-.99.62-1.52l.88-.11c.59-.08,1.04-.58,1.02-1.18v-1.19c-.02-.6-.47-1.1-1.07-1.16l-.82-.08Zm-6.86-1.26c1.71-.02,3.11,1.35,3.13,3.06.02,1.71-1.35,3.11-3.06,3.13-1.71.02-3.12-1.35-3.13-3.06-.02-1.71,1.35-3.11,3.06-3.13h0Zm0,0"/>
        </g>
        <g>
          <path class="cls-14" d="m166.88,101.16c.13-.13.2-.32.2-.51-.01-.19-.1-.37-.25-.49-3.87-3.11-8.73-4.82-13.69-4.82-5.44,0-10.63,1.98-14.63,5.57-4,3.59-6.51,8.53-7.09,13.92-.02.19.04.38.17.52.13.14.31.22.5.22h20.1c.18,0,.35-.07.47-.2l14.22-14.22Zm-12.92,8l-6.31-9.5c.64-.2,1.3-.37,1.96-.5l5.77,8.58-1.42,1.42Zm-.82-10.33c.64,0,1.29.04,1.93.1l3.76,5.36-1.52,1.52-4.69-6.98c.18,0,.35,0,.52,0h0Zm5.79.93c.18.06.36.12.54.19.87.32,1.73.71,2.54,1.16l-1.26,1.26-1.83-2.61h0Zm-18.45,12.33l-3.04-4.42c.23-.38.47-.74.72-1.1l3.67,5.52h-1.36Zm-4.97,0c.16-.57.35-1.13.57-1.68l1.15,1.68h-1.73Zm9.55,0l-5.1-7.67c.26-.27.53-.53.79-.77.18-.16.36-.32.55-.48l5.94,8.93h-2.18Zm-1.59-10.51c.53-.33,1.08-.63,1.64-.91l6.92,10.42-1,1h-.58l-6.98-10.51Zm6.98,10.51"/>
          <path class="cls-11" d="m155.54,117.05c-.22.22-.26.56-.09.82l10.08,16.4c.1.16.27.27.45.31.04,0,.08.01.12.01.15,0,.29-.05.41-.14,5.38-4.17,8.46-10.46,8.46-17.27,0-4.97-1.71-9.83-4.82-13.69-.12-.15-.3-.24-.49-.25-.19-.01-.38.06-.51.2l-13.61,13.61h0Zm13.67-8.74c.45.82.84,1.67,1.16,2.55.74,2.02,1.12,4.15,1.12,6.33,0,2.93-.67,5.73-1.99,8.32-.74,1.46-1.68,2.81-2.79,4.03l-7.13-11.59,9.63-9.63Zm-9.63,9.63"/>
          <path class="cls-10" d="m132.08,118.79c-.19,0-.37.08-.5.22-.13.14-.19.33-.17.52.57,5.39,3.09,10.33,7.09,13.92,4,3.59,9.19,5.57,14.63,5.57,3.28,0,6.44-.71,9.38-2.11.17-.08.3-.23.35-.41.06-.18.03-.38-.07-.54l-10.36-16.85c-.12-.2-.34-.32-.57-.32h-19.77Zm0,0"/>
        </g>
      </g>
    </g>
  </g>
</svg>