<?xml version="1.0" encoding="UTF-8"?>
<svg xmlns="http://www.w3.org/2000/svg" xmlns:xlink="http://www.w3.org/1999/xlink" viewBox="0 0 301 378">
  <defs>
    <style>
      .cls-1 {
        fill: url(#linear-gradient-2);
      }

      .cls-1, .cls-2, .cls-3, .cls-4, .cls-5 {
        opacity: .2;
      }

      .cls-6 {
        fill: url(#linear-gradient-17);
      }

      .cls-7 {
        fill: url(#linear-gradient-15);
      }

      .cls-8 {
        fill: url(#linear-gradient-18);
      }

      .cls-9 {
        stroke: url(#linear-gradient-7);
      }

      .cls-9, .cls-10, .cls-11, .cls-12, .cls-13, .cls-14 {
        fill: none;
        stroke-miterlimit: 10;
      }

      .cls-9, .cls-10, .cls-12 {
        stroke-width: .71px;
      }

      .cls-15 {
        fill: url(#linear-gradient-14);
      }

      .cls-16 {
        isolation: isolate;
      }

      .cls-17 {
        fill: url(#linear-gradient-11);
      }

      .cls-2 {
        fill: url(#linear-gradient-5);
      }

      .cls-18 {
        fill: url(#radial-gradient);
        mix-blend-mode: multiply;
      }

      .cls-3 {
        fill: url(#linear-gradient);
      }

      .cls-19 {
        fill: url(#linear-gradient-10);
      }

      .cls-4 {
        fill: url(#linear-gradient-3);
      }

      .cls-20 {
        fill: url(#linear-gradient-16);
      }

      .cls-10 {
        stroke: url(#linear-gradient-23);
      }

      .cls-5 {
        fill: url(#linear-gradient-4);
      }

      .cls-11 {
        fill-rule: evenodd;
        stroke: url(#linear-gradient-24);
      }

      .cls-11, .cls-13, .cls-14 {
        stroke-width: .95px;
      }

      .cls-12 {
        stroke: url(#linear-gradient-6);
      }

      .cls-21 {
        fill: url(#linear-gradient-9);
      }

      .cls-13 {
        stroke: url(#linear-gradient-21);
      }

      .cls-22 {
        fill: url(#linear-gradient-22);
      }

      .cls-14 {
        stroke: url(#linear-gradient-20);
      }

      .cls-23 {
        fill: url(#linear-gradient-19);
      }

      .cls-24 {
        fill: url(#linear-gradient-8);
      }

      .cls-25 {
        fill: url(#linear-gradient-12);
      }

      .cls-26 {
        fill: url(#linear-gradient-13);
      }
    </style>
    <radialGradient id="radial-gradient" cx="300.47" cy="331.87" fx="300.47" fy="331.87" r="639.73" gradientTransform="translate(-176.32 -261.26) scale(.61 .76)" gradientUnits="userSpaceOnUse">
      <stop offset="0" stop-color="#3e6694"/>
      <stop offset=".26" stop-color="#284a70"/>
      <stop offset=".57" stop-color="#132d4d"/>
      <stop offset=".82" stop-color="#051c37"/>
      <stop offset=".99" stop-color="#01162f"/>
    </radialGradient>
    <linearGradient id="linear-gradient" x1="100.58" y1="69.24" x2="136.47" y2="69.24" gradientUnits="userSpaceOnUse">
      <stop offset="0" stop-color="#00d1ef"/>
      <stop offset="1" stop-color="aqua"/>
    </linearGradient>
    <linearGradient id="linear-gradient-2" x1="192.03" y1="258.45" x2="219.49" y2="258.45" xlink:href="#linear-gradient"/>
    <linearGradient id="linear-gradient-3" x1="65.92" y1="88.79" x2="90.15" y2="88.79" xlink:href="#linear-gradient"/>
    <linearGradient id="linear-gradient-4" x1="214.25" y1="279.83" x2="269.06" y2="279.83" xlink:href="#linear-gradient"/>
    <linearGradient id="linear-gradient-5" x1="44.96" y1="44.39" x2="106.78" y2="44.39" xlink:href="#linear-gradient"/>
    <linearGradient id="linear-gradient-6" x1="78.02" y1="196.49" x2="101.69" y2="196.49" xlink:href="#linear-gradient"/>
    <linearGradient id="linear-gradient-7" x1="196.24" y1="215.45" x2="219.9" y2="215.45" xlink:href="#linear-gradient"/>
    <linearGradient id="linear-gradient-8" x1="33.12" y1="252" x2="121.75" y2="252" xlink:href="#linear-gradient"/>
    <linearGradient id="linear-gradient-9" x1="109.2" y1="289.17" x2="197.83" y2="289.17" xlink:href="#linear-gradient"/>
    <linearGradient id="linear-gradient-10" x1="104.51" y1="118.93" x2="193.15" y2="118.93" xlink:href="#linear-gradient"/>
    <linearGradient id="linear-gradient-11" x1="178.08" y1="159.07" x2="267.88" y2="159.07" xlink:href="#linear-gradient"/>
    <linearGradient id="linear-gradient-12" x1="103.88" y1="203.82" x2="195.3" y2="203.82" xlink:href="#linear-gradient"/>
    <linearGradient id="linear-gradient-13" x1="110.37" y1="203.82" x2="188.81" y2="203.82" xlink:href="#linear-gradient"/>
    <linearGradient id="linear-gradient-14" x1="136.54" y1="188.27" x2="171.02" y2="222.75" xlink:href="#linear-gradient"/>
    <linearGradient id="linear-gradient-15" x1="146.52" y1="178.29" x2="181" y2="212.77" xlink:href="#linear-gradient"/>
    <linearGradient id="linear-gradient-16" x1="55.14" y1="252.68" x2="98.48" y2="252.68" xlink:href="#linear-gradient"/>
    <linearGradient id="linear-gradient-17" x1="72.06" y1="255.94" x2="81.57" y2="255.94" xlink:href="#linear-gradient"/>
    <linearGradient id="linear-gradient-18" x1="186.52" y1="158.16" x2="230.89" y2="158.16" xlink:href="#linear-gradient"/>
    <linearGradient id="linear-gradient-19" x1="222.43" y1="158.16" x2="266.8" y2="158.16" xlink:href="#linear-gradient"/>
    <linearGradient id="linear-gradient-20" x1="136.23" y1="291.96" x2="171.64" y2="291.96" xlink:href="#linear-gradient"/>
    <linearGradient id="linear-gradient-21" x1="149.8" y1="280.98" x2="157.99" y2="280.98" xlink:href="#linear-gradient"/>
    <linearGradient id="linear-gradient-22" x1="165.69" y1="273.13" x2="175.2" y2="273.13" xlink:href="#linear-gradient"/>
    <linearGradient id="linear-gradient-23" x1="194.55" y1="107.19" x2="212.2" y2="107.19" xlink:href="#linear-gradient"/>
    <linearGradient id="linear-gradient-24" x1="129.98" y1="123.02" x2="172.84" y2="123.02" xlink:href="#linear-gradient"/>
  </defs>
  <g class="cls-16">
    <g id="Layer_1" data-name="Layer 1">
      <g>
        <rect class="cls-18" x="-.93" y="-1.96" width="302.87" height="381.91"/>
        <path class="cls-3" d="m125.36,53.12h-13.68c-1.52,0-2.93.81-3.7,2.13l-6.84,11.85c-.76,1.32-.76,2.95,0,4.27l6.84,11.85c.76,1.32,2.17,2.13,3.7,2.13h13.68c1.52,0,2.93-.81,3.7-2.13l6.84-11.85c.76-1.32.76-2.95,0-4.27l-6.84-11.85c-.76-1.32-2.17-2.13-3.7-2.13Z"/>
        <path class="cls-1" d="m210.99,246.13h-10.47c-1.17,0-2.24.62-2.83,1.63l-5.23,9.06c-.58,1.01-.58,2.25,0,3.26l5.23,9.06c.58,1.01,1.66,1.63,2.83,1.63h10.47c1.17,0,2.24-.62,2.83-1.63l5.23-9.06c.58-1.01.58-2.25,0-3.26l-5.23-9.06c-.58-1.01-1.66-1.63-2.83-1.63Z"/>
        <path class="cls-4" d="m82.65,77.91h-9.23c-1.03,0-1.98.55-2.49,1.44l-4.62,8c-.51.89-.51,1.99,0,2.88l4.62,8c.51.89,1.47,1.44,2.49,1.44h9.23c1.03,0,1.98-.55,2.49-1.44l4.62-8c.51-.89.51-1.99,0-2.88l-4.62-8c-.51-.89-1.47-1.44-2.49-1.44Z"/>
        <path class="cls-5" d="m252.1,255.23h-20.89c-2.33,0-4.48,1.24-5.64,3.26l-10.44,18.09c-1.16,2.02-1.16,4.5,0,6.52l10.44,18.09c1.16,2.02,3.32,3.26,5.64,3.26h20.89c2.33,0,4.48-1.24,5.64-3.26l10.44-18.09c1.16-2.02,1.16-4.5,0-6.52l-10.44-18.09c-1.16-2.02-3.32-3.26-5.64-3.26Z"/>
        <path class="cls-2" d="m87.65,16.63h-23.56c-2.63,0-5.05,1.4-6.36,3.67l-11.78,20.4c-1.31,2.27-1.31,5.08,0,7.35l11.78,20.4c1.31,2.27,3.74,3.67,6.36,3.67h23.56c2.63,0,5.05-1.4,6.36-3.67l11.78-20.4c1.31-2.27,1.31-5.08,0-7.35l-11.78-20.4c-1.31-2.27-3.74-3.67-6.36-3.67Z"/>
      </g>
      <g>
        <path class="cls-12" d="m93.87,206.89h-8.02c-1.23,0-2.38-.66-2.99-1.73l-4.01-6.95c-.62-1.07-.62-2.39,0-3.45l4.01-6.95c.62-1.07,1.76-1.73,2.99-1.73h8.02c1.23,0,2.38.66,2.99,1.73l4.01,6.95c.62,1.07.62,2.39,0,3.45l-4.01,6.95c-.62,1.07-1.76,1.73-2.99,1.73Zm-8.02-18.91c-.55,0-1.07.3-1.35.78l-4.01,6.95c-.28.48-.28,1.07,0,1.55l4.01,6.95c.28.48.79.78,1.35.78h8.02c.55,0,1.07-.3,1.35-.78l4.01-6.95c.28-.48.28-1.07,0-1.55l-4.01-6.95c-.28-.48-.79-.78-1.35-.78h-8.02Z"/>
        <path class="cls-9" d="m212.08,225.85h-8.02c-1.23,0-2.38-.66-2.99-1.73l-4.01-6.95c-.62-1.07-.62-2.39,0-3.45l4.01-6.95c.62-1.07,1.76-1.73,2.99-1.73h8.02c1.23,0,2.38.66,2.99,1.73l4.01,6.95c.62,1.07.62,2.39,0,3.45l-4.01,6.95c-.62,1.07-1.76,1.73-2.99,1.73Zm-8.02-18.91c-.55,0-1.07.3-1.35.78l-4.01,6.95c-.28.48-.28,1.07,0,1.55l4.01,6.95c.28.48.79.78,1.35.78h8.02c.55,0,1.07-.3,1.35-.78l4.01-6.95c.28-.48.28-1.07,0-1.55l-4.01-6.95c-.28-.48-.79-.78-1.35-.78h-8.02Z"/>
        <path class="cls-24" d="m94,291.88h-33.14c-3.98,0-7.69-2.14-9.69-5.59l-16.57-28.7c-1.99-3.45-1.99-7.74,0-11.18l16.57-28.7c1.99-3.45,5.7-5.59,9.69-5.59h33.14c3.98,0,7.69,2.14,9.69,5.59l16.57,28.7c1.99,3.45,1.99,7.74,0,11.18l-16.57,28.7c-1.99,3.45-5.7,5.59-9.69,5.59Zm-33.14-78.07c-3.38,0-6.53,1.82-8.22,4.74l-16.57,28.7c-1.69,2.93-1.69,6.56,0,9.49l16.57,28.7c1.69,2.93,4.84,4.74,8.22,4.74h33.14c3.38,0,6.53-1.82,8.22-4.74l16.57-28.7c1.69-2.93,1.69-6.56,0-9.49l-16.57-28.7c-1.69-2.93-4.84-4.74-8.22-4.74h-33.14Z"/>
        <path class="cls-21" d="m170.09,329.05h-33.14c-3.98,0-7.69-2.14-9.69-5.59l-16.57-28.7c-1.99-3.45-1.99-7.74,0-11.18l16.57-28.7c1.99-3.45,5.7-5.59,9.69-5.59h33.14c3.98,0,7.69,2.14,9.69,5.59l16.57,28.7c1.99,3.45,1.99,7.74,0,11.18l-16.57,28.7c-1.99,3.45-5.7,5.59-9.69,5.59Zm-33.14-78.07c-3.38,0-6.53,1.82-8.22,4.74l-16.57,28.7c-1.69,2.93-1.69,6.56,0,9.49l16.57,28.7c1.69,2.93,4.84,4.74,8.22,4.74h33.14c3.38,0,6.53-1.82,8.22-4.74l16.57-28.7c1.69-2.93,1.69-6.56,0-9.49l-16.57-28.7c-1.69-2.93-4.84-4.74-8.22-4.74h-33.14Z"/>
        <path class="cls-19" d="m165.4,158.81h-33.14c-3.98,0-7.69-2.14-9.69-5.59l-16.57-28.7c-1.99-3.45-1.99-7.74,0-11.18l16.57-28.7c1.99-3.45,5.7-5.59,9.69-5.59h33.14c3.98,0,7.69,2.14,9.69,5.59l16.57,28.7c1.99,3.45,1.99,7.74,0,11.18l-16.57,28.7c-1.99,3.45-5.7,5.59-9.69,5.59Zm-33.14-78.07c-3.38,0-6.53,1.82-8.22,4.74l-16.57,28.7c-1.69,2.93-1.69,6.56,0,9.49l16.57,28.7c1.69,2.93,4.84,4.74,8.22,4.74h33.14c3.38,0,6.53-1.82,8.22-4.74l16.57-28.7c1.69-2.93,1.69-6.56,0-9.49l-16.57-28.7c-1.69-2.93-4.84-4.74-8.22-4.74h-33.14Z"/>
        <path class="cls-17" d="m239.82,199.47h-33.68c-4,0-7.73-2.15-9.72-5.61l-16.84-29.16c-2-3.46-2-7.77,0-11.23l16.84-29.16c2-3.46,5.73-5.61,9.72-5.61h33.68c4,0,7.73,2.15,9.72,5.61l16.84,29.16c2,3.46,2,7.77,0,11.23l-16.84,29.16c-2,3.46-5.73,5.61-9.72,5.61Zm-33.68-79.34c-3.48,0-6.73,1.87-8.47,4.89l-16.84,29.16c-1.74,3.02-1.74,6.76,0,9.78l16.84,29.16c1.74,3.02,4.99,4.89,8.47,4.89h33.68c3.48,0,6.73-1.87,8.47-4.89l16.84-29.16c1.74-3.02,1.74-6.76,0-9.78l-16.84-29.16c-1.74-3.02-4.99-4.89-8.47-4.89h-33.68Z"/>
        <g>
          <path class="cls-25" d="m166.74,244.93h-34.3c-4.06,0-7.85-2.19-9.88-5.7l-17.15-29.71c-2.03-3.52-2.03-7.89,0-11.41l17.15-29.71c2.03-3.52,5.82-5.7,9.88-5.7h34.3c4.06,0,7.85,2.19,9.88,5.7l17.15,29.71c2.03,3.52,2.03,7.89,0,11.41l-17.15,29.71c-2.03,3.52-5.82,5.7-9.88,5.7Zm-34.3-80.82c-3.56,0-6.88,1.91-8.65,5l-17.15,29.71c-1.78,3.08-1.78,6.91,0,9.99l17.15,29.71c1.78,3.08,5.1,5,8.65,5h34.3c3.56,0,6.88-1.91,8.65-5l17.15-29.71c1.78-3.08,1.78-6.91,0-9.99l-17.15-29.71c-1.78-3.08-5.1-5-8.65-5h-34.3Z"/>
          <path class="cls-26" d="m164.27,239.11h-29.36c-3.51,0-6.79-1.89-8.54-4.93l-14.68-25.43c-1.76-3.04-1.76-6.82,0-9.87l14.68-25.43c1.76-3.04,5.03-4.93,8.54-4.93h29.36c3.51,0,6.79,1.89,8.54,4.93l14.68,25.43c1.76,3.04,1.76,6.82,0,9.87l-14.68,25.43c-1.76,3.04-5.03,4.93-8.54,4.93Zm-29.36-69.17c-3.01,0-5.81,1.62-7.32,4.23l-14.68,25.43c-1.5,2.61-1.5,5.85,0,8.45l14.68,25.43c1.5,2.61,4.31,4.23,7.32,4.23h29.36c3.01,0,5.81-1.62,7.32-4.23l14.68-25.43c1.5-2.61,1.5-5.85,0-8.45l-14.68-25.43c-1.5-2.61-4.31-4.23-7.32-4.23h-29.36Z"/>
        </g>
        <g>
          <path class="cls-15" d="m173.62,200.44c0-2.73-2.22-4.95-4.95-4.95s-4.95,2.22-4.95,4.95c0,2.53,1.91,4.6,4.37,4.89v15.62c0,5.51-4.49,10-10,10s-10-4.48-10-10v-.16c3.64-.31,6.51-3.36,6.51-7.08,0-.46-.05-.9-.13-1.33,4.35-2.51,7.05-7.1,7.05-12.15v-11.55c0-2.05-1.67-3.72-3.72-3.72h-1.65c-.02-1.4-.22-3.91-2.02-3.91-1.49,0-2.66,1.92-2.66,4.38s1.17,4.38,2.66,4.38c1.69,0,1.97-2.23,2.01-3.66h1.65c1.39,0,2.53,1.13,2.53,2.53v11.55c0,4.52-2.37,8.63-6.2,10.96-1.02-2.68-3.61-4.6-6.65-4.6s-5.63,1.91-6.65,4.6c-3.82-2.32-6.18-6.47-6.18-10.96v-11.55c0-1.39,1.13-2.53,2.53-2.53h1.72c.04,1.43.32,3.66,2.01,3.66,1.49,0,2.66-1.92,2.66-4.38s-1.17-4.38-2.66-4.38c-1.8,0-2,2.51-2.02,3.91h-1.71c-2.05,0-3.72,1.67-3.72,3.72v11.55c0,5.01,2.7,9.65,7.03,12.15-.08.43-.13.87-.13,1.32,0,3.72,2.88,6.78,6.53,7.09v.16c0,6.17,5.02,11.19,11.19,11.19s11.19-5.02,11.19-11.19v-15.63c2.44-.3,4.34-2.37,4.34-4.89Zm-19.47-11.82c-.69,0-1.47-1.36-1.47-3.19s.77-3.19,1.47-3.19c.25,0,.83.31.83,3.19s-.58,3.19-.83,3.19Zm-13.23-6.38c.69,0,1.47,1.36,1.47,3.19s-.77,3.19-1.47,3.19c-.25,0-.83-.31-.83-3.19s.58-3.19.83-3.19Zm.65,31.47c0-3.27,2.66-5.92,5.92-5.92s5.92,2.66,5.92,5.92-2.66,5.92-5.92,5.92-5.92-2.66-5.92-5.92Zm27.11-9.51c-2.07,0-3.76-1.69-3.76-3.76s1.69-3.76,3.76-3.76,3.76,1.69,3.76,3.76-1.69,3.76-3.76,3.76Z"/>
          <path class="cls-7" d="m168.67,199.09c-.74,0-1.35.6-1.35,1.35s.6,1.35,1.35,1.35,1.35-.6,1.35-1.35-.6-1.35-1.35-1.35Z"/>
        </g>
        <g>
          <path class="cls-20" d="m85.08,241.54v-6.52h-16.53v6.52h-13.41v28.79h43.34v-28.79h-13.41Zm-15.16-5.15h13.79v5.15h-13.79v-5.15Zm27.19,32.57h-40.6v-26.05h40.6v26.05Z"/>
          <polygon class="cls-6" points="77.5 251.18 76.13 251.18 76.13 255.25 72.06 255.25 72.06 256.63 76.13 256.63 76.13 260.7 77.5 260.7 77.5 256.63 81.57 256.63 81.57 255.25 77.5 255.25 77.5 251.18"/>
        </g>
        <g>
          <polygon class="cls-8" points="204.78 171.16 201.26 148.31 198.24 159.08 186.52 159.08 186.52 158.12 197.81 158.12 201.44 145.17 204.95 167.99 209.74 150.71 212.54 162.51 214.98 152.76 216.73 158.07 230.89 158.07 230.89 159.03 216.33 159.03 215.06 155.19 212.53 165.33 209.69 153.4 204.78 171.16"/>
          <polygon class="cls-23" points="240.68 171.16 237.16 148.31 234.15 159.08 222.43 159.08 222.43 158.12 233.72 158.12 237.34 145.17 240.86 167.99 245.64 150.71 248.45 162.51 250.89 152.76 252.63 158.07 266.8 158.07 266.8 159.03 252.23 159.03 250.97 155.19 248.43 165.33 245.59 153.4 240.68 171.16"/>
        </g>
        <g>
          <path class="cls-14" d="m166.17,276.42c-1.36-.75-2.97-1.01-4.51-.98-1.33.03-2.67.31-3.87.9-1.26.61-2.36,2.08-3.84,2.08-.93,0-1.57-.69-2.28-1.19-4.27-3-11.05-1.9-13.64,2.81-1.61,2.92-1.9,6.87-.12,9.78,5.78,9.46,6.01,17.76,8.55,18.55,2.35.73,3.52-2.51,3.52-6.74,0-3.3,2.21-4.03,3.97-4.08,1.76.05,3.97.78,3.97,4.08,0,4.23,1.17,7.47,3.52,6.74,2.54-.79,2.77-9.09,8.55-18.55,1.65-2.69,1.38-6.19.21-9.13-.55-1.39-1.8-3.02-4.04-4.26Z"/>
          <path class="cls-13" d="m150.07,280.29s1.94,1.31,4.06,1.31,3.54-1.31,3.54-1.31"/>
        </g>
        <polygon class="cls-22" points="171.13 268.37 169.76 268.37 169.76 272.44 165.69 272.44 165.69 273.82 169.76 273.82 169.76 277.89 171.13 277.89 171.13 273.82 175.2 273.82 175.2 272.44 171.13 272.44 171.13 268.37"/>
        <path class="cls-10" d="m206.33,114.87h-5.92c-.91,0-1.75-.49-2.21-1.27l-2.96-5.13c-.45-.79-.45-1.76,0-2.55l2.96-5.13c.45-.79,1.3-1.27,2.21-1.27h5.92c.91,0,1.75.49,2.21,1.27l2.96,5.13c.45.79.45,1.76,0,2.55l-2.96,5.13c-.45.79-1.3,1.27-2.21,1.27Zm-5.92-13.95c-.41,0-.79.22-.99.57l-2.96,5.13c-.2.35-.2.79,0,1.15l2.96,5.13c.2.35.58.57.99.57h5.92c.41,0,.79-.22.99-.57l2.96-5.13c.2-.35.2-.79,0-1.15l-2.96-5.13c-.2-.35-.58-.57-.99-.57h-5.92Z"/>
        <path class="cls-11" d="m147.18,121.31h17.53c5.04,0-17.53-9.86-17.53,0h0Zm-3.82-8.04c1.61,0,2.83,1.2,2.83,2.81s-1.22,2.83-2.83,2.83h0c1.41.4,2.83,1.01,2.83,2.01v.4h-8.67v-2.22c0-.39.19-.59.4-.8.21-.19,2.21,0,4.22.42-1-.61-1.61-1.41-1.61-2.63,0-1.61,1.22-2.81,2.83-2.81h0Zm26.79,17.5c1.2.61,2.21,2.02,2.21,3.63,0,2.22-1.81,4.22-4.22,4.22-2.21,0-4.05-2.01-4.05-4.22,0-1.6.8-3.02,2.22-3.63v-4.41h-29.6v4.41c1.2.82,2.01,2.22,2.01,3.63,0,2.22-1.81,4.22-4.22,4.22-2.21,0-4.05-2.01-4.05-4.22,0-1.6,1.03-3.02,2.42-3.63v-23.34h3.84v14.9h29.6v-8.86h3.84v17.3Z"/>
      </g>
    </g>
  </g>
</svg>