<?xml version="1.0" encoding="UTF-8"?>
<svg xmlns="http://www.w3.org/2000/svg" xmlns:xlink="http://www.w3.org/1999/xlink" viewBox="0 0 301 378">
  <defs>
    <style>
      .cls-1 {
        fill: #e9e9e9;
      }

      .cls-2 {
        opacity: .81;
      }

      .cls-3 {
        fill: url(#linear-gradient-2);
      }

      .cls-4 {
        fill: #263870;
      }

      .cls-5 {
        fill: #b29059;
      }

      .cls-6 {
        fill: #ffc4fe;
      }

      .cls-7 {
        fill: url(#Degradado_sin_nombre_21);
      }

      .cls-8 {
        fill: url(#linear-gradient-17);
      }

      .cls-9 {
        fill: #7b3f4b;
      }

      .cls-9, .cls-10, .cls-11, .cls-12 {
        mix-blend-mode: multiply;
      }

      .cls-9, .cls-12 {
        opacity: .07;
      }

      .cls-13 {
        fill: #325168;
      }

      .cls-14 {
        stroke: url(#Degradado_sin_nombre_34-6);
      }

      .cls-14, .cls-15, .cls-16, .cls-17, .cls-18, .cls-19, .cls-20, .cls-21, .cls-22, .cls-23, .cls-24, .cls-25, .cls-26, .cls-27, .cls-28, .cls-29, .cls-30, .cls-31 {
        fill: none;
        stroke-miterlimit: 10;
        stroke-width: .16px;
      }

      .cls-32 {
        fill: #706ca3;
      }

      .cls-15 {
        stroke: url(#Degradado_sin_nombre_34-9);
      }

      .cls-33 {
        fill: url(#Degradado_sin_nombre_21-17);
      }

      .cls-34 {
        fill: #f9e9ff;
      }

      .cls-35 {
        opacity: .5;
      }

      .cls-36 {
        fill: #74b365;
      }

      .cls-37 {
        fill: url(#linear-gradient-15);
      }

      .cls-38 {
        fill: url(#Degradado_sin_nombre_21-8);
      }

      .cls-16 {
        stroke: url(#Degradado_sin_nombre_34);
      }

      .cls-39 {
        fill: #7f4c29;
      }

      .cls-40 {
        fill: url(#linear-gradient-14);
      }

      .cls-41 {
        fill: url(#Degradado_sin_nombre_21-10);
      }

      .cls-42 {
        fill: url(#linear-gradient-6);
      }

      .cls-17 {
        stroke: url(#Degradado_sin_nombre_34-15);
      }

      .cls-43 {
        isolation: isolate;
      }

      .cls-44, .cls-11 {
        opacity: .2;
      }

      .cls-45 {
        fill: #4565a2;
      }

      .cls-46 {
        fill: url(#Degradado_sin_nombre_21-6);
      }

      .cls-47 {
        fill: url(#Degradado_sin_nombre_38-6);
      }

      .cls-18 {
        stroke: url(#Degradado_sin_nombre_34-13);
      }

      .cls-48 {
        fill: #467aa7;
      }

      .cls-49 {
        fill: #653b8c;
      }

      .cls-50 {
        fill: #63503e;
      }

      .cls-51 {
        fill: #d1ad79;
      }

      .cls-52 {
        fill: #4d71ab;
      }

      .cls-53 {
        fill: #7485ae;
      }

      .cls-54 {
        fill: url(#Degradado_sin_nombre_38-4);
      }

      .cls-55 {
        fill: #414184;
      }

      .cls-56 {
        fill: url(#linear-gradient-11);
      }

      .cls-57 {
        fill: #5b96b9;
      }

      .cls-58 {
        fill: #c69f6b;
      }

      .cls-59 {
        fill: #e2a364;
      }

      .cls-60 {
        fill: url(#Degradado_sin_nombre_21-18);
      }

      .cls-61 {
        fill: url(#Degradado_sin_nombre_38);
      }

      .cls-19 {
        stroke: url(#Degradado_sin_nombre_34-8);
      }

      .cls-10 {
        fill: url(#radial-gradient);
      }

      .cls-62 {
        fill: #af9164;
      }

      .cls-63 {
        fill: url(#Degradado_sin_nombre_38-2);
      }

      .cls-64 {
        fill: #b4d0d8;
      }

      .cls-65 {
        fill: #0b0c17;
      }

      .cls-66 {
        fill: #cce0ff;
      }

      .cls-67 {
        fill: #abcfff;
      }

      .cls-68 {
        fill: #466fa7;
      }

      .cls-69 {
        fill: url(#Degradado_sin_nombre_21-12);
      }

      .cls-70 {
        fill: #8e6caf;
      }

      .cls-20 {
        stroke: url(#Degradado_sin_nombre_34-14);
      }

      .cls-71 {
        fill: url(#linear-gradient-10);
      }

      .cls-72 {
        fill: #b375cb;
      }

      .cls-73 {
        fill: url(#Degradado_sin_nombre_21-9);
      }

      .cls-74 {
        fill: url(#Degradado_sin_nombre_38-3);
      }

      .cls-21 {
        stroke: url(#Degradado_sin_nombre_34-11);
      }

      .cls-75 {
        fill: #ede8f7;
      }

      .cls-76 {
        fill: #8e5753;
      }

      .cls-77 {
        fill: url(#linear-gradient-16);
      }

      .cls-78 {
        fill: url(#Degradado_sin_nombre_37-4);
      }

      .cls-79 {
        fill: #492d25;
      }

      .cls-22 {
        stroke: url(#Degradado_sin_nombre_34-18);
      }

      .cls-80 {
        fill: #864fb4;
      }

      .cls-23 {
        stroke: url(#Degradado_sin_nombre_34-5);
      }

      .cls-81 {
        fill: #a2986b;
      }

      .cls-82 {
        fill: url(#Degradado_sin_nombre_21-2);
      }

      .cls-24 {
        stroke: url(#Degradado_sin_nombre_34-2);
      }

      .cls-83 {
        fill: #573f86;
      }

      .cls-84 {
        fill: url(#Degradado_sin_nombre_38-8);
      }

      .cls-85 {
        fill: #7f4f2e;
      }

      .cls-86 {
        fill: #7f573e;
      }

      .cls-87 {
        fill: #343513;
      }

      .cls-88 {
        fill: url(#Degradado_sin_nombre_21-4);
      }

      .cls-25 {
        stroke: url(#Degradado_sin_nombre_34-10);
      }

      .cls-89 {
        fill: #634929;
      }

      .cls-11 {
        fill: #2e0f2f;
      }

      .cls-90 {
        fill: #567f34;
      }

      .cls-26 {
        stroke: url(#Degradado_sin_nombre_34-3);
      }

      .cls-91 {
        fill: url(#linear-gradient-5);
      }

      .cls-92 {
        fill: url(#Degradado_sin_nombre_38-7);
      }

      .cls-93 {
        fill: url(#Degradado_sin_nombre_37-2);
      }

      .cls-94 {
        fill: url(#Degradado_sin_nombre_37-3);
      }

      .cls-95 {
        fill: url(#Degradado_sin_nombre_21-13);
      }

      .cls-96 {
        fill: url(#Degradado_sin_nombre_21-15);
      }

      .cls-97 {
        fill: url(#linear-gradient-7);
      }

      .cls-98 {
        fill: url(#Degradado_sin_nombre_38-5);
      }

      .cls-99 {
        fill: #b7835f;
      }

      .cls-100 {
        fill: #603f35;
      }

      .cls-101 {
        fill: #0a1333;
      }

      .cls-102 {
        fill: #6a5841;
      }

      .cls-103 {
        fill: url(#Degradado_sin_nombre_21-16);
      }

      .cls-104 {
        fill: #5772a5;
      }

      .cls-105 {
        fill: #757bb4;
      }

      .cls-106 {
        fill: #5c4092;
      }

      .cls-107 {
        fill: #3784b7;
      }

      .cls-108 {
        fill: url(#linear-gradient-9);
      }

      .cls-109 {
        fill: #5362a1;
      }

      .cls-12 {
        fill: #5e71ab;
      }

      .cls-110 {
        fill: url(#Degradado_sin_nombre_21-11);
      }

      .cls-111 {
        fill: url(#linear-gradient-3);
      }

      .cls-112 {
        fill: url(#linear-gradient);
      }

      .cls-113 {
        fill: url(#Degradado_sin_nombre_21-3);
      }

      .cls-114 {
        fill: url(#Degradado_sin_nombre_21-5);
      }

      .cls-115 {
        fill: #3f3630;
      }

      .cls-116 {
        fill: #373883;
      }

      .cls-117 {
        fill: url(#Degradado_sin_nombre_21-7);
      }

      .cls-27 {
        stroke: url(#Degradado_sin_nombre_34-16);
      }

      .cls-118 {
        fill: url(#linear-gradient-4);
      }

      .cls-119 {
        fill: url(#Degradado_sin_nombre_21-14);
      }

      .cls-28 {
        stroke: url(#Degradado_sin_nombre_34-17);
      }

      .cls-120 {
        fill: #437caf;
      }

      .cls-121 {
        fill: url(#linear-gradient-8);
      }

      .cls-122 {
        fill: #4f4225;
      }

      .cls-123 {
        fill: #c6c9ee;
      }

      .cls-124 {
        fill: url(#Degradado_sin_nombre_37);
      }

      .cls-125 {
        fill: #1c4240;
      }

      .cls-29 {
        stroke: url(#Degradado_sin_nombre_34-4);
      }

      .cls-126 {
        fill: url(#linear-gradient-12);
      }

      .cls-30 {
        stroke: url(#Degradado_sin_nombre_34-12);
      }

      .cls-127 {
        fill: url(#linear-gradient-13);
      }

      .cls-31 {
        stroke: url(#Degradado_sin_nombre_34-7);
      }
    </style>
    <radialGradient id="radial-gradient" cx="526.91" cy="-32.46" fx="526.91" fy="-32.46" r="639.73" gradientTransform="translate(-312.24 19.15) scale(.61 .76)" gradientUnits="userSpaceOnUse">
      <stop offset="0" stop-color="#3e6694"/>
      <stop offset=".26" stop-color="#284a70"/>
      <stop offset=".57" stop-color="#132d4d"/>
      <stop offset=".82" stop-color="#051c37"/>
      <stop offset=".99" stop-color="#01162f"/>
    </radialGradient>
    <linearGradient id="Degradado_sin_nombre_38" data-name="Degradado sin nombre 38" x1="223.17" y1="230.63" x2="255.01" y2="240.05" gradientUnits="userSpaceOnUse">
      <stop offset="0" stop-color="#1e6bcd" stop-opacity="0"/>
      <stop offset=".11" stop-color="#387dae" stop-opacity=".14"/>
      <stop offset=".3" stop-color="#609781" stop-opacity=".34"/>
      <stop offset=".49" stop-color="#7fac5e" stop-opacity=".5"/>
      <stop offset=".67" stop-color="#96bb45" stop-opacity=".61"/>
      <stop offset=".85" stop-color="#a3c436" stop-opacity=".68"/>
      <stop offset="1" stop-color="#a8c831" stop-opacity=".7"/>
    </linearGradient>
    <linearGradient id="Degradado_sin_nombre_38-2" data-name="Degradado sin nombre 38" x1="291.34" y1="1111.07" x2="313.1" y2="1117.5" gradientTransform="translate(-44.21 -701.79) rotate(-29) scale(1.1 .87) skewX(-23.69)" xlink:href="#Degradado_sin_nombre_38"/>
    <linearGradient id="Degradado_sin_nombre_37" data-name="Degradado sin nombre 37" x1="-2940.47" y1="-620.04" x2="-2918.71" y2="-613.61" gradientTransform="translate(-2601.82 -701.79) rotate(-151) scale(1.1 -.87) skewX(-23.69)" gradientUnits="userSpaceOnUse">
      <stop offset="0" stop-color="#a8c831" stop-opacity=".7"/>
      <stop offset=".15" stop-color="#a3c436" stop-opacity=".68"/>
      <stop offset=".33" stop-color="#96bb45" stop-opacity=".61"/>
      <stop offset=".51" stop-color="#7fac5e" stop-opacity=".5"/>
      <stop offset=".7" stop-color="#609781" stop-opacity=".34"/>
      <stop offset=".89" stop-color="#387dae" stop-opacity=".14"/>
      <stop offset="1" stop-color="#1e6bcd" stop-opacity="0"/>
    </linearGradient>
    <linearGradient id="Degradado_sin_nombre_38-3" data-name="Degradado sin nombre 38" x1="230.77" y1="238.16" x2="246.68" y2="242.87" xlink:href="#Degradado_sin_nombre_38"/>
    <linearGradient id="Degradado_sin_nombre_38-4" data-name="Degradado sin nombre 38" x1="291.9" y1="1107.59" x2="302.77" y2="1110.8" gradientTransform="translate(-44.21 -701.79) rotate(-29) scale(1.1 .87) skewX(-23.69)" xlink:href="#Degradado_sin_nombre_38"/>
    <linearGradient id="Degradado_sin_nombre_37-2" data-name="Degradado sin nombre 37" x1="-2939.93" y1="-623.52" x2="-2929.06" y2="-620.31" xlink:href="#Degradado_sin_nombre_37"/>
    <linearGradient id="Degradado_sin_nombre_34" data-name="Degradado sin nombre 34" x1="90.19" y1="315.91" x2="296.09" y2="315.91" gradientUnits="userSpaceOnUse">
      <stop offset="0" stop-color="#a728ac"/>
      <stop offset=".12" stop-color="#a32cad"/>
      <stop offset=".26" stop-color="#9839b0"/>
      <stop offset=".41" stop-color="#874fb7"/>
      <stop offset=".55" stop-color="#6e6ebf"/>
      <stop offset=".7" stop-color="#4f96ca"/>
      <stop offset=".86" stop-color="#29c6d8"/>
      <stop offset="1" stop-color="#00fbe7"/>
    </linearGradient>
    <linearGradient id="Degradado_sin_nombre_34-2" data-name="Degradado sin nombre 34" x1="172.94" y1="298.51" x2="273.86" y2="298.51" xlink:href="#Degradado_sin_nombre_34"/>
    <linearGradient id="Degradado_sin_nombre_34-3" data-name="Degradado sin nombre 34" x1="153.15" y1="309.79" x2="254.07" y2="309.79" xlink:href="#Degradado_sin_nombre_34"/>
    <linearGradient id="Degradado_sin_nombre_34-4" data-name="Degradado sin nombre 34" x1="133.56" y1="321.38" x2="234.27" y2="321.38" xlink:href="#Degradado_sin_nombre_34"/>
    <linearGradient id="Degradado_sin_nombre_34-5" data-name="Degradado sin nombre 34" x1="113.1" y1="333.64" x2="213.34" y2="333.64" xlink:href="#Degradado_sin_nombre_34"/>
    <linearGradient id="Degradado_sin_nombre_34-6" data-name="Degradado sin nombre 34" x1="112.42" y1="298.92" x2="214.05" y2="298.92" xlink:href="#Degradado_sin_nombre_34"/>
    <linearGradient id="Degradado_sin_nombre_34-7" data-name="Degradado sin nombre 34" x1="132.22" y1="310.3" x2="233.51" y2="310.3" xlink:href="#Degradado_sin_nombre_34"/>
    <linearGradient id="Degradado_sin_nombre_34-8" data-name="Degradado sin nombre 34" x1="152.01" y1="321.79" x2="253.38" y2="321.79" xlink:href="#Degradado_sin_nombre_34"/>
    <linearGradient id="Degradado_sin_nombre_34-9" data-name="Degradado sin nombre 34" x1="173.02" y1="333.92" x2="273.82" y2="333.92" xlink:href="#Degradado_sin_nombre_34"/>
    <linearGradient id="Degradado_sin_nombre_34-10" data-name="Degradado sin nombre 34" x1="45.21" y1="210.35" x2="251.12" y2="210.35" xlink:href="#Degradado_sin_nombre_34"/>
    <linearGradient id="Degradado_sin_nombre_34-11" data-name="Degradado sin nombre 34" x1="127.96" y1="192.95" x2="228.88" y2="192.95" xlink:href="#Degradado_sin_nombre_34"/>
    <linearGradient id="Degradado_sin_nombre_34-12" data-name="Degradado sin nombre 34" x1="108.17" y1="204.23" x2="209.09" y2="204.23" xlink:href="#Degradado_sin_nombre_34"/>
    <linearGradient id="Degradado_sin_nombre_34-13" data-name="Degradado sin nombre 34" x1="88.58" y1="215.81" x2="189.29" y2="215.81" xlink:href="#Degradado_sin_nombre_34"/>
    <linearGradient id="Degradado_sin_nombre_34-14" data-name="Degradado sin nombre 34" x1="68.12" y1="228.07" x2="168.36" y2="228.07" xlink:href="#Degradado_sin_nombre_34"/>
    <linearGradient id="Degradado_sin_nombre_34-15" data-name="Degradado sin nombre 34" x1="67.44" y1="193.35" x2="169.07" y2="193.35" xlink:href="#Degradado_sin_nombre_34"/>
    <linearGradient id="Degradado_sin_nombre_34-16" data-name="Degradado sin nombre 34" x1="87.24" y1="204.73" x2="188.53" y2="204.73" xlink:href="#Degradado_sin_nombre_34"/>
    <linearGradient id="Degradado_sin_nombre_34-17" data-name="Degradado sin nombre 34" x1="107.03" y1="216.23" x2="208.4" y2="216.23" xlink:href="#Degradado_sin_nombre_34"/>
    <linearGradient id="Degradado_sin_nombre_34-18" data-name="Degradado sin nombre 34" x1="128.04" y1="228.36" x2="228.84" y2="228.36" xlink:href="#Degradado_sin_nombre_34"/>
    <linearGradient id="Degradado_sin_nombre_21" data-name="Degradado sin nombre 21" x1="134.99" y1="207.95" x2="279.1" y2="207.95" gradientTransform="translate(-9.08 45.08) rotate(-3.17) scale(1 .87)" gradientUnits="userSpaceOnUse">
      <stop offset="0" stop-color="#740d79"/>
      <stop offset=".15" stop-color="#70117a"/>
      <stop offset=".31" stop-color="#661e7e"/>
      <stop offset=".48" stop-color="#553486"/>
      <stop offset=".66" stop-color="#3e5390"/>
      <stop offset=".84" stop-color="#207b9d"/>
      <stop offset="1" stop-color="#00a5ab"/>
    </linearGradient>
    <linearGradient id="Degradado_sin_nombre_21-2" data-name="Degradado sin nombre 21" x1="207.02" y1="217.47" x2="278.86" y2="217.47" xlink:href="#Degradado_sin_nombre_21"/>
    <linearGradient id="Degradado_sin_nombre_21-3" data-name="Degradado sin nombre 21" x1="134.73" y1="217.47" x2="207.04" y2="217.47" xlink:href="#Degradado_sin_nombre_21"/>
    <linearGradient id="Degradado_sin_nombre_21-4" data-name="Degradado sin nombre 21" x1="134.75" y1="190.03" x2="278.86" y2="190.03" xlink:href="#Degradado_sin_nombre_21"/>
    <linearGradient id="Degradado_sin_nombre_21-5" data-name="Degradado sin nombre 21" x1="148.76" y1="294.89" x2="264.74" y2="294.89" gradientTransform="matrix(1,0,0,1,0,0)" xlink:href="#Degradado_sin_nombre_21"/>
    <linearGradient id="Degradado_sin_nombre_21-6" data-name="Degradado sin nombre 21" x1="206.73" y1="301.77" x2="264.54" y2="301.77" gradientTransform="matrix(1,0,0,1,0,0)" xlink:href="#Degradado_sin_nombre_21"/>
    <linearGradient id="Degradado_sin_nombre_21-7" data-name="Degradado sin nombre 21" x1="148.55" y1="301.77" x2="206.75" y2="301.77" gradientTransform="matrix(1,0,0,1,0,0)" xlink:href="#Degradado_sin_nombre_21"/>
    <linearGradient id="Degradado_sin_nombre_21-8" data-name="Degradado sin nombre 21" x1="148.57" y1="281.94" x2="264.54" y2="281.94" gradientTransform="matrix(1,0,0,1,0,0)" xlink:href="#Degradado_sin_nombre_21"/>
    <linearGradient id="Degradado_sin_nombre_21-9" data-name="Degradado sin nombre 21" x1="22.99" y1="239.11" x2="171.7" y2="239.11" gradientTransform="translate(-1.18 .55) rotate(-.29)" xlink:href="#Degradado_sin_nombre_21"/>
    <linearGradient id="Degradado_sin_nombre_21-10" data-name="Degradado sin nombre 21" x1="129.82" y1="252.33" x2="174.18" y2="252.33" gradientTransform="translate(-1.18 .55) rotate(-.29)" xlink:href="#Degradado_sin_nombre_21"/>
    <linearGradient id="Degradado_sin_nombre_21-11" data-name="Degradado sin nombre 21" x1="98.91" y1="256.29" x2="129.84" y2="256.29" gradientTransform="translate(-1.18 .55) rotate(-.29)" xlink:href="#Degradado_sin_nombre_21"/>
    <linearGradient id="Degradado_sin_nombre_21-12" data-name="Degradado sin nombre 21" x1="67.27" y1="256.56" x2="98.93" y2="256.56" gradientTransform="translate(-1.18 .55) rotate(-.29)" xlink:href="#Degradado_sin_nombre_21"/>
    <linearGradient id="Degradado_sin_nombre_21-13" data-name="Degradado sin nombre 21" x1="21.69" y1="252.6" x2="67.28" y2="252.6" gradientTransform="translate(-1.18 .55) rotate(-.29)" xlink:href="#Degradado_sin_nombre_21"/>
    <linearGradient id="Degradado_sin_nombre_21-14" data-name="Degradado sin nombre 21" x1="21.71" y1="228.04" x2="174.18" y2="228.04" gradientTransform="translate(-1.18 .55) rotate(-.29)" xlink:href="#Degradado_sin_nombre_21"/>
    <linearGradient id="linear-gradient" x1="229.26" y1="178.95" x2="267.01" y2="178.95" gradientUnits="userSpaceOnUse">
      <stop offset="0" stop-color="#466fa7"/>
      <stop offset=".22" stop-color="#4a6fa8"/>
      <stop offset=".47" stop-color="#5870ac"/>
      <stop offset=".72" stop-color="#6e72b2"/>
      <stop offset=".99" stop-color="#8d75bb"/>
      <stop offset="1" stop-color="#8f76bc"/>
    </linearGradient>
    <linearGradient id="linear-gradient-2" x1="248.13" y1="160.34" x2="248.13" y2="178.11" gradientUnits="userSpaceOnUse">
      <stop offset="0" stop-color="#42a2cd"/>
      <stop offset=".23" stop-color="#429cc8"/>
      <stop offset=".54" stop-color="#438bbc"/>
      <stop offset=".89" stop-color="#446fa9"/>
      <stop offset="1" stop-color="#4565a2"/>
    </linearGradient>
    <linearGradient id="linear-gradient-3" x1="232.59" y1="172.54" x2="263.68" y2="172.54" xlink:href="#linear-gradient"/>
    <linearGradient id="linear-gradient-4" x1="148.95" y1="132.59" x2="186.7" y2="132.59" xlink:href="#linear-gradient"/>
    <linearGradient id="linear-gradient-5" x1="167.83" y1="113.99" x2="167.83" y2="131.76" xlink:href="#linear-gradient-2"/>
    <linearGradient id="linear-gradient-6" x1="167.83" y1="113.99" x2="167.83" y2="131.76" xlink:href="#linear-gradient-2"/>
    <linearGradient id="linear-gradient-7" x1="152.28" y1="126.19" x2="183.38" y2="126.19" xlink:href="#linear-gradient"/>
    <linearGradient id="linear-gradient-8" x1="204.7" y1="97.52" x2="204.7" y2="197.31" gradientUnits="userSpaceOnUse">
      <stop offset="0" stop-color="#88508f"/>
      <stop offset=".36" stop-color="#834c91"/>
      <stop offset=".77" stop-color="#754199"/>
      <stop offset="1" stop-color="#6b399f"/>
    </linearGradient>
    <linearGradient id="linear-gradient-9" x1="201.57" y1="105.66" x2="207.82" y2="105.66" gradientUnits="userSpaceOnUse">
      <stop offset="0" stop-color="#919acb"/>
      <stop offset=".26" stop-color="#8c97c8"/>
      <stop offset=".55" stop-color="#7e90bf"/>
      <stop offset=".86" stop-color="#6885b1"/>
      <stop offset="1" stop-color="#5c7faa"/>
    </linearGradient>
    <linearGradient id="linear-gradient-10" x1="141.9" y1="208.89" x2="61.4" y2="230.91" gradientUnits="userSpaceOnUse">
      <stop offset="0" stop-color="#3ca5cd"/>
      <stop offset=".34" stop-color="#3d9bc4"/>
      <stop offset=".89" stop-color="#4282ae"/>
      <stop offset="1" stop-color="#447da9"/>
    </linearGradient>
    <linearGradient id="linear-gradient-11" x1="137.48" y1="194.03" x2="65.3" y2="213.77" xlink:href="#linear-gradient-10"/>
    <linearGradient id="Degradado_sin_nombre_38-5" data-name="Degradado sin nombre 38" x1="84.65" y1="232.96" x2="125.73" y2="245.1" xlink:href="#Degradado_sin_nombre_38"/>
    <linearGradient id="Degradado_sin_nombre_38-6" data-name="Degradado sin nombre 38" x1="152.23" y1="1045.42" x2="180.29" y2="1053.72" gradientTransform="translate(-44.21 -701.79) rotate(-29) scale(1.1 .87) skewX(-23.69)" xlink:href="#Degradado_sin_nombre_38"/>
    <linearGradient id="Degradado_sin_nombre_37-3" data-name="Degradado sin nombre 37" x1="-2801.99" y1="-537" x2="-2773.93" y2="-528.7" xlink:href="#Degradado_sin_nombre_37"/>
    <linearGradient id="Degradado_sin_nombre_38-7" data-name="Degradado sin nombre 38" x1="94.46" y1="242.67" x2="114.98" y2="248.73" xlink:href="#Degradado_sin_nombre_38"/>
    <linearGradient id="Degradado_sin_nombre_38-8" data-name="Degradado sin nombre 38" x1="152.95" y1="1040.93" x2="166.96" y2="1045.08" gradientTransform="translate(-44.21 -701.79) rotate(-29) scale(1.1 .87) skewX(-23.69)" xlink:href="#Degradado_sin_nombre_38"/>
    <linearGradient id="Degradado_sin_nombre_37-4" data-name="Degradado sin nombre 37" x1="-2801.29" y1="-541.49" x2="-2787.27" y2="-537.35" xlink:href="#Degradado_sin_nombre_37"/>
    <linearGradient id="Degradado_sin_nombre_21-15" data-name="Degradado sin nombre 21" x1="28.33" y1="317.74" x2="164.13" y2="317.74" gradientTransform="matrix(1,0,0,1,0,0)" xlink:href="#Degradado_sin_nombre_21"/>
    <linearGradient id="Degradado_sin_nombre_21-16" data-name="Degradado sin nombre 21" x1="96.21" y1="325.8" x2="163.91" y2="325.8" gradientTransform="matrix(1,0,0,1,0,0)" xlink:href="#Degradado_sin_nombre_21"/>
    <linearGradient id="Degradado_sin_nombre_21-17" data-name="Degradado sin nombre 21" x1="28.09" y1="325.8" x2="96.23" y2="325.8" gradientTransform="matrix(1,0,0,1,0,0)" xlink:href="#Degradado_sin_nombre_21"/>
    <linearGradient id="Degradado_sin_nombre_21-18" data-name="Degradado sin nombre 21" x1="28.11" y1="302.57" x2="163.91" y2="302.57" gradientTransform="matrix(1,0,0,1,0,0)" xlink:href="#Degradado_sin_nombre_21"/>
    <linearGradient id="linear-gradient-12" x1="863.38" y1="303.36" x2="871.07" y2="303.36" gradientTransform="translate(997.67) rotate(-180) scale(1 -1)" gradientUnits="userSpaceOnUse">
      <stop offset="0" stop-color="#3784b7"/>
      <stop offset="1" stop-color="#9862a0"/>
    </linearGradient>
    <linearGradient id="linear-gradient-13" x1="892.22" y1="320.01" x2="899.91" y2="320.01" xlink:href="#linear-gradient-12"/>
    <linearGradient id="linear-gradient-14" x1="863.44" y1="295.94" x2="937.25" y2="295.94" xlink:href="#linear-gradient-12"/>
    <linearGradient id="linear-gradient-15" x1="94.61" y1="284.79" x2="102.99" y2="284.79" gradientTransform="matrix(1,0,0,1,0,0)" xlink:href="#linear-gradient-12"/>
    <linearGradient id="linear-gradient-16" x1="99.49" y1="289.17" x2="110.74" y2="289.17" gradientTransform="matrix(1,0,0,1,0,0)" xlink:href="#linear-gradient-12"/>
    <linearGradient id="linear-gradient-17" x1="107.56" y1="292.05" x2="122.55" y2="292.05" gradientTransform="matrix(1,0,0,1,0,0)" xlink:href="#linear-gradient-12"/>
  </defs>
  <g class="cls-43">
    <g id="Layer_1" data-name="Layer 1">
      <rect class="cls-10" x=".3" y=".17" width="302.87" height="381.91"/>
      <g>
        <g>
          <polygon class="cls-61" points="238.37 225.08 220.23 235.13 238.37 245.18 256.5 235.13 238.37 225.08"/>
          <polygon class="cls-63" points="256.49 255.53 238.37 266.28 238.37 245.18 256.49 235.13 256.49 255.53"/>
          <polygon class="cls-124" points="220.23 255.53 238.35 266.28 238.35 245.18 220.23 235.13 220.23 255.53"/>
        </g>
        <g>
          <polygon class="cls-74" points="238.37 235.39 229.31 240.41 238.37 245.43 247.43 240.41 238.37 235.39"/>
          <polygon class="cls-54" points="247.42 250.6 238.37 255.97 238.37 245.43 247.42 240.41 247.42 250.6"/>
          <polygon class="cls-93" points="229.31 250.6 238.36 255.97 238.36 245.43 229.31 240.41 229.31 250.6"/>
        </g>
      </g>
      <g>
        <g>
          <polygon class="cls-16" points="192.83 256.13 90.35 316.42 193.45 375.7 295.94 316.93 192.83 256.13"/>
          <g>
            <line class="cls-24" x1="172.98" y1="267.81" x2="273.82" y2="329.22"/>
            <line class="cls-26" x1="153.19" y1="279.09" x2="254.03" y2="340.5"/>
            <line class="cls-29" x1="133.6" y1="290.97" x2="234.23" y2="351.78"/>
            <line class="cls-23" x1="113.14" y1="303.01" x2="213.3" y2="364.26"/>
          </g>
          <g>
            <line class="cls-14" x1="214" y1="268.62" x2="112.46" y2="329.22"/>
            <line class="cls-31" x1="233.47" y1="280.09" x2="132.26" y2="340.5"/>
            <line class="cls-19" x1="253.34" y1="291.81" x2="152.05" y2="351.78"/>
            <line class="cls-15" x1="273.78" y1="303.87" x2="173.06" y2="363.97"/>
          </g>
        </g>
        <g>
          <polygon class="cls-25" points="147.85 150.57 45.37 210.86 148.47 270.13 250.96 211.37 147.85 150.57"/>
          <g>
            <line class="cls-21" x1="128" y1="162.24" x2="228.84" y2="223.65"/>
            <line class="cls-30" x1="108.21" y1="173.52" x2="209.05" y2="234.93"/>
            <line class="cls-18" x1="88.62" y1="185.41" x2="189.25" y2="246.21"/>
            <line class="cls-20" x1="68.16" y1="197.45" x2="168.32" y2="258.7"/>
          </g>
          <g>
            <line class="cls-17" x1="169.03" y1="163.05" x2="67.48" y2="223.65"/>
            <line class="cls-27" x1="188.49" y1="174.53" x2="87.28" y2="234.93"/>
            <line class="cls-28" x1="208.36" y1="186.25" x2="107.07" y2="246.21"/>
            <line class="cls-22" x1="228.8" y1="198.3" x2="128.08" y2="258.41"/>
          </g>
        </g>
      </g>
      <g class="cls-35">
        <g class="cls-44">
          <polygon class="cls-7" points="279.63 210.74 210.17 255.18 135.74 218.72 205.2 174.27 279.63 210.74"/>
        </g>
        <g class="cls-43">
          <polygon class="cls-82" points="278.52 195.15 278.9 202.47 209.45 246.91 209.06 239.59 278.52 195.15"/>
          <polygon class="cls-113" points="209.06 239.59 209.45 246.91 135.02 210.45 134.64 203.12 209.06 239.59"/>
          <polygon class="cls-88" points="278.52 195.15 209.06 239.59 134.64 203.12 204.1 158.68 278.52 195.15"/>
        </g>
      </g>
      <g class="cls-35">
        <g class="cls-44">
          <polygon class="cls-114" points="264.74 294.89 206.94 328.48 148.76 294.89 206.56 261.3 264.74 294.89"/>
        </g>
        <g class="cls-43">
          <polygon class="cls-46" points="264.54 281.94 264.53 288.01 206.73 321.6 206.75 315.52 264.54 281.94"/>
          <polygon class="cls-117" points="206.75 315.52 206.73 321.6 148.55 288.01 148.57 281.94 206.75 315.52"/>
          <polygon class="cls-38" points="264.54 281.94 206.75 315.52 148.57 281.94 206.37 248.35 264.54 281.94"/>
        </g>
      </g>
      <g class="cls-2">
        <g>
          <g class="cls-44">
            <polygon class="cls-73" points="171.77 247.5 128.65 272.85 98.41 255.6 67.64 273.69 23.06 248.25 96.96 204.81 171.77 247.5"/>
          </g>
          <polygon class="cls-41" points="174.2 236.63 174.21 241.59 129.99 267.58 129.98 262.63 174.2 236.63"/>
          <polygon class="cls-110" points="129.98 262.63 129.99 267.58 98.99 249.89 98.98 244.94 129.98 262.63"/>
          <polygon class="cls-69" points="98.98 244.94 98.99 249.89 67.44 268.44 67.43 263.49 98.98 244.94"/>
          <polygon class="cls-95" points="67.43 263.49 67.44 268.44 21.73 242.36 21.72 237.4 67.43 263.49"/>
          <polygon class="cls-119" points="174.2 236.63 129.98 262.63 98.98 244.94 67.43 263.49 21.72 237.4 97.49 192.86 174.2 236.63"/>
        </g>
      </g>
      <g>
        <path class="cls-9" d="m175.83,145.39h-.02s-13.09-7.59-13.09-7.59h0c-.2-.11-.44-.11-.63,0l-12.03,6.95-2.69,1.55c-.23.13-.23.47,0,.6l.43.25,13.09,7.57h0c.2.11.44.11.63,0l12.67-7.32,1.65-.95c.41-.24.41-.83,0-1.07Z"/>
        <g>
          <g>
            <path class="cls-112" d="m229.26,170.04c0,9.83,8.45,17.8,18.88,17.8s18.87-7.97,18.88-17.8h-37.75Z"/>
            <g>
              <path class="cls-66" d="m229.26,170.04c0,4.79,8.45,8.67,18.88,8.67s18.88-3.88,18.88-8.67-8.45-8.67-18.88-8.67-18.88,3.88-18.88,8.67Z"/>
              <path class="cls-3" d="m231.54,170.04c0,3.94,7.43,7.13,16.59,7.13s16.59-3.19,16.59-7.13-7.43-7.13-16.59-7.13-16.59,3.19-16.59,7.13Z"/>
              <path class="cls-3" d="m231.54,170.04c0,3.94,7.43,7.13,16.59,7.13s16.59-3.19,16.59-7.13-7.43-7.13-16.59-7.13-16.59,3.19-16.59,7.13Z"/>
              <path class="cls-111" d="m248.13,167.91c-7.12,0-13.19,1.93-15.55,4.63,2.35,2.71,8.43,4.63,15.55,4.63s13.19-1.93,15.55-4.63c-2.35-2.7-8.42-4.63-15.55-4.63Z"/>
            </g>
          </g>
          <g>
            <path class="cls-118" d="m148.95,123.69c0,9.83,8.45,17.8,18.87,17.8s18.87-7.97,18.88-17.8h-37.75Z"/>
            <g>
              <path class="cls-66" d="m148.95,123.69c0,4.79,8.45,8.67,18.87,8.67s18.88-3.88,18.88-8.67-8.45-8.67-18.88-8.67-18.87,3.88-18.87,8.67Z"/>
              <path class="cls-91" d="m151.24,123.69c0,3.94,7.43,7.13,16.59,7.13s16.59-3.19,16.59-7.13-7.43-7.13-16.59-7.13-16.59,3.19-16.59,7.13Z"/>
              <path class="cls-42" d="m151.24,123.69c0,3.94,7.43,7.13,16.59,7.13s16.59-3.19,16.59-7.13-7.43-7.13-16.59-7.13-16.59,3.19-16.59,7.13Z"/>
              <path class="cls-97" d="m167.83,121.55c-7.12,0-13.19,1.93-15.55,4.63,2.35,2.71,8.43,4.63,15.55,4.63s13.19-1.93,15.55-4.63c-2.36-2.71-8.43-4.63-15.55-4.63Z"/>
            </g>
          </g>
          <g>
            <path class="cls-116" d="m266.6,169.44l-15.8-43.17c-.16-.45-.66-.67-1.1-.51-.44.16-.67.66-.51,1.1l15.79,43.17c.13.35.46.56.81.56.1,0,.2-.02.3-.05.44-.16.67-.66.51-1.1Z"/>
            <path class="cls-116" d="m246.5,125.76c-.44-.16-.94.07-1.1.51l-15.8,43.17c-.16.44.07.94.51,1.1.1.04.2.05.29.05.35,0,.68-.22.81-.56l15.8-43.17c.16-.44-.07-.94-.51-1.1Z"/>
            <path class="cls-116" d="m248.13,124.94c-.47,0-.86.38-.86.86v52c0,.47.38.86.86.86s.86-.38.86-.86v-52c0-.47-.38-.86-.86-.86Z"/>
            <path class="cls-116" d="m170.5,79.92c-.16-.45-.66-.67-1.1-.51-.44.16-.67.66-.51,1.1l15.79,43.17c.13.35.46.56.81.56.1,0,.2-.02.29-.05.44-.16.67-.66.51-1.1l-15.8-43.17Z"/>
            <path class="cls-116" d="m166.19,79.41c-.45-.16-.94.07-1.1.51l-15.8,43.17c-.16.44.07.94.51,1.1.1.04.2.05.29.05.35,0,.68-.22.81-.56l15.8-43.17c.16-.45-.07-.94-.51-1.1Z"/>
            <path class="cls-116" d="m167.83,78.59c-.47,0-.86.38-.86.86v52c0,.47.38.86.86.86s.86-.38.86-.86v-52c0-.47-.38-.86-.86-.86Z"/>
          </g>
          <g>
            <g>
              <polygon class="cls-49" points="167.95 74.04 167.95 83.9 171.86 81.65 171.86 71.79 167.95 74.04"/>
              <polygon class="cls-68" points="171.86 71.79 167.95 74.04 164.02 71.77 167.93 69.53 171.86 71.79"/>
              <polygon class="cls-45" points="167.95 74.04 167.95 83.9 164.02 81.63 164.02 71.77 167.95 74.04"/>
            </g>
            <g>
              <polygon class="cls-49" points="200.65 95.52 200.65 103.63 203.53 101.97 203.53 93.86 200.65 95.52"/>
              <polygon class="cls-68" points="203.53 93.86 200.65 95.52 168.52 76.98 171.4 75.32 203.53 93.86"/>
              <polygon class="cls-45" points="200.65 95.52 200.65 103.63 168.52 81.68 168.52 76.98 200.65 95.52"/>
            </g>
          </g>
          <path class="cls-68" d="m217.94,179.14c-7.35-4.24-19.27-4.24-26.56,0-7.3,4.24-7.26,11.14.09,15.39,7.35,4.24,19.26,4.24,26.56,0,7.3-4.24,7.26-11.14-.09-15.39Z"/>
          <path class="cls-45" d="m223.47,188.08v-1.19c0,.07,0,.14,0,.21,0,.05,0,.1,0,.14,0,.04,0,.08,0,.12,0,.05,0,.09-.01.14,0,.04,0,.08-.01.12,0,.05-.01.1-.02.14-.1.71-.32,1.4-.63,2.04-.28.57-.63,1.1-1.02,1.6-.4.5-.85.97-1.34,1.39-.48.43-.99.82-1.53,1.18-.38.26-.77.5-1.17.72-2.3,1.28-4.93,2.1-7.51,2.55-.07.01-.13.02-.2.03-5.5.92-11.21.38-16.4-1.7-.51-.2-.99-.43-1.47-.68-.23-.12-.45-.24-.67-.37-1.85-1.07-3.23-2.3-4.16-3.62-.11-.17-.22-.33-.32-.5-.2-.33-.38-.67-.52-1.02-.36-.86-.54-1.73-.54-2.61v1.35s0,.1,0,.14v.22s0,0,0,0v.05s0,.1,0,.14h0v.06s0,.1,0,.14v.9c-.02,4.71,4.65,7.68,8.56,9.17,4.21,1.61,8.8,2.03,13.26,1.61,2.42-.23,4.86-.74,7.14-1.59,2.29-.85,4.62-2.12,6.31-3.92,1.28-1.36,2.27-3.28,2.28-5.18v-.44s0,.1,0,.14v-.51s0,0,0,0v-.07s0,.1,0,.15v-1.19s0,0,0,0v-.07s0,.1,0,.15Z"/>
          <path class="cls-48" d="m212.8,180.76c-4.5-2.6-11.79-2.6-16.25,0-4.47,2.6-4.44,6.82.05,9.42,4.5,2.6,11.79,2.6,16.26,0,4.47-2.6,4.44-6.82-.05-9.41Z"/>
          <path class="cls-45" d="m216.18,186.23v-.73s0,.09,0,.13c0,.03,0,.06,0,.09,0,.02,0,.05,0,.07,0,.03,0,.06,0,.09,0,.02,0,.05,0,.07,0,.03,0,.06-.01.09-.06.43-.2.85-.39,1.25-.17.35-.39.67-.63.98-.25.31-.52.59-.82.85-.29.26-.61.5-.93.72-.23.16-.47.3-.72.44-1.41.78-3.02,1.28-4.6,1.56-.04,0-.08.01-.12.02-3.37.56-6.86.23-10.03-1.04-.31-.12-.6-.26-.9-.42-.14-.07-.28-.15-.41-.23-1.13-.65-1.98-1.41-2.54-2.22-.07-.1-.14-.2-.2-.31-.12-.2-.23-.41-.32-.62-.22-.52-.33-1.06-.33-1.6v.83s0,.06,0,.09v.14s0,0,0,0v.03s0,.06,0,.08h0v.04s0,.06,0,.09v.55c0,2.88,2.85,4.7,5.24,5.61,2.58.98,5.38,1.24,8.12.99,1.48-.14,2.97-.45,4.37-.97,1.4-.52,2.83-1.3,3.86-2.4.78-.83,1.39-2.01,1.39-3.17v-.27s0,.06,0,.09v-.31s0,0,0,0v-.04s0,.06,0,.09v-.73s0,0,0,0v-.04s0,.06,0,.09Z"/>
          <g>
            <path class="cls-121" d="m207.82,105.66v79.73c0,.79-1.4,1.44-3.13,1.44s-3.13-.64-3.13-1.44v-79.73h6.26Z"/>
            <path class="cls-108" d="m201.57,105.66c0,.79,1.4,1.44,3.13,1.44s3.13-.64,3.13-1.44-1.4-1.44-3.13-1.44-3.13.64-3.13,1.44Z"/>
          </g>
          <g>
            <polygon class="cls-49" points="204.73 97.42 204.73 111.93 210.48 108.62 210.48 94.11 204.73 97.42"/>
            <polygon class="cls-68" points="210.48 94.11 204.73 97.42 198.95 94.08 204.7 90.77 210.48 94.11"/>
            <polygon class="cls-45" points="204.73 97.42 204.73 111.93 198.95 108.59 198.95 94.08 204.73 97.42"/>
          </g>
          <g>
            <polygon class="cls-49" points="244.65 120.93 244.65 124.99 247.53 123.34 247.53 119.27 244.65 120.93"/>
            <polygon class="cls-68" points="247.53 119.27 244.65 120.93 206.35 98.81 209.23 97.16 247.53 119.27"/>
            <polygon class="cls-45" points="244.65 120.93 244.65 124.99 206.35 106.95 206.35 98.81 244.65 120.93"/>
          </g>
          <g>
            <polygon class="cls-49" points="248.13 120.36 248.13 130.22 252.04 127.97 252.04 118.11 248.13 120.36"/>
            <polygon class="cls-68" points="252.04 118.11 248.13 120.36 244.21 118.09 248.11 115.84 252.04 118.11"/>
            <polygon class="cls-45" points="248.13 120.36 248.13 130.22 244.21 127.95 244.21 118.09 248.13 120.36"/>
          </g>
        </g>
      </g>
      <path class="cls-76" d="m182.64,261.23s-1.28-.37-1.96-.42c-.72-.06-1.69,1.26-.38,2.11,1.3.84,3.09,1.57,3.79,1.45.7-.12,1.3-.35,1.37-.51.06-.16-.14-2.86-.14-2.86l-2.68.24Z"/>
      <path class="cls-120" d="m190.78,248.61s-4.57-.93-7.02-1.15c-.89-.08-1.66.59-1.71,1.49-.1,2.21-.3,8.91.02,12.23l2.09.87c.8.16,1.58-.03,1.62-.82l.27-7.73c.27-.2.79.03,1.32.26,1.57.67,5.78,2.01,7.41,1.44,0,0,4.96-1.71,4.96-5.12l-8.96-1.46Z"/>
      <path class="cls-107" d="m200.17,235.33c-.46-.52-1.24-.8-1.91-.61l-1.17.35-3.81,1.78-2.64,1.38-.23,8.43-.52,3.5,1.82,1.94c1.87,1.75,8.35-1.74,8.35-1.74.96-3.19,1.24-11.45,1.24-11.45-.05-1.81-.53-2.91-1.13-3.59Z"/>
      <path class="cls-51" d="m195.81,227.78c-.91-.15-1.43-.32-2.31-.06-1.48.44-2.27,1.84-2.62,3.25-.36,1.42-.47,3.48.34,4.8.51.82,1.64.67,2.44.45.98-.26,2.25-.68,3.05-1.28,1.11-.84,1.7-2.68,1.77-4.01.06-1.15-1.28-2.91-2.68-3.14Z"/>
      <path class="cls-70" d="m193.66,236.21c.98-.26,2.25-.68,3.05-1.28.13-.1.26-.22.38-.35h0v1.34c-.26.52-.89.74-1.45.8-.74.08-1.33.41-2.36.12l-.12-.53c.17-.03.34-.07.5-.11Z"/>
      <path class="cls-6" d="m197.17,234.84l.3.89s-1.75,2.44-4.69,1.38l.42-.53s2.74.07,3.97-1.74Z"/>
      <path class="cls-51" d="m183.48,246.39s-.59-.13-.93-.11c-.34.02-.57.44-.84.59-.28.15-.74.7-.75,1.29,0,.59.27,1.24.59,1.24.32,0,.4.06.5-.18.1-.24.67-1.08.67-1.08l.76-1.76Z"/>
      <path class="cls-57" d="m183.17,246.05c.69.18,4.54.46,4.54.46,0,0,.47-4.89,1.01-6.42.54-1.53,2.01-1.89,2.01-1.89,2.56,1.23,1.22,4.43,1.22,4.43-.99,2.75-1.47,5.03-1.68,6.25-.09.54-.6.89-1.14.81-3.4-.55-6.61-1.33-6.61-1.33,0-1.36.65-2.3.65-2.3Z"/>
      <path class="cls-85" d="m190.94,228.37c2.1-1.75,4.98-.79,4.98-.79h0c.23.05.44.12.63.21.98.5,1.98,1.97,1.92,3.12-.07,1.33-.66,3.17-1.77,4.01-.61.46-1.51.82-2.34,1.08-.23-.11-.57-1.35-.57-1.35.47-.27.83-1.82.33-2.09-.5-.27-.83.69-.83.69-.29-.11-.72-.44-.48-1.01.24-.57,0-1.17,0-1.17-2.08-.05-2.34.68-2.34.68-.9-1.94.46-3.38.46-3.38Z"/>
      <g>
        <path class="cls-57" d="m193.72,256.68l-1.47-.76.84,12.9c.01.22.11.42.25.55.19.17.38.25.55.27.37.06.69-.33.66-.79l-.82-12.16Z"/>
        <path class="cls-57" d="m204.3,251.26l-1.43-.76.95,11.88c.02.22.11.43.26.56.15.13.29.2.42.24.4.12.77-.32.72-.84l-.93-11.08Z"/>
        <path class="cls-57" d="m184.72,253.85l-1.7,10.35c-.04.23.02.49.17.62.11.1.22.15.31.18.23.06.46-.14.52-.44l2.05-10.23-1.36-.48Z"/>
        <path class="cls-89" d="m203.75,238.5c-6.11,1.27-9.2,4.53-10.18,5.75-.23.29-.35.64-.35,1.01v11.73c8.17-1.36,11.67-6.17,11.67-6.17v-11.39c0-.6-.55-1.05-1.14-.93Z"/>
        <path class="cls-89" d="m193.22,256.99s-7.05-.71-9.22-3.14c0,0-.16-1.64.51-1.41.67.22,3.85,2.17,8.71,2.68v1.87Z"/>
      </g>
      <path class="cls-9" d="m181.5,262.29l11.95-6.9c.35-.2.78-.2,1.13,0l11.87,6.83c.75.43.76,1.52,0,1.96l-11.95,6.9c-.35.2-.78.2-1.13,0l-11.87-6.83c-.76-.43-.76-1.53,0-1.96Z"/>
      <g>
        <g>
          <path class="cls-9" d="m91.22,221.96c6.5,0,11.77,1.61,11.77,3.58s-5.27,3.58-11.77,3.58-11.77-1.61-11.77-3.58,5.27-3.58,11.77-3.58Z"/>
          <g>
            <path class="cls-50" d="m88.07,222.67s.07,1.65.91,2.09c.84.44,3.04,2,2.56,2.7-.48.7-2.11,1.34-3.84.38-1.73-.95-2.72-1.81-3.24-2.14-.51-.33,0-2.67.11-3.7.11-1.03,3.49.66,3.49.66Z"/>
            <path class="cls-76" d="m93.33,196.88s2.55,13.28,2.55,14.01-6.77,8.05-6.77,8.05l-.87-6.33,2.72-3.23-2.12-7.21-.81-6.53,1.86-2.57,3.43.95v2.86Z"/>
            <path class="cls-76" d="m84.37,195.63s.14,13.16.14,14.92-.59,12.05-.59,12.05c0,0,.66,1.47,4.85.66l1.03-12.63.1-10.3v-2.94l-5.54-1.76Z"/>
            <polygon class="cls-11" points="89.9 200.33 90.97 209.37 89.52 205.31 89.9 200.33"/>
            <path class="cls-11" d="m88.84,196.45s2.2.4,4.23-.55l-.29-1.1-3.94.53v1.13Z"/>
            <path class="cls-58" d="m79.92,198.57s.05,1.4,0,1.97c-.1,1.1.36,2.16.75,2.45.39.29,1.23.51,1.55.33.33-.18-.31-1.2-.43-1.7-.27-1.08,0-1.43,0-1.43-.02.02.2.38.21.41.14.29.26.58.38.87,0,.02.02.05.04.06.03.02.06,0,.09-.01.31-.27.24-.95.07-1.26-.18-.32-.65-2.57-.65-2.57l-2.02.88Z"/>
            <path class="cls-6" d="m79.56,197.92v1.19s1.74.07,2.96-.6v-1.24l-2.96.64Z"/>
            <path class="cls-72" d="m87.59,176.7l.23.31,3.68,1.76.3-1.25c-2.08-1.38-4.21-.83-4.21-.83Z"/>
            <path class="cls-58" d="m87.93,175.62s-.04.79-.26,1.65l1.57,1.76,1.35,1.21h.86l.24-1.01s-.33-2.09-.13-2.85l-3.64-.77Z"/>
            <path class="cls-75" d="m88.77,195.55s1.71.39,3.92-.59l.64-16.35-1.93.4-1.86-.32-2.31-1.26-.76,1.19,1.09,12.54,1.21,4.41Z"/>
            <path class="cls-76" d="m92.09,181.17s.51,7.82.26,16.78c0,0,.93-.24,1.62-.78,0,0,.64-11.13.21-18.56l-2.35-.82.06.68.21,2.69Z"/>
            <polygon class="cls-123" points="87.59 176.7 87.11 177.53 89.61 180.25 90.7 178.88 87.59 176.7"/>
            <path class="cls-76" d="m82.38,180.06s1.17-1.24,4.72-2.53c0,0,2.71,4.47,2.04,20.91,0,0-4.63-.64-5.32-1.18,0,0,.27-13.07-1.44-17.21Z"/>
            <path class="cls-58" d="m87.1,174.26s.41,2.95,3.1,3.13c3.1.21,3.56-3.83,3.29-5.75-.25-1.8-2.24-4.05-4.47-2.85-1.68.9-2.35,2.77-1.92,5.48Z"/>
            <path class="cls-79" d="m90.03,167.99s-2.72-.07-3.56,3.26c0,0-.64,2.76,1.31,4.76,0,0,.02-1.16.2-1.38.17-.21-.39-.92-.29-1.36.09-.44.21-1.24.69-.81l.17.2c.15.18.44.07.43-.17,0-.34.04-.71.21-.94.39-.5,2.24,1.27,4.36,1.03,0,0,.56,0,.55-.82,0,0-.44-4.26-4.07-3.78Z"/>
            <polygon class="cls-123" points="90.7 178.88 92 180.03 91.8 177.53 90.7 178.88"/>
            <polygon class="cls-76" points="90.7 178.88 91.66 179.72 91.27 180.42 90.42 180.51 89.88 179.92 90.7 178.88"/>
            <polygon class="cls-76" points="91.27 180.42 92 191.3 91.2 192.96 90.24 191.49 90.42 180.51 91.27 180.42"/>
            <polygon class="cls-11" points="89.79 210.78 89.12 218.94 89.97 218.01 90 210.52 89.79 210.78"/>
            <polygon class="cls-11" points="85.35 184.1 83.73 189.78 83.6 187.34 85.35 184.1"/>
            <path class="cls-76" d="m82.13,180.34s-2.27,6.15-2.71,9.87v8.23s1.81.1,3.18-.64c0,0-.39-8.57,2.74-13.71,0,0-.87-6.62-3.22-3.75Z"/>
          </g>
        </g>
        <g>
          <g>
            <path class="cls-71" d="m122.99,194.79l-1.85,1.18-.83.76-45.47,14.82-.53-.48-2.34-.49v26.15h0c0,.11.05.21.15.27l.37.22,11.44,6.62h0c.17.1.38.1.55,0l37.49-21.65,1.44-.83c.19-.11.27-.3.27-.49h0v-26.15l-.7.07Z"/>
            <path class="cls-67" d="m123.42,194.28h-.02s-11.44-6.63-11.44-6.63h0c-.17-.1-.38-.1-.55,0l-36.93,21.33-2.35,1.36c-.2.12-.2.41,0,.53l.37.22,11.44,6.62h0c.17.1.38.1.55,0l37.49-21.65,1.44-.83c.36-.21.36-.73,0-.93Z"/>
          </g>
          <g>
            <path class="cls-56" d="m122.99,190.66l-1.85,1.18-.83.76-45.47,14.82-.53-.48-2.34-.49v2.27h0c0,.1.05.21.15.27l.37.22,11.44,6.62h0c.17.1.38.1.55,0l37.49-21.65,1.44-.83c.19-.11.27-.3.27-.48h0v-2.27l-.7.07Z"/>
            <path class="cls-67" d="m123.42,190.15h-.02s-11.44-6.63-11.44-6.63h0c-.17-.1-.38-.1-.55,0l-36.93,21.33-2.35,1.36c-.2.12-.2.41,0,.52l.37.22,11.44,6.62h0c.17.1.38.1.55,0l37.49-21.65,1.44-.83c.36-.21.36-.73,0-.93Z"/>
          </g>
        </g>
        <path class="cls-58" d="m106.21,195.33c-.12-.06-.26-.12-.34-.2-.1-.11.05-.12.16-.12.32.02.62.11.94.12.09,0,.28-.05.17-.17-.31-.34-.87-.46-1.3-.58-.3-.08-.61-.14-.92-.18-.16-.02-.33-.04-.5-.05-.09,0-.3.03-.38-.03-.11-.08,0,0-.1-.08l-1.16,1.58c.16.22.35.42.55.62.48.47.77.6,1.39.79.37.12.59.36.88.62.29.26.3.62.68.76.41.14,1.19-.59,1.2-1.45,0-.44-.29-.84-.59-1.14-.16-.16-.34-.3-.53-.42-.05-.03-.1-.06-.15-.08Z"/>
        <path class="cls-76" d="m94.17,178.61s2.39,7.43,3.27,9.32l6.61,5.35s-.07,1.76-1.76,2.79l-6.9-4.92-1.12-1.86-.93-7.63.84-3.04Z"/>
      </g>
      <g>
        <g>
          <path class="cls-106" d="m50.91,232.82c-3.95-2.28-10.36-2.28-14.28,0-3.92,2.28-3.9,5.99.05,8.27,3.95,2.28,10.36,2.28,14.28,0,3.92-2.28,3.9-5.99-.05-8.27Z"/>
          <path class="cls-83" d="m53.88,237.62v-.64s0,.08,0,.11c0,.03,0,.05,0,.08,0,.02,0,.04,0,.07,0,.03,0,.05,0,.08,0,.02,0,.04,0,.07,0,.03,0,.05-.01.08-.05.38-.17.75-.34,1.1-.15.31-.34.59-.55.86-.22.27-.46.52-.72.75-.26.23-.53.44-.82.63-.2.14-.42.27-.63.39-1.24.69-2.65,1.13-4.04,1.37-.04,0-.07.01-.11.02-2.96.49-6.03.2-8.81-.91-.27-.11-.53-.23-.79-.37-.12-.06-.24-.13-.36-.2-.99-.57-1.74-1.24-2.23-1.95-.06-.09-.12-.18-.17-.27-.11-.18-.2-.36-.28-.55-.19-.46-.29-.93-.29-1.4v.73s0,.05,0,.08v.12s0,0,0,0v.03s0,.05,0,.07c0,0,0,0,0,0v.03s0,.05,0,.08v.49c0,2.53,2.5,4.13,4.6,4.93,2.26.86,4.73,1.09,7.13.87,1.3-.12,2.61-.4,3.84-.85,1.23-.46,2.48-1.14,3.39-2.1.69-.73,1.22-1.76,1.22-2.78v-.24s0,.05,0,.08v-.27s0,0,0,0v-.04s0,.05,0,.08v-.64s0,0,0,0v-.04s0,.05,0,.08Z"/>
          <path class="cls-106" d="m49.95,231.47c-3.42-1.97-8.96-1.97-12.35,0-3.39,1.97-3.38,5.18.04,7.15,3.42,1.97,8.96,1.97,12.35,0,3.39-1.97,3.38-5.18-.04-7.15Z"/>
          <path class="cls-83" d="m52.52,235.63v-.55s0,.07,0,.1c0,.02,0,.04,0,.07,0,.02,0,.04,0,.06,0,.02,0,.04,0,.07,0,.02,0,.04,0,.06,0,.02,0,.04,0,.07-.05.33-.15.65-.29.95-.13.26-.29.51-.48.74-.19.23-.4.45-.62.65-.22.2-.46.38-.71.55-.18.12-.36.23-.55.33-1.07.59-2.29.97-3.49,1.18-.03,0-.06.01-.09.02-2.56.43-5.21.18-7.62-.79-.24-.09-.46-.2-.68-.32-.11-.06-.21-.11-.31-.17-.86-.5-1.5-1.07-1.93-1.68-.05-.08-.1-.15-.15-.23-.09-.16-.17-.31-.24-.47-.17-.4-.25-.81-.25-1.21v.63s0,.04,0,.07v.1s0,0,0,0v.02s0,.05,0,.06h0v.03s0,.04,0,.07v.42c0,2.19,2.16,3.57,3.98,4.27,1.96.75,4.09.94,6.17.75,1.13-.1,2.26-.34,3.32-.74,1.06-.4,2.15-.99,2.93-1.82.59-.63,1.06-1.52,1.06-2.41v-.21s0,.04,0,.07v-.24s0,0,0,0v-.03s0,.04,0,.07v-.55s0,0,0,0v-.03s0,.04,0,.07Z"/>
        </g>
        <path class="cls-12" d="m79.86,245.19s.02,0,.02,0c0,0,.01,0,.02,0,.02,0,.03.01.05.02l-10.31-5.96s-.03-.02-.05-.02c0,0-.01,0-.02,0-.17-.07-.37-.06-.54,0-.07.02-.15.06-.22.1-2.62-1.51-10.65-6.14-13.45-7.76l2.95-1.71s.07-.04.1-.06c0,0,.02-.01.03-.02.02-.02.05-.03.07-.05.01,0,.02-.02.03-.02.03-.02.05-.05.08-.07,0,0,0,0,.01-.01.03-.03.06-.06.09-.09,0,0,.02-.02.02-.03.02-.02.04-.05.06-.07,0-.01.02-.02.02-.03.02-.03.04-.06.06-.08,0,0,.01-.02.02-.02,0,0,0,0,0,0,.36-.57.43-1.32.39-1.98-.14-1.91-1.2-3.83-2.67-5.04-.02-.02-.05-.04-.07-.06-.01,0-.02-.02-.04-.03-.4-.32-.87-.59-1.36-.75-.49-.16-1.05-.2-1.53,0-.01,0-.03.01-.04.02-.04.02-.09.04-.13.07,0,0-5.16,2.98-5.42,3.13,0,0,0,0,0,0,0,0-.01,0-.01,0,0,0,0,0,0,0-.48.27-.81.79-.94,1.51-.15.09-.31.18-.48.28-.02,0-.05-.02-.07-.03-.49-.16-1.05-.2-1.53,0-.01,0-.03.01-.04.02-.04.02-.09.04-.13.07,0,0-5.44,3.14-5.44,3.14,0,0,0,0,0,0-.62.36-1.01,1.12-1.01,2.2,0,2.17,1.52,4.82,3.41,5.91,1.06.61,2.01.61,2.64.1,0,0,0,0,0,0-.02.02-.05.04-.07.05,0,0-.02.01-.03.02-.03.02-.07.04-.1.06l5.44-3.14s.07-.04.1-.07c0,0,.02-.01.03-.02.02-.02.05-.03.07-.05,0,0,.02-.02.03-.02.03-.02.05-.05.08-.07,0,0,0,0,.01-.01.03-.03.06-.06.09-.09,0,0,.02-.02.02-.03.02-.02.04-.05.06-.07,0-.01.02-.02.02-.03.02-.03.04-.05.06-.08,0,0,.01-.02.02-.02,0,0,0,0,0,0,.15-.24.25-.52.32-.81l.62-.36c.39.12.76.15,1.09.1l.44.25s-.02-.01-.04-.02c0,0,0,0-.01,0,0,0-.02-.01-.02-.02,0,0,0,0,0,0,.21.17.53.18.88,0l14.02,8.09c0,.18.04.37.14.52,0,0,0,0,0,0,0,0,0,0,0,0,0,0,.01.02.02.03,0,0,0,0,0,.01,0,0,.01.02.02.03,0,0,0,0,0,0,0,.01.02.02.03.03,0,0,0,0,0,0,0,0,.02.02.03.02,0,0,0,0,.01,0,0,0,.02.01.02.02,0,0,0,0,.01,0,.01,0,.02.02.04.02l10.31,5.96s-.02-.02-.04-.02c0,0,0,0-.01,0,0,0-.02-.01-.02-.02,0,0,0,0,0,0,.22.18.56.18.94-.03.67-.39,1.21-1.32,1.21-2.09,0-.43-.17-.71-.44-.82Zm-.38-.03s.02,0,.02,0c0,0,.02,0,.03,0,0,0,0,0,.01,0-.03,0-.07,0-.1.02,0,0,0,0,0,0,.01,0,.02,0,.03,0Zm-.11.02s.01,0,.02,0c.01,0,.02,0,.03,0,0,0,0,0,0,0-.04,0-.07.02-.11.03,0,0,0,0,.01,0,.01,0,.02,0,.04-.01Zm-1.12.99s.02-.03.02-.04c0-.01.01-.02.02-.03,0-.01.02-.02.02-.04,0,0,.01-.02.02-.02.02-.03.04-.06.07-.1-.06.08-.12.17-.17.27,0,0,0,0,0,0,0-.01.01-.02.02-.03Zm-.14.26s0-.01,0-.02c0-.02.02-.03.03-.05,0-.01.01-.02.02-.04,0-.01.01-.02.02-.03.01-.02.03-.05.04-.07-.05.09-.1.19-.14.28,0,0,0,0,0,0,.01-.02.02-.04.03-.07Zm-.2.61s0-.02,0-.02c0-.02,0-.03.01-.05,0,0,0-.02,0-.03,0-.01,0-.03.01-.04,0,0,0-.02,0-.03,0-.02,0-.03.01-.05,0,0,0-.01,0-.02,0-.02.01-.05.02-.07,0,0,0,0,0,0,0-.02.01-.04.02-.06,0,0,0-.01,0-.02,0-.02.01-.03.02-.05,0,0,0-.02,0-.02,0-.02.01-.03.02-.05,0,0,0,0,0-.01-.09.2-.15.4-.18.6,0,0,0,0,0,0,0-.02,0-.04.01-.06Zm-32.68-11.69s0,0,0,.01c-.02-.27-.07-.54-.13-.81,0,0,0,.01,0,.02.01.04.02.09.03.13,0,.02,0,.05.01.07.01.06.02.11.03.17,0,0,0,.02,0,.02.01.07.02.13.03.19,0,.02,0,.04,0,.06,0,.05.01.09.01.14Zm-.14-.84c-.03-.13-.07-.26-.1-.39,0,.01,0,.02,0,.03.01.05.03.09.04.14,0,.02.01.05.02.08.01.04.02.08.03.13,0,0,0,.01,0,.02Zm-.11-.42c-.04-.13-.09-.27-.13-.4,0,0,0,0,0,0,.02.06.04.12.06.18,0,0,0,.01,0,.02.02.07.04.13.06.2,0,0,0,0,0,0Zm-.15-.43c-.05-.13-.1-.26-.16-.39,0,0,0,.01,0,.02.02.05.04.09.06.14,0,.02.02.04.03.07.02.05.04.09.05.14,0,0,0,.02,0,.02Zm8.97-3.68c0,.06.02.11.02.17,0,0,0,0,0,0,0-.06-.01-.11-.02-.17Zm.05.49s0,0,0,0c0,0,0,0,0,0,0,0,0,0,0,0h0Zm-.1-.75s0,.05.01.07c.01.06.02.11.03.17,0,0,0,0,0,.01-.02-.13-.05-.27-.08-.4,0,0,0,.01,0,.02,0,.04.02.09.03.13Zm-.1-.41s.01.05.02.08c.01.04.02.08.03.13,0,0,0,.01,0,.02-.03-.13-.07-.26-.11-.4,0,.01,0,.03.01.04.01.05.03.09.04.14Zm-.13-.41s0,.01,0,.02c.02.07.04.13.06.2,0,0,0,0,0,0-.04-.14-.09-.27-.14-.41,0,0,0,0,0,0,.02.06.04.12.06.18Zm-.17-.44s.02.04.03.07c.02.05.04.09.05.14,0,0,0,.02,0,.02-.05-.13-.1-.26-.16-.39,0,0,0,.02.01.03.02.05.04.09.06.14Zm-.19-.43s.02.03.02.05c.03.06.06.13.09.19,0,0,0,0,0,0-.06-.13-.12-.27-.19-.4,0,0,0,0,0,0,.02.05.05.1.07.15Zm-.12-.25s.02.04.03.06c-.06-.11-.11-.22-.17-.32.03.05.06.11.09.16.02.03.03.07.05.1Zm-.32-.56s.04.07.06.11c.02.03.04.06.05.09,0,0,0,0,0,.01-.07-.12-.14-.23-.21-.34,0,.01.02.03.03.04.02.03.04.06.06.09Zm-.17-.26s.03.04.04.07c0,0,0,.01.01.02-.08-.12-.16-.24-.25-.36,0,0,0,0,0,0,.07.09.13.18.19.28Zm-.34-.47c.05.06.1.12.14.19-.09-.12-.18-.24-.28-.35,0,0,.01.02.02.02.04.05.08.09.11.14Zm-.32-.38s.03.03.04.05c.05.05.09.11.14.16,0,0,0,0,0,0-.09-.11-.19-.22-.29-.33,0,0,0,0,0,0,.03.04.07.07.1.11Zm-.31-.33s.04.04.06.06c.03.03.06.06.09.09,0,.01.02.02.03.03-.09-.1-.19-.19-.28-.28,0,0,0,0,.01.01.03.03.06.06.09.08Zm-.32-.29s.05.04.07.06c.03.03.06.05.09.08,0,0,.01.01.02.02-.09-.09-.19-.17-.29-.25,0,0,.01,0,.02.01.03.02.06.05.09.08Zm-.32-.26s.04.03.06.05c.03.02.06.05.1.07,0,0,0,0,.01,0-.1-.08-.2-.16-.31-.23,0,0,.02.01.03.02.04.03.07.05.11.08Zm-.71-.44s.04.02.06.03c.05.03.1.05.15.08.06.03.11.07.17.1,0,0,0,0,.01,0,.05.03.11.07.16.11,0,0,0,0,0,0-.11-.08-.23-.15-.34-.22-.11-.07-.23-.12-.34-.18,0,0,.01,0,.02,0,.04.02.07.04.11.06Zm-.32-.15c.05.02.1.04.16.07,0,0,0,0,0,0-.11-.05-.22-.09-.32-.13,0,0,0,0,0,0,.05.02.1.04.16.06Zm-.37-.12s.04.01.06.02c.03,0,.07.02.1.03,0,0,.02,0,.03,0-.1-.03-.2-.06-.3-.08,0,0,0,0,.01,0,.03,0,.06.02.09.02Zm-.31-.06s.05,0,.07.01c.03,0,.06.01.09.02,0,0,.01,0,.02,0-.09-.02-.19-.03-.28-.04,0,0,.02,0,.02,0,.03,0,.05,0,.08,0Zm-.23-.02s.05,0,.07,0c0,0,0,0,.01,0-.1,0-.19-.01-.28,0,.04,0,.07,0,.11,0,.03,0,.06,0,.09,0Zm-.33,0s.08,0,.12-.01c0,0,0,0,.01,0,0,0,0,0,0,0-.09,0-.18.02-.27.03.03,0,.07-.01.1-.02.01,0,.02,0,.03,0Zm-.29.06s.06-.02.1-.02c.01,0,.02,0,.03,0,0,0,0,0,0,0-.09.02-.17.04-.25.07.02,0,.05-.02.07-.02.02,0,.03-.01.05-.01Zm-.26.1s.03-.01.04-.02c.02,0,.04-.02.07-.03-.07.03-.14.06-.21.1.03-.02.07-.04.1-.05Zm-3.6,8.41s.02.03.02.05c.03.06.06.13.09.19,0,0,0,0,0,0-.06-.13-.12-.26-.19-.39,0,0,0,0,0,0,.02.05.05.1.07.15Zm-.12-.25s.02.04.03.06c-.06-.11-.11-.22-.17-.32.03.05.06.11.09.16.02.03.03.07.05.1Zm-.32-.56s.04.07.06.11c.02.03.04.06.05.09,0,0,0,0,0,.01-.07-.12-.14-.23-.21-.35,0,.01.02.03.03.04.02.03.04.06.06.09Zm-1.15-1.44s.04.04.06.06c.03.03.06.06.09.09,0,.01.02.02.03.03-.09-.1-.19-.19-.28-.28,0,0,0,0,.01.01.03.03.06.06.09.08Zm-.32-.29s.05.04.07.06c.03.03.06.05.09.08,0,0,.01.01.02.02-.09-.09-.19-.17-.29-.25,0,0,.01.01.02.02.03.02.06.05.09.08Zm-.32-.26s.04.03.06.05c.03.02.06.05.1.07,0,0,0,0,.01.01-.1-.08-.21-.16-.31-.23.01,0,.02.01.03.02.04.03.07.05.11.08Zm-1.02-.59c.05.02.1.04.16.07,0,0,0,0,0,0-.11-.05-.22-.09-.32-.13,0,0,0,0,0,0,.05.02.1.04.16.06Zm-.37-.12s.04.01.06.02c.03,0,.07.02.1.03,0,0,.02,0,.03,0-.1-.03-.2-.06-.3-.09,0,0,.01,0,.02,0,.03,0,.06.02.09.02Zm-.31-.06s.05,0,.07.01c.03,0,.06.01.09.02,0,0,.01,0,.02,0-.1-.02-.19-.03-.28-.04,0,0,.02,0,.02,0,.03,0,.05,0,.08,0Zm-.56-.01s.08,0,.12-.01c0,0,0,0,.01,0h0c-.09,0-.19.02-.27.03.04,0,.07-.01.11-.02.01,0,.02,0,.03,0Zm-.33.07s.03,0,.05-.01c.03,0,.06-.02.1-.02.01,0,.02,0,.03,0,0,0,0,0,0,0-.09.02-.17.04-.26.07h0s.05-.02.08-.03Zm-.21.08s.03-.01.04-.02c.02-.01.05-.02.07-.03-.08.03-.15.06-.22.1.04-.02.07-.04.11-.06Zm.68-.16s.07,0,.1,0c.03,0,.06,0,.09,0,.02,0,.05,0,.07,0,0,0,0,0,.01,0-.09,0-.19-.01-.28,0Zm1.29.29s.01,0,.02,0c.04.02.07.04.11.05.02,0,.04.02.06.03.05.03.1.05.15.08.06.03.11.07.17.1,0,0,0,0,.01,0,.05.03.11.07.16.11,0,0,0,0,0,0-.11-.08-.23-.15-.34-.22-.11-.07-.22-.12-.34-.17Zm1.68,1.26s0,0,0,0c.03.04.07.07.1.11.01.02.03.03.04.05.05.05.09.11.14.16,0,0,.01.02.02.03.04.05.08.09.11.14.05.06.1.13.14.19,0,0,0,0,0,0,.07.09.13.18.19.28.02.02.03.04.04.07,0,0,0,.01.01.02-.25-.38-.52-.73-.82-1.05Zm1.38,6.79s-.05.05-.08.07c0,0-.01,0-.02.01.07-.05.13-.11.19-.18-.03.03-.05.06-.08.08,0,0,0,0-.01.01Zm.2-.23s-.02.02-.02.03c-.02.02-.04.05-.06.07,0,0-.01.02-.02.02.06-.07.11-.14.16-.21,0,0,0,0,0,0-.02.03-.04.06-.06.08Zm.07-.11s0,0,0,0c.05-.08.1-.16.14-.25-.02.04-.04.08-.06.12-.02.04-.05.08-.07.12Zm.21-.41s0,.02-.01.03c-.01.04-.03.07-.05.11,0,0,0,.01,0,.02.04-.08.07-.17.1-.26,0,.01,0,.02-.01.04,0,.02-.02.05-.02.07Zm.11-.34s-.02.06-.02.09c0,.02-.01.05-.02.07,0,0,0,.01,0,.02.03-.09.05-.19.07-.28,0,0,0,.01,0,.02,0,.03-.01.05-.02.08Zm.06-.33s0,.05-.01.07c0,.03-.01.06-.02.09,0,0,0,.02,0,.02.02-.1.04-.21.05-.32,0,0,0,.02,0,.03,0,.03,0,.07-.01.1Zm.03-.35s0,.03,0,.05c0,.04,0,.08,0,.13,0,0,0,0,0,.01.01-.12.02-.25.02-.38,0-.13,0-.26-.02-.39,0,0,0,.01,0,.02,0,.04,0,.09,0,.13,0,.02,0,.04,0,.06,0,.06,0,.12,0,.18,0,.06,0,.13,0,.19Zm7.23-2.81s0,0,0,0c0,0,0,0,0,0h0Zm.02.05s-.02-.03-.02-.04c.01.03.03.06.05.09,0,0,0,0,0,0,0-.01-.02-.03-.03-.04Zm.15.19s-.02-.02-.03-.02c0,0,0,0,0,0-.01-.01-.02-.02-.03-.03,0,0,0,0,0,0,0,0-.01-.02-.02-.03,0,0,0,0,0-.01,0,0-.01-.02-.02-.03,0,0,0,0,0,0,.04.06.08.1.13.14,0,0,0,0,0,0Zm25.22,14.08s0-.01,0-.02c0-.02,0-.04,0-.07,0-.02,0-.04,0-.07,0,0,0-.01,0-.02,0-.02,0-.03,0-.05,0,0,0-.02,0-.02,0-.02,0-.03,0-.05,0,0,0-.01,0-.02,0-.02,0-.05,0-.07h0c-.02.1-.02.2-.02.29,0,.05,0,.09,0,.13,0,0,0,0,0,0,0-.01,0-.03,0-.04Zm.01.13s0-.02,0-.03c0-.01,0-.02,0-.04,0,0,0,0,0,0,0,.04,0,.07.02.11,0,0,0,0,0,0,0-.01,0-.02,0-.03Zm.03.12s0-.02,0-.03c0,0,0-.02,0-.03,0,0,0,0,0,0,0,.03.02.07.03.1,0,0,0,0,0,0,0,0,0-.02,0-.03Zm.03.1s0,0,0-.01c0,0,0-.02,0-.02,0,0,0,0,0-.01.01.03.02.06.04.09,0,0,0,0,0,0,0-.01-.01-.03-.02-.04Zm.02.05s.03.06.05.08c0-.01-.02-.03-.03-.04,0-.01-.01-.03-.02-.04Zm.17.23s-.02-.02-.03-.02c0,0,0,0,0,0-.01,0-.02-.02-.03-.03,0,0,0,0,0,0,0,0-.01-.02-.02-.03,0,0,0,0,0-.01,0,0-.01-.02-.02-.03.04.05.08.1.13.14,0,0,0,0,0,0Zm.26-2.19s.03-.04.05-.07c.01-.02.03-.03.04-.05,0,0,0,0,0-.01.02-.02.03-.04.05-.06,0,0,0-.01.01-.02.01-.01.02-.03.04-.04,0,0,.01-.01.02-.02.01-.01.02-.02.03-.03,0,0,.02-.01.02-.02.01-.01.02-.02.03-.03,0,0,.02-.02.02-.02.01,0,.02-.02.03-.03,0,0,.02-.01.02-.02.01,0,.02-.02.03-.03,0,0,0,0,0,0-.16.13-.3.28-.43.45Zm.68-.63c-.08.05-.16.1-.24.17,0,0,0,0,0,0,.01,0,.02-.02.03-.03,0,0,.02-.01.02-.02.01,0,.03-.02.04-.03,0,0,.01,0,.02-.01.02-.01.04-.03.06-.04,0,0,0,0,0,0,.02-.01.04-.02.06-.04.02-.01.04-.02.05-.03,0,0,.01,0,.02-.01.01,0,.03-.01.04-.02,0,0,.01,0,.02,0,.02,0,.04-.02.06-.02.02,0,.04-.01.06-.02,0,0,0,0,0,0-.08.03-.16.06-.24.11Zm.48-.16s0,0,0,0c0,0,.02,0,.03,0,.01,0,.02,0,.03,0,.01,0,.03,0,.04,0,0,0,0,0,0,0,.01,0,.03,0,.04,0,0,0,0,0,.01,0,.01,0,.03,0,.04,0,0,0,0,0,.01,0,.01,0,.02,0,.03,0,0,0,.01,0,.02,0,0,0,.02,0,.03,0-.09-.03-.19-.04-.29-.03Z"/>
        <g>
          <g>
            <path class="cls-105" d="m53.39,231.7s.02-.02.03-.02c.03-.02.05-.05.08-.07,0,0,0,0,.01-.01.03-.03.06-.06.09-.09,0,0,.02-.02.02-.03.02-.02.04-.05.06-.07,0-.01.02-.02.02-.03.02-.03.04-.06.06-.08,0,0,.01-.01.02-.02.02-.04.05-.08.07-.12.02-.04.04-.08.07-.13,0,0,0-.01,0-.02.02-.04.03-.07.05-.11,0-.01,0-.02.01-.03,0-.02.02-.04.02-.07.01-.04.02-.07.04-.11,0-.02.01-.05.02-.07,0-.03.02-.06.02-.09,0-.03.01-.05.02-.08,0-.03.01-.05.02-.08,0-.03.01-.06.02-.09,0-.02,0-.05.01-.07,0-.03,0-.07.01-.1,0-.02,0-.05,0-.07,0-.04,0-.08,0-.13,0-.02,0-.03,0-.05,0-.06,0-.12,0-.19,0-.06,0-.12,0-.18,0-.02,0-.04,0-.06,0-.04,0-.09,0-.13,0-.02,0-.04,0-.07,0-.05,0-.09-.01-.14,0-.02,0-.04,0-.06,0-.06-.02-.13-.03-.19,0,0,0-.02,0-.03,0-.06-.02-.11-.03-.17,0-.02,0-.05-.01-.07,0-.04-.02-.09-.03-.13,0-.03-.01-.05-.02-.07-.01-.04-.02-.08-.03-.13,0-.03-.01-.05-.02-.08-.01-.05-.03-.09-.04-.14,0-.02-.01-.04-.02-.06-.02-.07-.04-.13-.06-.2,0,0,0-.01,0-.02-.02-.06-.04-.12-.06-.18,0-.02-.01-.04-.02-.06-.02-.05-.03-.09-.05-.14,0-.02-.02-.04-.03-.07-.02-.05-.04-.09-.06-.14,0-.02-.01-.03-.02-.05-.03-.06-.06-.13-.09-.19,0-.02-.02-.03-.02-.05-.02-.05-.05-.1-.07-.15-.02-.03-.04-.07-.05-.1-.02-.03-.03-.07-.05-.1-.05-.09-.1-.18-.15-.26-.02-.03-.03-.06-.05-.09-.02-.04-.04-.07-.06-.11-.02-.03-.04-.06-.06-.09-.02-.03-.04-.07-.07-.1-.01-.02-.03-.04-.04-.07-.06-.09-.13-.19-.19-.28,0,0,0,0,0,0-.05-.06-.09-.13-.14-.19-.04-.05-.08-.1-.11-.14,0,0-.02-.02-.02-.03-.05-.06-.09-.11-.14-.16-.01-.02-.03-.03-.04-.05-.03-.04-.07-.07-.1-.11-.02-.02-.04-.04-.06-.06-.03-.03-.06-.06-.09-.09-.02-.02-.04-.04-.06-.06-.03-.03-.06-.06-.09-.08-.02-.02-.05-.04-.07-.07-.03-.03-.06-.05-.09-.08-.02-.02-.05-.04-.07-.06-.03-.03-.06-.05-.09-.08-.02-.02-.05-.04-.07-.06-.03-.03-.06-.05-.1-.07-.02-.02-.04-.03-.06-.05-.04-.03-.07-.05-.11-.08-.02-.01-.04-.03-.05-.04-.05-.04-.11-.07-.16-.11,0,0,0,0-.01,0-.06-.04-.11-.07-.17-.1-.05-.03-.1-.06-.15-.08-.02,0-.04-.02-.06-.03-.04-.02-.07-.04-.11-.06-.02,0-.03-.02-.05-.02-.05-.02-.11-.05-.16-.07-.05-.02-.1-.04-.16-.06-.02,0-.03-.01-.05-.02-.03-.01-.07-.02-.1-.03-.02,0-.04-.01-.06-.02-.03,0-.06-.02-.09-.02-.02,0-.04,0-.06-.01-.03,0-.06-.01-.09-.02-.02,0-.05,0-.07-.01-.03,0-.05,0-.08,0-.02,0-.05,0-.07,0-.02,0-.05,0-.07,0-.03,0-.06,0-.09,0-.04,0-.08,0-.12,0,0,0,0,0-.01,0-.04,0-.08,0-.12.01-.01,0-.02,0-.03,0-.04,0-.08.01-.12.02-.01,0-.02,0-.03,0-.03,0-.07.01-.1.02-.02,0-.03,0-.05.01-.03,0-.05.02-.08.03-.03.01-.06.02-.09.04-.01,0-.03.01-.04.02-.04.02-.09.04-.13.07,0,0,5.44-3.14,5.44-3.14.04-.02.08-.05.13-.07.01,0,.03-.01.04-.02.48-.21,1.04-.16,1.53,0,.49.16.96.44,1.36.75.01,0,.02.02.04.03.02.02.05.04.07.06,1.47,1.22,2.53,3.13,2.67,5.04.05.66-.02,1.41-.39,1.98,0,0,0,0,0,0,0,0-.01.02-.02.02-.02.03-.04.06-.06.08,0,.01-.02.02-.02.03-.02.02-.04.05-.06.07,0,0-.02.02-.02.03-.03.03-.06.06-.09.09,0,0,0,0-.01.01-.03.02-.05.05-.08.07,0,0-.02.02-.03.02-.02.02-.05.04-.07.05,0,0-.02.01-.03.02-.03.02-.07.04-.1.06l-5.44,3.14s.07-.04.1-.07c.01,0,.02-.01.03-.02.02-.02.05-.03.07-.05Z"/>
            <path class="cls-52" d="m50.77,223.73c1.89,1.09,3.42,3.74,3.41,5.91,0,2.17-1.55,3.05-3.44,1.96-1.89-1.09-3.42-3.74-3.41-5.91,0-2.17,1.54-3.05,3.44-1.96Z"/>
          </g>
          <g>
            <path class="cls-109" d="m49.98,232.81s.02-.01.02-.02c.02-.02.04-.04.07-.06,0,0,0,0,.01-.01.02-.02.05-.05.07-.08,0,0,.01-.01.02-.02.02-.02.03-.04.05-.06,0,0,.01-.02.02-.03.02-.02.03-.05.05-.07,0,0,0-.01.01-.02.02-.03.04-.07.06-.1.02-.03.04-.07.05-.11,0,0,0-.01,0-.02.01-.03.03-.06.04-.09,0,0,0-.02.01-.03,0-.02.01-.04.02-.06.01-.03.02-.06.03-.09,0-.02.01-.04.02-.06,0-.03.01-.05.02-.08,0-.02.01-.05.02-.07,0-.02,0-.05.01-.07,0-.03,0-.05.01-.08,0-.02,0-.04,0-.06,0-.03,0-.06.01-.09,0-.02,0-.04,0-.06,0-.03,0-.07,0-.11,0-.01,0-.03,0-.04,0-.05,0-.1,0-.16,0-.05,0-.1,0-.15,0-.02,0-.03,0-.05,0-.04,0-.07,0-.11,0-.02,0-.04,0-.06,0-.04,0-.08-.01-.12,0-.02,0-.03,0-.05,0-.05-.01-.11-.02-.16,0,0,0-.01,0-.02,0-.05-.02-.09-.03-.14,0-.02,0-.04-.01-.06,0-.04-.02-.07-.02-.11,0-.02,0-.04-.01-.06,0-.04-.02-.07-.03-.11,0-.02-.01-.04-.02-.06-.01-.04-.02-.08-.03-.11,0-.02-.01-.04-.02-.05-.02-.05-.03-.11-.05-.17,0,0,0,0,0-.01-.02-.05-.03-.1-.05-.15,0-.02-.01-.03-.02-.05-.01-.04-.03-.08-.04-.11,0-.02-.01-.04-.02-.05-.02-.04-.03-.08-.05-.12,0-.01-.01-.03-.02-.04-.02-.05-.05-.11-.07-.16,0-.01-.01-.03-.02-.04-.02-.04-.04-.08-.06-.12-.01-.03-.03-.06-.04-.09-.01-.03-.03-.05-.04-.08-.04-.07-.08-.15-.12-.22-.01-.02-.03-.05-.04-.07-.02-.03-.04-.06-.05-.09-.02-.03-.03-.05-.05-.08-.02-.03-.04-.06-.06-.09-.01-.02-.02-.04-.04-.06-.05-.08-.11-.16-.16-.23,0,0,0,0,0,0-.04-.05-.08-.11-.12-.16-.03-.04-.06-.08-.1-.12,0,0-.01-.02-.02-.02-.04-.05-.08-.09-.12-.14-.01-.01-.02-.03-.03-.04-.03-.03-.06-.06-.09-.09-.02-.02-.03-.03-.05-.05-.02-.03-.05-.05-.07-.08-.02-.02-.04-.04-.05-.05-.02-.02-.05-.05-.07-.07-.02-.02-.04-.04-.06-.05-.02-.02-.05-.04-.07-.07-.02-.02-.04-.03-.06-.05-.02-.02-.05-.04-.08-.06-.02-.02-.04-.03-.06-.05-.03-.02-.05-.04-.08-.06-.02-.01-.04-.03-.05-.04-.03-.02-.06-.04-.09-.06-.02-.01-.03-.02-.05-.03-.04-.03-.09-.06-.13-.09,0,0,0,0,0,0-.05-.03-.09-.06-.14-.08-.04-.02-.08-.05-.13-.07-.02,0-.03-.02-.05-.02-.03-.02-.06-.03-.09-.05-.01,0-.03-.01-.04-.02-.04-.02-.09-.04-.13-.06-.04-.02-.09-.03-.13-.05-.01,0-.03,0-.04-.01-.03,0-.06-.02-.09-.03-.02,0-.03,0-.05-.01-.03,0-.05-.01-.08-.02-.02,0-.03,0-.05-.01-.02,0-.05,0-.07-.01-.02,0-.04,0-.06,0-.02,0-.05,0-.07,0-.02,0-.04,0-.06,0-.02,0-.04,0-.06,0-.02,0-.05,0-.07,0-.03,0-.07,0-.1,0,0,0,0,0,0,0-.03,0-.06,0-.1,0,0,0-.02,0-.03,0-.03,0-.07.01-.1.02,0,0-.02,0-.03,0-.03,0-.05.01-.08.02-.01,0-.03,0-.04.01-.02,0-.04.01-.06.02-.03,0-.05.02-.08.03-.01,0-.02.01-.04.02-.04.02-.07.04-.11.06,0,0,2.4-1.39,2.4-1.39.03-.02.07-.04.11-.06.01,0,.02-.01.04-.02.4-.17.87-.14,1.28,0,.41.13.8.36,1.14.63.01,0,.02.02.03.02.02.02.04.03.06.05,1.23,1.02,2.11,2.62,2.23,4.22.04.55-.02,1.18-.32,1.65,0,0,0,0,0,0,0,0,0,.01-.01.02-.02.02-.03.05-.05.07,0,0-.01.02-.02.03-.02.02-.03.04-.05.06,0,0-.01.01-.02.02-.02.03-.05.05-.07.07,0,0,0,0-.01.01-.02.02-.04.04-.07.06,0,0-.02.01-.02.02-.02.02-.04.03-.06.04,0,0-.02.01-.02.02-.03.02-.06.04-.08.05l-2.4,1.39s.06-.04.09-.05c0,0,.02-.01.02-.02.02-.01.04-.03.06-.04Z"/>
            <path class="cls-53" d="m47.79,226.15c1.58.91,2.86,3.13,2.86,4.95,0,1.82-1.29,2.55-2.87,1.64-1.58-.91-2.86-3.13-2.86-4.95,0-1.82,1.29-2.55,2.87-1.64Z"/>
          </g>
          <g>
            <path class="cls-52" d="m52.97,232.24s0,0-.01,0c0,0-.02-.02-.03-.02,0,0,0,0,0,0-.01-.01-.02-.02-.03-.03,0,0,0,0,0,0,0,0-.01-.02-.02-.03,0,0,0,0,0-.01,0,0-.01-.02-.02-.03,0,0,0,0,0,0,0-.01-.02-.03-.03-.04,0-.01-.02-.03-.02-.05,0,0,0,0,0,0,0-.01-.01-.03-.02-.04,0,0,0,0,0-.01,0,0,0-.02,0-.02,0-.01,0-.03-.01-.04,0,0,0-.02,0-.03,0-.01,0-.02,0-.03,0,0,0-.02,0-.03,0,0,0-.02,0-.03,0-.01,0-.02,0-.03,0,0,0-.02,0-.03,0-.01,0-.02,0-.04,0,0,0-.02,0-.03,0-.01,0-.03,0-.04,0,0,0-.01,0-.02,0-.02,0-.04,0-.07,0-.02,0-.04,0-.06,0,0,0-.01,0-.02,0-.02,0-.03,0-.05,0,0,0-.02,0-.02,0-.02,0-.03,0-.05,0,0,0-.01,0-.02,0-.02,0-.05,0-.07,0,0,0,0,0,0,0-.02,0-.04.01-.06,0,0,0-.02,0-.02,0-.02,0-.03.01-.05,0,0,0-.02,0-.03,0-.01,0-.03.01-.04,0,0,0-.02,0-.03,0-.02,0-.03.01-.05,0,0,0-.01,0-.02,0-.02.01-.05.02-.07,0,0,0,0,0,0,0-.02.01-.04.02-.06,0,0,0-.01,0-.02,0-.02.01-.03.02-.05,0,0,0-.02,0-.02,0-.02.01-.03.02-.05,0,0,0-.01,0-.02,0-.02.02-.04.03-.07,0,0,0-.01,0-.02,0-.02.02-.03.03-.05,0-.01.01-.02.02-.04,0-.01.01-.02.02-.03.02-.03.03-.06.05-.09,0-.01.01-.02.02-.03,0-.01.02-.03.02-.04,0-.01.01-.02.02-.03,0-.01.02-.02.02-.04,0,0,.01-.02.02-.02.02-.03.05-.07.07-.1,0,0,0,0,0,0,.02-.02.03-.04.05-.07.01-.02.03-.03.04-.05,0,0,0,0,0,0,.02-.02.03-.04.05-.06,0,0,0-.01.01-.02.01-.01.02-.03.04-.04,0,0,.01-.01.02-.02.01-.01.02-.02.03-.03,0,0,.02-.02.02-.02.01-.01.02-.02.03-.03,0,0,.02-.02.02-.02.01,0,.02-.02.03-.03,0,0,.02-.01.02-.02.01,0,.02-.02.03-.03,0,0,.02-.01.02-.02.01,0,.02-.02.03-.03,0,0,.02-.01.02-.02.01,0,.03-.02.04-.03,0,0,.01,0,.02-.01.02-.01.04-.03.06-.04,0,0,0,0,0,0,.02-.01.04-.02.06-.04.02-.01.04-.02.05-.03,0,0,.01,0,.02-.01.01,0,.03-.01.04-.02,0,0,.01,0,.02,0,.02,0,.04-.02.06-.02.02,0,.04-.01.05-.02,0,0,.01,0,.02,0,.01,0,.02,0,.04-.01,0,0,.01,0,.02,0,.01,0,.02,0,.03,0,0,0,.01,0,.02,0,.01,0,.02,0,.03,0,0,0,.02,0,.02,0,0,0,.02,0,.03,0,0,0,.02,0,.03,0,0,0,.02,0,.03,0,.01,0,.02,0,.03,0,.01,0,.03,0,.04,0,0,0,0,0,0,0,.01,0,.03,0,.04,0,0,0,0,0,.01,0,.01,0,.03,0,.04,0,0,0,0,0,.01,0,.01,0,.02,0,.03,0,0,0,.01,0,.02,0,0,0,.02,0,.03,0,.01,0,.02,0,.03.01,0,0,.01,0,.02,0,.02,0,.03.01.05.02,0,0-2.22-1.29-2.22-1.29-.01,0-.03-.02-.05-.02,0,0-.01,0-.02,0-.17-.07-.37-.06-.54,0-.17.06-.34.15-.48.27,0,0,0,0-.01.01,0,0-.02.01-.02.02-.52.43-.89,1.11-.94,1.78-.02.23,0,.5.14.7,0,0,0,0,0,0,0,0,0,0,0,0,0,.01.01.02.02.03,0,0,0,0,0,.01,0,0,.01.02.02.03,0,0,0,0,0,0,0,.01.02.02.03.03,0,0,0,0,0,0,0,0,.02.02.03.03,0,0,0,0,.01,0,0,0,.02.01.02.02,0,0,0,0,.01,0,.01,0,.02.02.04.02l2.22,1.29s-.02-.01-.04-.02c0,0,0,0-.01,0,0,0-.02-.01-.02-.02Z"/>
            <path class="cls-109" d="m53.9,229.42c-.67.39-1.21,1.32-1.21,2.09,0,.77.55,1.08,1.22.69.67-.39,1.21-1.32,1.21-2.09,0-.77-.55-1.08-1.22-.69Z"/>
          </g>
          <g>
            <path class="cls-52" d="m68.65,240.78s0,0,0,0c0,0-.01-.01-.02-.02,0,0,0,0,0,0,0,0-.01-.02-.02-.02,0,0,0,0,0,0,0,0-.01-.01-.02-.02,0,0,0,0,0,0,0,0-.01-.01-.02-.02,0,0,0,0,0,0,0,0-.01-.02-.02-.03,0-.01-.01-.02-.02-.03,0,0,0,0,0,0,0,0,0-.02-.01-.03,0,0,0,0,0,0,0,0,0-.01,0-.02,0,0,0-.02,0-.03,0,0,0-.01,0-.02,0,0,0-.02,0-.02,0,0,0-.01,0-.02,0,0,0-.01,0-.02,0,0,0-.02,0-.02,0,0,0-.01,0-.02,0,0,0-.02,0-.03,0,0,0-.01,0-.02,0-.01,0-.02,0-.03,0,0,0,0,0-.01,0-.02,0-.03,0-.05,0-.02,0-.03,0-.05,0,0,0-.01,0-.02,0-.01,0-.02,0-.03,0,0,0-.01,0-.02,0-.01,0-.02,0-.04,0,0,0,0,0-.01,0-.02,0-.03,0-.05,0,0,0,0,0,0,0-.01,0-.03,0-.04,0,0,0-.01,0-.02,0-.01,0-.02,0-.03,0,0,0-.01,0-.02,0-.01,0-.02,0-.03,0,0,0-.01,0-.02,0-.01,0-.02.01-.04,0,0,0-.01,0-.02,0-.02.01-.03.02-.05,0,0,0,0,0,0,0-.02.01-.03.02-.05,0,0,0-.01,0-.02,0-.01,0-.02.01-.04,0,0,0-.01,0-.02,0-.01.01-.02.02-.04,0,0,0,0,0-.01,0-.02.01-.03.02-.05,0,0,0,0,0-.01,0-.01.01-.03.02-.04,0,0,0-.02.01-.03,0,0,0-.02.01-.03.01-.02.02-.05.04-.07,0,0,0-.02.01-.02,0,0,.01-.02.02-.03,0,0,.01-.02.02-.02,0,0,.01-.02.02-.03,0,0,0-.01.01-.02.02-.02.03-.05.05-.07,0,0,0,0,0,0,.01-.02.02-.03.04-.05,0-.01.02-.02.03-.04,0,0,0,0,0,0,.01-.01.02-.03.04-.04,0,0,0,0,.01-.01,0,0,.02-.02.03-.03,0,0,.01-.01.02-.02,0,0,.02-.02.02-.02,0,0,.01-.01.02-.02,0,0,.01-.01.02-.02,0,0,.01-.01.02-.02,0,0,.01-.01.02-.02,0,0,.01-.01.02-.02,0,0,.02-.01.02-.02,0,0,.01-.01.02-.01,0,0,.02-.01.02-.02,0,0,.01,0,.02-.01,0,0,.02-.01.03-.02,0,0,0,0,.01-.01.01,0,.03-.02.04-.03,0,0,0,0,0,0,.01,0,.03-.02.04-.03.01,0,.03-.01.04-.02,0,0,0,0,.01,0,0,0,.02,0,.03-.01,0,0,0,0,.01,0,.01,0,.03-.01.04-.02.01,0,.03-.01.04-.01,0,0,0,0,.01,0,0,0,.02,0,.03,0,0,0,.01,0,.02,0,0,0,.02,0,.02,0,0,0,.01,0,.02,0,0,0,.02,0,.02,0,0,0,.01,0,.02,0,0,0,.01,0,.02,0,0,0,.01,0,.02,0,0,0,.01,0,.02,0,0,0,.02,0,.02,0,.01,0,.02,0,.03,0,0,0,0,0,0,0,.01,0,.02,0,.03,0,0,0,0,0,0,0,.01,0,.02,0,.03,0,0,0,0,0,0,0,0,0,.02,0,.02,0,0,0,0,0,.01,0,0,0,.01,0,.02,0,0,0,.02,0,.02,0,0,0,0,0,.01,0,.01,0,.02.01.03.02,0,0-15.27-8.81-15.27-8.81-.01,0-.02-.01-.03-.02,0,0,0,0-.01,0-.12-.05-.27-.04-.4,0-.13.04-.25.11-.35.19,0,0,0,0,0,0,0,0-.01,0-.02.01-.38.31-.65.81-.69,1.3-.01.17,0,.37.1.51,0,0,0,0,0,0,0,0,0,0,0,0,0,0,0,.01.02.02,0,0,0,0,0,0,0,0,.01.01.02.02,0,0,0,0,0,0,0,0,.01.02.02.02,0,0,0,0,0,0,0,0,.01.01.02.02,0,0,0,0,0,0,0,0,.01,0,.02.01,0,0,0,0,0,0,0,0,.02.01.03.02l15.27,8.81s-.02-.01-.03-.02c0,0,0,0,0,0,0,0-.01,0-.02-.01Z"/>
            <path class="cls-122" d="m69.33,238.71c-.49.28-.88.97-.88,1.53,0,.56.4.79.89.51.49-.28.89-.97.88-1.53,0-.56-.4-.79-.89-.51Z"/>
          </g>
          <g>
            <path class="cls-105" d="m44.76,236.68s.02-.02.03-.02c.03-.02.05-.05.08-.07,0,0,0,0,.01-.01.03-.03.06-.06.09-.09,0,0,.02-.02.02-.03.02-.02.04-.05.06-.07,0-.01.02-.02.02-.03.02-.03.04-.06.06-.08,0,0,.01-.02.02-.02.02-.04.05-.08.07-.12.02-.04.04-.08.07-.13,0,0,0-.01,0-.02.02-.03.03-.07.05-.11,0-.01,0-.02.01-.03,0-.02.02-.05.02-.07.01-.04.02-.07.04-.11,0-.02.01-.05.02-.07,0-.03.02-.06.02-.09,0-.03.01-.05.02-.08,0-.03.01-.05.02-.08,0-.03.01-.06.02-.09,0-.02,0-.05.01-.07,0-.03,0-.07.01-.1,0-.02,0-.05,0-.07,0-.04,0-.08,0-.13,0-.02,0-.03,0-.05,0-.06,0-.12,0-.19,0-.06,0-.12,0-.18,0-.02,0-.04,0-.06,0-.04,0-.09,0-.13,0-.02,0-.04,0-.07,0-.05,0-.09-.01-.14,0-.02,0-.04,0-.06,0-.06-.02-.13-.03-.19,0,0,0-.02,0-.02,0-.06-.02-.11-.03-.17,0-.02,0-.05-.01-.07,0-.04-.02-.09-.03-.13,0-.02-.01-.05-.02-.07-.01-.04-.02-.08-.03-.13,0-.03-.01-.05-.02-.08-.01-.05-.03-.09-.04-.14,0-.02-.01-.04-.02-.06-.02-.07-.04-.13-.06-.2,0,0,0,0,0-.02-.02-.06-.04-.12-.06-.18,0-.02-.01-.04-.02-.06-.02-.05-.04-.09-.05-.14,0-.02-.02-.04-.03-.07-.02-.05-.04-.09-.06-.14,0-.02-.01-.03-.02-.05-.03-.06-.06-.13-.09-.19,0-.02-.02-.03-.02-.05-.02-.05-.05-.1-.07-.15-.02-.03-.04-.07-.05-.1-.02-.03-.03-.07-.05-.1-.05-.09-.1-.18-.15-.26-.02-.03-.04-.06-.05-.09-.02-.04-.04-.07-.06-.11-.02-.03-.04-.06-.06-.09-.02-.03-.04-.07-.07-.1-.01-.02-.03-.04-.04-.07-.06-.09-.13-.19-.19-.28,0,0,0,0,0,0-.05-.06-.1-.13-.14-.19-.04-.05-.08-.1-.11-.14,0,0-.02-.02-.02-.03-.05-.06-.09-.11-.14-.16-.01-.02-.03-.03-.04-.05-.03-.04-.07-.08-.1-.11-.02-.02-.04-.04-.06-.06-.03-.03-.06-.06-.09-.09-.02-.02-.04-.04-.06-.06-.03-.03-.06-.06-.09-.08-.02-.02-.05-.04-.07-.06-.03-.03-.06-.05-.09-.08-.02-.02-.05-.04-.07-.06-.03-.03-.06-.05-.09-.08-.02-.02-.05-.04-.07-.06-.03-.03-.06-.05-.1-.07-.02-.02-.04-.03-.06-.05-.04-.03-.07-.05-.11-.08-.02-.01-.04-.03-.05-.04-.05-.04-.11-.07-.16-.11,0,0,0,0-.01,0-.06-.04-.11-.07-.17-.1-.05-.03-.1-.06-.15-.08-.02,0-.04-.02-.06-.03-.04-.02-.07-.04-.11-.05-.02,0-.03-.02-.05-.02-.05-.02-.11-.05-.16-.07-.05-.02-.1-.04-.16-.06-.02,0-.03-.01-.05-.02-.03-.01-.07-.02-.1-.03-.02,0-.04-.01-.06-.02-.03,0-.06-.02-.09-.02-.02,0-.04,0-.06-.01-.03,0-.06-.01-.09-.02-.02,0-.05,0-.07-.01-.03,0-.05,0-.08,0-.02,0-.05,0-.07,0-.02,0-.05,0-.07,0-.03,0-.06,0-.09,0-.04,0-.08,0-.12,0,0,0,0,0-.01,0-.04,0-.08,0-.12.01-.01,0-.02,0-.03,0-.04,0-.08.01-.12.02-.01,0-.02,0-.03,0-.03,0-.07.01-.1.02-.02,0-.03,0-.05.01-.03,0-.05.02-.08.03-.03.01-.06.02-.09.04-.01,0-.03.01-.04.02-.04.02-.09.04-.13.07,0,0,5.44-3.14,5.44-3.14.04-.02.08-.05.13-.07.01,0,.03-.01.04-.02.48-.21,1.04-.16,1.53,0,.49.16.96.44,1.36.75.01,0,.02.02.04.03.02.02.05.04.07.06,1.47,1.22,2.53,3.13,2.67,5.04.05.66-.02,1.41-.39,1.98,0,0,0,0,0,0,0,0-.01.02-.02.02-.02.03-.04.06-.06.08,0,.01-.02.02-.02.03-.02.02-.04.05-.06.07,0,0-.01.02-.02.03-.03.03-.06.06-.09.09,0,0,0,0-.01.01-.03.02-.05.05-.08.07,0,0-.02.02-.03.02-.02.02-.05.04-.07.05-.01,0-.02.01-.03.02-.03.02-.07.04-.1.07l-5.44,3.14s.07-.04.1-.06c.01,0,.02-.01.03-.02.02-.02.05-.03.07-.05Z"/>
            <path class="cls-52" d="m42.14,228.71c1.89,1.09,3.42,3.74,3.41,5.91,0,2.17-1.54,3.05-3.44,1.96-1.89-1.09-3.42-3.74-3.41-5.91,0-2.17,1.54-3.05,3.44-1.96Z"/>
          </g>
          <g>
            <path class="cls-105" d="m78.46,246.96s0,0-.01,0c0,0-.02-.02-.03-.02,0,0,0,0,0,0-.01,0-.02-.02-.03-.03,0,0,0,0,0,0,0,0-.01-.02-.02-.03,0,0,0,0,0-.01,0,0-.01-.02-.02-.03,0,0,0,0,0,0,0-.01-.02-.03-.03-.04,0-.01-.02-.03-.02-.05,0,0,0,0,0,0,0-.01-.01-.03-.02-.04,0,0,0,0,0-.01,0,0,0-.02,0-.02,0-.01,0-.03-.01-.04,0,0,0-.02,0-.03,0-.01,0-.02,0-.03,0,0,0-.02,0-.03,0,0,0-.02,0-.03,0-.01,0-.02,0-.03,0,0,0-.02,0-.03,0-.01,0-.02,0-.04,0,0,0-.02,0-.03,0-.01,0-.03,0-.04,0,0,0-.01,0-.02,0-.02,0-.04,0-.07,0-.02,0-.04,0-.07,0,0,0-.01,0-.02,0-.02,0-.03,0-.05,0,0,0-.02,0-.02,0-.02,0-.03,0-.05,0,0,0-.01,0-.02,0-.02,0-.05,0-.07,0,0,0,0,0,0,0-.02,0-.04.01-.06,0,0,0-.02,0-.02,0-.02,0-.03.01-.05,0,0,0-.02,0-.03,0-.01,0-.03.01-.04,0,0,0-.02,0-.03,0-.02,0-.03.01-.05,0,0,0-.01,0-.02,0-.02.01-.05.02-.07,0,0,0,0,0,0,0-.02.01-.04.02-.06,0,0,0-.01,0-.02,0-.02.01-.03.02-.05,0,0,0-.02,0-.02,0-.02.01-.03.02-.05,0,0,0-.01,0-.02.01-.02.02-.04.03-.07,0,0,0-.01,0-.02,0-.02.02-.03.03-.05,0-.01.01-.02.02-.04,0-.01.01-.02.02-.03.02-.03.03-.06.05-.09,0-.01.01-.02.02-.03,0-.01.02-.03.02-.04,0-.01.01-.02.02-.03,0-.01.02-.02.02-.04,0,0,.01-.02.02-.02.02-.03.05-.07.07-.1,0,0,0,0,0,0,.02-.02.03-.04.05-.07.01-.02.03-.03.04-.05,0,0,0,0,0-.01.02-.02.03-.04.05-.06,0,0,0-.01.01-.02.01-.01.02-.03.04-.04,0,0,.01-.01.02-.02.01-.01.02-.02.03-.03,0,0,.02-.01.02-.02.01-.01.02-.02.03-.03,0,0,.02-.02.02-.02.01,0,.02-.02.03-.03,0,0,.02-.01.02-.02.01,0,.02-.02.03-.03,0,0,.02-.01.02-.02.01,0,.02-.02.03-.03,0,0,.02-.01.02-.02.01,0,.03-.02.04-.03,0,0,.01,0,.02-.01.02-.01.04-.03.06-.04,0,0,0,0,0,0,.02-.01.04-.02.06-.04.02-.01.04-.02.05-.03,0,0,.01,0,.02-.01.01,0,.03-.01.04-.02,0,0,.01,0,.02,0,.02,0,.04-.02.06-.02.02,0,.04-.01.06-.02,0,0,.01,0,.02,0,.01,0,.02,0,.04-.01,0,0,.01,0,.02,0,.01,0,.02,0,.03,0,0,0,.01,0,.02,0,.01,0,.02,0,.03,0,0,0,.02,0,.02,0,0,0,.02,0,.03,0,0,0,.02,0,.03,0,0,0,.02,0,.03,0,.01,0,.02,0,.03,0,.01,0,.03,0,.04,0,0,0,0,0,0,0,.01,0,.03,0,.04,0,0,0,0,0,.01,0,.01,0,.03,0,.04,0,0,0,0,0,.01,0,.01,0,.02,0,.03,0,0,0,.01,0,.02,0,0,0,.02,0,.03,0,.01,0,.02,0,.03.01,0,0,.01,0,.02,0,.02,0,.03.01.05.02l-10.31-5.96s-.03-.02-.05-.02c0,0-.01,0-.02,0-.17-.07-.37-.06-.54,0-.17.06-.34.15-.48.27,0,0,0,0-.01.01,0,0-.02.01-.02.02-.52.43-.89,1.11-.94,1.78-.02.23,0,.5.14.7,0,0,0,0,0,0,0,0,0,0,0,0,0,0,.01.02.02.03,0,0,0,0,0,.01,0,0,.01.02.02.03,0,0,0,0,0,0,0,.01.02.02.03.03,0,0,0,0,0,0,0,0,.02.02.03.02,0,0,0,0,.01,0,0,0,.02.01.02.02,0,0,0,0,.01,0,.01,0,.02.02.04.02l10.31,5.96s-.02-.02-.04-.02c0,0,0,0-.01,0,0,0-.02-.01-.02-.02Z"/>
            <path class="cls-109" d="m79.39,244.14c-.67.39-1.21,1.32-1.21,2.09,0,.77.55,1.08,1.22.69.67-.39,1.21-1.32,1.21-2.09,0-.77-.55-1.08-1.22-.69Z"/>
          </g>
        </g>
        <path class="cls-12" d="m50.91,237.99h0s-2.17-1.26-2.17-1.26h0s-.07-.02-.11,0l-1.99,1.15-.45.26s-.04.08,0,.1l.07.04,2.17,1.26h0s.07.02.11,0l2.1-1.21.27-.16c.07-.04.07-.14,0-.18Z"/>
      </g>
      <path class="cls-9" d="m205.82,270.24l10.69-6.17c.31-.18.7-.18,1.01,0l10.62,6.11c.68.39.68,1.36,0,1.75l-10.69,6.17c-.31.18-.7.18-1.01,0l-10.62-6.11c-.68-.39-.68-1.36,0-1.75Z"/>
      <path class="cls-50" d="m212.27,265.28s-1.2.02-1.77-.36c-.57-.38-1.9,1.22-.59,2.07,1.32.85,2.67,1.7,3.38,1.58.71-.12,1.09-.24,1.15-.4.06-.16.08-3,.08-3l-2.26.12Z"/>
      <path class="cls-102" d="m211.78,263.15v3.23s1.82.8,3.02.34l.45-2.15-3.48-1.42Z"/>
      <path class="cls-120" d="m207.1,267.14s-1.2.02-1.77-.36c-.57-.38-1.9,1.22-.59,2.07,1.31.85,2.67,1.7,3.38,1.58.71-.12,1.09-.24,1.15-.41.06-.16.08-3,.08-3l-2.26.12Z"/>
      <path class="cls-51" d="m207.38,253.08s-.5-.87-.9-1.4c-.4-.52-.94-1.35-.44-1.77.5-.42,1.44-.93,1.89-.9.45.03,1.17.61.93.9-.24.29.21,1.7.21,1.7l-1.68,1.46Z"/>
      <path class="cls-32" d="m224.52,243.86c-.46-.52-1.2-.71-1.87-.51l-1.41.42-3.84,1.79-2.66,1.39-.23,8.51-.27,4.15,1.58,1.34c1.88,1.76,7.65-1.34,7.65-1.34.97-3.22,2.4-12.08,2.4-12.08-.05-1.82-.74-2.99-1.34-3.67Z"/>
      <path class="cls-102" d="m214.87,257.43s-4.03-.85-6.5-1.07c-.9-.08-1.68.6-1.72,1.5-.11,2.23-.24,6.54.08,9.89l1.49.93c.68.42,1.56-.04,1.6-.84l.27-5.5c.02-.47.58.1.94.41,1.12.97,3.83,2.05,5.47,1.47,0,0,4.94-1.52,6.12-4.74l-7.77-2.06Z"/>
      <path class="cls-57" d="m217.28,265.29l-1.39-.72.8,12.26c.01.21.1.4.24.52.18.16.36.23.52.26.35.06.65-.32.62-.76l-.78-11.56Z"/>
      <path class="cls-57" d="m227.34,260.14l-1.36-.72.9,11.29c.02.21.11.41.24.53.14.12.28.2.4.23.38.11.73-.31.69-.8l-.88-10.54Z"/>
      <path class="cls-57" d="m208.72,262.6l-1.61,9.84c-.04.22.02.46.16.59.1.1.21.15.3.17.22.06.43-.13.49-.42l1.95-9.72-1.29-.46Z"/>
      <path class="cls-51" d="m219.94,236.41c-.92-.15-1.44-.33-2.33-.06-1.49.44-2.29,1.86-2.65,3.28-.36,1.43-.47,3.51.35,4.84.51.83,1.65.67,2.47.46.98-.26,2.27-.69,3.07-1.29,1.12-.85,1.72-2.71,1.79-4.05.06-1.16-1.3-2.93-2.7-3.16Z"/>
      <path class="cls-70" d="m221.23,243.27c-.12.13-.25.25-.38.35-.81.61-2.09,1.03-3.07,1.29-.16.04-.33.08-.5.11l.12.54c1.04.29,2.12.25,2.86.17.56-.06.98-.54.98-1.11v-1.35h0Z"/>
      <path class="cls-32" d="m216.14,246.71s-2.22-.06-2.76,1.49c-.55,1.55-1.79,4.65-1.79,4.65,0,0-1.88-1.46-2.58-1.64,0,0-1.55.79-1.91,1.64,0,0,2.34,4.04,5.19,5.22,0,0,3.1-2.88,4.59-7.05,0,0,1.84-3.06-.74-4.3Z"/>
      <path class="cls-89" d="m226.81,248.01c-5.8,1.21-8.75,4.3-9.68,5.47-.22.27-.33.61-.33.96v11.15c7.77-1.29,11.09-5.87,11.09-5.87v-10.82c0-.57-.53-1-1.08-.88Z"/>
      <path class="cls-89" d="m216.8,265.58s-6.7-.67-8.76-2.99c0,0-.15-1.56.48-1.34.64.21,3.66,2.06,8.28,2.55v1.78Z"/>
      <path class="cls-85" d="m215.42,237.1l-1.03-.44c2.16-1.13,4.44-.77,5.57-.48.27.05.52.12.74.23.99.51,2,1.99,1.94,3.15-.07,1.34-.66,3.2-1.79,4.05-.62.47-1.52.83-2.36,1.09-.23-.11-.57-1.36-.57-1.36.47-.27.84-1.84.33-2.11-.5-.27-.83.7-.83.7-.29-.11-.73-.44-.49-1.02.08-.19.11-.39.11-.56,0-.33-.27-.61-.6-.63-.15-.01-.3-.03-.43-.05-1.54-.07-2.48.07-2.48.07.6-1.44,1.89-2.64,1.89-2.64Z"/>
      <path class="cls-9" d="m226.63,282.87l10.69-6.17c.31-.18.7-.18,1.01,0l10.62,6.11c.68.39.68,1.36,0,1.75l-10.69,6.17c-.31.18-.7.18-1.01,0l-10.62-6.11c-.68-.39-.68-1.36,0-1.75Z"/>
      <path class="cls-87" d="m233.26,277.35s-1.2.02-1.77-.36c-.57-.39-1.9,1.22-.59,2.07,1.32.85,2.67,1.7,3.38,1.58.71-.12,1.09-.24,1.15-.4.06-.16.08-2.99.08-2.99l-2.26.12Z"/>
      <path class="cls-76" d="m232.76,275.21v3.23s1.82.8,3.02.33l.45-2.15-3.48-1.42Z"/>
      <path class="cls-87" d="m228.08,279.21s-1.2.02-1.77-.36c-.57-.38-1.9,1.22-.59,2.07,1.32.85,2.67,1.7,3.38,1.58.71-.12,1.09-.24,1.15-.41.06-.16.08-2.99.08-2.99l-2.26.12Z"/>
      <path class="cls-39" d="m245.5,255.92c-.47-.52-1.2-.71-1.87-.51l-1.41.42-3.84,1.79-2.66,1.39-.23,8.51-.27,4.15,1.58,1.33c1.88,1.76,7.65-1.33,7.65-1.33.97-3.22,2.4-12.08,2.4-12.08-.05-1.82-.74-2.99-1.34-3.67Z"/>
      <path class="cls-76" d="m235.85,269.49s-4.03-.85-6.5-1.07c-.9-.08-1.68.6-1.72,1.5-.11,2.23-.24,6.54.08,9.89l1.49.93c.68.43,1.56-.04,1.6-.84l.27-5.5c.02-.47.58.1.94.41,1.12.97,3.83,2.05,5.47,1.48,0,0,4.94-1.52,6.12-4.74l-7.77-2.06Z"/>
      <path class="cls-57" d="m238.27,277.35l-1.39-.72.8,12.26c.01.21.1.4.24.52.18.16.36.23.52.26.35.06.65-.32.62-.76l-.78-11.56Z"/>
      <path class="cls-57" d="m248.32,272.2l-1.36-.72.9,11.29c.02.21.11.41.24.53.14.12.28.19.4.23.38.11.73-.31.69-.8l-.88-10.54Z"/>
      <path class="cls-57" d="m229.71,274.66l-1.61,9.84c-.04.22.02.46.16.59.1.09.2.15.3.17.22.06.43-.13.49-.42l1.95-9.72-1.29-.46Z"/>
      <path class="cls-51" d="m240.92,248.47c-.92-.15-1.44-.32-2.33-.06-1.49.44-2.29,1.86-2.65,3.28-.36,1.43-.47,3.51.35,4.84.51.83,1.65.67,2.46.46.98-.26,2.27-.68,3.08-1.29,1.12-.85,1.72-2.71,1.79-4.05.06-1.16-1.3-2.93-2.7-3.16Z"/>
      <path class="cls-70" d="m242.22,255.33c-.12.13-.25.25-.38.35-.81.61-2.09,1.03-3.08,1.29-.16.04-.33.08-.5.11l.12.54c1.05.29,1.59.05,2.33-.03.56-.06,1.51-.34,1.51-.91v-1.35h0Z"/>
      <path class="cls-89" d="m247.8,260.08c-5.8,1.21-8.75,4.3-9.68,5.47-.22.27-.33.61-.33.96v11.15c7.77-1.29,11.09-5.87,11.09-5.87v-10.82c0-.57-.53-1-1.08-.88Z"/>
      <path class="cls-89" d="m237.79,277.65s-6.7-.67-8.76-2.99c0,0-.15-1.56.49-1.34.64.21,3.66,2.06,8.28,2.55v1.78Z"/>
      <path class="cls-51" d="m228.68,266.86s-.59-.14-.93-.11c-.34.02-.57.44-.85.6-.28.16-.75.7-.75,1.3,0,.6.27,1.25.6,1.25.33,0,.4.06.5-.18.1-.25.68-1.09.68-1.09l.76-1.77Z"/>
      <path class="cls-6" d="m229.05,266.68l-.68-.14s-.63,1.19-.58,2.16l.6.14.66-2.15Z"/>
      <path class="cls-86" d="m228.85,266.57c.7.18,4.58.46,4.58.46,0,0,.47-4.93,1.02-6.48.55-1.55,2.03-1.91,2.03-1.91,2.58,1.24,1.23,4.47,1.23,4.47-.99,2.77-1.48,5.07-1.69,6.3-.09.54-.61.9-1.15.82-3.44-.56-6.67-1.34-6.67-1.34,0-1.37.66-2.32.66-2.32Z"/>
      <path class="cls-104" d="m236.02,251.45s-2.57-2.71,0-3.46c2.57-.75,5.03-.71,6.88.2,1.85.91,1.64,3.63,1.29,4.29-.34.67-1.25,2.26-2.11,3.03-.04.03-.07.05-.11.06-.04.04-.09.07-.13.11-.62.47-1.52.83-2.36,1.09-.23-.11-.57-1.36-.57-1.36.47-.27.84-1.84.33-2.11-.5-.27-.83.7-.83.7-.29-.11-.73-.44-.49-1.02.24-.58,0-1.18,0-1.18-.89.02-1.62-.18-1.9-.34Z"/>
      <path class="cls-6" d="m242.22,255.58l.42.92s-1.51,2.48-4.58,1.29l.23-.55s2.69.18,3.93-1.65Z"/>
      <path class="cls-9" d="m198.66,299.94l10.69-6.17c.31-.18.7-.18,1.01,0l10.62,6.11c.68.39.68,1.36,0,1.75l-10.69,6.17c-.31.18-.7.18-1.01,0l-10.62-6.11c-.68-.39-.68-1.36,0-1.75Z"/>
      <path class="cls-50" d="m204.57,294.35s-1.2.02-1.77-.36c-.57-.39-1.9,1.22-.59,2.07,1.32.85,2.67,1.7,3.38,1.58.71-.12,1.09-.24,1.15-.4.06-.16.08-3,.08-3l-2.26.12Z"/>
      <path class="cls-76" d="m204.07,292.22v3.23s1.82.8,3.02.34l.45-2.15-3.48-1.42Z"/>
      <path class="cls-50" d="m199.39,296.21s-1.2.02-1.77-.36c-.57-.38-1.9,1.22-.59,2.07,1.32.85,2.67,1.7,3.38,1.58.71-.12,1.09-.24,1.15-.4.06-.16.08-3,.08-3l-2.26.12Z"/>
      <path class="cls-51" d="m199.67,282.15s-.5-.87-.9-1.39c-.4-.52-.94-1.35-.44-1.77.5-.42,1.44-.93,1.89-.9.45.03,1.17.61.93.9-.24.29.21,1.7.21,1.7l-1.68,1.46Z"/>
      <path class="cls-80" d="m216.81,272.93c-.46-.52-1.2-.71-1.87-.51l-1.41.42-3.84,1.79-2.66,1.39-.23,8.51-.27,4.15,1.58,1.33c1.88,1.76,7.65-1.33,7.65-1.33.97-3.22,2.4-12.08,2.4-12.08-.05-1.82-.74-2.99-1.34-3.67Z"/>
      <path class="cls-76" d="m207.17,286.5s-4.03-.85-6.5-1.07c-.9-.08-1.68.6-1.72,1.5-.11,2.23-.24,6.54.08,9.89l1.49.93c.68.42,1.56-.04,1.6-.84l.27-5.5c.02-.47.58.1.94.41,1.12.96,3.83,2.05,5.47,1.47,0,0,4.94-1.52,6.12-4.74l-7.77-2.06Z"/>
      <path class="cls-57" d="m209.58,294.36l-1.39-.72.8,12.26c.01.21.1.4.24.52.18.16.36.23.52.26.35.06.65-.32.62-.75l-.78-11.57Z"/>
      <path class="cls-57" d="m219.63,289.21l-1.36-.72.9,11.29c.02.21.11.41.24.53.14.12.28.19.4.23.38.11.73-.31.69-.8l-.88-10.54Z"/>
      <path class="cls-57" d="m201.02,291.67l-1.61,9.84c-.04.22.02.46.16.59.1.09.21.15.3.17.22.06.43-.13.49-.42l1.95-9.72-1.29-.46Z"/>
      <path class="cls-51" d="m212.23,265.48c-.92-.15-1.44-.33-2.33-.06-1.49.44-2.29,1.86-2.65,3.28-.36,1.43-.47,3.51.35,4.84.51.83,1.65.67,2.46.46.98-.26,2.27-.69,3.08-1.3,1.12-.85,1.72-2.71,1.79-4.05.06-1.16-1.3-2.93-2.7-3.16Z"/>
      <path class="cls-70" d="m213.53,272.34c-.12.13-.25.25-.38.35-.81.61-2.09,1.03-3.08,1.3-.16.04-.33.08-.5.11l.12.54c1.05.29,2.12.26,2.86.17.56-.06.98-.54.98-1.11v-1.35h0Z"/>
      <path class="cls-80" d="m208.44,275.78s-2.22-.06-2.76,1.49c-.55,1.55-1.79,4.64-1.79,4.64,0,0-1.88-1.46-2.58-1.64,0,0-1.55.79-1.91,1.64,0,0,2.34,4.04,5.19,5.22,0,0,3.1-2.88,4.59-7.05,0,0,1.84-3.06-.74-4.3Z"/>
      <path class="cls-89" d="m219.11,277.08c-5.8,1.21-8.75,4.3-9.68,5.47-.22.27-.33.61-.33.96v11.15c7.77-1.3,11.09-5.87,11.09-5.87v-10.82c0-.57-.52-.99-1.08-.88Z"/>
      <path class="cls-89" d="m209.1,294.65s-6.7-.67-8.76-2.99c0,0-.15-1.56.49-1.34.64.21,3.66,2.06,8.28,2.55v1.78Z"/>
      <path class="cls-76" d="m207.33,268.46s-1.64-1.42-.5-2.2c.36-.24.73-.27,1-.61.28-.36.62-.78,1.06-1,.4-.2.74.19,1.11.29.7.19,1.22-.62,1.91-.44.23.06.41.25.62.38.53.33,1.88.07,1.82.97-.03.49.19.97.6,1.23.4.26.69.69.6,1.2-.04.22-.2.37-.28.57-.1.24-.13.51-.15.76-.05.58-.18,1.08-.54,1.55-.41.54-.89,1.13-1.43,1.54-.62.47-1.52.83-2.36,1.09-.23-.11-.57-1.36-.57-1.36.47-.27.83-1.84.33-2.11-.5-.27-.83.7-.83.7-.29-.11-.73-.44-.49-1.02.24-.58,0-1.18,0-1.18-.89.02-1.62-.18-1.9-.34Z"/>
      <path class="cls-9" d="m177.13,287.74l10.69-6.17c.31-.18.7-.18,1.01,0l10.62,6.11c.68.39.68,1.36,0,1.75l-10.69,6.17c-.31.18-.7.18-1.01,0l-10.62-6.11c-.68-.39-.68-1.36,0-1.75Z"/>
      <path class="cls-50" d="m183.29,282.39s-1.2.02-1.77-.37c-.57-.38-1.9,1.22-.59,2.07,1.32.85,2.67,1.7,3.38,1.58.71-.12,1.09-.24,1.15-.4.06-.16.08-3,.08-3l-2.26.12Z"/>
      <path class="cls-76" d="m182.79,280.25v3.23s1.83.8,3.02.34l.45-2.15-3.48-1.42Z"/>
      <path class="cls-50" d="m178.12,284.24s-1.2.02-1.77-.36c-.57-.38-1.9,1.22-.59,2.07,1.32.85,2.67,1.7,3.38,1.58.71-.12,1.09-.24,1.15-.4.06-.16.08-2.99.08-2.99l-2.26.12Z"/>
      <path class="cls-76" d="m195.36,261.13c-.46-.52-1.25-.81-1.93-.61l-1.18.35-3.84,1.79-2.66,1.39-.23,8.51-.27,4.15,1.58,1.33c1.88,1.76,7.65-1.33,7.65-1.33.97-3.22,2.03-11.97,2.03-11.97-.05-1.82-.54-2.93-1.14-3.62Z"/>
      <path class="cls-76" d="m185.89,274.53s-4.61-.95-7.08-1.17c-.9-.08-1.68.6-1.72,1.5-.11,2.23.34,6.64.67,9.99l1.49.93c.68.42,1.56-.04,1.6-.84l.27-5.5c.02-.47.58.1.94.41,1.12.96,3.83,2.05,5.47,1.48,0,0,4.94-1.52,6.12-4.74l-7.77-2.06Z"/>
      <path class="cls-57" d="m188.3,282.39l-1.39-.72.8,12.26c.01.21.1.4.24.52.18.16.36.23.52.26.35.06.65-.32.62-.75l-.78-11.56Z"/>
      <path class="cls-57" d="m198.35,277.24l-1.36-.72.9,11.29c.02.21.11.41.24.53.14.12.28.2.4.23.38.11.73-.31.69-.8l-.88-10.54Z"/>
      <path class="cls-57" d="m179.74,279.7l-1.61,9.84c-.04.22.02.46.16.59.1.09.21.15.3.17.22.06.43-.13.49-.42l1.95-9.72-1.29-.46Z"/>
      <path class="cls-51" d="m190.95,253.51c-.92-.15-1.44-.32-2.33-.06-1.49.44-2.29,1.86-2.65,3.28-.36,1.43-.47,3.51.35,4.84.51.83,1.65.67,2.46.46.98-.26,2.27-.68,3.08-1.29,1.12-.85,1.72-2.71,1.79-4.05.06-1.16-1.3-2.93-2.7-3.16Z"/>
      <path class="cls-70" d="m188.79,262.02c.98-.26,2.27-.68,3.08-1.29.14-.1.26-.22.38-.35h0v1.35c-.26.53-.9.75-1.46.81-.75.09-1.34.41-2.39.13l-.12-.54c.17-.03.34-.07.5-.11Z"/>
      <path class="cls-89" d="m197.83,265.11c-5.8,1.21-8.75,4.3-9.68,5.47-.22.27-.33.61-.33.96v11.15c7.77-1.29,11.09-5.87,11.09-5.87v-10.82c0-.57-.53-.99-1.08-.88Z"/>
      <path class="cls-89" d="m187.82,282.69s-6.7-.67-8.76-2.99c0,0-.15-1.56.49-1.35.64.21,3.66,2.06,8.28,2.55v1.78Z"/>
      <path class="cls-6" d="m192.33,260.63l.3.9s-1.76,2.46-4.73,1.39l.43-.53s2.77.07,4-1.76Z"/>
      <path class="cls-51" d="m178.51,272.29s-.59-.14-.93-.11c-.34.03-.57.44-.85.6-.28.15-.75.71-.75,1.3,0,.6.27,1.25.6,1.25.33,0,.4.07.5-.18.1-.25.68-1.09.68-1.09l.76-1.77Z"/>
      <path class="cls-6" d="m178.21,271.95c.7.18,4.58.46,4.58.46,0,0,.47-4.93,1.02-6.48.55-1.55,2.03-1.91,2.03-1.91,2.58,1.24,1.24,4.47,1.24,4.47-1,2.77-1.48,5.07-1.7,6.3-.09.54-.61.9-1.15.82-3.44-.56-6.67-1.34-6.67-1.34,0-1.37.66-2.32.66-2.32Z"/>
      <path class="cls-85" d="m186.05,254.11c2.12-1.77,5.02-.8,5.02-.8h0c.23.05.45.12.64.22.99.51,2,1.99,1.94,3.15-.07,1.34-.66,3.2-1.79,4.05-.62.47-1.53.83-2.36,1.09-.23-.11-.57-1.36-.57-1.36.47-.27.83-1.84.33-2.11-.5-.27-.83.7-.83.7-.29-.11-.73-.44-.49-1.02.24-.58,0-1.18,0-1.18-2.09-.05-2.36.68-2.36.68-.9-1.95.46-3.41.46-3.41Z"/>
      <g>
        <path class="cls-9" d="m166.04,199.43c7.42,0,13.43,1.83,13.43,4.09s-6.01,4.09-13.43,4.09-13.43-1.83-13.43-4.09,6.01-4.09,13.43-4.09Z"/>
        <g>
          <path class="cls-99" d="m153.63,175.73c.05-.15.1-.3.09-.43-.01-.17-.14-.05-.22.04-.23.27-.39.59-.63.86-.07.08-.25.19-.26,0-.04-.51.29-1.06.52-1.5.16-.31.35-.6.55-.89.11-.15.22-.3.34-.44.07-.08.26-.22.27-.33.02-.15,0,0,.02-.15l2.18.26c.07.3.08.61.08.92.01.75-.1,1.08-.42,1.74-.19.39-.16.76-.17,1.19,0,.43.28.72.1,1.13-.2.44-1.39.51-2.09-.14-.36-.34-.47-.88-.48-1.35,0-.25.01-.5.06-.75.01-.06.03-.12.05-.19Z"/>
          <path class="cls-36" d="m154.1,172.27l-.16.82s1.46.71,2.85.53l.22-.96-2.92-.4Z"/>
          <path class="cls-115" d="m156.5,153.39s-1.03,10.94-2.56,19.07c0,0,1.27.85,3.07.56l1.68-8.93-2.19-10.7Z"/>
          <path class="cls-99" d="m170.62,170.25s-.39.08-.61.64c-.23.55-.97,1.47-1.22,1.33-.25-.14,0-2.46,0-2.46l.44-1,1.39,1.49Z"/>
          <polygon class="cls-36" points="171.23 170.18 170.77 170.76 168.78 168.69 169.35 168.03 171.23 170.18"/>
          <path class="cls-65" d="m172.59,199.06s.15,1.77.93,2.4c1.9,1.53,2.74,2.99,1.05,3.49-1.69.51-5.21-1.42-5.55-2.71l.25-3.86,3.32.68Z"/>
          <path class="cls-65" d="m158.79,199.06s-.15,1.77-.93,2.4c-1.9,1.53-2.74,2.99-1.05,3.49,1.69.51,5.21-1.42,5.55-2.71l-.25-3.86-3.32.68Z"/>
          <path class="cls-125" d="m157.39,169.94v30.63s2.95,1.13,5.4-.38c0,0-.13-14.62.38-22.22,0,0,.38-.5.66.41,0,0,3.59,14.97,4.51,22.08,0,0,2.85.67,5.11-.67,0,0-2.26-13.06-2.51-14.73-.25-1.67-2.17-14.37-2.17-14.37,0,0-8-1.84-11.37-.75Z"/>
          <path class="cls-99" d="m167.62,147.68l-.89.24-.1,1.44c1.16.07.99-1.68.99-1.68Z"/>
          <path class="cls-99" d="m159.67,147.68l.89.24.1,1.44c-1.16.07-.99-1.68-.99-1.68Z"/>
          <path class="cls-90" d="m160.95,151.08s1.83-.6,5.32-.05l-.29.85-3.93.79-.95-.98-.15-.6Z"/>
          <path class="cls-115" d="m166.19,151.58s4.57.96,5.03,1.47c.46.5-.67,7.33-1.17,8.79-.5,1.47-1.29,8.86-1.29,8.86,0,0-5.16,2.2-11.37-.75,0,0-.3-5.31-.56-8.1-.23-2.45-.33-8.45-.33-8.45,0,0,1.64-1.29,4.47-1.63,2.83-.35,5.22-.18,5.22-.18Z"/>
          <path class="cls-115" d="m171.22,153.05s4.76,7.27,6.14,10.92l-6.14,6.48-2.09-2.31,4.09-4.15-2.33-4.11-3.01-4.12,3.35-2.71Z"/>
          <path class="cls-99" d="m166.08,148.15l-.19,3.61s-1.72,1.66-4.61,0v-3.86l4.8.25Z"/>
          <path class="cls-99" d="m167.05,146.75c0,2.63-1.54,4.77-3.45,4.77s-3.45-2.14-3.45-4.77,1.54-4.77,3.45-4.77,3.45,2.14,3.45,4.77Z"/>
          <path class="cls-101" d="m163.47,145.43s2.65-1.3,2.77,2.71c0,0,.81.27,1.59-.27,0,0,1.29-6.99-4.33-6.33,0,0-4.82-.44-4.1,6.45,0,0,.78.45,1.78.09,0,0-.34-3.14,2.29-2.65Z"/>
          <polygon class="cls-99" points="161.35 151.84 163.63 153.64 165.43 152.32 165.2 151.89 161.35 151.84"/>
          <polygon class="cls-81" points="166.27 151.03 163.63 153.64 165.62 154.89 166.58 151.66 166.27 151.03"/>
          <polygon class="cls-81" points="160.95 151.08 163.63 153.64 161.65 154.89 160.47 151.8 160.95 151.08"/>
          <path class="cls-81" d="m157.22,166.48c.01.21.02.42.03.62,5.24,1.67,10.15.89,11.81.54.02-.21.04-.42.07-.64-6.47,1.11-10.3.11-11.91-.51Z"/>
          <path class="cls-81" d="m157.31,168.26c.01.22.02.43.03.61,5.03,1.58,9.74.91,11.54.55.02-.2.04-.42.06-.65-6.24,1.04-9.99.11-11.63-.51Z"/>
          <path class="cls-99" d="m169.13,168.78s.23.38.18.68c-.18,1.07.11,1.13.16,1.71.03.36-.06.68-.25.98-.12.19-.34.53-.6.5-.54-.05-1.12-1.05-.89-1.51.18-.37.27-.79.2-1.2-.07-.43.09-.58.44-.81.06-.04.7-.44.77-.35Z"/>
        </g>
      </g>
      <g>
        <path class="cls-9" d="m214.39,220.36c7.42,0,13.43,1.83,13.43,4.09s-6.01,4.09-13.43,4.09-13.43-1.83-13.43-4.09,6.01-4.09,13.43-4.09Z"/>
        <g>
          <path class="cls-59" d="m209.62,187.96s.06,1.63,0,2.34c-.06.71.46,2.43,1.32,2.65.86.22.56-3.57.56-3.57l-.46-1.32-1.42-.1Z"/>
          <path class="cls-55" d="m211.33,171.51s-3.78,9.3-2.2,16.46c0,0,.91,1.22,2.76,1.2l-.56-17.66Z"/>
          <path class="cls-50" d="m218.01,221.44s-.08,1.81-1,2.29c-.93.48-3.33,2.19-2.81,2.96.52.76,2.31,1.47,4.2.42,1.89-1.05,2.98-1.98,3.55-2.34.56-.36,0-2.93-.12-4.05-.12-1.13-3.82.72-3.82.72Z"/>
          <path class="cls-50" d="m210.2,218.34s-.08,1.81-1,2.29c-.93.48-3.33,2.19-2.81,2.96.52.76,2.31,1.47,4.2.42,1.89-1.05,2.98-1.98,3.54-2.34.56-.36,0-2.93-.12-4.05-.12-1.13-3.82.72-3.82.72Z"/>
          <path class="cls-4" d="m221.93,189.75l.94,32.7s-2.9,1.08-5.81,0l-1.11-34.49,5.97,1.79Z"/>
          <path class="cls-4" d="m211.07,187.32l-1.45,31.83s1.79,1.85,5.05.99l2.06-31.69-5.67-1.12Z"/>
          <path class="cls-100" d="m210.99,189.07s3.19,2.71,10.99,2.35l-.05-1.67-10.85-2.22-.09,1.54Z"/>
          <path class="cls-59" d="m219.52,168.86l.15,2.06s-.37,1.41-2.21,1.62c-1.84.2-2.54-1.17-2.54-1.17v-1.72l4.6-.78Z"/>
          <path class="cls-55" d="m219.67,170.92l-4.75-.54c-1.08-.15-3.6,1.12-3.6,1.12-.58,4.55-.56,13.42-.56,15.43,0,.24.11.46.32.59,3.69,2.41,9.18,2.5,10.87,2.46.31,0,.56-.26.58-.57.43-8.86,1.7-15.27,1.7-15.27-1.38-1.48-4.55-3.23-4.55-3.23Z"/>
          <path class="cls-59" d="m219.97,168.09s-.71,3.16-3.64,3.11c-3.38-.06-3.51-4.47-3.05-6.53.43-1.93,2.79-4.19,5.1-2.68,1.74,1.13,2.3,3.21,1.58,6.11Z"/>
          <polygon class="cls-76" points="216.01 172.85 215.17 173.59 215.51 174.2 216.26 174.28 216.74 173.77 216.01 172.85"/>
          <polygon class="cls-76" points="215.51 174.2 214.33 185.53 215.1 187.32 216.18 185.72 216.26 174.28 215.51 174.2"/>
          <polygon class="cls-59" points="218.87 170.43 216.96 170.89 214.92 171.53 215.09 172.45 216.01 172.85 217.95 171.97 219.07 170.89 218.87 170.43"/>
          <polygon class="cls-34" points="219.62 170.27 220.12 171.03 216.97 174.06 216.01 172.85 219.62 170.27"/>
          <polygon class="cls-34" points="216.01 172.85 214.87 173.86 214.33 170.43 216.01 172.85"/>
          <path class="cls-59" d="m222.97,192.37s-.36,1.46-.88,1.93c-.38.35-.63.81-.84,1.27-.06.12-.11.25-.13.39-.03.21.09.37.16.55.07.18.14.36.22.53.15.31.36.65.69.79.6.25,2.29-.76,2.29-1.43s.38-2.35.38-2.35l-1.89-1.68Z"/>
          <path class="cls-55" d="m224.22,174.15s4.68,6.67.92,20.22c0,0-1.57-.19-2.73-1.18,0,0,2.02-8.29,0-13.14,0,0,0-4.71,1.8-5.9Z"/>
          <polygon class="cls-76" points="220.82 171.32 219.8 172.48 223.28 174.63 223.98 173.57 220.82 171.32"/>
          <polygon class="cls-76" points="213.82 170.43 213.82 171.32 211.75 172.12 211.68 171.09 213.82 170.43"/>
          <path class="cls-85" d="m217.36,161.02s2.49.52,3.09,4.2c0,0,.92,2.71-1.38,4.69,0,0,.08-1.26-.09-1.51-.17-.25.5-.96.44-1.44-.06-.48-.12-1.37-.68-.94l-.2.2c-.18.18-.48.03-.45-.22.04-.37.03-.78-.14-1.04-.37-.57-2.54,1.17-4.81.72,0,0-.6-.04-.52-.93,0,0,.87-4.57,4.75-3.72Z"/>
          <path class="cls-85" d="m218.09,166.06s.38,3.08-.59,3.82c0,0-1.57.94-3.47.18,0,0-.8.93-.13,1.53.68.6,3.52.47,4.18-.23.66-.71.82-3.82.47-5.14l-.29-.31-.16.15Z"/>
          <g>
            <path class="cls-4" d="m212.71,164.44s-1.88,1.13.27,2.11c2.14.98,5.79-.66,6.44-1.2l-6.71-.91Z"/>
            <path class="cls-4" d="m212.65,163.14l.07,1.3s2.21,1.71,7.74.78l.37-.94-8.17-1.14Z"/>
            <path class="cls-4" d="m211.88,161.4c.01.07-.2.61.76,1.74,0,0,3.42,1.65,8.17,1.14,0,0,.82-.37,1.28-.89l-10.22-1.98Z"/>
            <path class="cls-4" d="m222.21,163.14c-.19.92-2.7.35-5.43-.11-2.91-.5-5.08-.92-4.9-1.84.19-.92,2.86-.99,5.74-.4,2.89.59,4.77,1.44,4.58,2.36Z"/>
          </g>
          <path class="cls-100" d="m219.61,188.58c-.44,0-.8.36-.8.8v3.85l3.47-.26.28-4.39h-2.96Z"/>
        </g>
      </g>
      <g>
        <path class="cls-9" d="m145.13,246.29c6.5,0,11.77,1.61,11.77,3.58s-5.27,3.58-11.77,3.58-11.77-1.6-11.77-3.58,5.27-3.58,11.77-3.58Z"/>
        <g>
          <path class="cls-50" d="m141.98,247s.07,1.65.91,2.09c.84.44,3.04,2,2.56,2.7-.48.7-2.11,1.34-3.84.38-1.73-.95-2.72-1.81-3.24-2.14-.51-.33,0-2.67.11-3.7.11-1.03,3.49.66,3.49.66Z"/>
          <path class="cls-76" d="m147.25,221.21s2.55,13.28,2.55,14.02-6.77,8.05-6.77,8.05l-.87-6.33,2.72-3.23-2.12-7.21-.81-6.53,1.86-2.57,3.43.95v2.86Z"/>
          <path class="cls-76" d="m138.28,219.96s.14,13.16.14,14.92-.59,12.05-.59,12.05c0,0,.66,1.47,4.85.66l1.03-12.63.1-10.3v-2.94l-5.54-1.76Z"/>
          <polygon class="cls-11" points="143.82 224.66 144.88 233.7 143.44 229.64 143.82 224.66"/>
          <path class="cls-11" d="m142.76,220.78s2.2.4,4.23-.55l-.29-1.1-3.94.53v1.13Z"/>
          <path class="cls-5" d="m133.83,222.91s.05,1.4,0,1.97c-.1,1.1.36,2.16.75,2.45.39.29,1.23.51,1.55.33.33-.18-.3-1.21-.43-1.7-.27-1.08,0-1.43,0-1.43-.02.02.2.38.21.41.14.29.26.58.38.87,0,.02.02.05.04.06.03.02.06,0,.09-.02.31-.27.24-.95.07-1.26-.18-.32-.65-2.57-.65-2.57l-2.02.88Z"/>
          <path class="cls-5" d="m160.12,219.66c-.12-.06-.26-.12-.34-.2-.1-.11.05-.12.16-.12.32.02.62.11.94.12.09,0,.27-.05.17-.17-.31-.34-.87-.46-1.3-.58-.3-.08-.61-.14-.92-.18-.16-.02-.33-.04-.49-.05-.1,0-.3.03-.39-.03-.11-.08,0,0-.1-.08l-1.16,1.58c.16.22.35.42.55.62.48.47.77.6,1.39.79.37.12.59.36.88.62.29.26.3.62.68.76.41.14,1.19-.59,1.2-1.45,0-.44-.29-.84-.59-1.14-.16-.16-.34-.3-.53-.42-.05-.03-.1-.06-.15-.08Z"/>
          <path class="cls-123" d="m133.47,222.25v1.19s1.74.07,2.96-.6v-1.24l-2.96.64Z"/>
          <path class="cls-123" d="m156.01,220.05l.9.78s1.2-1.27,1.49-2.62l-.93-.81-1.46,2.65Z"/>
          <path class="cls-72" d="m141.5,201.03l.23.31,3.68,1.76.3-1.25c-2.08-1.38-4.21-.83-4.21-.83Z"/>
          <path class="cls-5" d="m141.85,199.95s-.04.79-.26,1.65l1.57,1.76,1.35,1.21h.86l.24-1.01s-.33-2.09-.13-2.85l-3.64-.77Z"/>
          <path class="cls-13" d="m148.09,202.94s2.39,7.43,3.27,9.32l6.61,5.35s-.07,1.76-1.76,2.79l-6.9-4.92-1.12-1.86-.93-7.63.84-3.04Z"/>
          <path class="cls-64" d="m142.69,219.88s1.71.39,3.92-.59l.64-16.35-1.93.4-1.86-.32-2.31-1.26-.76,1.19,1.09,12.54,1.21,4.41Z"/>
          <path class="cls-13" d="m146,205.5s.51,7.82.26,16.78c0,0,.93-.24,1.62-.78,0,0,.64-11.13.21-18.56l-2.35-.82.06.68.21,2.69Z"/>
          <polygon class="cls-123" points="141.5 201.03 141.02 201.86 143.53 204.58 144.62 203.21 141.5 201.03"/>
          <path class="cls-13" d="m136.3,204.39s1.17-1.24,4.72-2.53c0,0,2.71,4.47,2.04,20.91,0,0-4.63-.64-5.32-1.18,0,0,.27-13.07-1.45-17.21Z"/>
          <path class="cls-5" d="m141.01,198.59s.41,2.95,3.1,3.13c3.1.21,3.56-3.83,3.29-5.76-.25-1.8-2.24-4.05-4.47-2.85-1.68.9-2.35,2.77-1.92,5.48Z"/>
          <path class="cls-85" d="m143.95,192.32s-2.72-.07-3.56,3.26c0,0-.64,2.77,1.31,4.76,0,0,.02-1.16.19-1.38.17-.21-.39-.92-.29-1.36.09-.44.21-1.24.69-.81l.17.2c.15.18.44.07.43-.17,0-.34.04-.71.21-.94.39-.5,2.24,1.27,4.36,1.03,0,0,.56,0,.55-.82,0,0-.44-4.26-4.07-3.78Z"/>
          <polygon class="cls-123" points="144.62 203.21 145.92 204.36 145.71 201.86 144.62 203.21"/>
          <polygon class="cls-76" points="144.62 203.21 145.57 204.05 145.18 204.75 144.33 204.84 143.79 204.25 144.62 203.21"/>
          <polygon class="cls-76" points="145.18 204.75 145.92 215.63 145.11 217.29 144.15 215.82 144.33 204.84 145.18 204.75"/>
          <polygon class="cls-11" points="143.7 235.11 143.03 243.27 143.89 242.34 143.92 234.85 143.7 235.11"/>
          <polygon class="cls-11" points="139.26 208.43 137.65 214.11 137.51 211.67 139.26 208.43"/>
          <path class="cls-13" d="m136.04,204.67s-2.27,6.15-2.71,9.87v8.23s1.81.1,3.18-.64c0,0-.39-8.57,2.74-13.71,0,0-.87-6.62-3.22-3.75Z"/>
        </g>
      </g>
      <g>
        <g>
          <polygon class="cls-98" points="104.26 225.79 80.87 238.75 104.26 251.72 127.65 238.75 104.26 225.79"/>
          <polygon class="cls-47" points="127.63 265.07 104.26 278.93 104.26 251.72 127.63 238.76 127.63 265.07"/>
          <polygon class="cls-94" points="80.87 265.07 104.24 278.93 104.24 251.72 80.87 238.76 80.87 265.07"/>
        </g>
        <g>
          <polygon class="cls-92" points="104.26 239.09 92.58 245.56 104.26 252.04 115.94 245.56 104.26 239.09"/>
          <polygon class="cls-84" points="115.93 258.71 104.26 265.63 104.26 252.04 115.93 245.57 115.93 258.71"/>
          <polygon class="cls-78" points="92.58 258.71 104.25 265.63 104.25 252.04 92.58 245.57 92.58 258.71"/>
        </g>
      </g>
      <g class="cls-35">
        <g class="cls-44">
          <polygon class="cls-96" points="164.13 317.74 96.46 357.07 28.33 317.74 96.01 278.41 164.13 317.74"/>
        </g>
        <g class="cls-43">
          <polygon class="cls-103" points="163.91 302.57 163.89 309.69 96.21 349.02 96.23 341.9 163.91 302.57"/>
          <polygon class="cls-33" points="96.23 341.9 96.21 349.02 28.09 309.69 28.11 302.57 96.23 341.9"/>
          <polygon class="cls-60" points="163.91 302.57 96.23 341.9 28.11 302.57 95.78 263.24 163.91 302.57"/>
        </g>
      </g>
      <g>
        <g>
          <g>
            <polygon class="cls-62" points="89.76 330.85 89.76 332.53 54.48 312.16 54.48 310.49 89.76 330.85"/>
            <polygon class="cls-62" points="89.76 330.85 54.48 310.49 104.89 281.4 140.16 301.76 89.76 330.85"/>
            <polygon class="cls-62" points="140.16 301.76 140.16 303.43 89.76 332.53 89.76 330.85 140.16 301.76"/>
          </g>
          <g>
            <polygon class="cls-62" points="88.97 320.67 88.97 322.34 53.7 301.98 53.7 300.3 88.97 320.67"/>
            <polygon class="cls-62" points="88.97 320.67 53.7 300.3 104.1 271.21 139.38 291.58 88.97 320.67"/>
            <polygon class="cls-62" points="139.38 291.58 139.38 293.25 88.97 322.34 88.97 320.67 139.38 291.58"/>
          </g>
          <polygon class="cls-62" points="88.97 320.67 139.38 291.58 139.38 303.43 88.97 332.53 88.97 320.67"/>
          <path class="cls-62" d="m89.76,320.67v11.7s3.1-4.28,0-11.7Z"/>
          <path class="cls-62" d="m139.38,291.6v11.83s4.12-4.32,0-11.83Z"/>
          <path class="cls-1" d="m89.76,322.34l-34.38-19.85s.84,2.91,0,8.51l34.38,19.85v-8.51Z"/>
          <path class="cls-126" d="m126.6,299.4l6.28-3.62c2.2,5.56,1.37,9.53.6,11.51l-6.3,3.64c.77-2.09,1.51-6.04-.57-11.53Z"/>
          <path class="cls-127" d="m97.76,316.06l6.27-3.62c2.2,5.56,1.37,9.53.6,11.51l-6.3,3.64c.77-2.09,1.51-6.04-.57-11.52Z"/>
        </g>
        <path class="cls-40" d="m60.42,300.31l29.34,16.94,44.47-25.67-29.34-16.94-44.47,25.67Zm29.34,15.42l-26.7-15.42,41.83-24.14,26.7,15.42-41.83,24.14Z"/>
        <g>
          <polygon class="cls-37" points="96.28 285.8 102.99 281.9 102.11 281.4 94.61 285.75 98.82 288.18 99.61 287.72 96.28 285.8"/>
          <path class="cls-77" d="m110,285.92l-10.52,2.65.89.51,3.31-.85,3.03,1.75-1.45,1.93.91.52,4.56-6.09-.74-.43Zm-1.33,1.59l-1.45,1.86-2.44-1.41,3.21-.84c.53-.15,1.01-.29,1.41-.44-.31.32-.55.6-.73.83Z"/>
          <path class="cls-8" d="m121.62,292.66l-5.81,2c-.88.3-1.6.57-2.15.82.55-.45,1.01-.88,1.38-1.29l3.18-3.49-.93-.54-5.91,1.87c-.78.24-1.53.52-2.25.83.45-.35.92-.76,1.4-1.24l3.44-3.38-.93-.54-5.49,5.52.87.5,6.47-2.05c.7-.22,1.32-.43,1.85-.65-.06.04-.22.19-.47.43-.25.25-.45.46-.6.63l-3.5,3.8.87.5,9.52-3.19-.93-.54Z"/>
        </g>
      </g>
    </g>
  </g>
</svg>