<?xml version="1.0" encoding="UTF-8"?>
<svg xmlns="http://www.w3.org/2000/svg" xmlns:xlink="http://www.w3.org/1999/xlink" viewBox="0 0 301 396.78">
  <defs>
    <style>
      .cls-1 {
        fill: url(#linear-gradient-2);
      }

      .cls-1, .cls-2, .cls-3, .cls-4, .cls-5 {
        opacity: .2;
      }

      .cls-6 {
        fill: url(#linear-gradient-17);
      }

      .cls-7 {
        stroke: url(#linear-gradient-22);
      }

      .cls-7, .cls-8, .cls-9, .cls-10, .cls-11, .cls-12, .cls-13 {
        fill: none;
        stroke-miterlimit: 10;
      }

      .cls-7, .cls-8, .cls-11, .cls-12 {
        stroke-width: .71px;
      }

      .cls-14 {
        fill: url(#linear-gradient-15);
      }

      .cls-15 {
        fill: url(#linear-gradient-18);
      }

      .cls-8 {
        stroke: url(#linear-gradient-7);
      }

      .cls-16 {
        fill: url(#linear-gradient-14);
      }

      .cls-17 {
        isolation: isolate;
      }

      .cls-18 {
        fill: url(#linear-gradient-11);
      }

      .cls-2 {
        fill: url(#linear-gradient-5);
      }

      .cls-19 {
        fill: url(#radial-gradient);
        mix-blend-mode: multiply;
      }

      .cls-3 {
        fill: url(#linear-gradient);
      }

      .cls-20 {
        fill: url(#linear-gradient-10);
      }

      .cls-4 {
        fill: url(#linear-gradient-3);
      }

      .cls-21 {
        fill: url(#linear-gradient-16);
      }

      .cls-5 {
        fill: url(#linear-gradient-4);
      }

      .cls-9 {
        stroke: url(#linear-gradient-19);
      }

      .cls-9, .cls-10, .cls-13 {
        stroke-width: .95px;
      }

      .cls-10 {
        fill-rule: evenodd;
        stroke: url(#linear-gradient-24);
      }

      .cls-22 {
        fill: url(#linear-gradient-21);
      }

      .cls-11 {
        stroke: url(#linear-gradient-25);
      }

      .cls-12 {
        stroke: url(#linear-gradient-6);
      }

      .cls-23 {
        fill: url(#linear-gradient-9);
      }

      .cls-13 {
        stroke: url(#linear-gradient-20);
      }

      .cls-24 {
        fill: url(#linear-gradient-23);
      }

      .cls-25 {
        fill: url(#linear-gradient-8);
      }

      .cls-26 {
        fill: url(#linear-gradient-12);
      }

      .cls-27 {
        fill: url(#linear-gradient-13);
      }
    </style>
    <radialGradient id="radial-gradient" cx="299.96" cy="432.37" fx="299.96" fy="432.37" r="639.73" gradientTransform="translate(-176.01 -355.33) scale(.61 .8)" gradientUnits="userSpaceOnUse">
      <stop offset="0" stop-color="#3e6694"/>
      <stop offset=".26" stop-color="#284a70"/>
      <stop offset=".57" stop-color="#132d4d"/>
      <stop offset=".82" stop-color="#051c37"/>
      <stop offset=".99" stop-color="#01162f"/>
    </radialGradient>
    <linearGradient id="linear-gradient" x1="208.42" y1="322.35" x2="235.97" y2="322.35" gradientUnits="userSpaceOnUse">
      <stop offset="0" stop-color="#00d1ef"/>
      <stop offset="1" stop-color="aqua"/>
    </linearGradient>
    <linearGradient id="linear-gradient-2" x1="230.6" y1="344.82" x2="285.58" y2="344.82" xlink:href="#linear-gradient"/>
    <linearGradient id="linear-gradient-3" x1="76.26" y1="75.81" x2="112.27" y2="75.81" xlink:href="#linear-gradient"/>
    <linearGradient id="linear-gradient-4" x1="41.62" y1="96.35" x2="65.93" y2="96.35" xlink:href="#linear-gradient"/>
    <linearGradient id="linear-gradient-5" x1="20.6" y1="49.7" x2="82.62" y2="49.7" xlink:href="#linear-gradient"/>
    <linearGradient id="linear-gradient-6" x1="124.17" y1="120.62" x2="141.82" y2="120.62" xlink:href="#linear-gradient"/>
    <linearGradient id="linear-gradient-7" x1="81.94" y1="196.33" x2="105.6" y2="196.33" xlink:href="#linear-gradient"/>
    <linearGradient id="linear-gradient-8" x1="109.41" y1="290.4" x2="198.04" y2="290.4" xlink:href="#linear-gradient"/>
    <linearGradient id="linear-gradient-9" x1="179.92" y1="158.46" x2="269.72" y2="158.46" xlink:href="#linear-gradient"/>
    <linearGradient id="linear-gradient-10" x1="105.86" y1="205.05" x2="197.27" y2="205.05" xlink:href="#linear-gradient"/>
    <linearGradient id="linear-gradient-11" x1="112.34" y1="205.05" x2="190.79" y2="205.05" xlink:href="#linear-gradient"/>
    <linearGradient id="linear-gradient-12" x1="134.57" y1="186.72" x2="169.04" y2="221.2" xlink:href="#linear-gradient"/>
    <linearGradient id="linear-gradient-13" x1="144.54" y1="176.74" x2="179.02" y2="211.22" xlink:href="#linear-gradient"/>
    <linearGradient id="linear-gradient-14" x1="33.33" y1="251.13" x2="121.96" y2="251.13" xlink:href="#linear-gradient"/>
    <linearGradient id="linear-gradient-15" x1="55.98" y1="251.13" x2="99.32" y2="251.13" xlink:href="#linear-gradient"/>
    <linearGradient id="linear-gradient-16" x1="72.89" y1="254.4" x2="82.4" y2="254.4" xlink:href="#linear-gradient"/>
    <linearGradient id="linear-gradient-17" x1="184.68" y1="158.46" x2="229.05" y2="158.46" xlink:href="#linear-gradient"/>
    <linearGradient id="linear-gradient-18" x1="220.59" y1="158.46" x2="264.96" y2="158.46" xlink:href="#linear-gradient"/>
    <linearGradient id="linear-gradient-19" x1="136.02" y1="290.4" x2="171.43" y2="290.4" xlink:href="#linear-gradient"/>
    <linearGradient id="linear-gradient-20" x1="149.59" y1="279.43" x2="157.78" y2="279.43" xlink:href="#linear-gradient"/>
    <linearGradient id="linear-gradient-21" x1="167.04" y1="271.25" x2="176.55" y2="271.25" xlink:href="#linear-gradient"/>
    <linearGradient id="linear-gradient-22" x1="194.55" y1="107.03" x2="212.2" y2="107.03" xlink:href="#linear-gradient"/>
    <linearGradient id="linear-gradient-23" x1="183.55" y1="244.99" x2="272.18" y2="244.99" xlink:href="#linear-gradient"/>
    <linearGradient id="linear-gradient-24" x1="206.43" y1="244.99" x2="249.29" y2="244.99" xlink:href="#linear-gradient"/>
    <linearGradient id="linear-gradient-25" x1="138.29" y1="139.28" x2="184.31" y2="139.28" xlink:href="#linear-gradient"/>
  </defs>
  <g class="cls-17">
    <g id="Layer_1" data-name="Layer 1">
      <rect class="cls-19" x="-.93" y="-2.24" width="302.87" height="401.26"/>
      <g>
        <path class="cls-3" d="m227.38,309.4h-10.37c-1.19,0-2.29.65-2.86,1.69l-5.32,9.69c-.54.98-.54,2.17,0,3.14l5.32,9.69c.57,1.04,1.67,1.69,2.86,1.69h10.37c1.19,0,2.29-.65,2.86-1.69l5.32-9.69c.54-.98.54-2.17,0-3.14l-5.32-9.69c-.57-1.04-1.67-1.69-2.86-1.69Z"/>
        <path class="cls-1" d="m268.44,318.96h-20.7c-2.38,0-4.57,1.29-5.71,3.38l-10.63,19.34c-1.07,1.95-1.07,4.32,0,6.28l10.63,19.34c1.14,2.08,3.33,3.38,5.71,3.38h20.7c2.38,0,4.57-1.29,5.71-3.38l10.63-19.34c1.07-1.95,1.07-4.32,0-6.28l-10.63-19.34c-1.14-2.08-3.33-3.38-5.71-3.38Z"/>
      </g>
      <g>
        <path class="cls-4" d="m101.04,58.88h-13.56c-1.56,0-2.99.85-3.74,2.21l-6.96,12.66c-.7,1.28-.7,2.83,0,4.11l6.96,12.66c.75,1.36,2.18,2.21,3.74,2.21h13.56c1.56,0,2.99-.85,3.74-2.21l6.96-12.66c.7-1.28.7-2.83,0-4.11l-6.96-12.66c-.75-1.36-2.18-2.21-3.74-2.21Z"/>
        <path class="cls-5" d="m58.35,84.92h-9.15c-1.05,0-2.02.57-2.52,1.49l-4.7,8.55c-.47.86-.47,1.91,0,2.77l4.7,8.55c.51.92,1.47,1.49,2.52,1.49h9.15c1.05,0,2.02-.57,2.52-1.49l4.7-8.55c.47-.86.47-1.91,0-2.77l-4.7-8.55c-.51-.92-1.47-1.49-2.52-1.49Z"/>
        <path class="cls-2" d="m63.28,20.54h-23.35c-2.68,0-5.15,1.46-6.44,3.81l-11.98,21.81c-1.21,2.2-1.21,4.87,0,7.08l11.98,21.81c1.29,2.35,3.76,3.81,6.44,3.81h23.35c2.68,0,5.15-1.46,6.44-3.81l11.98-21.81c1.21-2.2,1.21-4.87,0-7.08l-11.98-21.81c-1.29-2.35-3.76-3.81-6.44-3.81Z"/>
      </g>
      <path class="cls-12" d="m135.96,128.29h-5.92c-.91,0-1.75-.49-2.21-1.27l-2.96-5.13c-.45-.79-.45-1.76,0-2.55l2.96-5.13c.45-.79,1.3-1.27,2.21-1.27h5.92c.91,0,1.75.49,2.21,1.27l2.96,5.13c.45.79.45,1.76,0,2.55l-2.96,5.13c-.45.79-1.3,1.27-2.21,1.27Zm-5.92-13.95c-.41,0-.79.22-.99.57l-2.96,5.13c-.2.35-.2.79,0,1.15l2.96,5.13c.2.35.58.57.99.57h5.92c.41,0,.79-.22.99-.57l2.96-5.13c.2-.35.2-.79,0-1.15l-2.96-5.13c-.2-.35-.58-.57-.99-.57h-5.92Z"/>
      <path class="cls-8" d="m97.78,206.73h-8.02c-1.23,0-2.38-.66-2.99-1.73l-4.01-6.95c-.62-1.07-.62-2.39,0-3.45l4.01-6.95c.62-1.07,1.76-1.73,2.99-1.73h8.02c1.23,0,2.38.66,2.99,1.73l4.01,6.95c.62,1.07.62,2.39,0,3.45l-4.01,6.95c-.62,1.07-1.76,1.73-2.99,1.73Zm-8.02-18.91c-.55,0-1.07.3-1.35.78l-4.01,6.95c-.28.48-.28,1.07,0,1.55l4.01,6.95c.28.48.79.78,1.35.78h8.02c.55,0,1.07-.3,1.35-.78l4.01-6.95c.28-.48.28-1.07,0-1.55l-4.01-6.95c-.28-.48-.79-.78-1.35-.78h-8.02Z"/>
      <path class="cls-25" d="m170.29,330.28h-33.14c-3.98,0-7.69-2.14-9.69-5.59l-16.57-28.7c-1.99-3.45-1.99-7.74,0-11.18l16.57-28.7c1.99-3.45,5.7-5.59,9.69-5.59h33.14c3.98,0,7.69,2.14,9.69,5.59l16.57,28.7c1.99,3.45,1.99,7.74,0,11.18l-16.57,28.7c-1.99,3.45-5.7,5.59-9.69,5.59Zm-33.14-78.07c-3.38,0-6.53,1.82-8.22,4.74l-16.57,28.7c-1.69,2.93-1.69,6.56,0,9.49l16.57,28.7c1.69,2.93,4.84,4.74,8.22,4.74h33.14c3.38,0,6.53-1.82,8.22-4.74l16.57-28.7c1.69-2.93,1.69-6.56,0-9.49l-16.57-28.7c-1.69-2.93-4.84-4.74-8.22-4.74h-33.14Z"/>
      <path class="cls-23" d="m241.66,198.85h-33.68c-4,0-7.73-2.15-9.72-5.61l-16.84-29.16c-2-3.46-2-7.77,0-11.23l16.84-29.16c2-3.46,5.73-5.61,9.72-5.61h33.68c4,0,7.73,2.15,9.72,5.61l16.84,29.16c2,3.46,2,7.77,0,11.23l-16.84,29.16c-2,3.46-5.73,5.61-9.72,5.61Zm-33.68-79.34c-3.48,0-6.73,1.87-8.47,4.89l-16.84,29.16c-1.74,3.02-1.74,6.76,0,9.78l16.84,29.16c1.74,3.02,4.99,4.89,8.47,4.89h33.68c3.48,0,6.73-1.87,8.47-4.89l16.84-29.16c1.74-3.02,1.74-6.76,0-9.78l-16.84-29.16c-1.74-3.02-4.99-4.89-8.47-4.89h-33.68Z"/>
      <g>
        <path class="cls-20" d="m168.72,246.16h-34.3c-4.06,0-7.85-2.19-9.88-5.7l-17.15-29.71c-2.03-3.52-2.03-7.89,0-11.41l17.15-29.71c2.03-3.52,5.82-5.7,9.88-5.7h34.3c4.06,0,7.85,2.19,9.88,5.7l17.15,29.71c2.03,3.52,2.03,7.89,0,11.41l-17.15,29.71c-2.03,3.52-5.82,5.7-9.88,5.7Zm-34.3-80.82c-3.56,0-6.88,1.91-8.65,5l-17.15,29.71c-1.78,3.08-1.78,6.91,0,9.99l17.15,29.71c1.78,3.08,5.1,5,8.65,5h34.3c3.56,0,6.88-1.91,8.65-5l17.15-29.71c1.78-3.08,1.78-6.91,0-9.99l-17.15-29.71c-1.78-3.08-5.1-5-8.65-5h-34.3Z"/>
        <path class="cls-18" d="m166.25,240.34h-29.36c-3.51,0-6.79-1.89-8.54-4.93l-14.68-25.43c-1.76-3.04-1.76-6.82,0-9.87l14.68-25.43c1.76-3.04,5.03-4.93,8.54-4.93h29.36c3.51,0,6.79,1.89,8.54,4.93l14.68,25.43c1.76,3.04,1.76,6.82,0,9.87l-14.68,25.43c-1.76,3.04-5.03,4.93-8.54,4.93Zm-29.36-69.17c-3.01,0-5.81,1.62-7.32,4.23l-14.68,25.43c-1.5,2.61-1.5,5.85,0,8.45l14.68,25.43c1.5,2.61,4.31,4.23,7.32,4.23h29.36c3.01,0,5.81-1.62,7.32-4.23l14.68-25.43c1.5-2.61,1.5-5.85,0-8.45l-14.68-25.43c-1.5-2.61-4.31-4.23-7.32-4.23h-29.36Z"/>
      </g>
      <g>
        <path class="cls-26" d="m171.64,198.89c0-2.73-2.22-4.95-4.95-4.95s-4.95,2.22-4.95,4.95c0,2.53,1.91,4.6,4.37,4.89v15.62c0,5.51-4.49,10-10,10s-10-4.48-10-10v-.16c3.64-.31,6.51-3.36,6.51-7.08,0-.46-.05-.9-.13-1.33,4.35-2.51,7.05-7.1,7.05-12.15v-11.55c0-2.05-1.67-3.72-3.72-3.72h-1.65c-.02-1.4-.22-3.91-2.02-3.91-1.49,0-2.66,1.92-2.66,4.38s1.17,4.38,2.66,4.38c1.69,0,1.97-2.23,2.01-3.66h1.65c1.39,0,2.53,1.13,2.53,2.53v11.55c0,4.52-2.37,8.63-6.2,10.96-1.02-2.68-3.61-4.6-6.65-4.6s-5.63,1.91-6.65,4.6c-3.82-2.32-6.18-6.47-6.18-10.96v-11.55c0-1.39,1.13-2.53,2.53-2.53h1.72c.04,1.43.32,3.66,2.01,3.66,1.49,0,2.66-1.92,2.66-4.38s-1.17-4.38-2.66-4.38c-1.8,0-2,2.51-2.02,3.91h-1.71c-2.05,0-3.72,1.67-3.72,3.72v11.55c0,5.01,2.7,9.65,7.03,12.15-.08.43-.13.87-.13,1.32,0,3.72,2.88,6.78,6.53,7.09v.16c0,6.17,5.02,11.19,11.19,11.19s11.19-5.02,11.19-11.19v-15.63c2.44-.3,4.34-2.37,4.34-4.89Zm-19.47-11.82c-.69,0-1.47-1.36-1.47-3.19s.77-3.19,1.47-3.19c.25,0,.83.31.83,3.19s-.58,3.19-.83,3.19Zm-13.23-6.38c.69,0,1.47,1.36,1.47,3.19s-.77,3.19-1.47,3.19c-.25,0-.83-.31-.83-3.19s.58-3.19.83-3.19Zm.65,31.47c0-3.27,2.66-5.92,5.92-5.92s5.92,2.66,5.92,5.92-2.66,5.92-5.92,5.92-5.92-2.66-5.92-5.92Zm27.11-9.51c-2.07,0-3.76-1.69-3.76-3.76s1.69-3.76,3.76-3.76,3.76,1.69,3.76,3.76-1.69,3.76-3.76,3.76Z"/>
        <path class="cls-27" d="m166.69,197.54c-.74,0-1.35.6-1.35,1.35s.6,1.35,1.35,1.35,1.35-.6,1.35-1.35-.6-1.35-1.35-1.35Z"/>
      </g>
      <g>
        <path class="cls-16" d="m94.21,291.02h-33.14c-3.98,0-7.69-2.14-9.69-5.59l-16.57-28.7c-1.99-3.45-1.99-7.74,0-11.18l16.57-28.7c1.99-3.45,5.7-5.59,9.69-5.59h33.14c3.98,0,7.69,2.14,9.69,5.59l16.57,28.7c1.99,3.45,1.99,7.74,0,11.18l-16.57,28.7c-1.99,3.45-5.7,5.59-9.69,5.59Zm-33.14-78.07c-3.38,0-6.53,1.82-8.22,4.74l-16.57,28.7c-1.69,2.93-1.69,6.56,0,9.49l16.57,28.7c1.69,2.93,4.84,4.74,8.22,4.74h33.14c3.38,0,6.53-1.82,8.22-4.74l16.57-28.7c1.69-2.93,1.69-6.56,0-9.49l-16.57-28.7c-1.69-2.93-4.84-4.74-8.22-4.74h-33.14Z"/>
        <g>
          <path class="cls-14" d="m85.91,240v-6.52h-16.53v6.52h-13.41v28.79h43.34v-28.79h-13.41Zm-15.16-5.15h13.79v5.15h-13.79v-5.15Zm27.19,32.57h-40.6v-26.05h40.6v26.05Z"/>
          <polygon class="cls-21" points="78.33 249.64 76.96 249.64 76.96 253.71 72.89 253.71 72.89 255.08 76.96 255.08 76.96 259.15 78.33 259.15 78.33 255.08 82.4 255.08 82.4 253.71 78.33 253.71 78.33 249.64"/>
        </g>
      </g>
      <g>
        <polygon class="cls-6" points="202.94 171.46 199.42 148.61 196.4 159.37 184.68 159.37 184.68 158.41 195.97 158.41 199.6 145.46 203.11 168.29 207.9 151 210.7 162.8 213.14 153.05 214.89 158.37 229.05 158.37 229.05 159.33 214.49 159.33 213.22 155.49 210.69 165.62 207.85 153.7 202.94 171.46"/>
        <polygon class="cls-15" points="238.84 171.46 235.32 148.61 232.31 159.37 220.59 159.37 220.59 158.41 231.87 158.41 235.5 145.46 239.02 168.29 243.8 151 246.6 162.8 249.05 153.05 250.79 158.37 264.96 158.37 264.96 159.33 250.39 159.33 249.13 155.49 246.59 165.62 243.75 153.7 238.84 171.46"/>
      </g>
      <g>
        <path class="cls-9" d="m165.96,274.87c-1.36-.75-2.97-1.01-4.51-.98-1.33.03-2.67.31-3.87.9-1.26.61-2.36,2.08-3.84,2.08-.93,0-1.57-.69-2.28-1.19-4.27-3-11.05-1.9-13.64,2.81-1.61,2.92-1.9,6.87-.12,9.78,5.78,9.46,6.01,17.76,8.55,18.55,2.35.73,3.52-2.51,3.52-6.74,0-3.3,2.21-4.03,3.97-4.08,1.76.05,3.97.78,3.97,4.08,0,4.23,1.17,7.47,3.52,6.74,2.54-.79,2.77-9.09,8.55-18.55,1.65-2.69,1.38-6.19.21-9.13-.55-1.39-1.8-3.02-4.04-4.26Z"/>
        <path class="cls-13" d="m149.86,278.73s1.94,1.31,4.06,1.31,3.54-1.31,3.54-1.31"/>
      </g>
      <polygon class="cls-22" points="172.48 266.49 171.11 266.49 171.11 270.57 167.04 270.57 167.04 271.94 171.11 271.94 171.11 276.01 172.48 276.01 172.48 271.94 176.55 271.94 176.55 270.57 172.48 270.57 172.48 266.49"/>
      <path class="cls-7" d="m206.33,114.71h-5.92c-.91,0-1.75-.49-2.21-1.27l-2.96-5.13c-.45-.79-.45-1.76,0-2.55l2.96-5.13c.45-.79,1.3-1.27,2.21-1.27h5.92c.91,0,1.75.49,2.21,1.27l2.96,5.13c.45.79.45,1.76,0,2.55l-2.96,5.13c-.45.79-1.3,1.27-2.21,1.27Zm-5.92-13.95c-.41,0-.79.22-.99.57l-2.96,5.13c-.2.35-.2.79,0,1.15l2.96,5.13c.2.35.58.57.99.57h5.92c.41,0,.79-.22.99-.57l2.96-5.13c.2-.35.2-.79,0-1.15l-2.96-5.13c-.2-.35-.58-.57-.99-.57h-5.92Z"/>
      <g>
        <path class="cls-24" d="m244.43,284.87h-33.14c-3.98,0-7.69-2.14-9.69-5.59l-16.57-28.7c-1.99-3.45-1.99-7.74,0-11.18l16.57-28.7c1.99-3.45,5.7-5.59,9.69-5.59h33.14c3.98,0,7.69,2.14,9.69,5.59l16.57,28.7c1.99,3.45,1.99,7.74,0,11.18l-16.57,28.7c-1.99,3.45-5.7,5.59-9.69,5.59Zm-33.14-78.07c-3.38,0-6.53,1.82-8.22,4.74l-16.57,28.7c-1.69,2.93-1.69,6.56,0,9.49l16.57,28.7c1.69,2.93,4.84,4.74,8.22,4.74h33.14c3.38,0,6.53-1.82,8.22-4.74l16.57-28.7c1.69-2.93,1.69-6.56,0-9.49l-16.57-28.7c-1.69-2.93-4.84-4.74-8.22-4.74h-33.14Z"/>
        <path class="cls-10" d="m223.63,243.28h17.53c5.04,0-17.53-9.86-17.53,0h0Zm-3.82-8.04c1.61,0,2.83,1.2,2.83,2.81s-1.22,2.83-2.83,2.83h0c1.41.4,2.83,1.01,2.83,2.01v.4h-8.67v-2.22c0-.39.19-.59.4-.8.21-.19,2.21,0,4.22.42-1-.61-1.61-1.41-1.61-2.63,0-1.61,1.22-2.81,2.83-2.81h0Zm26.79,17.5c1.2.61,2.21,2.02,2.21,3.63,0,2.22-1.81,4.22-4.22,4.22-2.21,0-4.05-2.01-4.05-4.22,0-1.6.8-3.02,2.22-3.63v-4.41h-29.6v4.41c1.2.82,2.01,2.22,2.01,3.63,0,2.22-1.81,4.22-4.22,4.22-2.21,0-4.05-2.01-4.05-4.22,0-1.6,1.03-3.02,2.42-3.63v-23.34h3.84v14.9h29.6v-8.86h3.84v17.3Z"/>
      </g>
      <path class="cls-11" d="m169.22,159.82h-15.84c-2.43,0-4.69-1.31-5.9-3.41l-7.92-13.72c-1.21-2.1-1.21-4.72,0-6.82l7.92-13.72c1.21-2.1,3.48-3.41,5.9-3.41h15.84c2.43,0,4.69,1.31,5.9,3.41l7.92,13.72c1.21,2.1,1.21,4.72,0,6.82l-7.92,13.72c-1.21,2.1-3.48,3.41-5.9,3.41Zm-15.84-37.32c-1.09,0-2.11.59-2.66,1.53l-7.92,13.72c-.55.95-.55,2.12,0,3.07l7.92,13.72c.55.95,1.56,1.53,2.66,1.53h15.84c1.09,0,2.11-.59,2.66-1.53l7.92-13.72c.55-.95.55-2.12,0-3.07l-7.92-13.72c-.55-.94-1.56-1.53-2.66-1.53h-15.84Z"/>
    </g>
  </g>
</svg>